<svg xmlns="http://www.w3.org/2000/svg" viewBox="0 0 234.18 254.08"><defs><style>.a{fill:#fff;}</style></defs><path class="a" d="M234.15,176.33a75.9,75.9,0,0,1-6.85,29.78,65.63,65.63,0,0,1-18.85,24,76.17,76.17,0,0,1-26.22,13.43h0l-.09,0a7.81,7.81,0,0,1-9.81-5.05,8.11,8.11,0,0,1-.34-1.74q-.72-8.68-2.15-17.29c-.08-.46-.17-.92-.25-1.38L165.4,223l-4.9,5.64a8.87,8.87,0,0,1-10.56,2.15l-.55-.27a48.31,48.31,0,0,0-10.57-3.78,49.41,49.41,0,0,0-22.26,0A48.12,48.12,0,0,0,106,230.56l-.54.27a8.89,8.89,0,0,1-10.57-2.15L90,223l-4.19-4.92c-.08.46-.17.92-.24,1.38-.48,2.86-.9,5.74-1.26,8.62s-.66,5.76-.9,8.66h0A7.77,7.77,0,0,1,75,243.93a7.54,7.54,0,0,1-2.7-.71l-.13-.06A126.6,126.6,0,0,1,4.35,161.6,127.76,127.76,0,0,1,22.5,56.07,129.16,129.16,0,0,1,115.32.72a123.26,123.26,0,0,1,28,.16c4.59.55,9.11,1.27,13.63,2.2q1.69.34,3.42.75l1.81.44.65.18.43.13.85.26,3.39,1c1.13.36,2.24.79,3.35,1.18a124.34,124.34,0,0,1,47.05,30.75l0,0a12.57,12.57,0,1,1-18.11,17.45l-.2-.21a99.9,99.9,0,0,0-37.15-25.58c-.88-.33-1.75-.7-2.65-1l-2.69-.9a50.1,50.1,0,0,0-5.21-1.4c-3.8-.88-7.69-1.59-11.54-2.14a105.25,105.25,0,0,0-11.44-1,108.2,108.2,0,0,0-11.51.32A106.34,106.34,0,0,0,73.59,36.91,108.55,108.55,0,0,0,20.67,110.4,109.6,109.6,0,0,0,69.18,223.5c.3-2.19.62-4.39,1-6.57.52-3.08,1.1-6.16,1.74-9.21l1.86-8.85A7.79,7.79,0,0,1,86.9,195l.23.22h0c1.83,1.7,3.64,3.41,5.44,5.15l5.35,5.22,5.28,5.29.39.39a62.24,62.24,0,0,1,39.8-2.85,65.38,65.38,0,0,1,8.4,2.85l.39-.39,5.28-5.29,5.35-5.22c1.79-1.74,3.61-3.45,5.44-5.15l.76-.7a7.55,7.55,0,0,1,12.6,4.38h0l1.86,8.84c.65,3.05,1.23,6.13,1.74,9.21.41,2.45.77,4.92,1.1,7.39a56.28,56.28,0,0,0,10.34-7.82,47.85,47.85,0,0,0,7-8.5,47,47,0,0,0,4.75-9.75c4.86-13.77,3.68-29.84-2.77-42.18a43.11,43.11,0,0,0-31.1-23,47.68,47.68,0,0,0-19.65.69,49.58,49.58,0,0,0-17.63,8.35A17.53,17.53,0,1,1,116.39,114c.46-.33.92-.65,1.39-.93l.33-.19a83.2,83.2,0,0,1,30.94-11.11,78.9,78.9,0,0,1,32.61,2,72.79,72.79,0,0,1,28.66,15.62,70.75,70.75,0,0,1,18.43,26.35A76.69,76.69,0,0,1,234.15,176.33Zm-107.07,9.84a3.58,3.58,0,0,0,4.13-2.92l3-17.32a6.74,6.74,0,0,0,0-2.24,6.6,6.6,0,1,0-13,2.24l3,17.32A3.58,3.58,0,0,0,127.08,186.17ZM99.87,168.53A6.6,6.6,0,1,0,89.73,177L101,190.48a3.57,3.57,0,0,0,6.1-3.53L101,170.47A6.66,6.66,0,0,0,99.87,168.53Zm54.54,21.95L165.65,177a6.6,6.6,0,1,0-11.26-6.5L148.31,187a3.57,3.57,0,0,0,6.1,3.53Zm-45.66,48.46a7.57,7.57,0,1,0,7.58,7.57A7.57,7.57,0,0,0,108.75,238.94Zm37.87,0a7.57,7.57,0,1,0,7.58,7.57A7.57,7.57,0,0,0,146.62,238.94Z"/></svg>