<?xml version="1.0" encoding="utf-8"?>
<!-- Generator: Adobe Illustrator 25.0.1, SVG Export Plug-In . SVG Version: 6.00 Build 0)  -->
<svg version="1.0" id="Layer_1" xmlns="http://www.w3.org/2000/svg" xmlns:xlink="http://www.w3.org/1999/xlink" x="0px" y="0px"
	 viewBox="0 0 16 16" style="enable-background:new 0 0 16 16;" xml:space="preserve">
<style type="text/css">
	.st0{fill:#FFFFFF;}
</style>
<path class="st0" d="M15.2,11c0,1.9-1.3,3.6-3.2,4.1h0c-0.9,0.2-0.6-1-0.8-1.6c-0.1,0.2-0.4,0.5-0.6,0.6c-0.2,0.2-0.4,0.2-0.6,0.1
	C9.4,14.1,8.7,14,8,14.1c-0.4,0.1-0.9,0.6-1.3,0.1c-0.1-0.2-0.4-0.5-0.6-0.7c-0.2,0.5,0.1,1.6-0.7,1.6c-2.2-0.9-3.7-2.8-4.3-5.1
	c-1.7-5.7,4-11.3,9.7-9.7l0,0c0.1,0,0.2,0.1,0.3,0.1c0.9,0.3,4.1,1.8,3.1,3.1c-0.3,0.3-0.8,0.3-1.1,0c-0.8-0.8-1.8-1.5-2.9-1.8
	C2.9,0.1-1.2,9.9,5.1,13.9c0.1-0.5,0.2-1,0.3-1.5c0.1-0.4,0.6-0.5,0.8-0.2c0.3,0.3,0.7,0.7,1,1c0.9-0.4,2-0.4,3,0
	c0.2-0.2,0.5-0.5,0.7-0.7c0.1-0.1,0.3-0.2,0.4-0.4c0.3-0.3,0.7-0.1,0.8,0.3c0.1,0.5,0.2,1.1,0.3,1.6c3.5-2.1,0.5-7.5-3-5
	C8.1,9.8,6.7,8,8,7.2c0,0,0.1,0,0.1-0.1C11.1,5.2,15.4,7.3,15.2,11z"/>
<path class="st0" d="M8.6,11.6c0.1,0,0.2-0.1,0.3-0.2c0-0.1,0.2-1.1,0.2-1.2C9,9.7,8.1,9.9,8.3,10.4C8.4,10.8,8.4,11.6,8.6,11.6z"/>
<path class="st0" d="M6.9,10.5c-0.3-0.4-1,0.1-0.6,0.5l0,0L7,11.9c0.1,0.1,0.2,0.1,0.3,0c0.1-0.1,0.1-0.2,0.1-0.2
	C7.4,11.6,7,10.6,6.9,10.5z"/>
<path class="st0" d="M10.3,11.9l0.7-0.8c0.3-0.4-0.3-0.9-0.6-0.5c-0.1,0-0.4,1.1-0.4,1.1C9.8,11.9,10.1,12.1,10.3,11.9L10.3,11.9z"
	/>
<path class="st0" d="M7.5,14.9c-0.6,0-0.6,0.9,0,0.9C8.1,15.8,8.1,14.9,7.5,14.9z"/>
<path class="st0" d="M9.8,14.9c-0.6,0-0.6,0.9,0,0.9C10.4,15.8,10.4,14.9,9.8,14.9z"/>
</svg>
