<svg width="121" height="121" viewBox="0 0 121 121" fill="none" xmlns="http://www.w3.org/2000/svg">
<path d="M38.3001 30.2001C38.3001 34.7001 34.7001 38.3001 30.2001 38.3001C25.7001 38.3001 22.1001 34.7001 22.1001 30.2001C22.1001 25.7001 25.7001 22.1001 30.2001 22.1001C34.7001 22.1001 38.3001 25.8001 38.3001 30.2001Z" fill="white"/>
<path d="M49.5 0H10.9C4.89999 0 0 4.9 0 10.9V49.5C0 55.5 4.89999 60.4 10.9 60.4H49.5C55.5 60.4 60.4 55.5 60.4 49.5V10.9C60.4 4.9 55.5 0 49.5 0ZM30.2 45.3C21.8 45.3 15.1 38.5 15.1 30.2C15.1 21.9 21.9 15.1 30.2 15.1C38.5 15.1 45.3 21.9 45.3 30.2C45.3 38.6 38.5 45.3 30.2 45.3Z" fill="white"/>
<path d="M109.9 0H71.3C65.3 0 60.4 4.9 60.4 10.9V49.5C60.4 55.5 65.3 60.4 71.3 60.4H109.9C115.9 60.4 120.8 55.5 120.8 49.5V10.9C120.8 4.9 115.9 0 109.9 0ZM113.8 49.5C113.8 51.7 112 53.4 109.9 53.4H71.3C69.1 53.4 67.4 51.6 67.4 49.5V10.9C67.4 8.7 69.2 7 71.3 7H109.9C112.1 7 113.8 8.8 113.8 10.9V49.5Z" fill="white"/>
<path d="M49.5 60.3999H10.9C4.89999 60.3999 0 65.2999 0 71.2999V109.9C0 115.9 4.89999 120.8 10.9 120.8H49.5C55.5 120.8 60.4 115.9 60.4 109.9V71.3999C60.4 65.2999 55.5 60.3999 49.5 60.3999ZM53.4 109.9C53.4 112.1 51.6 113.8 49.5 113.8H10.9C8.69999 113.8 7 112 7 109.9V71.3999C7 69.1999 8.79999 67.4999 10.9 67.4999H49.5C51.7 67.4999 53.4 69.2999 53.4 71.3999V109.9Z" fill="white"/>
<path d="M98.7 90.7001C98.7 95.2001 95.1 98.8001 90.6 98.8001C86.1 98.8001 82.5 95.2001 82.5 90.7001C82.5 86.2001 86.1 82.6001 90.6 82.6001C95.1 82.6001 98.7 86.2001 98.7 90.7001Z" fill="white"/>
<path d="M109.9 60.3999H71.2999C65.2999 60.3999 60.3999 65.2999 60.3999 71.2999V109.9C60.3999 115.9 65.2999 120.8 71.2999 120.8H109.9C115.9 120.8 120.8 115.9 120.8 109.9V71.3999C120.8 65.2999 115.9 60.3999 109.9 60.3999ZM90.5999 105.8C82.2999 105.8 75.4999 98.9999 75.4999 90.6999C75.4999 82.3999 82.2999 75.5999 90.5999 75.5999C98.8999 75.5999 105.7 82.3999 105.7 90.6999C105.7 98.9999 98.9999 105.8 90.5999 105.8Z" fill="white"/>
<path d="M90.6 30.2002C82.3 30.2002 75.5 37.0002 75.5 45.3002C75.5 48.3002 76.4 51.1002 77.9 53.4002C80.6 57.6002 85.3 60.4002 90.6 60.4002C96 60.4002 100.7 57.6002 103.3 53.4002C104.8 51.1002 105.7 48.3002 105.7 45.3002C105.7 37.0002 99 30.2002 90.6 30.2002ZM82.5 45.3002C82.5 40.8002 86.1 37.2002 90.6 37.2002C95.1 37.2002 98.7 40.8002 98.7 45.3002C98.7 49.8002 95.1 53.4002 90.6 53.4002C86.1 53.4002 82.5 49.8002 82.5 45.3002Z" fill="white"/>
<path d="M42.8999 67.3999C40.1999 63.1999 35.4999 60.3999 30.0999 60.3999C24.6999 60.3999 19.9999 63.1999 17.2999 67.3999C15.7999 69.6999 14.8999 72.4999 14.8999 75.4999C14.8999 83.7999 21.6999 90.5999 29.9999 90.5999C38.2999 90.5999 45.0999 83.7999 45.0999 75.4999C45.2999 72.5999 44.3999 69.7999 42.8999 67.3999ZM30.1999 83.6999C25.6999 83.6999 22.0999 80.0999 22.0999 75.5999C22.0999 71.0999 25.6999 67.4999 30.1999 67.4999C34.6999 67.4999 38.2999 71.0999 38.2999 75.5999C38.2999 80.0999 34.6999 83.6999 30.1999 83.6999Z" fill="white"/>
<path d="M38.3001 30.2001C38.3001 34.7001 34.7001 38.3001 30.2001 38.3001C25.7001 38.3001 22.1001 34.7001 22.1001 30.2001C22.1001 25.7001 25.7001 22.1001 30.2001 22.1001C34.7001 22.1001 38.3001 25.8001 38.3001 30.2001Z" fill="white"/>
<path d="M98.7 90.7001C98.7 95.2001 95.1 98.8001 90.6 98.8001C86.1 98.8001 82.5 95.2001 82.5 90.7001C82.5 86.2001 86.1 82.6001 90.6 82.6001C95.1 82.6001 98.7 86.2001 98.7 90.7001Z" fill="white"/>
</svg>
