<svg width="198" height="121" viewBox="0 0 198 121" fill="none" xmlns="http://www.w3.org/2000/svg">
<path d="M21.8001 120.1C25.5004 120.1 28.5001 117.101 28.5001 113.4C28.5001 109.7 25.5004 106.7 21.8001 106.7C18.0998 106.7 15.1001 109.7 15.1001 113.4C15.1001 117.101 18.0998 120.1 21.8001 120.1Z" fill="white"/>
<path d="M186.7 86.4001L159.8 0.100098H127.2H125.8H80.5998H60.6998C57.0998 0.100098 54.1998 3.0001 54.1998 6.6001V6.9001C54.1998 10.5001 57.0998 13.4001 60.6998 13.4001H80.5998H99.5998C103.2 13.4001 106.1 16.3001 106.1 19.9001V20.2001C106.1 23.8001 103.2 26.7001 99.5998 26.7001H70.1998C66.5998 26.7001 63.6998 29.6001 63.6998 33.2001V33.5001C63.6998 37.1001 66.5998 40.0001 70.1998 40.0001H80.5998H104.7C108.3 40.0001 111.2 42.9001 111.2 46.5001V46.8001C111.2 50.4001 108.3 53.3001 104.7 53.3001H80.5998H51.5998C47.9998 53.3001 45.0998 56.2001 45.0998 59.8001V60.2001C45.0998 63.8001 47.9998 66.7001 51.5998 66.7001H80.5998H82.1998C85.7998 66.7001 88.6998 69.6001 88.6998 73.2001V73.5001C88.6998 77.1001 85.7998 80.0001 82.1998 80.0001H80.5998H59.7998C56.1998 80.0001 53.2998 82.9001 53.2998 86.5001V86.8001C53.2998 90.4001 56.1998 93.3001 59.7998 93.3001H85.1998C88.7998 93.3001 91.6998 96.2001 91.6998 99.8001V100.1C91.6998 103.7 88.7998 106.6 85.1998 106.6H80.5998H40.2998C36.6998 106.6 33.7998 109.5 33.7998 113.1V113.4C33.7998 117 36.6998 119.9 40.2998 119.9H80.5998H87.6998H89.7998H117.6L121 106.6L124.4 93.3001L124.9 91.4001H129.4H161L168.3 119.9H186.6H197.1L186.7 86.4001ZM130.5 70.4001L131.4 66.8001L133.3 59.4001C133.8 57.5001 134.3 55.5001 134.8 53.5001C135.9 49.0001 137.1 44.3001 138.2 39.5001C139 36.1001 139.8 32.7001 140.6 29.4001C141.3 26.5001 142 23.5001 142.6 20.7001H143.3C146.2 33.4001 149.8 47.4001 152.9 59.4001L155.7 70.4001H130.5Z" fill="white"/>
<path d="M28.3999 60.0999C28.3999 63.7999 31.3999 66.7999 35.0999 66.7999C38.7999 66.7999 41.7999 63.7999 41.7999 60.0999C41.7999 56.3999 38.7999 53.3999 35.0999 53.3999C31.3999 53.3999 28.3999 56.3999 28.3999 60.0999Z" fill="white"/>
<path d="M44.6001 86.7C44.6001 83 41.6001 80 37.9001 80H29.8001C26.1001 80 23.1001 83 23.1001 86.7C23.1001 90.4 26.1001 93.4 29.8001 93.4H37.9001C41.6001 93.4 44.6001 90.4 44.6001 86.7Z" fill="white"/>
<path d="M33.8001 40.1002H52.2001C55.9001 40.1002 58.9001 37.1002 58.9001 33.4002C58.9001 29.7002 55.9001 26.7002 52.2001 26.7002H33.8001C30.1001 26.7002 27.1001 29.7002 27.1001 33.4002C27.2001 37.1002 30.2001 40.1002 33.8001 40.1002Z" fill="white"/>
<path d="M35.1 13.4H41.7C45.4 13.4 48.4 10.4 48.4 6.7C48.4 3 45.4 0 41.7 0H35.1C31.4 0 28.4 3 28.4 6.7C28.4 10.4 31.4 13.4 35.1 13.4Z" fill="white"/>
<path d="M24.7 60.0999C24.7 56.3999 21.7 53.3999 18 53.3999H6.7C3 53.3999 0 56.3999 0 60.0999C0 63.7999 3 66.7999 6.7 66.7999H18C21.7 66.6999 24.7 63.7999 24.7 60.0999Z" fill="white"/>
</svg>
