<svg width="126" height="121" viewBox="0 0 126 121" fill="none" xmlns="http://www.w3.org/2000/svg">
<path d="M51.1 55.8998C50.3 54.7998 49.4 53.7998 48.4 52.8998C43.3 47.8998 36.3 44.7998 28.6 44.7998C12.8 44.7998 0 57.5998 0 73.2998C0 88.9998 12.8 101.8 28.5 101.8C44.2 101.8 57 88.9998 57 73.2998C57 66.7998 54.8 60.6998 51.1 55.8998ZM28.5 90.3998C19.1 90.3998 11.4 82.6998 11.4 73.2998C11.4 63.8998 19.1 56.1998 28.5 56.1998C32.8 56.1998 36.8 57.7998 39.8 60.4998C40.8 61.3998 41.7 62.3998 42.5 63.4998C44.4 66.2998 45.6 69.5998 45.6 73.2998C45.6 82.7998 37.9 90.3998 28.5 90.3998Z" fill="white"/>
<path d="M108.5 17.6C108.5 26.6 101.7 34.1 93 35.1C92.3 35.2 91.7 35.2 91 35.2C90.3 35.2 89.6 35.2 89 35.1C85.3 34.7 82 33.1 79.4 30.8C78.4 29.9 77.5 28.9 76.7 27.8C74.7 24.9 73.5 21.5 73.5 17.7C73.4 7.9 81.2 0 90.9 0C100.7 0 108.5 7.9 108.5 17.6Z" fill="white"/>
<path d="M125.6 73.3C125.6 78.7 121.2 83.1 115.8 83.1C114.4 83.1 113.1 82.8 111.9 82.3C110.6 81.7 109.5 80.9 108.6 79.9C107 78.2 106 75.8 106 73.3C106 67.9 110.4 63.5 115.8 63.5C121.2 63.5 125.6 67.9 125.6 73.3Z" fill="white"/>
<path d="M99.4002 99.8998C98.4002 98.8998 97.3002 98.0998 96.1002 97.4998C95.1002 96.9998 94.1002 96.6998 93.0002 96.4998C92.3002 96.3998 91.7002 96.2998 91.0002 96.2998C90.3002 96.2998 89.6002 96.3998 89.0002 96.4998C83.4002 97.4998 79.2002 102.3 79.2002 108.2C79.2002 114.8 84.5002 120.1 91.1002 120.1C97.7002 120.1 103 114.8 103 108.2C102.8 105 101.5 102.1 99.4002 99.8998ZM90.9002 114.5C87.5002 114.5 84.7002 111.7 84.7002 108.3C84.7002 105.6 86.4002 103.3 88.8002 102.5C89.4002 102.3 90.1002 102.1 90.8002 102.1C92.9002 102.1 94.7002 103.1 95.8002 104.7C96.5002 105.7 96.9002 106.9 96.9002 108.3C97.1002 111.7 94.4002 114.5 90.9002 114.5Z" fill="white"/>
<path d="M78.6002 26.2999L77.0002 23.8999L44.7002 52.7999L46.6002 54.6999C47.5002 55.4999 48.3002 56.4999 49.1002 57.4999L50.7002 59.5999L83.0002 30.6999L80.9002 28.7999C80.0002 28.0999 79.3002 27.1999 78.6002 26.2999Z" fill="white"/>
<path d="M112.9 79.9997C112 79.5997 111.1 78.9997 110.4 78.1997L108.3 75.8997L95.5004 94.0997V32.1997L92.7004 32.4997C91.6004 32.5997 90.4004 32.5997 89.2004 32.4997L86.4004 32.1997V99.5997L89.4004 99.0997C90.4004 98.8997 91.6004 98.8997 92.6004 99.0997L94.0004 99.3997L95.1004 99.8997C96.1004 100.4 97.0004 101 97.7004 101.8L99.8004 103.9L115.9 81.2997L112.9 79.9997Z" fill="white"/>
</svg>
