<svg xmlns="http://www.w3.org/2000/svg" viewBox="0 0 825.07 379.27"><defs><style>.a{fill:#ce330f;}.b{fill:#2b1d13;}.c{fill:#e8e8e8;}</style></defs><path class="a" d="M781.12,59.7h-8.55V57.46A12.75,12.75,0,0,0,759.82,44.7H714.33a12.76,12.76,0,0,0-12.76,12.76V70.94A12.66,12.66,0,0,0,703,76.7h-5a12.36,12.36,0,0,0-12.36,12.35v5.29a12.36,12.36,0,0,0,12.36,12.36h36.29a12.36,12.36,0,0,0,12.29-11.08,15.16,15.16,0,0,0,1.52.08h33.09a15.45,15.45,0,0,0,15.45-15.45v-5.1A15.45,15.45,0,0,0,781.12,59.7Z"/><path class="b" d="M781.12,57.19h-6a15.28,15.28,0,0,0-15.25-15H714.33a15.27,15.27,0,0,0-15.25,15.26V70.94c0,.54,0,1.07.08,1.6a14.93,14.93,0,0,0,.27,1.65h-1.5a13.28,13.28,0,0,0-1.9.13,14.24,14.24,0,0,0-4.44,1.3l-.25.12a15,15,0,0,0-2.75,1.77,14.14,14.14,0,0,0-1.16,1,14.63,14.63,0,0,0-1.81,2.19,14.4,14.4,0,0,0-1.27,2.31,14.63,14.63,0,0,0-1.27,6v5.29a14.86,14.86,0,0,0,14.85,14.85h36.29a14.81,14.81,0,0,0,14.35-11h32.77a18,18,0,0,0,17.74-18V75.15A18,18,0,0,0,781.12,57.19Zm13,23a13,13,0,0,1-13,13H748c-.41,0-.83,0-1.28-.06A2.49,2.49,0,0,0,744,95.36a10.06,10.06,0,0,1-.18,1.12,9.81,9.81,0,0,1-9.62,7.71H697.93a9.86,9.86,0,0,1-9.85-9.85V89.05a9.69,9.69,0,0,1,1.37-5,9.83,9.83,0,0,1,8.48-4.86h5A2.53,2.53,0,0,0,705.09,78a2.6,2.6,0,0,0,.37-1.27,2.67,2.67,0,0,0-.27-1.17,10.57,10.57,0,0,1-.67-1.65,10.27,10.27,0,0,1-.44-3V57.45a10.27,10.27,0,0,1,10.25-10.26h45.49a10.28,10.28,0,0,1,10.26,10.26v2.24a2.49,2.49,0,0,0,2.5,2.5h8.54a13,13,0,0,1,13,13Z"/><path class="a" d="M149.8,171.7H138.57V150a7.3,7.3,0,0,0-7.3-7.31H108.88a7.31,7.31,0,0,0-7.31,7.31v3.69H75.75a9.18,9.18,0,0,0-9.18,9.18v14.64a9.18,9.18,0,0,0,9.18,9.18H87.57v24.22a7.78,7.78,0,0,0,7.78,7.78H149.8a7.77,7.77,0,0,0,7.77-7.78V179.47A7.77,7.77,0,0,0,149.8,171.7Z"/><path class="b" d="M155.08,180.21v24.16a10.72,10.72,0,0,1,2-.18h.51v-24Zm4.07-5a10.28,10.28,0,0,0-9.35-6h-8.72V150a9.82,9.82,0,0,0-9.81-9.81H108.88a9.81,9.81,0,0,0-9.8,9.81v1.19H75.75a11.69,11.69,0,0,0-11.67,11.68v14.65a11.68,11.68,0,0,0,11.67,11.67h9.33v21.73a9.1,9.1,0,0,0,.1,1.39,10.09,10.09,0,0,0,2.16,5,10.22,10.22,0,0,0,8,3.86H149.8a10.86,10.86,0,0,0,1.28-.08,10.28,10.28,0,0,0,9-10.19V179.47A10.13,10.13,0,0,0,159.15,175.21Zm-4.07,35.71a5.28,5.28,0,0,1-4,5.11,4.93,4.93,0,0,1-1.28.16H95.35a5.29,5.29,0,0,1-5.27-5.27V186.69a2.5,2.5,0,0,0-2.5-2.5H75.75a6.67,6.67,0,0,1-6.67-6.67V162.87a6.68,6.68,0,0,1,6.67-6.68h25.83a2.49,2.49,0,0,0,2.5-2.5V150a4.81,4.81,0,0,1,4.8-4.81h22.39a4.81,4.81,0,0,1,4.81,4.81v21.69a2.44,2.44,0,0,0,.17.9,2.47,2.47,0,0,0,2.33,1.6H149.8a5.29,5.29,0,0,1,5.28,5.28Z"/><path class="a" d="M413.67,36.7h19.81a9.09,9.09,0,0,1,9,8H478a10.52,10.52,0,0,1,10.53,10.53V63.7h14.09a9.92,9.92,0,0,1,9.91,9.92v7.16a9.92,9.92,0,0,1-9.91,9.92H470.49a9.92,9.92,0,0,1-9.92-9.92V79.7H434.11a10.54,10.54,0,0,1-10.54-10.53V62.7h-9.9a9.1,9.1,0,0,1-9.1-9.1V45.8A9.1,9.1,0,0,1,413.67,36.7Z"/><path class="b" d="M511.94,65.37a12.72,12.72,0,0,0-3-2.45h0A13.25,13.25,0,0,0,507.1,62a12.16,12.16,0,0,0-4.44-.83H491.08v-6c0-.1,0-.2,0-.3a12.2,12.2,0,0,0-.13-1.61c0-.29-.1-.59-.16-.88A13,13,0,0,0,478,42.19H444.5a11.61,11.61,0,0,0-11-8H413.67a11.61,11.61,0,0,0-11.59,11.6V53.6a11.2,11.2,0,0,0,.39,3A11,11,0,0,0,403.4,59,11.66,11.66,0,0,0,405,61.29a11.6,11.6,0,0,0,8.66,3.9h7.41v4A13.08,13.08,0,0,0,422,74a13,13,0,0,0,12.11,8.23h24.05a12.42,12.42,0,0,0,12.33,11h32.17a12.44,12.44,0,0,0,12.42-12.41V73.61A12.38,12.38,0,0,0,511.94,65.37Zm-1.86,15.41a7.42,7.42,0,0,1-7.42,7.41H470.49a7.41,7.41,0,0,1-7.41-7.41V79.69a2.5,2.5,0,0,0-2.5-2.5H434.11a8,8,0,0,1-7-4.08,8,8,0,0,1-1-4V62.69a2.5,2.5,0,0,0-2.5-2.5h-9.91A6.59,6.59,0,0,1,409,58.27a6.35,6.35,0,0,1-1.5-2.34,6.23,6.23,0,0,1-.44-2.33V45.79a6.6,6.6,0,0,1,6.59-6.6h19.81A6.6,6.6,0,0,1,440,45a2.5,2.5,0,0,0,2.48,2.2H478a8.08,8.08,0,0,1,7.59,5.38c.08.24.16.5.22.75a7.77,7.77,0,0,1,.23,1.75v8.62a1.93,1.93,0,0,0,0,.24,2.49,2.49,0,0,0,2.49,2.26h14.08a7.43,7.43,0,0,1,7.42,7.42Z"/><path class="a" d="M112.37,273.7H75.78a7.21,7.21,0,0,0-7.21,7.21V299.7H42.7a7.13,7.13,0,0,0-7.13,7.13V339.7H26.43a5.86,5.86,0,0,0-5.86,5.85v23.29a5.86,5.86,0,0,0,5.86,5.86H70.72a5.85,5.85,0,0,0,5.85-5.86V360.7H80.9A5.67,5.67,0,0,0,86.57,355V350.7h2.88a7.13,7.13,0,0,0,7.12-7.13V311.7h15.8a7.2,7.2,0,0,0,7.2-7.21V280.91A7.2,7.2,0,0,0,112.37,273.7Z"/><path class="b" d="M33.52,342.19h2.06a2.49,2.49,0,0,0,2.5-2.5v-1.63Zm84.28-69.33a9.63,9.63,0,0,0-2.41-1.18,9.46,9.46,0,0,0-3-.49H75.78a9.14,9.14,0,0,0-2.17.25,9.7,9.7,0,0,0-6.44,5,9.58,9.58,0,0,0-1.09,4.46v16.29H42.7a9.54,9.54,0,0,0-5.08,1.45,9.64,9.64,0,0,0-4.54,8.18v30.37H26.43a8.36,8.36,0,0,0-8.35,8.36v23.29a8.35,8.35,0,0,0,8.35,8.35H70.72a8.36,8.36,0,0,0,8.36-8.35v-5.65H80.9A8.18,8.18,0,0,0,89.08,355v-1.83h.37a9.63,9.63,0,0,0,9.63-9.62V314.19h13.29a9.72,9.72,0,0,0,9.71-9.71V280.9A9.71,9.71,0,0,0,117.8,272.86ZM94.08,343.57a4.63,4.63,0,0,1-4.63,4.62H86.58a2.49,2.49,0,0,0-2.5,2.5V355a3.18,3.18,0,0,1-3.18,3.17H76.58a2.49,2.49,0,0,0-2.5,2.5v8.15a3.36,3.36,0,0,1-3.36,3.35H26.43a3.35,3.35,0,0,1-3.35-3.35V345.55a3.36,3.36,0,0,1,3.35-3.36h9.15a2.49,2.49,0,0,0,2.5-2.5V306.82a4.63,4.63,0,0,1,4.62-4.63H68.58a2.49,2.49,0,0,0,2.5-2.5V280.9a4.7,4.7,0,0,1,4.7-4.71h36.59a4.43,4.43,0,0,1,1.46.24,4.73,4.73,0,0,1,3.25,4.47v23.58a4.72,4.72,0,0,1-4.71,4.71H96.58a2.49,2.49,0,0,0-2.5,2.5Z"/><rect class="a" x="346.57" y="57.7" width="12" height="12" rx="2.53"/><path class="b" d="M359.79,56.88A5,5,0,0,0,356,55.19h-6.93a4.68,4.68,0,0,0-1.19.15,3.09,3.09,0,0,0-.59.18,4.65,4.65,0,0,0-1.32.75,4.84,4.84,0,0,0-1,1.06,4.74,4.74,0,0,0-.79,1.79,4.5,4.5,0,0,0-.13,1.11v6.93a4.8,4.8,0,0,0,.21,1.43,5,5,0,0,0,4.82,3.6H356A5,5,0,0,0,361,68a4.47,4.47,0,0,0,.07-.82V60.23A4.94,4.94,0,0,0,359.79,56.88Zm-3.71,10.28s0,0,0,0l-4.46,0h-2.5v-2l0-4.93H350l6.13,0Z"/><rect class="a" x="122.57" y="105.7" width="16" height="16" rx="3.23"/><path class="b" d="M140.91,107.57a5.73,5.73,0,0,0-5.08-4.36l-.48,0H125.8a5.73,5.73,0,0,0-5.72,5.73v9.55a5.72,5.72,0,0,0,5.72,5.72h9.55a5.74,5.74,0,0,0,5.73-5.72v-9.55A5.43,5.43,0,0,0,140.91,107.57Zm-4.83,10.9a.73.73,0,0,1-.73.72H125.8a.72.72,0,0,1-.72-.72v-9.55a.73.73,0,0,1,.72-.73h9.55a.73.73,0,0,1,.73.73Z"/><rect class="a" x="630.57" y="121.7" width="14" height="14" rx="3.26"/><path class="b" d="M646.17,121.87a5.74,5.74,0,0,0-4.85-2.68h-7.49a5.64,5.64,0,0,0-2.74.7,5.77,5.77,0,0,0-3,5.06v7.49a5.76,5.76,0,0,0,5.75,5.75h7.49a5.77,5.77,0,0,0,5.76-5.75V125A5.62,5.62,0,0,0,646.17,121.87Zm-4.09,10.57a.76.76,0,0,1-.76.75h-7.49a.76.76,0,0,1-.75-.75V125a.76.76,0,0,1,.75-.76h7.49a.77.77,0,0,1,.76.76Z"/><path class="b" d="M93.11,236.36l-.3,0a2.51,2.51,0,0,1-2.18-2.79c.58-4.8,3.22-9.6,6.26-15.16,2.82-5.14,6-11,7.82-17.51.45-1.62.89-3.25,1.34-4.91,2.36-8.78,4.81-17.86,9.22-27.77,4-8.94,9-17.92,16.71-30,3-4.7,5.05-10,7-15.23,2.6-6.82,5.05-13.27,9.54-18.31a151.82,151.82,0,0,0,9.92-12.92c4.51-6.33,8.77-12.31,13.95-16.57,8.71-7.15,17.86-11.92,25.22-15.76,2.65-1.39,5.15-2.69,7.2-3.9a2.5,2.5,0,0,1,2.53,4.32c-2.16,1.26-4.71,2.6-7.42,4-7.15,3.73-16,8.38-24.36,15.2-4.67,3.83-8.74,9.55-13.05,15.6A155.21,155.21,0,0,1,152.28,108c-3.87,4.35-6.17,10.38-8.6,16.76-2.07,5.41-4.2,11-7.48,16.15-7.6,11.88-12.49,20.66-16.36,29.36-4.26,9.56-6.65,18.45-9,27q-.67,2.5-1.35,4.94c-2,7.11-5.31,13.21-8.25,18.58-2.8,5.11-5.22,9.52-5.69,13.37A2.5,2.5,0,0,1,93.11,236.36Z"/><path class="b" d="M369.57,227.84c-2.23,0-4.49-.08-6.79-.28-7.73-.68-14.79-2.5-21.61-4.26-2.75-.71-5.34-1.38-7.92-2-7.44-1.67-14.34-4.68-20.43-7.33-2.73-1.19-5.31-2.31-7.75-3.24-6.46,1.78-14.5,2.93-23,4.14-2.76.4-5.61.8-8.5,1.24-3.81.58-7.81,2.34-12.05,4.2-6.06,2.67-12.32,5.42-19.42,5.55-2.49,0-5,.13-7.71.24-8.1.3-16.48.61-25.09-.4s-16.32-3.26-23.9-5.44c-2.82-.81-5.49-1.58-8.1-2.25-7.46-1.93-13.84-5.7-19.46-9a81,81,0,0,0-10-5.31,2.5,2.5,0,1,1,1.88-4.63,84,84,0,0,1,10.63,5.64c5.6,3.31,11.39,6.73,18.17,8.49,2.68.69,5.38,1.46,8.24,2.29,7.38,2.12,15,4.32,23.1,5.27s16.4.67,24.32.37c2.7-.1,5.26-.2,7.8-.24,6.09-.11,11.89-2.66,17.5-5.12,4.55-2,8.85-3.89,13.3-4.57,2.92-.44,5.78-.85,8.56-1.25,8.67-1.24,16.86-2.4,23.11-4.22a2.45,2.45,0,0,1,1.56.06c2.79,1,5.7,2.29,8.77,3.62,5.89,2.57,12.57,5.48,19.54,7,2.65.6,5.28,1.28,8.07,2,6.62,1.71,13.48,3.48,20.8,4.13,7.94.7,15.4-.09,22.61-.85,3.31-.35,6.45-.68,9.53-.86a2.5,2.5,0,1,1,.28,5c-3,.17-6,.5-9.29.84A156.49,156.49,0,0,1,369.57,227.84Z"/><path class="b" d="M399.73,156.53h0c-6.91,0-13.87-2.62-20.6-5.13-5.75-2.15-11.7-4.37-17.59-5-6.55-.68-12.49-2.86-18.24-5a82.87,82.87,0,0,0-12.61-3.9c-5-.95-10.45-.12-15.74.68-5.85.89-11.91,1.81-17.36.28-6.76-1.91-12.66-5-18.37-8A103.31,103.31,0,0,0,268,125.2a2.5,2.5,0,0,1,1.76-4.68,107.62,107.62,0,0,1,11.73,5.56c5.48,2.87,11.14,5.84,17.41,7.6,4.41,1.25,9.68.45,15.25-.4s11.61-1.77,17.43-.65a87.5,87.5,0,0,1,13.4,4.12c5.46,2,11.1,4.07,17,4.69,6.52.68,12.77,3,18.82,5.28,6.61,2.46,12.84,4.8,18.85,4.81h0c6.8,0,13.6-3,20.18-5.85,5.67-2.47,11.53-5,17.34-5.62a372,372,0,0,0,37.2-5.52c7.53-1.53,15.33-.54,22.21.34,6.48.82,12.59,1.59,17.25.16a2.5,2.5,0,1,1,1.47,4.78c-5.68,1.75-12.32.91-19.35,0-6.81-.87-13.86-1.76-20.58-.4a379.08,379.08,0,0,1-37.7,5.6c-5,.5-10.28,2.8-15.84,5.23C414.86,153.34,407.58,156.53,399.73,156.53Z"/><path class="b" d="M228.74,118.38a2.5,2.5,0,0,1-1.68-4.36c2.83-2.55,5.06-6.11,7.41-9.88,2.75-4.4,5.59-8.94,9.71-12.36a116.73,116.73,0,0,1,12.29-8.51C260,81,263.65,78.74,267,76.18c3.88-3,8.56-4.87,13.09-6.71,4.06-1.66,8.27-3.37,11.75-5.81a136.7,136.7,0,0,1,13.29-7.95C308.58,53.82,311.84,52,315,50a69.31,69.31,0,0,1,13.67-6.28A69.21,69.21,0,0,0,339.5,39a2.5,2.5,0,0,1,2.54,4.3,73.3,73.3,0,0,1-11.66,5.15c-4.33,1.62-8.81,3.29-12.71,5.8-3.27,2.11-6.76,4-10.14,5.88a133.59,133.59,0,0,0-12.81,7.65c-4,2.77-8.42,4.59-12.75,6.35s-8.58,3.49-11.93,6.05c-3.53,2.7-7.28,5.06-10.9,7.35a110.49,110.49,0,0,0-11.77,8.12c-3.5,2.91-6.12,7.11-8.66,11.17-2.43,3.89-5,7.92-8.3,10.94A2.51,2.51,0,0,1,228.74,118.38Z"/><path class="b" d="M144.07,116.65a2.49,2.49,0,0,1-2.28-1.49c-.47-1-2.3-2.41-4.08-3.73-3.2-2.37-7.17-5.33-8.32-9.93-.81-3.21.35-6.64,1.47-10,.91-2.67,1.84-5.44,1.66-7.85-.15-2.15-.47-4.23-.78-6.25a41.53,41.53,0,0,1-.71-10A85.7,85.7,0,0,1,134,52.6l.33-1.24a2.5,2.5,0,0,1,4.83,1.29l-.33,1.25a80.63,80.63,0,0,0-2.8,14,37.81,37.81,0,0,0,.68,8.82c.32,2.11.65,4.29.82,6.64.25,3.41-.9,6.81-1.91,9.81-.93,2.75-1.81,5.35-1.36,7.14.71,2.86,3.63,5,6.45,7.12,2.4,1.79,4.67,3.48,5.67,5.73a2.5,2.5,0,0,1-1.28,3.3A2.54,2.54,0,0,1,144.07,116.65Z"/><path class="b" d="M304.68,210.54a2.5,2.5,0,0,1-1.67-4.36c1.21-1.08,2.19-3.16,3.23-5.36,1.6-3.37,3.41-7.2,6.95-9.61,2.76-1.87,6.28-2.22,9.69-2.56,2.77-.27,5.63-.56,7.84-1.66a126.41,126.41,0,0,1,15.56-6.79,60.69,60.69,0,0,0,6.78-2.92,38.62,38.62,0,0,1,9.25-3.52,35.06,35.06,0,0,0,8.26-3.14c3-1.43,5.8-2.78,8.64-3a2.5,2.5,0,1,1,.3,5c-1.87.12-4.26,1.26-6.78,2.47a39.42,39.42,0,0,1-9.47,3.53,35,35,0,0,0-8,3.13,66.28,66.28,0,0,1-7.35,3.15A120.34,120.34,0,0,0,333,191.47c-3,1.51-6.51,1.85-9.58,2.16-2.91.29-5.66.56-7.37,1.72-2.42,1.64-3.85,4.67-5.24,7.61-1.26,2.67-2.46,5.19-4.42,6.95A2.5,2.5,0,0,1,304.68,210.54Z"/><path class="b" d="M666.9,132.2a3.05,3.05,0,0,1-.52,0c-.87-.19-1.78-.37-2.73-.56a130.32,130.32,0,0,1-21.74-6c-4.9-1.89-9.44-4.83-14.25-7.95-2.43-1.57-4.95-3.21-7.61-4.77a55.51,55.51,0,0,0-8.71-3.74c-5-1.81-10.08-3.68-14.52-7.39-2.43-2-5-3.93-7.46-5.76-4.64-3.45-9-6.7-12.39-10.6-4.08-4.75-5.54-10.63-6.82-15.82-.8-3.25-1.56-6.32-2.84-8.41a2.5,2.5,0,0,1,4.26-2.61c1.69,2.75,2.54,6.18,3.44,9.82,1.2,4.88,2.45,9.92,5.75,13.76,3,3.48,7.17,6.57,11.58,9.84,2.53,1.88,5.15,3.82,7.68,5.94,3.77,3.15,8.48,4.87,13,6.53a59.67,59.67,0,0,1,9.51,4.13c2.77,1.62,5.33,3.28,7.81,4.89,4.58,3,8.91,5.78,13.33,7.47a125.78,125.78,0,0,0,20.94,5.73l2.76.57a2.5,2.5,0,0,1-.51,4.94Z"/><path class="c" d="M822.57,117.69c-21.77-7.57-42.69-14-62.58-19.5q-4.68-1.29-9.27-2.5-3.11-.84-6.18-1.62c-18.85-4.88-36.68-8.9-53.32-12.23l-2.89-.57-2.71-.53c-14.7-2.85-28.42-5.16-41-7l-6.85-1c-11.3-1.68-22.93-3.34-35-4.81l-2.7-.33-3.07-.36c-4.49-.52-9-1-13.68-1.45l-2.8-.27-2.63-.23c-1.23-.12-2.46-.22-3.71-.32-1.77-.16-3.55-.3-5.35-.43l-2-.15c-1.15-.09-2.3-.17-3.46-.24-16.13-1.08-33.2-1.59-51.47-1.24l-2.82.07-1.53,0q-8.48.24-17.32.74l-4,.24q-5.19.33-10.52.76l-4.28.37c-1.11.09-2.21.19-3.31.3l-3.34.32c-13.5,1.34-26.32,3.06-38.41,5l-2.48.41-2.45.41c-12.36,2.13-23.91,4.49-34.59,7l-4.23,1c-11.37,2.71-21.71,5.51-30.91,8.21a376.36,376.36,0,0,0-49.28,19.55l-2.5,1.22c-.83.4-1.66.82-2.5,1.24-7.51,3.75-15.26,8-23.17,12.65q-2.62,1.56-5.26,3.18-6.87,4.23-13.84,9l-1.81,1.25-.54.37-2.18,1.53-.79.56c-1.18.83-2.36,1.67-3.54,2.54a355.1,355.1,0,0,0-30.59,24.93c-8.58,7.84-16.39,15.73-23.48,23.53l-1,1.12c-.39.43-.77.86-1.16,1.28s-.91,1-1.35,1.53c-.24.26-.47.53-.7.79-.6.69-1.2,1.37-1.79,2.06-4.55,5.25-8.77,10.44-12.68,15.51-1.07,1.38-2.1,2.74-3.12,4.1-4.69,6.26-8.91,12.31-12.71,18.08l-4.45,4-1.88,1.69-1.85,1.67q-17,15.29-34,30.62c-.76.67-1.52,1.36-2.28,2.05h0l-2.73,2.46L69,313.53l-2.4,2.16-2.9,2.62Q43.36,336.66,23.08,355c-.84.75-1.67,1.5-2.51,2.27l-2.49,2.25Q9,367.71,0,375.9V305c12.32-11.31,23.17-21.89,32.61-31.48,1.48-1.5,2.91-3,4.32-4.42,5-5.13,9.52-10,13.64-14.41,7.18-7.75,13-14.35,18.32-20.38L70,233.06c.39-.43.76-.85,1.13-1.28l2.16-2.47c4.32-4.92,8.39-9.53,12.71-14.19q.93-1,1.89-2c.73-.77,1.46-1.55,2.21-2.33,4.79-5,10-10.23,16.31-16.05l2.18-2c1.6-1.46,3.18-2.89,4.76-4.28,7.78-6.92,15.37-13.17,22.75-18.87.83-.65,1.67-1.29,2.49-1.91s1.68-1.28,2.51-1.91c19.92-14.95,38.25-26.1,54.49-36,10.38-6.34,22.22-13.22,35.49-20.33q4.4-2.35,9-4.76c14.61-7.57,30.79-15.32,48.49-22.91,15.83-4.29,34.52-8.86,55.72-13.1l2.46-.49,4.83-.93,4.5-.84,2.49-.46,2.51-.45,3.73-.65,3.58-.62q16.68-2.84,35-5.19l2.17-.27.52-.06,2.93-.36c15.63-1.87,30.76-3.25,45.3-4.2l1.17-.08q5.06-.33,10-.58,10.29-.55,20.14-.84l2.58-.07,2.57-.06c28.87-.68,54.63.17,76.35,1.64l2.54.17,2.72.19c9.69.72,18.52,1.55,26.38,2.41l2.5.28,2.5.28c13.84,1.6,24.3,3.22,30.8,4.28,16.22,2.64,34.34,6.13,54,10.82l2,.49L696,74.32q3.27.81,6.6,1.67l2.83.74c17.22,4.5,35.47,9.92,54.54,16.46,2.39.81,4.79,1.65,7.2,2.5s4.62,1.65,6.95,2.5C789.82,103.9,806,110.36,822.57,117.69Z"/><path class="b" d="M349.11,69.69a2.54,2.54,0,0,1-2.36-1.59l-2.46.49c-21.2,4.24-39.89,8.81-55.72,13.1-17.7,7.59-33.88,15.34-48.49,22.91l-1.37,2.18c-.42.68-.85,1.37-1.29,2.06,2.85-1.51,5.7-3,8.57-4.44q2.3-1.17,4.59-2.31,19.14-9.59,38.82-18,15.77-4.28,31.77-7.94,8.67-2,17.39-3.8c2.38-.49,4.77-1,7.16-1.45,2-.4,4.07-.8,6.1-1.18Zm-98.43,64.75-1.89,1.32h3.34A7.87,7.87,0,0,1,250.68,134.44Zm572.91-19q-20.9-9.24-42.25-17.22-3.37-1.27-6.77-2.5c-2.32-.85-4.66-1.69-7-2.5q-31.16-11-63.06-19.28l-2.74-.71c-.87-.23-1.74-.45-2.62-.66q-31.81-8-64.18-13.31c-8.58-1.4-19.05-2.91-31.21-4.31l-2.5-.28-2.5-.28Q586.44,53,572.08,51.94l-2.51-.18-2.49-.17C544.51,50.07,518.56,49.27,490,50L487.2,50l-3,.09c-23.93.73-49.65,2.53-76.72,5.81l-2.25.28-.3,0-2.5.32Q384.7,58.82,367,61.87l-1.77.31c-.43.06-.86.14-1.29.22l-2.33.4-.48.09-2.51.46-2.49.45q-3,.54-6,1.13l-1,.19-.53.1-.8.16-1.19.23-.4.07-2.09.42c-18.89,3.77-37.66,8.17-56.16,13.18a2.19,2.19,0,0,0-.33.12Q265,89.09,243,100.3q-4.59,2.33-9.11,4.72-20.25,10.68-39.65,22.54l-.82.51c-15.36,9.38-33.1,20.22-52.37,34.56-.83.62-1.67,1.24-2.51,1.88s-1.66,1.26-2.49,1.9c-7,5.32-14.09,11.1-21.37,17.46q-3.52,3.06-7.09,6.32l-.73.66c-6.52,6-11.92,11.25-16.81,16.3-.85.87-1.69,1.74-2.51,2.61l-2.39,2.55C79.88,218,75,223.57,69.57,229.74,63.71,236.42,57.07,244,48.74,253Q25.73,277.86,0,301.59v6.8q18.41-16.81,35.54-34.29,2.45-2.49,4.86-5,6.1-6.32,12-12.71c7.86-8.48,14.2-15.69,19.81-22.08L73.33,233l3.28-3.73c3.64-4.13,7.11-8.05,10.73-12l1.72-1.85,1.76-1.88c4.3-4.54,8.92-9.2,14.33-14.3,1.63-1.55,3.33-3.13,5.11-4.76.6-.55,1.2-1.1,1.8-1.63,8.25-7.47,16.33-14.19,24.19-20.32l2.32-1.79c.84-.65,1.68-1.28,2.51-1.91,20.26-15.35,38.93-26.76,55-36.56l.83-.5q14.56-8.9,29.66-17.16,5.42-3,10.88-5.83c2.85-1.51,5.7-3,8.57-4.44q2.3-1.17,4.59-2.31,19.14-9.59,38.82-18,15.77-4.28,31.77-7.94,8.67-2,17.39-3.8c2.38-.49,4.77-1,7.16-1.45,2-.4,4.07-.8,6.1-1.18s4.24-.81,6.36-1.19L361,68q21.93-3.93,44-6.69l.87-.11,2.37-.29c2-.24,4-.48,5.95-.7q9.06-1,17.9-1.85c1.62-.15,3.24-.3,4.85-.43,2.78-.25,5.54-.47,8.29-.68q11.26-.87,22.12-1.41,6.84-.36,13.51-.59l5.21-.16,2.49-.07,2.5-.07q6.1-.13,12-.18c13.43-.12,26.21.08,38.26.52,3.5.12,6.93.27,10.3.43q8.39.42,16.24,1l3.27.22q5.88.43,11.43.93,7.62.66,14.59,1.41l1.27.14.3,0,2.5.28,2.5.28c2.44.28,4.82.57,7.12.86q6,.75,11.26,1.51c4.34.62,8.36,1.24,12,1.84q21.74,3.54,43.27,8.35,7,1.55,13.9,3.23l.2.05,4.36,1.07q4.08,1,8.14,2.08,2.72.7,5.42,1.44l4.62,1.25q19.15,5.28,38.06,11.56c1.52.49,3,1,4.54,1.51-1.88-.51-3.77-1-5.66-1.51q-19-5.06-38.22-9.32c-1.08-.25-2.16-.48-3.24-.71-5.1-1.14-10.21-2.21-15.32-3.25l-3.73-.74-3.08-.62-5.43-1q-7.05-1.33-14.11-2.57-10.56-1.84-21.11-3.44L645,71.22l-9.44-1.41c-10.09-1.49-20.71-3-32-4.38l-2.51-.31-2.5-.29c-4.78-.55-9.66-1.08-14.66-1.56l-1.25-.12-2.5-.23-2.5-.23c-1.44-.13-2.88-.25-4.34-.36-1.85-.16-3.72-.3-5.6-.44l-5.88-.4c-15.65-1-32.33-1.47-50.13-1.13l-4.29.11q-8,.21-16.32.66l-2.51.15-2.49.15q-5.29.33-10.71.77l-3.31.28q-5.78.5-11.55,1.11-17.25,1.83-34.43,4.62l-2.51.41-2.49.42Q403.93,72,387,75.88q-7.45,1.7-14.87,3.6-7.77,2-15.5,4.17c-1.92.54-3.85,1.1-5.77,1.66l-.62.2a376.61,376.61,0,0,0-47.91,18.92c-.84.39-1.67.79-2.5,1.2s-1.67.81-2.5,1.23q-13.35,6.6-26,14.23c-1.55.93-3.1,1.87-4.63,2.83q-7,4.38-13.89,9.07c-.69.48-1.38,1-2.06,1.45l-1.89,1.32-.17.11q-3.39,2.4-6.72,4.89a359.3,359.3,0,0,0-28,23.09q-12,10.91-22.91,22.88c-.67.73-1.34,1.47-2,2.21a5.65,5.65,0,0,0-.41.46c-.85.93-1.68,1.86-2.49,2.8-.52.58-1,1.16-1.51,1.74q-5.82,6.67-11.27,13.64a1.84,1.84,0,0,1-.17.22c-.72.9-1.41,1.8-2.09,2.7-1.06,1.35-2.08,2.71-3.09,4.07q-6.4,8.55-12.29,17.48l-4,3.63-1.93,1.74-1.88,1.69q-17.73,16-35.62,32.08l-2.77,2.5-2.78,2.5Q86,294.75,65.49,313.31l-.59.53-5,4.47Q49,328.17,38.08,338.06l-4.56,4.13-10.44,9.44-2.51,2.27-2.49,2.26L0,372.52v6.75L18.08,362.9l2.49-2.26,2.51-2.27q22.65-20.47,45.17-40.82Q91,297,113.83,276.43l2-1.83,1.93-1.74,19.41-17.48,3.5-3.15q5.35-4.81,10.68-9.62c.66-.58,1.31-1.17,2-1.77l2.09-1.88,3.8-3.41a2.09,2.09,0,0,0,.41-.48q6.24-9.47,13-18.5,1.58-2.08,3.18-4.16,5-6.41,10.21-12.58,1.23-1.44,2.49-2.88c.82-1,1.65-1.91,2.51-2.86A354.36,354.36,0,0,1,252.85,139c.85-.61,1.71-1.21,2.57-1.8,1.13-.78,2.27-1.55,3.41-2.31q6.32-4.24,12.8-8.21c1.7-1,3.42-2.06,5.14-3.07q10.05-5.92,20.52-11.19c.83-.42,1.66-.84,2.5-1.24s1.66-.83,2.5-1.23a374.12,374.12,0,0,1,50-19.89A617.21,617.21,0,0,1,422,74l2.52-.42,2.6-.43q24.22-3.94,48.66-5.92,7.37-.6,14.51-1,9.19-.52,18-.74l3.65-.08c20.65-.4,39.79.32,57.57,1.68,1.77.13,3.53.28,5.27.43,1.32.1,2.62.22,3.92.34l3.16.29c5.36.5,10.58,1.06,15.68,1.65l3.5.41c15.48,1.86,29.83,4,43.17,6s26.78,4.3,40.14,6.88l2.52.49,2.58.51q27.3,5.43,54.39,12.43c.81.2,1.61.41,2.42.63q2.06.52,4.11,1.08,36,9.57,71.38,21.87a2.5,2.5,0,0,0,1.84-4.65Z"/><path class="b" d="M387.22,77a2.49,2.49,0,0,0-2.5-2.5H366a2.5,2.5,0,0,0,0,5h16.5l4.23-1A2.45,2.45,0,0,0,387.22,77Z"/><path class="b" d="M356.67,83a2.5,2.5,0,0,0-2.5-2.5H335.39a2.5,2.5,0,0,0,0,5h18.78A2.5,2.5,0,0,0,356.67,83Z"/><path class="b" d="M670.39,72.52a2.5,2.5,0,0,0,0,5h18.78A2.5,2.5,0,0,0,690.64,73l-2-.48Z"/><path class="b" d="M320.8,74.82a2.5,2.5,0,0,0,2.5,2.5h17.56a2.5,2.5,0,0,0,0-5H326.64l-5.49,1.24A2.46,2.46,0,0,0,320.8,74.82Z"/><path class="b" d="M444.8,55.82a2.5,2.5,0,0,0,2.5,2.5h17.56a2.49,2.49,0,0,0,.63-4.91q-10,.54-20.44,1.33A2.45,2.45,0,0,0,444.8,55.82Z"/><path class="b" d="M404.8,65.82a2.5,2.5,0,0,0,2.5,2.5h17.56a2.5,2.5,0,1,0,0-5H407.3A2.5,2.5,0,0,0,404.8,65.82Z"/><path class="b" d="M483.3,58.32h17.56a2.5,2.5,0,0,0,0-5H483.3a2.5,2.5,0,0,0,0,5Z"/><path class="b" d="M581.86,64.32a2.5,2.5,0,1,0,0-5H564.3a2.5,2.5,0,0,0-1,4.77l3.35.23Z"/><path class="b" d="M285.42,87.51a2.49,2.49,0,0,0,2.5,2.5h21.14a2.5,2.5,0,0,0,0-5H287.92A2.5,2.5,0,0,0,285.42,87.51Z"/><path class="b" d="M286.15,102.63h-21a2.5,2.5,0,0,0,0,5h21a2.5,2.5,0,0,0,0-5Z"/><path class="b" d="M238.22,120a2.49,2.49,0,0,0,2.5,2.5h17.33a2.5,2.5,0,0,0,0-5H240.72A2.49,2.49,0,0,0,238.22,120Z"/><path class="b" d="M235.7,135.76a2.5,2.5,0,0,0,0,5h10.48q3.52-2.56,7-5Z"/><path class="b" d="M223.37,131.87a2.5,2.5,0,0,0-2.5-2.5H203.26a2.5,2.5,0,0,0,0,5h17.61A2.5,2.5,0,0,0,223.37,131.87Z"/><path class="b" d="M203.65,148a2.5,2.5,0,0,0-2.5-2.5H180.81a2.5,2.5,0,0,0,0,5h20.34A2.5,2.5,0,0,0,203.65,148Z"/><path class="b" d="M188.73,163.6a2.5,2.5,0,0,0-2.5-2.5H166.71a2.5,2.5,0,0,0,0,5h19.52A2.5,2.5,0,0,0,188.73,163.6Z"/><path class="b" d="M191,189H171.9a2.5,2.5,0,0,0,0,5h16c1.37-1.57,2.78-3.14,4.21-4.72A2.39,2.39,0,0,0,191,189Z"/><path class="b" d="M173.73,206.18a2.5,2.5,0,0,0-2.5-2.5H151.71a2.5,2.5,0,1,0,0,5h19.52A2.5,2.5,0,0,0,173.73,206.18Z"/><path class="b" d="M144.28,235.48H125.81a2.5,2.5,0,1,0,0,5h18.47a2.5,2.5,0,0,0,0-5Z"/><path class="b" d="M98.84,216.89H119a2.5,2.5,0,1,0,0-5H98.84a2.5,2.5,0,0,0,0,5Z"/><path class="b" d="M86.79,234.32a2.5,2.5,0,1,0,0-5H73.27l-4.38,5Z"/><path class="b" d="M80,252.18a2.5,2.5,0,0,0,2.5,2.5h22.7a2.5,2.5,0,0,0,0-5H82.49A2.5,2.5,0,0,0,80,252.18Z"/><path class="b" d="M86.28,274a2.49,2.49,0,0,0-2.5-2.5H62.18a2.5,2.5,0,0,0,0,5h21.6A2.49,2.49,0,0,0,86.28,274Z"/><path class="b" d="M32.61,273.53a2.48,2.48,0,0,0,1.58.57H55.46a2.5,2.5,0,0,0,0-5H36.93C35.52,270.55,34.09,272,32.61,273.53Z"/><path class="b" d="M68,313.31H46.56a2.5,2.5,0,0,0,0,5H63.69l2.88-2.61L69,313.54A2.39,2.39,0,0,0,68,313.31Z"/><path class="b" d="M22.53,296.15a2.5,2.5,0,0,0,2.5,2.5H43.09a2.5,2.5,0,1,0,0-5H25A2.5,2.5,0,0,0,22.53,296.15Z"/><path class="b" d="M14.39,321.45a2.49,2.49,0,0,1-2.5,2.5H0v-5H11.89A2.5,2.5,0,0,1,14.39,321.45Z"/><path class="b" d="M13.58,358.53a2.5,2.5,0,0,1-2.5,2.5H0v-5H11.08A2.5,2.5,0,0,1,13.58,358.53Z"/><path class="b" d="M120.39,196.81h22.43a2.5,2.5,0,0,0,0-5H120.39a2.5,2.5,0,1,0,0,5Z"/><path class="b" d="M168.36,177.71a2.5,2.5,0,0,0-2.5-2.5H147a2.5,2.5,0,0,0,0,5h18.88A2.5,2.5,0,0,0,168.36,177.71Z"/><circle class="b" cx="434.58" cy="58.7" r="2.5"/><path class="b" d="M509.58,59.2a2.49,2.49,0,0,0-2.5,2.5,2.52,2.52,0,0,0,.35,1.27c1.46,0,2.9-.08,4.34-.11a2.42,2.42,0,0,0,.31-1.16A2.5,2.5,0,0,0,509.58,59.2Z"/><circle class="b" cx="597.58" cy="61.7" r="2.5"/><circle class="b" cx="711.58" cy="81.7" r="2.5"/><circle class="b" cx="222.58" cy="138.7" r="2.5"/><circle class="b" cx="379.58" cy="69.7" r="2.5"/><circle class="b" cx="209.58" cy="163.7" r="2.5"/><circle class="b" cx="138.58" cy="177.7" r="2.5"/><circle class="b" cx="114.57" cy="251.7" r="2.5"/><circle class="b" cx="17.57" cy="296.7" r="2.5"/><path d="M144.66,203.68H138a2.5,2.5,0,1,0,0,5h6.68a2.5,2.5,0,1,0,0-5Z"/><path class="b" d="M71.66,254.68a2.5,2.5,0,1,0,0-5H65a2.5,2.5,0,0,0,0,5Z"/><path class="b" d="M543,59.68h6.68a2.5,2.5,0,0,0,0-5H543a2.5,2.5,0,0,0,0,5Z"/><path class="b" d="M647.16,70.18a2.5,2.5,0,0,0-2.5-2.5H638a2.5,2.5,0,0,0,0,5h6.68A2.5,2.5,0,0,0,647.16,70.18Z"/><path class="b" d="M613,59.68a2.5,2.5,0,1,0,0,5h6.68a2.5,2.5,0,0,0,0-5Z"/><path class="b" d="M469.66,60.68H463a2.5,2.5,0,1,0,0,5h1.72l6.59-.62a2.49,2.49,0,0,0-1.63-4.38Z"/><path class="b" d="M56,293.68a2.5,2.5,0,0,0,0,5h6.68a2.5,2.5,0,1,0,0-5Z"/><path class="b" d="M3.16,344.18a2.5,2.5,0,0,1-2.5,2.5H0v-5H.66A2.5,2.5,0,0,1,3.16,344.18Z"/><path class="b" d="M203.66,163.6a2.5,2.5,0,0,0-2.5-2.5h-6.68a2.5,2.5,0,0,0,0,5h6.68A2.5,2.5,0,0,0,203.66,163.6Z"/><path class="b" d="M255.16,107.1a2.5,2.5,0,1,0,0-5h-6.68a2.5,2.5,0,0,0,0,5Z"/><rect class="a" x="430.57" y="186.7" width="12" height="12" rx="2.84"/><path class="b" d="M439.74,184.19h-6.33a5.34,5.34,0,0,0-5.33,5.34v6.33a5.33,5.33,0,0,0,5.33,5.33h6.33a5.34,5.34,0,0,0,5.34-5.33v-6.33A5.35,5.35,0,0,0,439.74,184.19Zm.34,11.67a.34.34,0,0,1-.34.33h-6.33a.33.33,0,0,1-.33-.33v-6.33a.34.34,0,0,1,.33-.34h6.33a.35.35,0,0,1,.34.34Z"/><path class="a" d="M428.57,219.33v7.74a8.63,8.63,0,0,1-8.63,8.63H381.57v.61a10.39,10.39,0,0,1-10.39,10.39H358a10.39,10.39,0,0,1-10.39-10.39v-2.22a10.57,10.57,0,0,1,.1-1.39h0a13.08,13.08,0,0,1-13.08-13.08V205.78a13.08,13.08,0,0,1,13.08-13.08h13.84a12.87,12.87,0,0,1,4.86.94,12.27,12.27,0,0,1,11.48-7.94h18.48A12.26,12.26,0,0,1,408.57,198v9.48a11.72,11.72,0,0,1-.45,3.26h11.82A8.63,8.63,0,0,1,428.57,219.33Z"/><path class="b" d="M393.69,187.58a21.35,21.35,0,0,1-5.09-1.52l0,.15c.13.65.24,1.31.32,2h6.61A6.42,6.42,0,0,0,393.69,187.58ZM420,208.19h-8.89c0-.25,0-.5,0-.76V198a14.8,14.8,0,0,0-9.34-13.73,15.32,15.32,0,0,0-1.74-.56,12.36,12.36,0,0,0-1.63-.32,13.84,13.84,0,0,0-2.05-.15H377.83A14.84,14.84,0,0,0,365,190.6a15.5,15.5,0,0,0-3.54-.41H347.66a15.59,15.59,0,0,0-15.58,15.58v13.84q0,.75.06,1.47A15.63,15.63,0,0,0,345.08,235v1.32A12.9,12.9,0,0,0,358,249.19h13.22a12.91,12.91,0,0,0,12.76-11h36a11.15,11.15,0,0,0,11.13-11.13v-7.74A11.15,11.15,0,0,0,420,208.19Zm6.13,18.87a6.14,6.14,0,0,1-6.13,6.13H381.58a2.49,2.49,0,0,0-2.5,2.5v.61a7.9,7.9,0,0,1-7.9,7.89H358a7.88,7.88,0,0,1-7.88-7.89v-2.22a8.53,8.53,0,0,1,.07-1.06,2.46,2.46,0,0,0-.61-2,2.52,2.52,0,0,0-1.88-.86,10.56,10.56,0,0,1-10.58-10.58V205.77a10.59,10.59,0,0,1,10.58-10.58H361.5a10.35,10.35,0,0,1,3.91.76,2.53,2.53,0,0,0,1.95,0,2.49,2.49,0,0,0,1.33-1.41,9.83,9.83,0,0,1,9.14-6.33h18.49a9.79,9.79,0,0,1,9.76,9.76v9.48a9,9,0,0,1-.36,2.57,2.51,2.51,0,0,0,.41,2.2,2.48,2.48,0,0,0,2,1H420a6.14,6.14,0,0,1,6.13,6.13Z"/><path class="a" d="M316.85,114.15H299.79v-13A7.23,7.23,0,0,0,292.56,94h-8.81a7.24,7.24,0,0,0-7.24,7.23v11.39H257.2a8.64,8.64,0,0,0-8.63,8.63v7.58a8.63,8.63,0,0,0,8.63,8.63h28.54a8.63,8.63,0,0,0,8.46-7h22.65a6.21,6.21,0,0,0,6.22-6.22v-3.85A6.21,6.21,0,0,0,316.85,114.15Z"/><path class="b" d="M316.85,111.64H302.29V101.2a9.73,9.73,0,0,0-9.73-9.73h-8.81A9.74,9.74,0,0,0,274,101.2v8.89H257.2a11.12,11.12,0,0,0-10.48,7.43,10.8,10.8,0,0,0-.64,3.69v7.59a11.06,11.06,0,0,0,2.45,7l.09.11a10.93,10.93,0,0,0,1.87,1.79,11.35,11.35,0,0,0,2.36,1.37,11.09,11.09,0,0,0,4.35.89h28.54a11.1,11.1,0,0,0,7.43-2.86,11,11,0,0,0,2.89-4.12h20.79a8.55,8.55,0,0,0,2.65-.41,8.74,8.74,0,0,0,6.08-8.31v-3.86A8.74,8.74,0,0,0,316.85,111.64Zm3.73,12.58a3.73,3.73,0,0,1-3.73,3.72H294.2a2.49,2.49,0,0,0-2.45,2,5.59,5.59,0,0,1-.29,1,6.13,6.13,0,0,1-5.72,3.94H257.2a5.83,5.83,0,0,1-2.18-.41,6.09,6.09,0,0,1-3.94-5.71v-7.59a6.12,6.12,0,0,1,6.12-6.12h19.31a2.5,2.5,0,0,0,2.5-2.5V101.2a4.74,4.74,0,0,1,4.74-4.73h8.81a4.73,4.73,0,0,1,4.73,4.73v12.94a2.5,2.5,0,0,0,2.5,2.5h17.06a3.73,3.73,0,0,1,3.73,3.72Z"/><path class="a" d="M614.7,18.7H591.45a7.87,7.87,0,0,0-7.88,7.87v7.94a4.85,4.85,0,0,0-1.67-.31h-7.36a5,5,0,0,0-5,5V53.24a5,5,0,0,0,5,5h5.6v5.2a7.29,7.29,0,0,0,7.29,7.29H594a7.29,7.29,0,0,0,7.29-7.29V49.7H614.7a7.87,7.87,0,0,0,7.87-7.87V26.57A7.87,7.87,0,0,0,614.7,18.7Z"/><path class="b" d="M614.7,16.19H591.45a10.39,10.39,0,0,0-10.37,10.38v5.12h-6.54a7.47,7.47,0,0,0-7.46,7.47V53.24a7.58,7.58,0,0,0,0,.84,7.3,7.3,0,0,0,.78,2.58,6.64,6.64,0,0,0,.56.92,7.53,7.53,0,0,0,4.07,2.85,7.37,7.37,0,0,0,2,.28h3.1V63.4c0,.31,0,.62,0,.92a8.47,8.47,0,0,0,.13.9,9.52,9.52,0,0,0,.89,2.6,9.77,9.77,0,0,0,8.73,5.37H594a9.75,9.75,0,0,0,7.06-3,9.45,9.45,0,0,0,1.65-2.31,9.62,9.62,0,0,0,1.08-4.46V52.19H614.7a10.39,10.39,0,0,0,10.38-10.37V26.57A10.4,10.4,0,0,0,614.7,16.19Zm5.38,25.63a5.37,5.37,0,0,1-5.38,5.37H601.27a2.5,2.5,0,0,0-2.5,2.5V63.4c0,.17,0,.34,0,.5a4.81,4.81,0,0,1-.2.93A4.82,4.82,0,0,1,594,68.19h-6.55a4.79,4.79,0,0,1-4.19-2.47,4.52,4.52,0,0,1-.53-1.55,3.94,3.94,0,0,1-.07-.77V58.21a2.6,2.6,0,0,0,0-.4,2.51,2.51,0,0,0-2.47-2.1h-5.6a2.47,2.47,0,0,1-2.46-2.47V39.16a2.47,2.47,0,0,1,2.46-2.47h7.36a2.5,2.5,0,0,1,.83.17,2.51,2.51,0,0,0,3.35-2.35V26.57a5.37,5.37,0,0,1,5.37-5.38H614.7a5.38,5.38,0,0,1,5.38,5.38Z"/><path class="a" d="M175.73,238.49a8.42,8.42,0,0,0,4.34,1.21h20a8.5,8.5,0,0,0,8.5-8.5v-6a8.49,8.49,0,0,0-8.5-8.5h-11.5V188.07a6.37,6.37,0,0,0-6.37-6.37H167a6.38,6.38,0,0,0-6.38,6.37V206.7h-3.51a8.49,8.49,0,0,0-8.49,8.48v18a8.49,8.49,0,0,0,8.49,8.48h12A8.49,8.49,0,0,0,175.73,238.49Z"/><path class="b" d="M191,216.69h-2.42V216l-1.78-.51-.71-.2v1.4a2.49,2.49,0,0,0,2.5,2.5h11.5a6.06,6.06,0,0,1,1.21.12C197.78,218.55,194.35,217.64,191,216.69Zm-33.72-8-2.19-1.28v2.13a5.88,5.88,0,0,1,2-.34h3.52a2.48,2.48,0,0,0,1.51-.51Zm52.89,12.12a11,11,0,0,0-10.08-6.61h-9V188.07a8.45,8.45,0,0,0-.1-1.34,8.89,8.89,0,0,0-8.78-7.54H167a8.89,8.89,0,0,0-8.87,8.88v16.12h-1a10.72,10.72,0,0,0-2,.18,11.08,11.08,0,0,0-5.62,2.89,11,11,0,0,0-3.38,7.92v18a10.83,10.83,0,0,0,1.73,5.9,10.54,10.54,0,0,0,1.58,1.95,10.8,10.8,0,0,0,2,1.55,10.93,10.93,0,0,0,5.67,1.58h12a10.87,10.87,0,0,0,7.19-2.68,10.91,10.91,0,0,0,3.8.68h20a11,11,0,0,0,11-11v-6A10.92,10.92,0,0,0,210.16,220.8Zm-4.08,10.39a6,6,0,0,1-6,6h-20a5.94,5.94,0,0,1-3.07-.85,2.5,2.5,0,0,0-3.24.59,6,6,0,0,1-4.68,2.26h-12a5.7,5.7,0,0,1-1.61-.23,5.76,5.76,0,0,1-2.33-1.26,5.9,5.9,0,0,1-1.5-2,5.83,5.83,0,0,1-.54-2.47v-18a6,6,0,0,1,4-5.65,5.88,5.88,0,0,1,2-.34h3.52a2.5,2.5,0,0,0,2.5-2.5V188.07a3.88,3.88,0,0,1,3.87-3.88H182.2a3.88,3.88,0,0,1,3.88,3.88v28.62a2.49,2.49,0,0,0,2.5,2.5h11.5a6,6,0,0,1,6,6Z"/><path class="a" d="M523.9,127.7H512.57V113.55a5.85,5.85,0,0,0-5.85-5.85H483.43a5.86,5.86,0,0,0-5.86,5.85V123.7h-17a4,4,0,0,0-4,4v7a4,4,0,0,0,4,4h17v20.14a5.86,5.86,0,0,0,5.86,5.86h23.29a5.85,5.85,0,0,0,5.85-5.86v-.14H523.9a8.68,8.68,0,0,0,8.67-8.68V136.38A8.67,8.67,0,0,0,523.9,127.7Z"/><path class="b" d="M523.9,125.19h-8.82V113.55a8.37,8.37,0,0,0-8.36-8.36H483.43a8.36,8.36,0,0,0-8.35,8.36v7.64H460.59a6.53,6.53,0,0,0-6.51,6.52v7a6.4,6.4,0,0,0,.86,3.22,6.49,6.49,0,0,0,5.65,3.29h14.49v17.65a8.35,8.35,0,0,0,8.35,8.35h23.29a8.37,8.37,0,0,0,8-6h9.16A11.19,11.19,0,0,0,535.08,150V136.37A11.2,11.2,0,0,0,523.9,125.19ZM530.08,150a6.19,6.19,0,0,1-6.18,6.17H512.58a2.49,2.49,0,0,0-2.5,2.5v.15a3.36,3.36,0,0,1-3.36,3.35H483.43a3.35,3.35,0,0,1-3.35-3.35V138.69a2.5,2.5,0,0,0-2.5-2.5h-17a1.51,1.51,0,0,1-1.51-1.51v-7a1.51,1.51,0,0,1,1.51-1.52h17a2.49,2.49,0,0,0,2.5-2.5V113.55a3.36,3.36,0,0,1,3.35-3.36h23.29a3.37,3.37,0,0,1,3.36,3.36v14.14a2.49,2.49,0,0,0,2.5,2.5H523.9a6.2,6.2,0,0,1,6.18,6.18Z"/><rect class="a" x="173.57" y="57.7" width="15" height="15" rx="3.61"/><path class="b" d="M185,55.19h-7.77a6.12,6.12,0,0,0-6.11,6.12v7.77a6.1,6.1,0,0,0,2.64,5,6,6,0,0,0,3.47,1.09H185a6.12,6.12,0,0,0,6.12-6.11V61.31A6.13,6.13,0,0,0,185,55.19Zm1.12,13.89A1.11,1.11,0,0,1,185,70.19h-7.77a1.1,1.1,0,0,1-1.11-1.11V61.31a1.11,1.11,0,0,1,1.11-1.12H185a1.12,1.12,0,0,1,1.12,1.12Z"/><rect class="a" x="139.57" y="254.7" width="13" height="13" rx="1.68"/><path class="b" d="M150.9,252.19h-9.65a3.27,3.27,0,0,0-.54,0,4.15,4.15,0,0,0-3.5,3.15,3.64,3.64,0,0,0-.13,1V266a4.17,4.17,0,0,0,4.17,4.17h9.65a4.18,4.18,0,0,0,4.18-4.17v-9.65A4.19,4.19,0,0,0,150.9,252.19Zm-.82,13h-8v-8h8Z"/><rect class="a" x="514.57" y="30.7" width="13" height="13" rx="3.94"/><path class="b" d="M523.64,28.19h-5.13a6.44,6.44,0,0,0-6.43,6.44v5.13a6.43,6.43,0,0,0,6.43,6.43h5.13a6.44,6.44,0,0,0,6.44-6.43V34.63A6.45,6.45,0,0,0,523.64,28.19Zm1.44,11.57a1.44,1.44,0,0,1-1.44,1.43h-5.13a1.43,1.43,0,0,1-1.43-1.43V34.63a1.44,1.44,0,0,1,1.43-1.44h5.13a1.45,1.45,0,0,1,1.44,1.44Z"/><rect class="a" x="739.57" y="115.7" width="14" height="14" rx="5.27"/><path class="b" d="M748.3,113.19h-3.45a7.78,7.78,0,0,0-7.77,7.78v3.45a7.77,7.77,0,0,0,7.77,7.77h3.45a7.78,7.78,0,0,0,7.78-7.77V121A7.79,7.79,0,0,0,748.3,113.19Zm2.78,11.23a2.78,2.78,0,0,1-2.78,2.77h-3.45a2.77,2.77,0,0,1-2.77-2.77V121a2.78,2.78,0,0,1,2.77-2.78h3.45a2.79,2.79,0,0,1,2.78,2.78Z"/><path class="a" d="M649.88,157.93a.2.2,0,0,0,.27,0l.13-.16c.69-.82.93-1.09,1.84-2.06a17.36,17.36,0,0,1,4.66-3.77,17.61,17.61,0,0,1,1.93-.71,19.39,19.39,0,0,0,2-.74,13.32,13.32,0,0,0,1.36-.72c1.31,6.7,5.52,12.2,6.28,23.2a.28.28,0,0,0,.53.09c1.09-2.54,2.48-6,3.92-10a103,103,0,0,0,3.37-10.77,15.94,15.94,0,0,0,.27-1.78,22.42,22.42,0,0,0,7.15,7l.55.31c1.05.59,2.81,1.58,5,3.07a52.31,52.31,0,0,1,6.76,5.53c.89.87,1.75,1.77,2.56,2.69a.25.25,0,0,0,.32,0h0a.25.25,0,0,0,.06-.32c-.64-1-1.26-2.13-1.83-3.24a52.66,52.66,0,0,1-3.34-8.07c-.8-2.49-1.24-4.47-1.5-5.65,0-.24-.1-.44-.14-.61a22.38,22.38,0,0,0-4.64-8.87c.71.14,1.31.21,1.79.26a105.4,105.4,0,0,0,11.28-.11c4.32-.2,8-.54,10.74-.84a.28.28,0,0,0,.07-.54c-10.31-3.92-14.35-9.54-20.39-12.73a12.37,12.37,0,0,0,1.08-1.09,20.75,20.75,0,0,0,1.31-1.73,19,19,0,0,1,1.23-1.65,17.32,17.32,0,0,1,5-3.36c1.19-.6,1.52-.74,2.51-1.17l.19-.08a.2.2,0,0,0-.13-.38l-.81.2c-.66.16-1.09.27-2.1.45-1.61.29-4,.56-6.21.78l-.75.08a8.91,8.91,0,0,1-3.17,0,15.26,15.26,0,0,0-8.69.41,23.19,23.19,0,0,0,2.51-3.24,24.37,24.37,0,0,0,3-6.73.21.21,0,0,0-.09-.23.23.23,0,0,0-.25,0c-.69.51-1.38,1-2.05,1.56s-1.35,1.07-2,1.62a78.63,78.63,0,0,0-12.85,13.78.57.57,0,0,0-.49.1.58.58,0,0,0-.24.45,78,78,0,0,0-16.92,8.31c-.72.47-1.43.95-2.13,1.45s-1.41,1-2.09,1.52a.23.23,0,0,0-.08.23.21.21,0,0,0,.2.15,23.89,23.89,0,0,0,11.14-2.36,15.19,15.19,0,0,0-2.92,8.2,9,9,0,0,1-.88,3c-.1.22-.2.45-.3.7-.84,2-1.8,4.25-2.54,5.71-.47.92-.7,1.3-1,1.88-.13.2-.26.43-.43.72A.19.19,0,0,0,649.88,157.93Z"/><path class="b" d="M711.8,139.7a49.29,49.29,0,0,1-13.58-8.08,58.05,58.05,0,0,0-4.93-3.58c.46-.56.85-1.11,1.21-1.64s.72-1,1.13-1.51a17.07,17.07,0,0,1,4.5-3c1.16-.58,1.45-.71,2.43-1.13l.2-.09a1.7,1.7,0,0,0-1.08-3.21l-.83.2c-.65.16-1,.26-2,.43-1.56.28-4,.54-6.09.76l-.77.09a7.49,7.49,0,0,1-2.71,0,20.68,20.68,0,0,0-5.29-.41l.08-.14a25.52,25.52,0,0,0,3.16-7.13,1.71,1.71,0,0,0-.68-1.88,1.73,1.73,0,0,0-2,0c-.7.51-1.41,1-2.1,1.58s-1.37,1.1-2,1.66a79.34,79.34,0,0,0-12.72,13.53,1,1,0,0,0-.23.11,1.39,1.39,0,0,0-.21.11l-.08,0,0,0-.18.16a1.42,1.42,0,0,0-.26.29l-.33.13a79,79,0,0,0-16.31,8.13c-.73.48-1.46,1-2.18,1.48s-1.43,1-2.12,1.54a1.72,1.72,0,0,0,1,3.09,25.72,25.72,0,0,0,7.75-1l.15,0a20.71,20.71,0,0,0-1.13,5.18,7.55,7.55,0,0,1-.77,2.6l-.31.71c-.83,2-1.77,4.21-2.49,5.61-.45.88-.65,1.22-1,1.8l-.42.72a1.69,1.69,0,0,0,.48,2.25h0a1.69,1.69,0,0,0,2.27-.3l.14-.15c.68-.81.89-1.06,1.78-2a16.87,16.87,0,0,1,4.17-3.44,15.86,15.86,0,0,1,1.79-.64c.58-.19,1.23-.4,1.91-.69a60.62,60.62,0,0,0,2,5.76,49,49,0,0,1,3.8,15.34,1.79,1.79,0,0,0,1.48,1.63,1.51,1.51,0,0,0,.3,0,1.78,1.78,0,0,0,1.63-1.07c1.42-3.31,2.75-6.72,4-10.13.77-2.19,2.25-6.38,3.07-9.47a21.89,21.89,0,0,0,5.55,4.73l.57.32c1,.58,2.75,1.55,4.85,3a50.08,50.08,0,0,1,6.56,5.37c.86.84,1.7,1.72,2.48,2.61a1.74,1.74,0,0,0,2.79-2.06c-.63-1-1.22-2.07-1.77-3.14A51.1,51.1,0,0,1,695.1,157a56.84,56.84,0,0,1-1.46-5.52l-.15-.63a21.61,21.61,0,0,0-2.91-6.68c3.18.11,7.63-.09,9.95-.2,3.63-.16,7.27-.45,10.84-.85a1.77,1.77,0,0,0,1.57-1.54A1.79,1.79,0,0,0,711.8,139.7Zm-22.49,1.4a15.07,15.07,0,0,1-1.62-.24,1.51,1.51,0,0,0-1.58.7,1.49,1.49,0,0,0,.12,1.72,21.07,21.07,0,0,1,4.35,8.27l.13.59c.27,1.2.71,3.22,1.53,5.78.52,1.61,1.1,3.19,1.76,4.72-1.28-1.06-2.62-2.08-4-3-2.2-1.52-4-2.54-5.09-3.15l-.53-.3a21.07,21.07,0,0,1-6.66-6.55,1.5,1.5,0,0,0-2.73.69,15.3,15.3,0,0,1-.25,1.63,104.66,104.66,0,0,1-3.31,10.57q-1,2.82-2.11,5.63a57.77,57.77,0,0,0-3.43-11.5,43.3,43.3,0,0,1-2.31-7.18,1.48,1.48,0,0,0-.86-1.08,1.46,1.46,0,0,0-.61-.13,1.56,1.56,0,0,0-.78.22c-.4.24-.79.45-1.19.64a18.56,18.56,0,0,1-1.88.68,19.28,19.28,0,0,0-2.09.76,9.66,9.66,0,0,0-1.59.93c.22-.51.43-1,.64-1.53l.29-.68a10,10,0,0,0,1-3.49,14,14,0,0,1,2.61-7.43,1.49,1.49,0,0,0,0-1.86,1.51,1.51,0,0,0-1.82-.41,20.87,20.87,0,0,1-3.59,1.37,21.76,21.76,0,0,1-2.42.55l.45-.3a74.66,74.66,0,0,1,11.54-6.18c1.46-.63,2.94-1.22,4.45-1.75l.24-.09.15,0,.21-.08.07,0A1.59,1.59,0,0,0,669,129a1,1,0,0,0,.23-.11,1.44,1.44,0,0,0,.49-.43l.33-.44a2.35,2.35,0,0,1,.19-.25s0,0,0,0c.14-.19.28-.38.43-.56a75.51,75.51,0,0,1,11.64-12.24l.42-.35a22.69,22.69,0,0,1-1.22,2.16,21.86,21.86,0,0,1-2.35,3,1.5,1.5,0,0,0,1.64,2.42,13.91,13.91,0,0,1,7.87-.34,10.55,10.55,0,0,0,3.71,0l.65-.07,1.65-.18a9.14,9.14,0,0,0-1.35,1.27,18.51,18.51,0,0,0-1.36,1.8,17.39,17.39,0,0,1-1.18,1.57,9.46,9.46,0,0,1-1,1,1.52,1.52,0,0,0-.49,1.3,1.5,1.5,0,0,0,.79,1.15,43.83,43.83,0,0,1,6.2,4.28,57.65,57.65,0,0,0,10,6.62c-2,.17-4,.29-6,.39A104.33,104.33,0,0,1,689.31,141.1Z"/><path class="b" d="M682.43,148.55a1.51,1.51,0,0,1-1.34-.81,72.44,72.44,0,0,0-12.3-17.19l-.21-.25-.07-.05-.12-.12c-.44-.46-.91-.92-1.39-1.39a1.5,1.5,0,0,1,2.09-2.15c.5.49,1,1,1.44,1.44l.05,0,.09.08c.12.12.24.26.34.38a75,75,0,0,1,12.75,17.83,1.5,1.5,0,0,1-.65,2A1.4,1.4,0,0,1,682.43,148.55Z"/><path class="b" d="M669.58,141.77a1.46,1.46,0,0,1-.78-.22,1.5,1.5,0,0,1-.51-2.06,9.16,9.16,0,0,0,1.27-3.53,9.71,9.71,0,0,0-1-5.76,1.5,1.5,0,0,1,2.66-1.38,12.64,12.64,0,0,1,1.33,7.56,12.2,12.2,0,0,1-1.67,4.67A1.51,1.51,0,0,1,669.58,141.77Z"/><path class="b" d="M664.39,138.84a1.5,1.5,0,0,1-1-2.6,16.65,16.65,0,0,0,4.69-7.63,1.5,1.5,0,1,1,2.88.83,19.08,19.08,0,0,1-2.12,4.83,19.31,19.31,0,0,1-3.42,4.17A1.48,1.48,0,0,1,664.39,138.84Z"/><path class="b" d="M681.7,135.79a1.56,1.56,0,0,1-.75-.2,42.5,42.5,0,0,0-6.64-3.07c-.94-.35-1.84-.63-2.61-.88-2.41-.77-3.87-1.24-3.68-2.8.17-1.39,1.55-1.54,2.65-1.66a16.55,16.55,0,0,0,4.14-.86,13.75,13.75,0,0,0,3.38-1.84,1.5,1.5,0,1,1,1.78,2.41,16.26,16.26,0,0,1-4.13,2.24c-.38.14-.74.26-1.09.36l.58.21a45.8,45.8,0,0,1,7.11,3.28,1.5,1.5,0,0,1-.74,2.81Z"/><path class="a" d="M405.85,192.14a.21.21,0,0,0,0-.27l-.15-.15c-.76-.75-1-1-1.91-2a17,17,0,0,1-3.42-4.92c-.24-.68-.4-1.34-.56-2a18.88,18.88,0,0,0-.59-2.08,11.32,11.32,0,0,0-.62-1.41c6.78-.8,12.58-4.59,23.61-4.53a.28.28,0,0,0,.13-.52c-2.46-1.28-5.76-2.92-9.71-4.66a106.59,106.59,0,0,0-10.49-4.17,17.1,17.1,0,0,0-1.76-.4,22.39,22.39,0,0,0,7.53-6.6l.35-.52c.67-1,1.79-2.7,3.43-4.73a51.82,51.82,0,0,1,6-6.33c.93-.82,1.89-1.62,2.87-2.36a.23.23,0,0,0,.06-.31h0a.24.24,0,0,0-.31-.08c-1.09.56-2.22,1.09-3.37,1.58a52.35,52.35,0,0,1-8.3,2.72c-2.55.61-4.55.9-5.74,1.08l-.62.09a22.49,22.49,0,0,0-9.2,4,13.43,13.43,0,0,0,.39-1.75,105.44,105.44,0,0,0,.74-11.26c.12-4.33.06-8,0-10.78a.28.28,0,0,0-.53-.11c-4.67,10-10.58,13.6-14.22,19.39a11.94,11.94,0,0,0-1-1.17,20.4,20.4,0,0,0-1.63-1.42,18.86,18.86,0,0,1-1.55-1.36,17.19,17.19,0,0,1-3-5.2c-.51-1.23-.63-1.57-1-2.58l-.07-.2A.2.2,0,0,0,371,137a.2.2,0,0,0-.15.23c.05.33.09.59.13.83.12.66.19,1.1.3,2.12.17,1.63.25,4.07.31,6.25,0,.27,0,.52,0,.76a8.77,8.77,0,0,1-.28,3.15,15.29,15.29,0,0,0-.23,8.7,23.17,23.17,0,0,0-3.05-2.74,24.37,24.37,0,0,0-6.48-3.48.21.21,0,0,0-.24.07.21.21,0,0,0,0,.25c.45.73.92,1.45,1.4,2.17s1,1.42,1.47,2.12A78.23,78.23,0,0,0,377,171.27a.61.61,0,0,0,.06.49.58.58,0,0,0,.43.27,78.41,78.41,0,0,0,7,17.49c.42.75.85,1.5,1.29,2.24s.9,1.48,1.36,2.2a.23.23,0,0,0,.23.09.21.21,0,0,0,.16-.19A23.77,23.77,0,0,0,386,182.58a15.27,15.27,0,0,0,8,3.52,8.78,8.78,0,0,1,3,1.11l.68.35c1.94,1,4.11,2.11,5.5,3,.88.54,1.25.79,1.8,1.18l.69.48A.2.2,0,0,0,405.85,192.14Z"/><path class="b" d="M389.59,183.19a10.71,10.71,0,0,1-2.6-1.73,1.5,1.5,0,0,0-2.4,1.67.14.14,0,0,1,0,.06h1.6a6.32,6.32,0,0,0-.22-.61c.23.21.47.41.73.61ZM423,173c-3.18-1.66-6.48-3.24-9.8-4.7-2.12-.93-6.19-2.73-9.21-3.77a21.82,21.82,0,0,0,5.12-5.18l.38-.55c.65-1,1.75-2.63,3.34-4.61l.2-.25a51.8,51.8,0,0,1,5.65-5.89c.9-.8,1.84-1.56,2.79-2.29a1.74,1.74,0,0,0,.65-1,1.77,1.77,0,0,0-.23-1.3,1.75,1.75,0,0,0-2.27-.62c-1.05.54-2.15,1.06-3.26,1.53A51.85,51.85,0,0,1,408.3,147c-2.49.6-4.44.88-5.61,1.05l-.64.09a22,22,0,0,0-6.88,2.41c.36-3.16.48-7.61.55-9.94.1-3.62.09-7.27,0-10.87a1.78,1.78,0,0,0-3.39-.69A48.7,48.7,0,0,1,383.21,142c-1.29,1.43-2.53,2.8-3.64,4.28a4.68,4.68,0,0,0-.29.37c-.31-.3-.63-.57-.93-.83l-.62-.5a18.81,18.81,0,0,1-1.42-1.24,16.81,16.81,0,0,1-2.65-4.71c-.5-1.2-.6-1.5-1-2.51l-.07-.19a1.7,1.7,0,0,0-3.29.83l.14.84c.11.62.18,1,.29,2,.08.75.13,1.68.18,2.68s.09,2.33.12,3.46l0,.78c0,.39,0,.72,0,1a6.37,6.37,0,0,1-.25,1.66,20.8,20.8,0,0,0-.81,5.25l-.13-.1a25.5,25.5,0,0,0-6.89-3.68,1.69,1.69,0,0,0-1.9.53,1.72,1.72,0,0,0-.12,2c.46.74.93,1.48,1.42,2.21s1,1.45,1.5,2.16a79.15,79.15,0,0,0,9.87,11.27c.87.84,1.76,1.64,2.67,2.43a1.79,1.79,0,0,0,.21.47,1,1,0,0,0,.19.29h0a1.69,1.69,0,0,0,.26.28c0,.15.09.31.14.46a76.72,76.72,0,0,0,3.42,9.69c.35.84.72,1.68,1.11,2.5s.8,1.68,1.23,2.5.72,1.38,1.09,2.06.86,1.52,1.31,2.28.91,1.5,1.39,2.24A1.72,1.72,0,0,0,389,194a25.72,25.72,0,0,0-.06-5.82c-.08-.67-.19-1.33-.32-2l0-.15a21.35,21.35,0,0,0,5.09,1.52,6.42,6.42,0,0,1,1.87.61l.73.38.62.32c1.92,1,4.06,2.09,5.4,2.91.83.51,1.16.74,1.72,1.12l.7.49a2.19,2.19,0,0,0,.3.16,1.66,1.66,0,0,0,2-.48,1.77,1.77,0,0,0,.31-.55,1.7,1.7,0,0,0-.43-1.75l-.15-.14c-.76-.75-1-1-1.85-1.93a16.9,16.9,0,0,1-3.12-4.42.24.24,0,0,1,0-.08,14.82,14.82,0,0,1-.49-1.75c-.14-.59-.3-1.25-.54-1.95,2-.39,3.89-1,5.89-1.56a49,49,0,0,1,15.32-2.65h.27A1.78,1.78,0,0,0,423,173Zm-17.28,3.13a42.68,42.68,0,0,1-7.32,1.76,1.52,1.52,0,0,0-1.15.79,1.49,1.49,0,0,0,0,1.39,10.34,10.34,0,0,1,.54,1.24,16.34,16.34,0,0,1,.54,1.92s0,.1,0,.16a18.77,18.77,0,0,0,.57,2,7.6,7.6,0,0,0,.31.73c.15.31.32.62.5.93l-1.48-.76-.66-.34-.27-.14a9.8,9.8,0,0,0-3.13-1.12,16.86,16.86,0,0,1-4.62-1.43,10.71,10.71,0,0,1-2.6-1.73,1.5,1.5,0,0,0-2.4,1.67.14.14,0,0,1,0,.06,20.85,20.85,0,0,1,.82,2.5c.1.37.18.75.26,1.12s.18.92.24,1.38.09.72.12,1.08l-.26-.47c-.11-.2-.22-.4-.32-.61-.46-.82-.89-1.65-1.29-2.5s-.81-1.66-1.17-2.5a73.42,73.42,0,0,1-3.81-10.5,3.31,3.31,0,0,1-.12-.42A1.82,1.82,0,0,1,379,172a1,1,0,0,1-.05-.16l-.06-.22s0,0,0-.07a1.43,1.43,0,0,0-.46-.69,1.49,1.49,0,0,0-.47-.76l-.41-.36-.25-.22s0,0,0,0l-.54-.47c-.28-.24-.54-.48-.81-.73a75.68,75.68,0,0,1-10.52-11.79l-.32-.44a20.68,20.68,0,0,1,2.07,1.38,22.28,22.28,0,0,1,2.85,2.57,1.5,1.5,0,0,0,2.54-1.45,13.93,13.93,0,0,1,.24-7.87,9.2,9.2,0,0,0,.29-1.51,13.63,13.63,0,0,0,0-2.11l0-.74c0-.54,0-1.1-.05-1.66a9.45,9.45,0,0,0,1.16,1.45,21.53,21.53,0,0,0,1.68,1.47,18.24,18.24,0,0,1,1.49,1.3,12.39,12.39,0,0,1,.88,1,1.5,1.5,0,0,0,2.46-.11,27.49,27.49,0,0,1,1.81-2.51c.91-1.13,1.9-2.22,2.93-3.35a57.64,57.64,0,0,0,7.34-9.49c0,2,0,4-.06,6-.07,2.36-.2,7-.56,10-.05.38-.1.74-.15,1.06a15.5,15.5,0,0,1-.36,1.61,1.5,1.5,0,0,0,2.3,1.63,22.62,22.62,0,0,1,6.71-3.29,16,16,0,0,1,1.86-.42l.6-.09c1.22-.18,3.26-.47,5.88-1.1l1.09-.28c1.27-.32,2.52-.7,3.75-1.12-1.16,1.2-2.27,2.45-3.33,3.77s-1.74,2.26-2.37,3.15c-.47.67-.85,1.24-1.15,1.69l-.34.51a21.1,21.1,0,0,1-7,6.15,1.49,1.49,0,0,0,.49,2.77c.55.1,1.08.22,1.61.37A105.51,105.51,0,0,1,412,171c1.83.8,3.65,1.65,5.46,2.52A58.05,58.05,0,0,0,405.73,176.08Z"/><path class="b" d="M377,173.26a1.47,1.47,0,0,1-1.12-.51,1.49,1.49,0,0,1,.13-2.11c.52-.46,1-.91,1.53-1.33l.05,0,.1-.09a3.79,3.79,0,0,1,.39-.31,75.42,75.42,0,0,1,18.73-11.38,1.5,1.5,0,1,1,1.18,2.76,72.49,72.49,0,0,0-18.06,11l-.26.2-.07.06a.43.43,0,0,1-.12.11c-.49.41-1,.84-1.49,1.28A1.43,1.43,0,0,1,377,173.26Z"/><path class="b" d="M389.7,172.68a1.48,1.48,0,0,1-.87-.28,9.28,9.28,0,0,0-3.43-1.53,9.73,9.73,0,0,0-5.82.59,1.5,1.5,0,1,1-1.18-2.76,12.66,12.66,0,0,1,7.64-.76,12.24,12.24,0,0,1,4.53,2,1.5,1.5,0,0,1-.87,2.72Z"/><path class="b" d="M386.39,177.63a1.46,1.46,0,0,1-1.17-.57,16.67,16.67,0,0,0-7.26-5.25,1.5,1.5,0,0,1,1-2.81,19.51,19.51,0,0,1,8.57,6.2,1.52,1.52,0,0,1-.24,2.11A1.57,1.57,0,0,1,386.39,177.63Z"/><path class="b" d="M378.58,171.92a1.89,1.89,0,0,1-.39,0c-1.38-.27-1.42-1.65-1.46-2.76a16.48,16.48,0,0,0-.55-4.19,13.62,13.62,0,0,0-1.58-3.51,1.5,1.5,0,0,1,2.54-1.6,16.46,16.46,0,0,1,1.92,4.29c.11.39.2.76.28,1.12.08-.19.16-.38.25-.57a44.75,44.75,0,0,1,3.81-6.84,1.49,1.49,0,1,1,2.48,1.67,43.9,43.9,0,0,0-3.56,6.4c-.41.91-.76,1.78-1.06,2.53C380.39,170.55,379.83,171.92,378.58,171.92Z"/><path class="a" d="M215.3,85.11a.2.2,0,0,0,.08-.26l-.09-.18c-.45-1-.6-1.3-1.09-2.54a17.28,17.28,0,0,1-1.48-5.81c0-.72.1-1.4.18-2a20.27,20.27,0,0,0,.18-2.16,12.59,12.59,0,0,0-.09-1.53c6.63,1.63,13.39.11,23.7,4a.27.27,0,0,0,.3-.44c-1.85-2.06-4.36-4.75-7.46-7.77a103.32,103.32,0,0,0-8.36-7.59,17.8,17.8,0,0,0-1.5-1A22.37,22.37,0,0,0,229,54.29l.52-.37c1-.7,2.62-1.89,4.87-3.22a53.08,53.08,0,0,1,7.86-3.81c1.16-.44,2.35-.85,3.52-1.19a.24.24,0,0,0,.16-.28h0a.24.24,0,0,0-.26-.19c-1.21.15-2.46.25-3.7.3a52.29,52.29,0,0,1-8.73-.36c-2.6-.32-4.58-.75-5.76-1L226.9,44a22.29,22.29,0,0,0-10,.49c.42-.58.74-1.1,1-1.51a105.12,105.12,0,0,0,4.65-10.29c1.63-4,2.86-7.48,3.74-10.1a.28.28,0,0,0-.46-.29c-7.88,7.71-14.68,9-20.11,13.16a12,12,0,0,0-.54-1.44,17,17,0,0,0-1-1.91,18.1,18.1,0,0,1-1-1.81,17.13,17.13,0,0,1-1-5.92c0-1.33,0-1.69,0-2.76v-.21a.19.19,0,0,0-.18-.2.21.21,0,0,0-.22.16c-.06.32-.11.59-.16.82-.12.66-.21,1.1-.47,2.09-.41,1.59-1.19,3.9-1.9,6-.09.26-.16.5-.24.72a8.74,8.74,0,0,1-1.36,2.86,15.19,15.19,0,0,0-3.27,8.06,25.3,25.3,0,0,0-1.89-3.64,24.28,24.28,0,0,0-4.86-5.52.21.21,0,0,0-.35.2c.17.84.35,1.68.55,2.52s.41,1.68.63,2.51a78.81,78.81,0,0,0,7.11,17.45.6.6,0,0,0-.12.49.58.58,0,0,0,.31.4,78,78,0,0,0,.44,18.84c.12.85.26,1.7.41,2.55s.33,1.69.51,2.53a.21.21,0,0,0,.18.17.22.22,0,0,0,.22-.12,23.68,23.68,0,0,0,2.53-11.1,15.21,15.21,0,0,0,6.22,6.09,9.16,9.16,0,0,1,2.39,2.08l.5.57c1.47,1.6,3.11,3.41,4.12,4.7.64.81.89,1.18,1.27,1.73l.47.69A.2.2,0,0,0,215.3,85.11Z"/><path class="b" d="M247.43,45.12a1.75,1.75,0,0,0-1.9-1.38c-1.18.14-2.39.24-3.6.29a51.49,51.49,0,0,1-8.48-.35c-2.54-.32-4.47-.74-5.62-1l-.63-.14a22.09,22.09,0,0,0-7.29-.15c1.45-2.85,3.13-7,4-9.12,1.37-3.35,2.64-6.78,3.78-10.19a1.78,1.78,0,0,0-2.93-1.84,48.75,48.75,0,0,1-13,8.93c-1.85,1-3.63,1.88-5.32,3-.31-.67-.66-1.26-1-1.79a17.35,17.35,0,0,1-.9-1.66,16.8,16.8,0,0,1-.84-5.35c0-1.31,0-1.65,0-2.68v-.2a1.69,1.69,0,0,0-1.51-1.74,1.71,1.71,0,0,0-1.86,1.36l-.16.83c-.13.66-.2,1.05-.45,2-.4,1.53-1.17,3.81-1.87,5.85l-.24.74A7.82,7.82,0,0,1,196.45,33a20.58,20.58,0,0,0-2.61,4.62l-.08-.13a25.68,25.68,0,0,0-5.16-5.87,1.71,1.71,0,0,0-2.78,1.65c.17.86.36,1.72.56,2.57s.42,1.71.65,2.55A79.25,79.25,0,0,0,194,55.59a1.84,1.84,0,0,0,0,.62,1.94,1.94,0,0,0,.21.6c-.13,1.5-.23,3-.27,4.51-.06,1.9-.06,3.79,0,5.67a80.27,80.27,0,0,0,.77,8.38c.13.87.27,1.74.43,2.6s.33,1.73.51,2.59a1.71,1.71,0,0,0,3.21.39,25.81,25.81,0,0,0,2.39-7.43,1,1,0,0,0,0-.16,20.83,20.83,0,0,0,4.23,3.21,7.44,7.44,0,0,1,2,1.78l.53.59c1.45,1.58,3.06,3.36,4,4.61.6.77.83,1.1,1.21,1.66l.48.7a1.71,1.71,0,0,0,1.39.73,1.79,1.79,0,0,0,.86-.23,1.69,1.69,0,0,0,.69-2.19l-.09-.19c-.44-1-.58-1.25-1.06-2.46a17.14,17.14,0,0,1-1.37-5.23,17.23,17.23,0,0,1,.17-1.89c.07-.61.15-1.28.18-2,2,.33,4,.46,6.06.6a48.93,48.93,0,0,1,15.52,3,1.76,1.76,0,0,0,2.1-.65,1.78,1.78,0,0,0-.14-2.2c-2.4-2.67-4.94-5.31-7.53-7.84-1.66-1.62-4.84-4.73-7.31-6.77a21.46,21.46,0,0,0,6.62-3.05l.53-.37c1-.7,2.57-1.85,4.77-3.15a49.58,49.58,0,0,1,7.63-3.7c1.12-.43,2.27-.82,3.41-1.16A1.74,1.74,0,0,0,247.43,45.12Zm-19.26,7.94a21.18,21.18,0,0,1-8.74,3.29,1.49,1.49,0,0,0-.52,2.77,14.15,14.15,0,0,1,1.37.91,104.49,104.49,0,0,1,8.2,7.44q2.15,2.1,4.23,4.28A58,58,0,0,0,220.83,70a44.22,44.22,0,0,1-7.48-.92,1.5,1.5,0,0,0-1.85,1.63,10,10,0,0,1,.08,1.34,18.16,18.16,0,0,1-.17,2c-.08.65-.17,1.4-.19,2.21a10,10,0,0,0,.18,1.84l-1.12-1.23c-.18-.19-.34-.38-.49-.55A10.37,10.37,0,0,0,207,74a14,14,0,0,1-5.65-5.49,1.49,1.49,0,0,0-1.33-.81,1.55,1.55,0,0,0-.37,0,1.52,1.52,0,0,0-1.13,1.48,21.55,21.55,0,0,1-.79,6.27c0-.18-.05-.36-.08-.54a75.6,75.6,0,0,1-.78-9.54c0-1.9,0-3.81.11-5.71,0-.86.11-1.73.19-2.59a2.11,2.11,0,0,1,0-.25.86.86,0,0,1,0-.16c0-.08,0-.15,0-.23a.28.28,0,0,1,0-.09,1.47,1.47,0,0,0-.2-.8,1.49,1.49,0,0,0-.18-.87c-.09-.16-.18-.32-.26-.48a2,2,0,0,1-.15-.29s0,0,0,0c-.12-.21-.24-.42-.34-.63a76,76,0,0,1-6.21-15.7c0-.18-.09-.35-.14-.52a21.77,21.77,0,0,1,1.45,2A22.92,22.92,0,0,1,193,42.48a1.51,1.51,0,0,0,1.63.91A1.48,1.48,0,0,0,195.88,42a14,14,0,0,1,3-7.28,10.41,10.41,0,0,0,1.58-3.29l.23-.69c.18-.51.36-1,.54-1.57a9.08,9.08,0,0,0,.57,1.76,20.43,20.43,0,0,0,1.06,2,18.34,18.34,0,0,1,.94,1.75,10.68,10.68,0,0,1,.47,1.27,1.5,1.5,0,0,0,2.34.76,44.12,44.12,0,0,1,6.5-3.83,58.15,58.15,0,0,0,10.2-6.3c-.68,1.88-1.41,3.75-2.16,5.6a104.88,104.88,0,0,1-4.56,10.1,16.1,16.1,0,0,1-.89,1.38,1.49,1.49,0,0,0,0,1.72,1.52,1.52,0,0,0,1.61.62,21.08,21.08,0,0,1,9.33-.48l.59.13c1.2.26,3.21.7,5.89,1,1.68.2,3.35.33,5,.39-1.5.71-3,1.5-4.44,2.35-2.32,1.37-4,2.58-5,3.3Z"/><path class="b" d="M196,57.31l-1.09-2.8c.65-.25,1.28-.49,1.9-.7l.06,0,.12,0,.48-.16A75.74,75.74,0,0,1,219,49.5a1.5,1.5,0,1,1,.12,3,72.68,72.68,0,0,0-20.76,3.94l-.32.1s0,0-.08,0l-.15.06C197.24,56.84,196.64,57.07,196,57.31Z"/><path class="b" d="M207.54,61.32a1.49,1.49,0,0,1-1.24-.66A9.36,9.36,0,0,0,203.62,58,9.76,9.76,0,0,0,198,56.53a1.52,1.52,0,0,1-1.57-1.43,1.5,1.5,0,0,1,1.43-1.57,12.67,12.67,0,0,1,7.42,2A12.19,12.19,0,0,1,208.78,59a1.49,1.49,0,0,1-.4,2.08A1.54,1.54,0,0,1,207.54,61.32Z"/><path class="b" d="M202.71,64.79a1.49,1.49,0,0,1-1.43-1,16.62,16.62,0,0,0-4.95-7.46,1.5,1.5,0,1,1,2-2.27,19.58,19.58,0,0,1,5.84,8.81,1.5,1.5,0,0,1-1,1.89A1.51,1.51,0,0,1,202.71,64.79Z"/><path class="b" d="M197.39,56.7a1.6,1.6,0,0,1-.87-.27c-1.2-.74-.75-2-.4-3.11a16.35,16.35,0,0,0,.95-4.11,13.45,13.45,0,0,0-.24-3.84,1.5,1.5,0,0,1,2.94-.61,16.56,16.56,0,0,1,.29,4.7c0,.39-.08.77-.13,1.14l.43-.45a46.51,46.51,0,0,1,6-5.07,1.5,1.5,0,0,1,1.74,2.45,42.64,42.64,0,0,0-5.58,4.74c-.71.71-1.34,1.4-1.89,2C199.28,55.7,198.36,56.7,197.39,56.7Z"/><path class="a" d="M164.08,48.82a.2.2,0,0,0-.24-.12l-.2.06c-1,.32-1.37.42-2.66.75a17.34,17.34,0,0,1-6,.67,19.16,19.16,0,0,1-2-.45c-.66-.17-1.35-.35-2.11-.47a13.85,13.85,0,0,0-1.53-.12c2.51-6.35,1.92-13.25,7.21-22.93a.28.28,0,0,0-.4-.36c-2.29,1.55-5.3,3.68-8.71,6.34a102.65,102.65,0,0,0-8.64,7.26,15.19,15.19,0,0,0-1.19,1.35,22.36,22.36,0,0,0-2.24-9.75c-.08-.16-.18-.34-.3-.56-.57-1.07-1.52-2.85-2.53-5.27a51.86,51.86,0,0,1-2.71-8.3c-.29-1.21-.53-2.44-.72-3.65a.23.23,0,0,0-.25-.2h0a.25.25,0,0,0-.22.23c0,1.23-.09,2.48-.2,3.72a52.65,52.65,0,0,1-1.54,8.6c-.67,2.53-1.36,4.43-1.78,5.57l-.21.59a22.54,22.54,0,0,0-.87,10c-.52-.5-1-.88-1.36-1.18a105.85,105.85,0,0,0-9.57-6c-3.74-2.16-7-3.85-9.5-5.07a.28.28,0,0,0-.35.41c6.58,8.86,7,15.77,10.33,21.71a13,13,0,0,0-1.51.34,19,19,0,0,0-2,.75,18.91,18.91,0,0,1-1.93.73,17.48,17.48,0,0,1-6,.15c-1.33-.14-1.68-.19-2.74-.36l-.2,0a.2.2,0,0,0-.23.15.2.2,0,0,0,.13.24l.79.27c.64.22,1.06.36,2,.75,1.51.62,3.7,1.71,5.65,2.69l.68.34a8.85,8.85,0,0,1,2.65,1.73,15.15,15.15,0,0,0,7.54,4.33,24,24,0,0,0-10,5.45.22.22,0,0,0-.06.24.21.21,0,0,0,.22.13c.85,0,1.71-.12,2.57-.2s1.71-.18,2.56-.29A78.2,78.2,0,0,0,132,64.35a.58.58,0,0,0,.46.18.57.57,0,0,0,.44-.25,78.39,78.39,0,0,0,18.73,2.11c.86,0,1.72,0,2.58-.07s1.72-.09,2.58-.15A.23.23,0,0,0,157,66a.23.23,0,0,0-.09-.24,24.21,24.21,0,0,0-6.63-3.17,23.39,23.39,0,0,0-4-.83,15.31,15.31,0,0,0,6.87-5.34,8.82,8.82,0,0,1,2.39-2.09l.62-.42c1.79-1.24,3.81-2.62,5.22-3.45.89-.52,1.29-.72,1.89-1l.75-.38A.19.19,0,0,0,164.08,48.82Z"/><path class="b" d="M165.47,48.25a1.69,1.69,0,0,0-2.08-1l-.2.06c-1,.31-1.32.4-2.57.72a17,17,0,0,1-5.37.64,16.37,16.37,0,0,1-1.87-.42c-.58-.15-1.24-.32-2-.45a57.47,57.47,0,0,0,1.41-5.92,49.3,49.3,0,0,1,5.06-15,1.77,1.77,0,0,0-.36-2.17,1.79,1.79,0,0,0-2.2-.15c-3,2-5.93,4.18-8.78,6.4-1.83,1.43-5.34,4.16-7.69,6.33a21.94,21.94,0,0,0-2.13-7l-.3-.57c-.56-1.05-1.49-2.79-2.48-5.14a50.29,50.29,0,0,1-2.63-8.07c-.28-1.17-.51-2.36-.69-3.53a1.74,1.74,0,0,0-3.46.23c0,1.19-.08,2.4-.19,3.6a50.79,50.79,0,0,1-1.5,8.36,57.11,57.11,0,0,1-1.77,5.52l-.19.53a22.13,22.13,0,0,0-1.14,7.19c-2.62-1.81-6.48-4-8.49-5.19-3.13-1.81-6.36-3.53-9.59-5.12a1.77,1.77,0,0,0-2.21,2.65,49.41,49.41,0,0,1,7.09,14.13,58.06,58.06,0,0,0,2.22,5.67c-.7.22-1.33.49-1.89.72a16.36,16.36,0,0,1-1.78.67,16.84,16.84,0,0,1-5.4.11c-1.29-.14-1.61-.19-2.66-.36l-.21,0A1.69,1.69,0,0,0,97.54,53a1.71,1.71,0,0,0,1.09,2l.82.27c.63.22,1,.34,1.91.72,1.46.59,3.62,1.67,5.54,2.63l.7.35a7.5,7.5,0,0,1,2.27,1.47,20.36,20.36,0,0,0,4.24,3.2l-.15.07A26,26,0,0,0,107.45,68a1.72,1.72,0,0,0,1.16,3h.1c.87-.06,1.75-.13,2.62-.21s1.75-.18,2.62-.3a78.16,78.16,0,0,0,17.19-4.25L132,66a2.18,2.18,0,0,0,.63,0,1.81,1.81,0,0,0,.61-.14c1,.23,2,.43,3,.61a77.94,77.94,0,0,0,15.5,1.4c.87,0,1.75,0,2.63-.07s1.75-.1,2.63-.16a1.71,1.71,0,0,0,.82-3.13,25.76,25.76,0,0,0-7-3.37l-.15,0a20.75,20.75,0,0,0,3.75-3.75,7.57,7.57,0,0,1,2.11-1.82l.58-.39c1.77-1.23,3.77-2.6,5.12-3.39.85-.49,1.21-.67,1.81-1l.75-.39A1.69,1.69,0,0,0,165.47,48.25Zm-10.8,4.84A10.29,10.29,0,0,0,152,55.5a14,14,0,0,1-6.21,4.85,1.5,1.5,0,0,0,.33,2.9,22.19,22.19,0,0,1,3.76.78,22.62,22.62,0,0,1,2.34.85h-.54a75.7,75.7,0,0,1-15-1.37c-.9-.16-1.8-.35-2.7-.56a1.14,1.14,0,0,1-.25-.06l-.16,0-.22,0-.08,0a1.52,1.52,0,0,0-.82.08,1.54,1.54,0,0,0-.74,0l-.16,0-.51.19-.3.11s0,0,0,0c-.22.09-.44.18-.66.25a75.76,75.76,0,0,1-16.4,4l-.54.07a23.16,23.16,0,0,1,2.2-1.17,22.11,22.11,0,0,1,3.61-1.29,1.5,1.5,0,0,0-.07-2.92,14,14,0,0,1-6.82-3.95,10.46,10.46,0,0,0-3-2l-.66-.32-1.49-.75a9.57,9.57,0,0,0,1.83-.33,20.34,20.34,0,0,0,2.08-.78,17.32,17.32,0,0,1,1.86-.7,11,11,0,0,1,1.32-.29,1.49,1.49,0,0,0,1.07-2.22,43.14,43.14,0,0,1-2.92-7,58.21,58.21,0,0,0-4.86-11c1.77.94,3.53,1.91,5.26,2.91a102.61,102.61,0,0,1,9.39,5.87A15.71,15.71,0,0,1,123,42.83a1.5,1.5,0,0,0,2.53-1.25,21.09,21.09,0,0,1,.8-9.31l.2-.57c.43-1.16,1.13-3.1,1.82-5.7.44-1.63.79-3.28,1.07-4.92.5,1.58,1.08,3.16,1.73,4.72,1,2.48,2,4.3,2.6,5.39l.28.54a21.14,21.14,0,0,1,2.08,9.11,1.5,1.5,0,0,0,2.68.89,14.54,14.54,0,0,1,1.08-1.24,104.71,104.71,0,0,1,8.49-7.12q2.37-1.84,4.81-3.61a57.63,57.63,0,0,0-3.3,11.54A43.32,43.32,0,0,1,148,48.58a1.52,1.52,0,0,0,.15,1.39,1.5,1.5,0,0,0,1.22.67,9.83,9.83,0,0,1,1.34.1,16.17,16.17,0,0,1,1.95.44,19.72,19.72,0,0,0,2.17.48,9.35,9.35,0,0,0,1.85.08c-.46.31-.92.62-1.37.94Z"/><path class="b" d="M131,64.87c-.17-.73-.32-1.36-.44-2v-.06a.65.65,0,0,1,0-.13c0-.16-.06-.34-.08-.49a75.24,75.24,0,0,1-1.14-21.89,1.5,1.5,0,1,1,3,.28,72.43,72.43,0,0,0,1.1,21.1c0,.15,0,.24.05.33l0,.08s0,.1,0,.16c.11.6.25,1.21.4,1.83l-1.44.43Z"/><path class="b" d="M131.93,63.5h-.14a1.5,1.5,0,0,1-1.36-1.63,12.74,12.74,0,0,1,2.95-7.08,12.33,12.33,0,0,1,3.93-3,1.5,1.5,0,0,1,1.32,2.7,9.28,9.28,0,0,0-3,2.29,9.72,9.72,0,0,0-2.24,5.4A1.51,1.51,0,0,1,131.93,63.5Z"/><path class="b" d="M132,64.1a1.5,1.5,0,0,1-1-2.63,19.53,19.53,0,0,1,9.53-4.6,1.5,1.5,0,0,1,.52,3,16.1,16.1,0,0,0-4.34,1.41A16.64,16.64,0,0,0,133,63.72,1.52,1.52,0,0,1,132,64.1Z"/><path class="b" d="M131.9,64.15a4.45,4.45,0,0,1-1.9-.63,17,17,0,0,0-4-1.49,13.28,13.28,0,0,0-3.84-.28,1.5,1.5,0,0,1-.21-3,16.32,16.32,0,0,1,4.69.34c.39.09.76.18,1.11.29l-.38-.49a47.56,47.56,0,0,1-4.21-6.6,1.5,1.5,0,1,1,2.65-1.4,43.29,43.29,0,0,0,3.94,6.17c.62.8,1.21,1.52,1.73,2.15,1.62,2,2.59,3.12,1.59,4.33A1.48,1.48,0,0,1,131.9,64.15Z"/><path class="a" d="M366.85,64.14a.21.21,0,0,0,0-.27l-.15-.15c-.76-.75-1-1-1.91-2a17,17,0,0,1-3.42-4.92c-.24-.68-.4-1.34-.56-2a18.88,18.88,0,0,0-.59-2.08,11.32,11.32,0,0,0-.62-1.41c6.78-.8,12.58-4.59,23.61-4.53a.28.28,0,0,0,.13-.52c-2.46-1.28-5.76-2.92-9.71-4.66a106.59,106.59,0,0,0-10.49-4.17,17.1,17.1,0,0,0-1.76-.4,22.39,22.39,0,0,0,7.53-6.6l.35-.52c.67-1,1.79-2.7,3.43-4.73a51.82,51.82,0,0,1,6-6.33c.93-.82,1.89-1.62,2.87-2.36a.23.23,0,0,0,.06-.31h0a.24.24,0,0,0-.31-.08c-1.09.56-2.22,1.09-3.37,1.58a52.35,52.35,0,0,1-8.3,2.72c-2.55.61-4.55.9-5.74,1.08l-.62.09a22.49,22.49,0,0,0-9.2,4,13.43,13.43,0,0,0,.39-1.75,105.44,105.44,0,0,0,.74-11.26c.12-4.33.06-8,0-10.78a.28.28,0,0,0-.53-.11c-4.67,10-10.58,13.6-14.22,19.39a11.94,11.94,0,0,0-1-1.17,20.4,20.4,0,0,0-1.63-1.42,18.86,18.86,0,0,1-1.55-1.36,17.19,17.19,0,0,1-3-5.2c-.51-1.23-.63-1.57-1-2.58l-.07-.2A.2.2,0,0,0,332,9a.2.2,0,0,0-.15.23c.05.33.09.59.13.83.12.66.19,1.1.3,2.12.17,1.63.25,4.07.31,6.25,0,.27,0,.52,0,.76a8.77,8.77,0,0,1-.28,3.15,15.29,15.29,0,0,0-.23,8.7,23.17,23.17,0,0,0-3.05-2.74,24.37,24.37,0,0,0-6.48-3.48.21.21,0,0,0-.24.07.21.21,0,0,0,0,.25c.45.73.92,1.45,1.4,2.17s1,1.42,1.47,2.12A78.23,78.23,0,0,0,338,43.27a.61.61,0,0,0,.06.49.58.58,0,0,0,.43.27,78.41,78.41,0,0,0,7,17.49c.42.75.85,1.5,1.29,2.24s.9,1.48,1.36,2.2a.23.23,0,0,0,.23.09.21.21,0,0,0,.16-.19A23.77,23.77,0,0,0,347,54.58a15.27,15.27,0,0,0,8,3.52,8.78,8.78,0,0,1,3,1.11l.68.35c1.94,1,4.11,2.11,5.5,3,.88.54,1.25.79,1.8,1.18l.69.48A.2.2,0,0,0,366.85,64.14Z"/><path class="b" d="M345,57.33a74.94,74.94,0,0,1-4.9-13,.07.07,0,0,1,0-.06A1.82,1.82,0,0,1,340,44l-.17.14-.83.72h0l-.27.12a.07.07,0,0,0,0,.05,77.91,77.91,0,0,0,5.47,14.06q.6,1.22,1.26,2.4c.36.64.72,1.28,1.1,1.91v-3C346,59.39,345.49,58.37,345,57.33ZM384,45c-3.18-1.66-6.48-3.24-9.8-4.7-2.12-.93-6.19-2.73-9.21-3.77a21.82,21.82,0,0,0,5.12-5.18l.38-.55c.65-1,1.75-2.63,3.34-4.61A50.94,50.94,0,0,1,379.69,20c.9-.8,1.84-1.56,2.79-2.29a1.72,1.72,0,0,0,.42-2.3,1.75,1.75,0,0,0-2.27-.62c-1.05.54-2.15,1.06-3.26,1.53A51.85,51.85,0,0,1,369.3,19c-2.49.6-4.44.88-5.61,1.05l-.64.09a22,22,0,0,0-6.88,2.41c.36-3.16.48-7.61.55-9.94.1-3.62.09-7.27,0-10.87A1.78,1.78,0,0,0,353.29,1,48.7,48.7,0,0,1,344.21,14a60.14,60.14,0,0,0-3.93,4.65c-.53-.51-1.06-.93-1.55-1.33A18.81,18.81,0,0,1,337.31,16a16.81,16.81,0,0,1-2.65-4.71c-.5-1.2-.6-1.5-1-2.51l-.07-.19a1.7,1.7,0,0,0-3.29.83l.14.84c.11.62.18,1,.29,2,.16,1.58.24,4,.3,6.14l0,.78a7.5,7.5,0,0,1-.22,2.69,20.8,20.8,0,0,0-.81,5.25l-.13-.1a25.5,25.5,0,0,0-6.89-3.68,1.7,1.7,0,0,0-1.9.53,1.72,1.72,0,0,0-.12,2c.46.74.93,1.48,1.42,2.21s1,1.45,1.5,2.16a78.54,78.54,0,0,0,10,11.38c.83.8,1.68,1.57,2.55,2.32a1.79,1.79,0,0,0,.21.47,1,1,0,0,0,.19.29h0a1.69,1.69,0,0,0,.26.28c.06.2.11.41.18.61a78.52,78.52,0,0,0,6.73,16.45l.08.15c.42.76.86,1.52,1.31,2.28.23.39.46.77.7,1.15.13.21.26.42.4.63s.19.31.29.46a1.75,1.75,0,0,0,1.83.74,1.62,1.62,0,0,0,.69-.35A1.68,1.68,0,0,0,350,66c0-.36.07-.72.08-1.08a24.16,24.16,0,0,0-.14-4.74c-.08-.67-.19-1.33-.32-2l0-.15a21.35,21.35,0,0,0,5.09,1.52,7.64,7.64,0,0,1,2.6,1l.62.32.66.33,2.51,1.32.48.26c.66.36,1.26.7,1.75,1,.72.44,1.06.67,1.5,1l.22.15.7.49a1.68,1.68,0,0,0,2.27-.32,1.73,1.73,0,0,0,.39-.94,1.7,1.7,0,0,0-.51-1.36l-.15-.14c-.33-.32-.56-.55-.78-.78s-.58-.6-1.07-1.15a16.9,16.9,0,0,1-3.12-4.42,16.19,16.19,0,0,1-.51-1.83c-.14-.59-.3-1.25-.54-1.95,2-.39,3.89-1,5.89-1.56a49,49,0,0,1,15.32-2.65h.27A1.78,1.78,0,0,0,384,45Zm-17.28,3.13a42.68,42.68,0,0,1-7.32,1.76,1.52,1.52,0,0,0-1.15.79,1.49,1.49,0,0,0,0,1.39,10.34,10.34,0,0,1,.54,1.24,16.34,16.34,0,0,1,.54,1.92c.13.52.26,1.09.46,1.7l.15.44a9.75,9.75,0,0,0,.81,1.66l-1.48-.76-.66-.34a10.25,10.25,0,0,0-3.4-1.26,16.86,16.86,0,0,1-4.62-1.43,10.71,10.71,0,0,1-2.6-1.73,1.5,1.5,0,0,0-2.4,1.67q.23.57.42,1.14a21.19,21.19,0,0,1,.68,2.54c0,.14.06.29.08.43a19.81,19.81,0,0,1,.28,2l-.26-.47-.22-.41c-.55-1-1.08-2-1.57-3.06a74.94,74.94,0,0,1-4.9-13,.07.07,0,0,1,0-.06A1.82,1.82,0,0,1,340,44a1,1,0,0,1-.05-.16l-.06-.22s0,0,0-.07a1.43,1.43,0,0,0-.46-.69,1.49,1.49,0,0,0-.47-.76l-.41-.36-.25-.22s0,0,0,0l-.54-.47-.81-.72a76.21,76.21,0,0,1-10.52-11.8l-.32-.44a20.68,20.68,0,0,1,2.07,1.38A22.28,22.28,0,0,1,331,32.05a1.5,1.5,0,0,0,2.54-1.45,13.93,13.93,0,0,1,.24-7.87,10.65,10.65,0,0,0,.33-3.62l0-.74c0-.54,0-1.1-.05-1.66a9.45,9.45,0,0,0,1.16,1.45,21.53,21.53,0,0,0,1.68,1.47,18.24,18.24,0,0,1,1.49,1.3,12.39,12.39,0,0,1,.88,1,1.5,1.5,0,0,0,2.46-.11A43,43,0,0,1,346.44,16a57.64,57.64,0,0,0,7.34-9.49c0,2,0,4-.06,6a105.64,105.64,0,0,1-.71,11,15.5,15.5,0,0,1-.36,1.61,1.5,1.5,0,0,0,2.3,1.63,21.15,21.15,0,0,1,8.57-3.71l.6-.09c1.22-.18,3.26-.47,5.88-1.1,1.64-.39,3.26-.86,4.84-1.4-1.16,1.2-2.27,2.45-3.33,3.77-1.68,2.08-2.83,3.8-3.52,4.84l-.34.51a21.1,21.1,0,0,1-7,6.15,1.49,1.49,0,0,0,.49,2.77c.55.1,1.08.22,1.61.37A105.51,105.51,0,0,1,373,43c1.83.8,3.65,1.65,5.46,2.52A58.05,58.05,0,0,0,366.73,48.08Z"/><path class="b" d="M338,45.26a1.47,1.47,0,0,1-1.12-.51,1.49,1.49,0,0,1,.13-2.11c.52-.46,1-.91,1.53-1.33l.05,0,.1-.09a3.79,3.79,0,0,1,.39-.31,75.42,75.42,0,0,1,18.73-11.38A1.5,1.5,0,1,1,359,32.25a72.49,72.49,0,0,0-18.06,11l-.26.2-.07.06a.43.43,0,0,1-.12.11c-.49.41-1,.84-1.49,1.28A1.43,1.43,0,0,1,338,45.26Z"/><path class="b" d="M350.7,44.68a1.48,1.48,0,0,1-.87-.28,9.28,9.28,0,0,0-3.43-1.53,9.73,9.73,0,0,0-5.82.59,1.5,1.5,0,1,1-1.18-2.76,12.66,12.66,0,0,1,7.64-.76,12.24,12.24,0,0,1,4.53,2,1.5,1.5,0,0,1-.87,2.72Z"/><path class="b" d="M347.39,49.63a1.46,1.46,0,0,1-1.17-.57A16.67,16.67,0,0,0,339,43.81,1.5,1.5,0,0,1,340,41a19.51,19.51,0,0,1,8.57,6.2,1.52,1.52,0,0,1-.24,2.11A1.57,1.57,0,0,1,347.39,49.63Z"/><path class="b" d="M339.58,43.92a1.89,1.89,0,0,1-.39-.05c-1.38-.27-1.42-1.65-1.46-2.76a16.48,16.48,0,0,0-.55-4.19,13.62,13.62,0,0,0-1.58-3.51,1.5,1.5,0,0,1,2.54-1.6,16.46,16.46,0,0,1,1.92,4.29c.11.39.2.76.28,1.12.08-.19.16-.38.25-.57a44.75,44.75,0,0,1,3.81-6.84,1.49,1.49,0,1,1,2.48,1.67,43.9,43.9,0,0,0-3.56,6.4c-.41.91-.76,1.78-1.06,2.53C341.39,42.55,340.83,43.92,339.58,43.92Z"/></svg>