<svg xmlns="http://www.w3.org/2000/svg" viewBox="0 0 729.49 191.83"><defs><style>.a{fill:#fff;}.b{fill:#141414;}.c{fill:#a61e1e;}</style></defs><path class="a" d="M678.43,92.7c.38.12-1.16.64-1.16,1s1.36.4,1.36.79-1.11.39-1.11.79,1.37.39,1.37.78-1.09.4-1.09.79,1.54.4,1.54.79-1.33.4-1.33.79.78.4.78.79-.69.4-.69.79.85.4.85.79-1.19.4-1.19.8.73.39.73.79-.46.39-.46.79,1.26.4,1.26.79-1.5.4-1.5.8.65.39.65.79-1,.39-1,.79,1,.4,1,.8-.69.4-.69.8.92,1.23.52,1.22c-5.14-.9-10.32-2.29-15.56-3.17s-10.45-1-15.7-1.86-10.14-3.07-15.39-3.85-10.55-.32-15.81-1.06-10.22-2.65-15.48-3.34-10.54-.32-15.8-1S574.28,92.71,569,92.11s-10.59.28-15.86-.28-10.37-1.74-15.65-2.25-10.52-.2-15.8-.67-10.38-1.86-15.66-2.28-10.5-.41-15.78-.78-10.45-1.15-15.73-1.48-10.51-.2-15.8-.48-10.46-1.16-15.75-1.4-10.53.48-15.82.3-10.48-.87-15.78-1-10.52.88-15.81.78S385.09,81.05,379.8,81s-10.51.76-15.8.76-10.41-.58-15.58-.54-10.4.61-15.56.69-10.42-.47-15.59-.34-10.38,1.08-15.54,1.26-10.44-.55-15.6-.34-10.37,1.19-15.52,1.45-10.43,0-15.58.27-10.35,1.33-15.5,1.68-10.46-.18-15.6.22-10.33,1.53-15.47,2-10.47-.14-15.6.35-10.26,2.14-15.39,2.67-10.44.38-15.56,1-10.3,1.66-15.41,2.28S136.07,95,131,95.61s-10.23,2.08-15.34,2.78-10.44.57-15.53,1.31-10.2,2.34-15.28,3.13-10.42.9-15.49,1.73-10.17,2.83-15.24,3.7c-.39,0,.11-1.11-.07-1.46s-1.13.15-1.31-.19.93-1,.75-1.3-1.44.32-1.63,0,1.41-1.21,1.22-1.56-1.59.4-1.77,0,1-1,.83-1.35-1.17.18-1.36-.17.34-.63.15-1-1,.11-1.24-.24.8-.88.61-1.23-.63-.11-.81-.46.24-.59,0-.94-.75,0-.94-.4.89-.93.7-1.28-1.1.14-1.29-.21.42-.68.23-1-.91,0-1.1-.32.73-.84.54-1.2-1.71-1-1.33-1.16c5.21-.84,10.76-.47,16.09-1.28s10.43-2.14,15.76-2.92,10.64-.64,16-1.37,10.34-2.92,15.68-3.61,10.69-.2,16-.85,10.51-1.65,15.86-2.26,10.66-.3,16-.86,10.5-1.87,15.85-2.39,10.59-1,16-1.43,10.57-1.37,15.92-1.8,10.71.48,16.07.09,10.54-1.86,15.9-2.2,10.67.08,16-.22,10.59-1.3,16-1.56,10.67.29,16,.07,10.59-2,16-2.12,10.7,1.56,16.06,1.43,10.63-1.17,16-1.25,10.65.11,16,.07,10.65-.69,16-.68,10.49,1.19,15.7,1.23,10.51-1.12,15.72-1,10.48,1.29,15.69,1.41,10.52-.52,15.72-.35,10.47,1,15.68,1.25,10.53-.56,15.73-.32,10.46,1.27,15.65,1.56,10.51.26,15.7.59,10.43,1.53,15.62,1.9,10.6-.89,15.79-.48,10.34,2.46,15.52,2.91,10.58-.31,15.75.18,10.37,1.89,15.55,2.42,10.53.32,15.7.9,10.31,2.3,15.47,2.91,10.58.14,15.73.79,10.3,2.29,15.45,3,10.48,1,15.62,1.69,10.35,1.85,15.48,2.63S673.32,91.88,678.43,92.7Z"/><path d="M455.27,81l-2.62-.27-1.17-.12c-2.73-.3-5.54-.61-8.37-.73s-5.6,0-8.31.14c-2.49.12-5.06.24-7.54.15s-4.94-.29-7.37-.48c-2.75-.22-5.58-.45-8.43-.52a73.73,73.73,0,0,0-8.32.39c-1.23.1-2.42.2-3.59.28s-2.62.13-3.92.11c-1.08,0-2.16-.1-3.25-.22-1.35-.14-2.73-.33-4.15-.53-2.35-.34-4.78-.68-7.25-.79l-1.16,0c-.49,0-1,0-1.47,0q-1.32,0-2.64.09c-1.42.07-2.82.17-4.19.27-2.47.18-5,.37-7.49.37h0c-2.45,0-5-.13-7.39-.26l-2.83-.15c-.87,0-1.75-.07-2.64-.09s-1.75,0-2.63,0h-.11c-2.8,0-5.6.19-8.31.36-2.39.15-4.87.3-7.27.34s-5-.07-7.42-.18c-2.68-.12-5.44-.24-8.19-.17s-5.57.37-8.24.66-4.92.52-7.33.6-5,0-7.43-.17c-2.67-.14-5.44-.28-8.19-.16s-5.56.44-8.24.75l-1.17.14L274,81c-.88.08-1.75.16-2.63.21-.29,0-.59,0-.89.06-2.44.12-5,.12-7.4.12-2.68,0-5.46,0-8.2.15-1.83.11-3.65.3-5.43.52l-2.62.34-.18,0c-.83.11-1.64.22-2.44.31l-.83.1.83-.05,2.63-.14,2.64-.14q10.89-.58,21.9-1l.13,2.38v.28c.88,0,1.76-.08,2.64-.12l.11,2.26c.88-.08,1.76-.18,2.63-.27l1.51-.18c2.58-.3,5.24-.61,7.84-.72s5,0,7.7.15,5.21.27,7.88.18,5.2-.36,7.71-.63,5.23-.56,7.81-.63,5.13,0,7.83.17c2.52.11,5.12.21,7.73.18s5.06-.2,7.51-.35c2.64-.16,5.37-.33,8-.35h.07c.88,0,1.75,0,2.63,0s1.75.06,2.64.1l2.54.13c2.5.13,5.09.27,7.67.28h0c2.67,0,5.33-.2,7.89-.39,1.3-.1,2.56-.19,3.8-.26.89,0,1.76-.08,2.64-.09.48,0,.95,0,1.43,0s.8,0,1.2,0c2.12.1,4.26.41,6.51.73a68,68,0,0,0,8,.8c2.73,0,5.44-.19,8.06-.41a73.42,73.42,0,0,1,7.73-.37c2.71.07,5.47.29,8.15.5,2.48.2,5,.41,7.61.5s5.38,0,8-.16,5.27-.25,7.83-.14,5.39.42,8,.71l1.46.15.11-2,2.63.1,0-.41.12-2.24,2.63.11,0-.29C457,81.14,456.15,81.07,455.27,81Zm-231.54,2.5c-2.79.21-5.55.63-8.22,1l-1.31.2q10.13-.72,20.41-1.33-1.37,0-2.7,0C229.24,83.31,226.48,83.27,223.73,83.48Zm-31.12,2.31a62.35,62.35,0,0,0-7,1.14q8.07-.69,16.27-1.32h-1.11A77.83,77.83,0,0,0,192.61,85.79ZM681.93,104a2.75,2.75,0,0,0-.68-1.83,2.76,2.76,0,0,0,.33-1.34,2.87,2.87,0,0,0-.2-1.06,2.1,2.1,0,0,0,0-.41,2.83,2.83,0,0,0,.11-3.22v0a2.79,2.79,0,0,0-.28-1.25c0-.12,0-.22,0-.32a2.82,2.82,0,0,0-.21-1.1,2.7,2.7,0,0,0,.06-1,2.74,2.74,0,0,0-1.89-2.27,2.22,2.22,0,0,0-.37-.09c-2.72-.44-5.51-.72-8.2-1-2.11-.21-4.28-.43-6.39-.73-.37,0-.74-.09-1.1-.15L661.65,88c-.86-.13-1.73-.28-2.59-.44s-2-.36-3-.54c-2.73-.49-5.55-1-8.39-1.41s-5.51-.65-8.21-.9c-2.44-.22-5-.46-7.43-.79s-4.76-.86-7.27-1.42-5.39-1.2-8.2-1.56a74.06,74.06,0,0,0-8.23-.43,70.34,70.34,0,0,1-7.51-.37,72.25,72.25,0,0,1-7.27-1.38l-1.6-.36-1.36-.3c-.86-.17-1.73-.34-2.6-.49s-1.74-.28-2.62-.37h-.05c-2.75-.31-5.52-.4-8.21-.48-2.48-.08-5-.16-7.51-.42-2-.21-4-.55-6.08-.92l-1.25-.23-1.36-.25c-.85-.15-1.72-.31-2.6-.45l-1.72-.26c-.85-.12-1.7-.23-2.56-.31a65.57,65.57,0,0,0-8.28-.11,66.48,66.48,0,0,1-7.49-.07A50.92,50.92,0,0,1,531,72.34a54.24,54.24,0,0,0-8.31-1.54,52.85,52.85,0,0,0-8.37.23,48.23,48.23,0,0,1-7.44.25c-2.43-.17-4.83-.53-7.37-.91s-5.46-.81-8.27-1c-1.5-.1-3-.16-4.53-.21l-1,0-2.63-.08h-.26L480.51,69c-1.66,0-3.33-.1-5-.19-2.43-.14-4.84-.44-7.39-.75s-5.47-.67-8.28-.81l-1.23,0c-.88,0-1.76,0-2.64,0s-1.76,0-2.64.1l-1,0-.76,0c-2.59.13-5,.26-7.51.16s-4.85-.34-7.4-.6-5.49-.55-8.29-.64-5.55,0-8.24.17c-2.48.11-5,.23-7.51.18s-4.83-.36-7.39-.68a77.29,77.29,0,0,0-8.31-.74,69.92,69.92,0,0,0-8.27.53,64.83,64.83,0,0,1-7.47.51H381c-.87,0-1.75-.05-2.63-.12s-1.75-.16-2.64-.25l-.59-.07-1.3-.15a72.8,72.8,0,0,0-8.33-.64h0c-2.86,0-5.71.18-8.47.35l-3.22.19c-.88.05-1.76.09-2.64.11l-1.69,0h-1.18c-2.06,0-4.13,0-6.15,0-2.85,0-5.8-.07-8.71,0s-5.72.36-8.47.65-5.07.55-7.55.61a44.55,44.55,0,0,1-7.54-.7,49.17,49.17,0,0,0-8.55-.73,57.5,57.5,0,0,0-8.52,1.11,54.63,54.63,0,0,1-7.45,1c-2.53.1-5.14,0-7.66,0l-1,0-.71,0c-.87,0-1.76,0-2.64,0s-1.76,0-2.64,0l-1.37,0c-2.86.13-5.7.48-8.44.81-1.75.22-3.43.42-5.09.56-.82.08-1.63.14-2.44.19-1,.06-1.94.08-2.92.09-.54,0-1.07,0-1.61,0-.89,0-1.77,0-2.65,0H242.5c-1.75,0-3.5,0-5.26.15a78.49,78.49,0,0,0-8.43,1.15,73.58,73.58,0,0,1-7.49,1,65.14,65.14,0,0,1-7.64,0,66.11,66.11,0,0,0-8.45,0c-2.87.23-5.74.59-8.52,1-2.44.31-5,.63-7.42.84l-4,.35c-4,.36-8,.71-12,1.09l-1.23.13-1.3.17c-.87.11-1.74.25-2.61.39s-1.74.29-2.6.45l-.66.11c-2.37.42-4.63.81-6.9,1.07l-.57.07c-.13,0-.25,0-.38,0-2.39.24-4.88.3-7.28.37-2,0-4,.11-6.07.26-.77,0-1.53.12-2.3.21l-.32,0c-.88.1-1.75.21-2.62.33l-1.29.18-4.29.65c-2.42.37-4.92.76-7.36,1.06a75.94,75.94,0,0,1-7.66.39,74.57,74.57,0,0,0-8.39.45,58.93,58.93,0,0,0-8.39,1.92,56.77,56.77,0,0,1-7.31,1.7c-2.51.34-5.13.5-7.66.65-2.73.16-5.56.32-8.34.73-2.5.36-5,.84-7.39,1.33l-1,.21-1.56.32-2.59.5c-1.08.2-2.14.39-3.22.55a69.87,69.87,0,0,1-7.7.6,72.77,72.77,0,0,0-8.41.69l-.39.09a2.74,2.74,0,0,0-1.84,2.15.19.19,0,0,0,0,.07,2.51,2.51,0,0,0,.28,1.61,3.14,3.14,0,0,0,.53.7,2.86,2.86,0,0,0,.33,1.59,3.17,3.17,0,0,0,.63.8,3.5,3.5,0,0,0,.24.55,2.44,2.44,0,0,0,.26.4,2.75,2.75,0,0,0,.33,1.09,2.81,2.81,0,0,0,.67.84c0,.12.09.23.13.33a2.75,2.75,0,0,0,.29,1.86,2.9,2.9,0,0,0,1,1.08s0,.09.07.14l.18.29A2.77,2.77,0,0,0,49,105a2.9,2.9,0,0,0,.2.33,3,3,0,0,0,1,2,3.16,3.16,0,0,0,.2.48,2.86,2.86,0,0,0,1.06,1.1,2.73,2.73,0,0,0,.56,1,2.83,2.83,0,0,0,2.18,1l.36,0c1.92-.33,3.82-.81,5.68-1.32l2-.55.58-.16c.87-.25,1.72-.48,2.56-.7s1.94-.49,2.91-.69c.5-.1,1-.2,1.5-.28s.73-.12,1.1-.16c.86-.13,1.73-.23,2.61-.33,1.31-.14,2.64-.26,4-.38,2.53-.22,5.14-.46,7.75-.86s5.1-1,7.56-1.55,5.13-1.2,7.7-1.57,5-.5,7.67-.65,5.2-.3,7.84-.66,5.1-.87,7.56-1.38,5.18-1.07,7.76-1.4,5.1-.49,7.81-.66l1.38-.09c.87,0,1.75-.11,2.63-.19s1.74-.14,2.62-.23l1.07-.12c2.49-.3,5-.71,7.43-1.11,2.61-.43,5.31-.87,8-1.17,1.75-.19,3.5-.3,5.31-.38l2.46-.1h.18l2.64-.1c1.64-.08,3.29-.18,5-.35a75,75,0,0,0,7.77-1.36A66.33,66.33,0,0,1,193.1,91a74,74,0,0,1,7.65-.17c2.58,0,5.25.06,7.94-.17s5.12-.61,7.6-1,5.24-.79,7.84-1,5-.15,7.7-.11,5.22.08,7.88-.1c1.59-.11,3.18-.28,4.76-.47l2.62-.34.24,0,2.39-.3c1.82-.23,3.66-.43,5.46-.54,2.59-.15,5.16-.15,7.88-.14,2.51,0,5.1,0,7.68-.13.3,0,.59,0,.89-.06.88-.05,1.76-.12,2.63-.21s1.76-.18,2.63-.27l1.51-.18c2.58-.3,5.24-.61,7.84-.72s5,0,7.7.15,5.21.27,7.88.18,5.2-.36,7.71-.63,5.23-.56,7.81-.63,5.13,0,7.83.17c2.52.11,5.12.21,7.73.18s5.06-.2,7.51-.35c2.64-.16,5.37-.33,8-.35h.07c.88,0,1.75,0,2.63,0s1.75.06,2.64.1l2.54.13c2.5.13,5.09.27,7.67.28h0c2.67,0,5.33-.2,7.89-.39,1.3-.1,2.56-.19,3.8-.26.89,0,1.76-.08,2.64-.09.48,0,.95,0,1.43,0s.8,0,1.2,0c2.12.1,4.26.41,6.51.73a68,68,0,0,0,8,.8c2.73,0,5.44-.19,8.06-.41a73.42,73.42,0,0,1,7.73-.37c2.71.07,5.47.29,8.15.5,2.48.2,5,.41,7.61.5s5.38,0,8-.16,5.27-.25,7.83-.14,5.39.42,8,.71l1.46.15c.86.1,1.74.19,2.62.26s1.75.16,2.63.21l1,.07c2.56.14,5.12.18,7.61.22,2.69.05,5.47.1,8.16.26,1.71.11,3.45.26,5.17.44l2.62.28.41,0,2.21.24c1.75.18,3.54.35,5.31.48,2.54.18,5.09.27,7.56.36,2.7.1,5.5.2,8.2.42s5.12.65,7.8,1.13,5.18.92,7.83,1.15,5.33.28,7.91.33,5.3.09,7.87.34,5.35.7,8,1.13,5.08.84,7.66,1.11c1.1.12,2.2.18,3.29.21.88,0,1.77,0,2.65,0l2.27-.06h.39a49.48,49.48,0,0,1,7.24.14c2.57.29,5.1.84,7.77,1.41,2.19.47,4.45,1,6.74,1.29l1,.14c.53.06,1.06.12,1.59.16.88.09,1.76.14,2.63.19,1.29.06,2.57.1,3.82.13a76.75,76.75,0,0,1,7.74.48,65.39,65.39,0,0,1,7.64,1.64,68.23,68.23,0,0,0,7.82,1.7,72.82,72.82,0,0,0,8.12.54,64.79,64.79,0,0,1,7.67.52,54.54,54.54,0,0,1,7.51,1.87c.84.25,1.69.51,2.54.75a45.11,45.11,0,0,0,5.32,1.22c2.63.42,5.26.68,7.82.92l1.36.13.38,0,2.25.24c.88.1,1.75.21,2.61.34l1.25.19c.57.09,1.13.2,1.7.3.86.16,1.72.33,2.58.52l2.58.54,1.22.27c2.44.54,5,1.09,7.46,1.53a2.71,2.71,0,0,0,.4,0h.05a2.8,2.8,0,0,0,2.42-1.43,2.63,2.63,0,0,0,.19-2.11,3,3,0,0,0,.21-1.11,2.73,2.73,0,0,0-.15-.91,1.89,1.89,0,0,0,0-.23A2.66,2.66,0,0,0,681.93,104Zm-18.73-.57c-.43-.07-.86-.14-1.29-.19-.87-.14-1.75-.25-2.62-.34s-1.75-.2-2.62-.28l-1.68-.17c-2.48-.24-5-.49-7.51-.88a53.75,53.75,0,0,1-7.16-1.82,60.27,60.27,0,0,0-8.25-2,71.17,71.17,0,0,0-8.3-.57A50.07,50.07,0,0,1,609,95.07a69.85,69.85,0,0,0-8.26-1.77c-2.77-.36-5.57-.44-8.28-.52-1.16,0-2.3-.06-3.42-.11-.89,0-1.76-.1-2.63-.17l-1.49-.16-1.13-.16c-2-.3-4.06-.73-6.19-1.19-2.67-.58-5.44-1.17-8.28-1.5a43.63,43.63,0,0,0-4.7-.23c-.87,0-1.73,0-2.58,0l-1.08,0-1.58,0c-.9,0-1.78,0-2.65,0a32.65,32.65,0,0,1-3.29-.17c-2.42-.25-4.82-.65-7.35-1.07-2.7-.44-5.49-.91-8.32-1.18s-5.57-.32-8.28-.36c-2.49,0-5.06-.09-7.54-.31s-4.82-.64-7.37-1.09c-1.92-.34-3.88-.69-5.88-.94-.81-.11-1.62-.19-2.43-.26-2.51-.2-5.06-.3-7.53-.39l-.88,0c-2.43-.09-4.94-.19-7.39-.36-1.14-.08-2.3-.18-3.45-.3l-1.95-.19-1.92-.21-.7-.07c-.87-.1-1.74-.19-2.63-.27-1.69-.18-3.4-.33-5.11-.44-2.81-.17-5.65-.22-8.4-.27-2.44,0-5-.08-7.42-.21l-1-.06c-.87-.06-1.75-.13-2.63-.22l-2.62-.27-1.17-.12c-2.73-.3-5.54-.61-8.37-.73s-5.6,0-8.31.14c-2.49.12-5.06.24-7.54.15s-4.94-.29-7.37-.48c-2.75-.22-5.58-.45-8.43-.52a73.73,73.73,0,0,0-8.32.39c-1.23.1-2.42.2-3.59.28s-2.62.13-3.92.11c-1.08,0-2.16-.1-3.25-.22-1.35-.14-2.73-.33-4.15-.53-2.35-.34-4.78-.68-7.25-.79l-1.16,0c-.49,0-1,0-1.47,0q-1.32,0-2.64.09c-1.42.07-2.82.17-4.19.27-2.47.18-5,.37-7.49.37h0c-2.45,0-5-.13-7.39-.26l-2.83-.15c-.87,0-1.75-.07-2.64-.09s-1.75,0-2.63,0h-.11c-2.8,0-5.6.19-8.31.36-2.39.15-4.87.3-7.27.34s-5-.07-7.42-.18c-2.68-.12-5.44-.24-8.19-.17s-5.57.37-8.24.66-4.92.52-7.33.6-5,0-7.43-.17c-2.67-.14-5.44-.28-8.19-.16s-5.56.44-8.24.75l-1.17.14L274,81c-.88.08-1.75.16-2.63.21-.29,0-.59,0-.89.06-2.44.12-5,.12-7.4.12-2.68,0-5.46,0-8.2.15-1.83.11-3.65.3-5.43.52l-2.62.34-.18,0c-.83.11-1.64.22-2.44.31l-.83.1c-1.35.17-2.68.3-4,.39-1.55.11-3.15.13-4.74.12q-1.37,0-2.7,0c-2.67,0-5.43-.08-8.18.13s-5.55.63-8.22,1l-1.31.2c-2,.3-4,.57-6,.74s-4.16.18-6.32.16h-1.11a77.83,77.83,0,0,0-8.2.19,62.35,62.35,0,0,0-7,1.14l-1.23.26a68.12,68.12,0,0,1-7.22,1.27c-1.63.17-3.3.27-5,.34l-2.47.11h-.17c-.87,0-1.75.06-2.64.11-1.77.07-3.56.19-5.34.39-2.79.31-5.56.76-8.24,1.2-2.37.39-4.82.79-7.2,1.08-.33,0-.66.08-1,.1-.87.1-1.74.18-2.62.24l-2.63.18-1.16.08c-2.67.17-5.43.35-8.15.69s-5.51.92-8.16,1.47c-2.48.51-4.83,1-7.2,1.32s-5,.47-7.43.61c-2.66.15-5.42.31-8.13.71s-5.5,1-8.13,1.64c-2.47.58-4.81,1.12-7.18,1.48s-5,.6-7.4.82c-1.44.12-2.9.25-4.37.42-.87.09-1.75.2-2.62.33l-1.12.17q-.73.12-1.47.27c-1.87.37-3.7.86-5.48,1.36l-1.17.32-1.39.39c-1.11.32-2.2.61-3.28.86a3,3,0,0,0-.33-1.1L55.7,104a2.65,2.65,0,0,0-.34-1.47,2.91,2.91,0,0,0-.76-.91,3.39,3.39,0,0,0-.18-.39,2.81,2.81,0,0,0-1.24-1.2,3.35,3.35,0,0,0-.28-.41,3,3,0,0,0-.32-1,3.17,3.17,0,0,0-.48-.65,2.67,2.67,0,0,0-.22-.64,2.81,2.81,0,0,0-.3-1.79,3,3,0,0,0-.37-.53c1.08-.07,2.18-.12,3.31-.16a75.64,75.64,0,0,0,8.28-.66c1.08-.17,2.17-.35,3.25-.55.86-.17,1.72-.33,2.58-.51l1.79-.36.8-.16c2.41-.49,4.88-1,7.32-1.33s5.15-.52,7.89-.68,5.35-.32,8.07-.69a61.4,61.4,0,0,0,8-1.85,54.39,54.39,0,0,1,7.64-1.76,70.31,70.31,0,0,1,7.81-.41,82.15,82.15,0,0,0,8.21-.43c2.52-.31,5.06-.7,7.53-1.09,1.75-.27,3.53-.55,5.32-.8.87-.12,1.75-.23,2.62-.33l.36,0c.75-.08,1.5-.15,2.26-.2,1.84-.13,3.71-.18,5.66-.23,2.63-.07,5.35-.14,8.07-.43s5.28-.74,7.83-1.19l.3,0,2.6-.45c.87-.14,1.74-.28,2.61-.4s1.66-.22,2.49-.3c4-.38,8-.73,12-1.08l4-.35c2.56-.22,5.14-.55,7.63-.87,2.71-.34,5.52-.7,8.27-.92a63.45,63.45,0,0,1,7.79,0,71,71,0,0,0,8.26.05,79.59,79.59,0,0,0,8-1.12,72,72,0,0,1,7.87-1.08c2-.13,4.07-.14,6.18-.13h2.64c.87,0,1.75,0,2.64,0,1.51,0,3,0,4.55-.12,2.65-.14,5.3-.47,7.87-.78s5.39-.65,8.06-.78l1.39,0c.88,0,1.75,0,2.64,0l2.64,0,1.32,0c2.62.08,5.32.15,8,0a57.85,57.85,0,0,0,8.19-1.1,55.45,55.45,0,0,1,7.74-1,44.49,44.49,0,0,1,7.62.69,49.59,49.59,0,0,0,8.43.75c2.69-.07,5.38-.36,8-.64s5.35-.57,8-.62c2.83,0,5.75,0,8.56,0,2.12,0,4.29.06,6.46,0h1q.83,0,1.65,0c.88,0,1.76-.06,2.64-.11,1.19,0,2.38-.13,3.55-.2,2.67-.17,5.44-.34,8.14-.34h0a67.23,67.23,0,0,1,7.73.6c.82.1,1.65.2,2.49.28s1.76.18,2.64.24,1.75.11,2.63.12h.19a73.2,73.2,0,0,0,8.06-.54,61.32,61.32,0,0,1,7.64-.5,72.39,72.39,0,0,1,7.74.69,78.7,78.7,0,0,0,7.92.73c2.67.06,5.32-.07,7.89-.19s5.25-.25,7.82-.17,5.32.36,7.93.62,5.12.52,7.72.63,5.39,0,8-.17l1.18-.06c.9,0,1.78-.08,2.65-.1s1.76,0,2.63,0l1.26,0c2.61.12,5.29.45,7.88.77s5.14.63,7.75.78c1.66.09,3.34.15,5,.2l2.51.07h.12l2.64.08c1.81,0,3.63.13,5.42.24,2.59.17,5.25.56,7.83,1s5.14.76,7.76,1a53.62,53.62,0,0,0,8.25-.25,46.93,46.93,0,0,1,7.52-.24,50,50,0,0,1,7.5,1.41,53.34,53.34,0,0,0,8,1.51,70.89,70.89,0,0,0,8.1.09,60.25,60.25,0,0,1,7.63.09c1.4.13,2.82.33,4.23.57.87.14,1.74.3,2.6.45l1,.18,1.64.3c2,.36,4,.7,6.1.91,2.65.28,5.31.36,7.88.45s5.26.16,7.8.45h.08c.88.1,1.75.23,2.62.39s1.72.32,2.59.51,1.56.34,2.36.52a77.9,77.9,0,0,0,7.8,1.48,79.07,79.07,0,0,0,8.06.4,67.52,67.52,0,0,1,7.65.39c2.56.32,5.18.91,7.71,1.48s5.1,1.14,7.71,1.49,5.16.59,7.66.82c2.75.25,5.34.49,7.95.87s5.51.89,8.19,1.38l3.13.56,2.6.44,1.54.24c.35,0,.7.11,1.06.15,2.24.32,4.5.55,6.69.77,1.62.16,3.2.32,4.74.5a.93.93,0,0,0,0,.1,2.18,2.18,0,0,0,0,.35,2.85,2.85,0,0,0,.29,1.28c0,.1,0,.2,0,.29A2.92,2.92,0,0,0,675.4,98c0,.15,0,.29,0,.42a2.77,2.77,0,0,0,.16,1,3.17,3.17,0,0,0-.07.63,1.62,1.62,0,0,0,0,.21,2.75,2.75,0,0,0-.36,1.38,2.91,2.91,0,0,0,.29,1.25c0,.11,0,.22,0,.33a2.64,2.64,0,0,0,0,.38,2.72,2.72,0,0,0-.26,1.2,1.77,1.77,0,0,0,0,.23,2.61,2.61,0,0,0-.29.82l-3.34-.72-1.52-.33c-.85-.19-1.71-.38-2.58-.55C666,103.94,664.62,103.67,663.2,103.43Z"/><path class="b" d="M724.05,189.2c-99.72-18.7-227.32-29-359.31-29s-259.59,10.3-359.3,29L2.63,166.91C103.25,148,231.85,137.65,364.74,137.65S626.24,148,726.85,166.91Z"/><path d="M727.34,164.32q-15-2.82-30.8-5.37l-2.61-.42-2.6-.41q-5.12-.83-10.32-1.6l-2.6-.39q-6.37-.94-12.87-1.86-8.25-1.16-16.67-2.24c-21-2.73-42.87-5.15-65.32-7.24q-15.93-1.48-32.26-2.75l-6.17-.47q-31.47-2.35-64.15-3.88-9.29-.44-18.64-.8h-.05q-5.28-.21-10.57-.39-21.1-.72-42.51-1.1l-2.16,0-5-.08-7.83-.1q-14.68-.17-29.46-.17-18.71,0-37.29.27l-5.17.08-2,0q-21.52.38-42.76,1.11-14.7.51-29.22,1.19c-24,1.12-47.54,2.58-70.56,4.37q-12,.94-23.87,2l-8.39.76c-22.57,2.11-44.52,4.55-65.67,7.3Q64,154.19,48.86,156.47q-5.38.79-10.7,1.65l-2.61.41L33,159q-15.8,2.55-30.8,5.37A2.64,2.64,0,0,0,0,167.24l2.81,22.29a2.58,2.58,0,0,0,1.06,1.79,2.64,2.64,0,0,0,2,.47c99.56-18.68,227-29,358.81-29s259.26,10.28,358.82,29a2.7,2.7,0,0,0,.49,0,2.64,2.64,0,0,0,2.61-2.3l2.81-22.29A2.64,2.64,0,0,0,727.34,164.32Zm-5.56,21.77c-99.46-18.4-226.1-28.53-357-28.53s-257.57,10.13-357,28.53L5.56,169q13.77-2.55,28.22-4.89c84.5-13.7,185.36-21.87,290.52-23.55l1.23,0q19.52-.3,39.21-.3t39.21.3l1.22,0c105.17,1.68,206,9.85,290.54,23.55q14.44,2.34,28.22,4.89Z"/><path class="c" d="M682.62,83.75C594.39,67.2,481.5,58.09,364.74,58.09S135.1,67.2,46.87,83.75L45,69c88.83-16.66,202.38-25.84,319.74-25.84S595.66,52.32,684.48,69Z"/><path d="M559.85,64.3l-.49,0-2.14-.2c-22.29-2.08-45.28-3.8-68.77-5.13l-2.13-.12-.49,0-2.14-.12-.49,0-2.15-.11q-10.89-.59-21.91-1l-2.15-.1-.48,0-2.15-.09-.48,0-2.15-.08c-22.56-.89-45.48-1.43-68.6-1.62l-2.15,0h-5.27c-3.66,0-7.31,0-11,0s-7.31,0-11,0h-5.27l-2.15,0c-23.2.19-46.2.74-68.84,1.63l-2.14.08-.49,0-2.14.09-.49,0-2.15.1q-11,.47-21.9,1.05l-2.16.12-.48,0-2.14.12-.49,0-2.14.12c-23.58,1.35-46.64,3.07-69,5.17l-2.14.2-.49,0-2.13.2-.49,0-2.14.21.28,2.62,2.13-.2.49,0,.28,2.62,2.14-.2.48,0,2.14-.2c22.27-2.09,45.24-3.81,68.72-5.15l2.15-.13.48,0,2.15-.12.48,0,2.15-.11q10.89-.59,21.91-1.05l2.14-.1.49,0,2.15-.08.49,0,2.14-.09c22.55-.89,45.45-1.44,68.56-1.62l2.15,0H349l2.15,0h2.64q5.48,0,11,0t11,0h2.64l2.14,0H381l2.15,0c23,.18,45.85.73,68.32,1.61l2.15.09.48,0,2.15.08.49,0,2.14.1q11,.47,21.92,1.05l2.14.11.49,0,2.14.11.49,0,2.14.12c23.4,1.34,46.3,3,68.5,5.12.71.07,1.42.13,2.13.21l.28-2.62.49,0,2.13.21L562,64.5Zm126.87,3.29A2.59,2.59,0,0,0,685,66.38l-1-.18q-7.77-1.45-15.79-2.82l-2.6-.44L663,62.5q-18.54-3.09-38.26-5.76Q614,55.27,603,53.94q-11.55-1.39-23.41-2.65l-7.92-.82c-64.34-6.52-134.93-10-206.94-10-108.06,0-212.92,7.78-298.28,22l-2.6.44-2.6.44-5.53,1-3.33.6-2.65.47-5.23,1a2.64,2.64,0,0,0-2.13,2.92l1.86,14.78a2.63,2.63,0,0,0,3.1,2.26q8.38-1.57,17.07-3.06L67,82.84l2.6-.43c21-3.48,43.09-6.57,66.17-9.25l2.13-.25.48,0,2.14-.24.48-.06,2.14-.24Q153.92,71.12,165,70l2.14-.2.49,0,2.14-.2.48,0,2.14-.2c22.27-2.09,45.24-3.81,68.72-5.15l2.15-.13.48,0,2.15-.12.48,0,2.15-.11q10.89-.59,21.91-1.05l2.14-.1.49,0,2.15-.08.49,0,2.14-.09c22.55-.89,45.45-1.44,68.56-1.62l2.15,0H349l2.15,0h2.64q5.48,0,11,0t11,0h2.64l2.14,0H381l2.15,0c23,.18,45.85.73,68.32,1.61l2.15.09.48,0,2.15.08.49,0,2.14.1q11,.47,21.92,1.05l2.14.11.49,0,2.14.11.49,0,2.14.12c23.4,1.34,46.3,3,68.5,5.12.71.07,1.42.13,2.13.21l.49,0c.72.07,1.43.13,2.14.21l.49,0,2.13.21q11,1.06,21.82,2.27l2.13.24.49,0,2.13.24.49.06,2.13.24c23.24,2.7,45.53,5.8,66.62,9.31l2.6.43,2.6.44q8.68,1.48,17.07,3.06a2.7,2.7,0,0,0,2-.46,2.64,2.64,0,0,0,1.07-1.8l.89-7,.33-2.63.64-5.11A2.59,2.59,0,0,0,686.72,67.59ZM681,75.85l-.6,4.8q-7.12-1.32-14.47-2.57l-2.6-.44-2.59-.44c-21.17-3.51-43.56-6.63-66.9-9.33l-2.13-.25-.49-.05-2.13-.25-.49,0L586.43,67q-10.78-1.2-21.82-2.27l-2.13-.21-.49,0-2.14-.2-.49,0-2.14-.2c-22.29-2.08-45.28-3.8-68.77-5.13l-2.13-.12-.49,0-2.14-.12-.49,0-2.15-.11q-10.89-.59-21.91-1l-2.15-.1-.48,0-2.15-.09-.48,0-2.15-.08c-22.56-.89-45.48-1.43-68.6-1.62l-2.15,0h-5.27c-3.66,0-7.31,0-11,0s-7.31,0-11,0h-5.27l-2.15,0c-23.2.19-46.2.74-68.84,1.63l-2.14.08-.49,0-2.14.09-.49,0-2.15.1q-11,.47-21.9,1.05l-2.16.12-.48,0-2.14.12-.49,0-2.14.12c-23.58,1.35-46.64,3.07-69,5.17l-2.14.2-.49,0-2.13.2-.49,0-2.14.21q-11,1.08-21.81,2.28l-2.14.24-.48.06-2.14.24-.48.06-2.14.24C112,70.61,89.82,73.71,68.79,77.2l-2.6.44-2.6.44q-7.34,1.26-14.46,2.57l-1.2-9.54,1.91-.35,3.06-.55c3-.55,6.1-1.09,9.19-1.62l2.6-.45,2.59-.43c21.28-3.55,43.78-6.69,67.24-9.41l2.15-.25q15.57-1.78,31.68-3.32l2.15-.21c22.63-2.13,46-3.88,69.85-5.25l2.16-.12q16-.9,32.32-1.57L277,47.5c22.82-.91,46-1.46,69.39-1.65l2.15,0q8.1-.06,16.22-.06t16.23.06l2.15,0c23.3.19,46.41.74,69.16,1.64l2.15.08q16.29.68,32.32,1.57c.71,0,1.43.07,2.14.12,23.8,1.36,47.09,3.1,69.66,5.22l2.15.2q13.72,1.32,27.07,2.8l4.56.51h0l2.13.25,2.11.24q10.11,1.19,20,2.48,7,.91,13.8,1.87,16.32,2.3,31.83,4.88l2.6.43,2.59.45q7.18,1.23,14.17,2.52l-.27,2.11Z"/><rect class="c" x="351.14" y="46" width="27.21" height="85.92"/><path d="M381,45.83a2.64,2.64,0,0,0-2.62-2.46H351.14a2.66,2.66,0,0,0-1.7.62,2.59,2.59,0,0,0-.92,1.84,1,1,0,0,0,0,.17v85.92a2.22,2.22,0,0,0,0,.45,2.62,2.62,0,0,0,2.59,2.18h27.21a2.64,2.64,0,0,0,2.6-2.22,2.73,2.73,0,0,0,0-.41V46A1,1,0,0,0,381,45.83Zm-5.26,83.45H353.78V48.64h21.93Z"/><rect class="c" x="348.99" y="46" width="31.5" height="17.18"/><path d="M383.12,45.85a2.65,2.65,0,0,0-2.63-2.48H349a2.67,2.67,0,0,0-1.63.57,2.61,2.61,0,0,0-1,1.91.76.76,0,0,0,0,.15V63.19a2.64,2.64,0,0,0,1.91,2.53l.24.06a2.59,2.59,0,0,0,.48,0h31.5a3.89,3.89,0,0,0,.49,0,2.65,2.65,0,0,0,2.15-2.59V46A.76.76,0,0,0,383.12,45.85Zm-5.26,14.7H351.63V48.64h26.23Z"/><rect class="c" x="425.37" y="78.19" width="85.92" height="27.21" transform="translate(352.14 554.67) rotate(-87)"/><path d="M455.25,81.38l-.12,2.24,0,.41-2.63-.1-.11,2-.14,2.63-.13,2.61L452,93.87,451.37,105l-.14,2.63c.88,0,1.76.1,2.63.17l-.14,2.64,2.63.2.14-2.63.14-2.63.59-11.32.14-2.66.14-2.6.12-2.38.12-2.3,0-.33.12-2.33Zm31.5-32.24a2.8,2.8,0,0,0-.2-.62,2.68,2.68,0,0,0-.44-.67,2.59,2.59,0,0,0-1.82-.87L457,45.55a2.65,2.65,0,0,0-2,1,2.47,2.47,0,0,0-.54,1.07,2.53,2.53,0,0,0-.07.48l-.05,1-.14,2.63-.29,5.52-.14,2.64-.14,2.63-.25,4.8,0,.49-.11,2.15-.14,2.64-.32,6.08-.1,2,0,.57-.11,2.07,0,.58-.11,2-.14,2.63-.13,2.61L452,93.87,451.37,105l-.14,2.63-.13,2.64-.29,5.35-.13,2.64-.06,1-.08,1.61-.06,1-.13,2.63-.49,9.28V134a2.61,2.61,0,0,0,1.85,2.51,2.68,2.68,0,0,0,.64.11l1.48.08.61,0L479.52,138h.14a2.59,2.59,0,0,0,.92-.17,2.32,2.32,0,0,0,.39-.18,2.71,2.71,0,0,0,.35-.24,2.65,2.65,0,0,0,1-1.91l0-.7.46-8.78.13-2.63.06-1.09.08-1.54.06-1.09.14-2.63.25-4.77.14-2.64.13-2.63.61-11.63.14-2.66.14-2.61.11-2.14.14-2.53v-.11l.14-2.55v-.08l.13-2.53.31-5.8.14-2.64.11-2.27,0-.35.27-5.09.14-2.62.14-2.63.26-5,.13-2.64.08-1.45A3.13,3.13,0,0,0,486.75,49.14ZM480.51,69l0,.28-.12,2.36-.14,2.63-.3,5.67-.12,2.26v.35l-.12,2.28,0,.38-.12,2.25-.13,2.43-.14,2.6-.13,2.66-.61,11.53-.14,2.63-.13,2.63-.26,4.9-.14,2.63-.05,1-.09,1.68-.05,1-.13,2.64-.37,7-21.91-1.15.38-7.16.13-2.66,0-.56.11-2.09,0-.53.14-2.64.27-5.18.14-2.63.14-2.63.59-11.32.14-2.66.14-2.6.12-2.38.12-2.3,0-.33.12-2.33,0-.29.12-2.33.33-6.41.14-2.64.09-1.71.05-.92.09-1.71.14-2.63v-.13L459,60.1l.14-2.64.28-5.34.06-1.17,21.91,1.15h0l-.05,1-.29,5.38-.13,2.63-.14,2.63V64l-.14,2.63Z"/><rect class="c" x="461.53" y="41.73" width="17.18" height="31.5" transform="translate(388.12 523.95) rotate(-87)"/><path d="M488.89,49.26a2.09,2.09,0,0,0-.11-.43,2.58,2.58,0,0,0-.52-.87,2.65,2.65,0,0,0-1.82-.87L484.29,47,457,45.55l-2-.11a2.57,2.57,0,0,0-1.9.68l-.2.19a2.71,2.71,0,0,0-.6,1.18,2.22,2.22,0,0,0-.07.45l0,1L452,51.52l-.29,5.63-.28,5.26-.14,2.68a2.64,2.64,0,0,0,1.06,2.25,2.53,2.53,0,0,0,.95.45,2.63,2.63,0,0,0,.49.07L456,68l2.63.14,21.91,1.15,2.63.14,2.14.11h.14a2,2,0,0,0,.35,0,2.47,2.47,0,0,0,1-.32A2.62,2.62,0,0,0,488,67l.15-2.85.14-2.62.13-2.63.26-4.79.13-2.64.09-1.63A2.43,2.43,0,0,0,488.89,49.26ZM456.72,62.62l.13-2.62.14-2.64.29-5.39.06-1.13,2.14.11,21.91,1.16,2.14.11-.06,1.19-.27,5.21-.14,2.64-.14,2.62v.23L480.77,64l-21.91-1.15-2.15-.11Z"/><rect class="c" x="247.33" y="48.84" width="27.21" height="85.92" transform="translate(-4.45 13.78) rotate(-3)"/><path d="M278.08,108.86l-.14-2.63-.64-12.35-.14-2.65L277,88.62,276.89,86c-.87.09-1.75.19-2.63.27L274.15,84c-.88,0-1.76.07-2.64.12l.12,2.35.13,2.33.13,2.6L272,94.1l.63,11.94.14,2.66.14,2.66q1.31.12,2.64.15l-.13-2.63C276.33,108.91,277.21,108.91,278.08,108.86Zm1.28,24.33-.52-9.92-.13-2.35v-.28l-.12-2.35,0-.29-.12-2.34-.22-4.17-.14-2.63-.14-2.63-.64-12.35-.14-2.65L277,88.62,276.89,86l-.11-2.09,0-.56-.11-2.1,0-.53-.11-2.08-.31-5.9-.13-2.64-.13-2.34v-.3l-.26-5-.14-2.63-.14-2.64L275.11,52,275,49.32l-.07-1.27a2.42,2.42,0,0,0-.07-.47,2.59,2.59,0,0,0-.37-.85,2.63,2.63,0,0,0-2.22-1.18L245,47a2.61,2.61,0,0,0-1.82.87A1.15,1.15,0,0,0,243,48a2.49,2.49,0,0,0-.49,1.13,2.43,2.43,0,0,0,0,.6l.05,1,.14,2.64.28,5.47.14,2.63.14,2.62.27,5.1v.34l.12,2.3.14,2.63.3,5.78.14,2.56v0l.14,2.59v.07l.13,2.57.11,2.11.14,2.6.14,2.66.68,13,.14,2.64.14,2.63.17,3.35.12,2.2,0,.44.12,2.19,0,.43.11,2.2.48,9.16.1,1.83a3,3,0,0,0,.17.81,2.73,2.73,0,0,0,1.16,1.35,3,3,0,0,0,.41.18,2.42,2.42,0,0,0,.89.16h.14l25.06-1.32,2.11-.11a2.43,2.43,0,0,0,.61-.1,2.62,2.62,0,0,0,1.13-.67l.08-.09a2.62,2.62,0,0,0,.67-1.9Zm-27.82-11.1v-.22l-.13-2.41v-.23l-.13-2.4-.2-3.91-.14-2.67-.14-2.68-.65-12.43L250,92.48l-.14-2.6-.13-2.5-.12-2.18,0-.46-.11-2.2,0-.44-.11-2.17L249,74.46l-.14-2.63-.13-2.57v-.07l-.14-2.56L248.49,64v-.22l-.14-2.63-.13-2.63-.3-5.66,0-.75h0L269.77,51l.09,1.73.25,4.79.14,2.64.14,2.62v.12l.14,2.63.11,2,0,.64.1,2,.14,2.62.32,6.15.13,2.37v.25l.13,2.38v.28l.12,2.35.13,2.33.13,2.6L272,94.1l.63,11.94.14,2.66.14,2.66.23,4.5.13,2.44v.2l.13,2.44v.18l.13,2.45.41,7.92-21.9,1.15-.43-8.14Z"/><rect class="c" x="243.38" y="48.89" width="31.5" height="17.18" transform="translate(-2.65 13.64) rotate(-3)"/><path d="M277.8,62.42l-.14-2.63-.14-2.63-.29-5.6-.14-2.65,0-1a3.11,3.11,0,0,0-.06-.44,2.48,2.48,0,0,0-.58-1.14,1.75,1.75,0,0,0-.23-.24,2.58,2.58,0,0,0-1.9-.68l-2,.11L245,47l-2.15.11A2.67,2.67,0,0,0,241,48a2.35,2.35,0,0,0-.19.25,2.56,2.56,0,0,0-.45,1.06,2.92,2.92,0,0,0,0,.59l.05,1,.14,2.63.29,5.42.13,2.63.14,2.63.15,2.83a2.64,2.64,0,0,0,2.28,2.48l.35,0H244l2.15-.11,2.63-.14,1.61-.09,5.36-.28,14.93-.78,2.64-.14,2.14-.11a2.65,2.65,0,0,0,.48-.07,2.5,2.5,0,0,0,.7-.28,2.6,2.6,0,0,0,1.31-2.42Zm-5.26.32-2.15.11L248.49,64l-2.15.11v-.22l-.14-2.62-.14-2.63-.29-5.59,0-.83,2.15-.11L269.77,51l2.15-.11.09,1.63.25,4.9L272.4,60l.13,2.62Z"/><rect class="c" x="143.52" y="57.37" width="27.21" height="85.92" transform="translate(-9.63 16.97) rotate(-6)"/><path d="M176,124.51l-.28-2.62-.25-2.44-.28-2.62-.27-2.62-1.43-13.54L173.2,98l-.27-2.59-.14-1.36-.28-2.63-.07-.65-.2-2-.07-.67-.28-2.6-.56-5.34-.27-2.62-.21-2-.07-.63-.57-5.41-.48,0-2.14.2-.28-2.62-.49,0-2.13.2L165,70l.1.89.27,2.62.24,2.24,0,.38.23,2.24.28,2.63.52,5,.28,2.6,0,.4.23,2.24,0,.38.28,2.62.17,1.65.27,2.59.28,2.65,1.42,13.46.27,2.62.28,2.62.26,2.49.28,2.62.18,1.76,1.88-.34.72-.13-.16-1.52Zm1.77,16.85-.11-1.05-.28-2.62-.69-6.64-.28-2.62-.13-1.29-.14-1.34-.14-1.29-.28-2.62-.25-2.44-.28-2.62-.27-2.62-1.43-13.54L173.2,98l-.27-2.59-.14-1.36-.28-2.63-.07-.65-.2-2-.07-.67-.28-2.6-.56-5.34-.27-2.62-.21-2-.07-.63-.57-5.41-.27-2.62-.28-2.62L169.11,59l-.28-2.62-.05-.49a2.76,2.76,0,0,0-.43-1.18,2.43,2.43,0,0,0-.93-.85,2.65,2.65,0,0,0-1.54-.31l-12.14,1.27-14.92,1.57-.12,0a2.61,2.61,0,0,0-1.6.89.12.12,0,0,0,0,0,2.19,2.19,0,0,0-.38.68,2.59,2.59,0,0,0-.19,1.26l.07.65.27,2.63.54,5.09.27,2.61.28,2.62.56,5.37.08.69.2,1.93.27,2.61.56,5.34.28,2.6.08.77.2,1.87.08.76.27,2.62.13,1.26.28,2.6.27,2.64,1.57,14.9.28,2.62.27,2.63.09.83.27,2.62.19,1.8.09.82.19,1.82.28,2.63.48,4.56.27,2.64.28,2.62,0,.29s0,.05,0,.08a2.47,2.47,0,0,0,.27.86h0a2.66,2.66,0,0,0,2.34,1.41h.28l27-2.85a2.6,2.6,0,0,0,1.77-1,2.44,2.44,0,0,0,.23-.33,1.26,1.26,0,0,0,.13-.26,2.29,2.29,0,0,0,.19-.63A2.42,2.42,0,0,0,177.76,141.36Zm-28.16-7.62-.28-2.61-.15-1.47-.12-1.16-.16-1.47-.27-2.61-.08-.71-.27-2.62-.28-2.61-1.58-15.09-.28-2.64-.27-2.6-.12-1.1-.27-2.63-.1-.91-.18-1.71-.09-.93-.28-2.6-.56-5.33L144,80.32l-.2-1.85-.08-.77-.19-1.86-.28-2.62-.09-.9-.28-2.61-.27-2.63-.49-4.68-.11-1,21.81-2.3,0,.39.56,5.33.28,2.62L165,70l.1.89.27,2.62.24,2.24,0,.38.23,2.24.28,2.63.52,5,.28,2.6,0,.4.23,2.24,0,.38.28,2.62.17,1.65.27,2.59.28,2.65,1.42,13.46.27,2.62.28,2.62.26,2.49.28,2.62.18,1.76.09.87.19,1.76.27,2.63.63,6,.14,1.34-21.82,2.29-.27-2.62Z"/><rect class="c" x="137.78" y="57.56" width="31.5" height="17.18" transform="translate(-6.07 16.41) rotate(-6)"/><path d="M172.71,72.78l-.36-3.44-.28-2.62-.27-2.62-.56-5.25L171,56.23l-.06-.54a2.6,2.6,0,0,0-.41-1.17,2.69,2.69,0,0,0-.85-.83,2.58,2.58,0,0,0-1.63-.35l-2.14.23-12.14,1.27-15,1.59-2,.21a2.62,2.62,0,0,0-1.58.74c-.06.07-.13.14-.19.22a2.44,2.44,0,0,0-.4.7,2.57,2.57,0,0,0-.18,1.23l0,.5.28,2.64.55,5.25.28,2.62.28,2.62.36,3.46A2.61,2.61,0,0,0,138.55,79H139l2.13-.22,2.62-.28,13.27-1.4L158,77l7.6-.8,2.62-.27,2.14-.23a4,4,0,0,0,.48-.09,2.72,2.72,0,0,0,1.23-.8l.06-.07A2.64,2.64,0,0,0,172.71,72.78Zm-5.52-2.07-2.13.22-21.82,2.29-2.14.23-.09-.89-.28-2.62-.27-2.62L140,62.5l-.09-.9,2.14-.22,21.81-2.3,2.14-.22,0,.42.56,5.31.27,2.63.28,2.62Z"/><rect class="c" x="528.94" y="86.73" width="85.92" height="27.21" transform="translate(412.34 658.61) rotate(-84)"/><path d="M562.48,64.55l-.49,0-.28,2.63-2.13-.21-.49,0-.28,2.62-.52,5-.12,1.11L558,77.09l-.27,2.63-.61,5.77-.27,2.6-.14,1.29-.14,1.36L556.45,92l-.28,2.64-.08.72L555.82,98l-.28,2.66-1.47,14-.28,2.63-.27,2.63-.21,2-.28,2.62,2.63.23-.27,2.59c.21,0,.41,0,.62.06l1,.12,1,.09.28-2.63.27-2.62.2-1.81.27-2.63.28-2.62,1.48-14.14.28-2.64.27-2.6.14-1.28.28-2.65.07-.71.2-1.93.08-.71.27-2.61.56-5.33.28-2.63.19-1.85.09-.77.19-1.85.27-2.62.1-.93.28-2.62.27-2.62Zm29.92-6.38-.06-.18h0a2.59,2.59,0,0,0-2-1.56l-.1,0-14.92-1.57-12.14-1.27a2.66,2.66,0,0,0-1.94.57,2.11,2.11,0,0,0-.39.4.76.76,0,0,0-.11.14,2.71,2.71,0,0,0-.46,1.23l-.13,1.22-.27,2.62-.48,4.5-.27,2.63-.28,2.62-.52,5-.12,1.11L558,77.09l-.27,2.63-.61,5.77-.27,2.6-.14,1.29-.14,1.36L556.45,92l-.28,2.64-.08.72L555.82,98l-.28,2.66-1.47,14-.28,2.63-.27,2.63-.21,2-.28,2.62-.27,2.6v0l-.27,2.59-.28,2.62-.43,4.06-.27,2.62-.25,2.37a2.44,2.44,0,0,0,0,.27,1.9,1.9,0,0,0,0,.41,1.76,1.76,0,0,0,.18.62,2,2,0,0,0,.36.63,2.64,2.64,0,0,0,1.78,1l27,2.85h.28a2.66,2.66,0,0,0,2.36-1.46,2.45,2.45,0,0,0,.25-.86.06.06,0,0,0,0,0l.25-2.37.27-2.62.28-2.64.16-1.55.28-2.61.28-2.63,0-.19.27-2.62.28-2.62.11-1.12.28-2.62.27-2.62,1.54-14.62.28-2.64.27-2.6.08-.76.28-2.63.13-1.25.14-1.37.14-1.27.27-2.6.57-5.43.28-2.64.18-1.76.1-.88.55-5.23.27-2.62.28-2.62.44-4.18.27-2.62.16-1.51A2.55,2.55,0,0,0,592.4,58.17Zm-7,19.06-.13,1.24-.14,1.38-.28,2.62-.6,5.75-.27,2.6-.15,1.36-.13,1.28-.14,1.34-.28,2.63-.07.67-.27,2.6-.28,2.64-1.49,14.2-.28,2.64-.28,2.64-.16,1.55-.28,2.62-.27,2.62,0,.31-.56,5.26-.18,1.71-.27,2.63-.22,2.06-21.81-2.29,0-.24.27-2.63.38-3.59.27-2.62.28-2.62v0l.28-2.63.27-2.62.2-1.81.27-2.63.28-2.62,1.48-14.14.28-2.64.27-2.6.14-1.28.28-2.65.07-.71.2-1.93.08-.71.27-2.61.56-5.33.28-2.63.19-1.85.09-.77.19-1.85.27-2.62.1-.93.28-2.62.27-2.62.5-4.71.1-1L587,61.38l-.14,1.3L586.43,67l-.28,2.63-.27,2.61-.11,1-.27,2.61Z"/><rect class="c" x="566.9" y="50.4" width="17.18" height="31.5" transform="translate(449.55 631.58) rotate(-84)"/><path d="M594.52,58.35a.37.37,0,0,0,0-.11,2.27,2.27,0,0,0-.37-.64,2.58,2.58,0,0,0-1.77-1l-2-.21-15-1.59-12.14-1.27L561,53.34a2.62,2.62,0,0,0-2.36,1,.6.6,0,0,0-.09.13,2.65,2.65,0,0,0-.45,1.21L558,56.92l-.27,2.63-.48,4.5L557,66.68l-.27,2.61-.37,3.49a2.62,2.62,0,0,0,.26,1.43,2,2,0,0,0,.31.5,2.7,2.7,0,0,0,1.29.87l.48.09,2.14.23,2.62.27,21.81,2.3,2.63.28L590,79h.49a2.61,2.61,0,0,0,2.41-2.35l.37-3.52.28-2.62.27-2.61.45-4.25.27-2.62.16-1.47A2.49,2.49,0,0,0,594.52,58.35ZM561.93,69.79l.27-2.62.28-2.62L563,60l.11-1.1,2.14.22L587,61.38l2.14.22L589,63l-.45,4.23-.27,2.62L588,72.51l-.1.94-2.14-.22L564,70.93l-2.13-.22Z"/><path class="c" d="M667.73,102.41l-1.55,9.78C580.54,97.52,474.33,89.51,364.74,89.51s-215.8,8-301.44,22.68l-1.55-9.78c86.1-14.79,192.84-22.87,303-22.87S581.64,87.62,667.73,102.41Z"/><path d="M506.05,86.63c-2.88-.23-5.79-.33-8.7-.43q5.75.35,11.44.73C507.88,86.81,507,86.7,506.05,86.63ZM482.3,85.08l-2.62-.27c-1.71-.18-3.42-.33-5.14-.44-5.23-.32-10.51-.2-15.8-.48l-1-.07c-.88,0-1.76-.12-2.63-.2l0,.41,2.63.12q11,.45,21.92,1l2.63.14,2.63.14c.87,0,1.75.09,2.62.15l-2.62-.26ZM270.61,83.94c-5.22.27-10.43,0-15.58.27-1.83.11-3.64.3-5.45.53l-2.62.33-2.62.34-1.26.14,1.26-.07,2.63-.14,2.63-.14q10.89-.58,21.91-1v-.28C271.2,83.91,270.91,83.93,270.61,83.94ZM223.93,86.1c-3.32.25-6.6.81-9.87,1.29Q224.44,86.66,235,86C231.27,86,227.57,85.82,223.93,86.1Zm-31.07,2.31a62.09,62.09,0,0,0-7.05,1.18q8.24-.7,16.58-1.35C199.2,88.22,196,88.12,192.86,88.41ZM668.18,99.82l-5.58-.95-2.6-.43L657.4,98c-21.49-3.48-44.24-6.57-68-9.22l-2.62-.3-2.62-.28Q573.42,87,562.38,86l-2.63-.24-2.62-.25c-23.31-2.16-47.37-3.93-71.94-5.29l-2.63-.14-2.63-.14q-10.89-.58-21.91-1l-2.63-.11-2.64-.1c-23.64-1-47.63-1.51-71.77-1.69l-2.63,0-2.64,0-11,0-11,0-2.64,0-2.63,0c-24.22.18-48.29.75-72,1.7l-2.63.1-2.64.11q-11,.47-21.9,1.05l-2.64.14-2.63.14c-24.65,1.37-48.79,3.15-72.17,5.32l-2.62.25-2.63.25q-11,1.06-21.82,2.24l-2.62.28-2.62.3C116,91.49,93.43,94.56,72.08,98l-2.6.42-2.59.43-5.58.95a2.64,2.64,0,0,0-2.16,3l.23,1.47.42,2.62.41,2.62.49,3.07a2.69,2.69,0,0,0,1.07,1.73,2.65,2.65,0,0,0,1.53.49,2.28,2.28,0,0,0,.45,0l5.51-.93,2.6-.43,2.6-.42c21.11-3.41,43.44-6.43,66.71-9l2.62-.29,2.62-.29q10.78-1.17,21.82-2.23l2.63-.25,2.62-.24c23.12-2.15,47-3.91,71.38-5.25l2.63-.14,2.64-.14q10.89-.58,21.9-1c.88,0,1.76-.08,2.64-.11s1.75-.08,2.63-.11c23.45-.94,47.26-1.5,71.21-1.68l2.63,0h2.64c3.65,0,7.31,0,11,0s7.31,0,11,0h2.64l2.63,0c23.87.17,47.6.74,71,1.67l2.63.11c.88,0,1.75.06,2.63.11q11,.45,21.92,1c.88,0,1.76.08,2.63.14l2.62.14c24.3,1.33,48.1,3.08,71.15,5.22.88.07,1.75.15,2.62.24l2.63.24q11,1.06,21.82,2.23l2.62.28,2.62.3c23.44,2.62,45.93,5.66,67.17,9.09l2.61.42,2.59.43,5.52.93a2.63,2.63,0,0,0,3-2.18l.41-2.62.42-2.6.41-2.6.31-2A2.62,2.62,0,0,0,668.18,99.82Zm-3.74,6.51-.41,2.6,0,.22-3-.49-2.6-.43-2.23-.37-.37-.06q-7.17-1.15-14.51-2.25c-17-2.53-34.67-4.83-52.94-6.87l-2.62-.29-2.62-.29q-10.78-1.17-21.82-2.23l-2.62-.25-2.63-.24c-23.14-2.14-47-3.89-71.42-5.24L482,90l-2.63-.13q-10.89-.59-21.91-1l-2.64-.12-2.63-.1c-23.47-.94-47.29-1.5-71.25-1.68l-2.63,0h-2.64q-5.47,0-11,0t-11,0h-2.64l-2.63,0c-24,.18-47.94.74-71.49,1.69l-2.63.1-2.63.12q-11,.45-21.91,1c-.88,0-1.76.08-2.64.14l-2.63.14c-24.47,1.35-48.43,3.11-71.65,5.26l-2.62.25-2.63.25q-11,1-21.82,2.23l-2.62.29-2.62.29c-23.37,2.62-45.79,5.65-67,9.07l-2.6.43-2.59.43-3,.49-.16-1-.41-2.62-.15-.94,2.94-.49,2.6-.43c.86-.15,1.73-.29,2.6-.42,21.27-3.45,43.77-6.51,67.23-9.14l2.61-.29,2.62-.29q10.78-1.19,21.82-2.24l2.63-.24,2.62-.25q6.65-.61,13.37-1.19,8.24-.7,16.58-1.35,5.82-.45,11.67-.85Q224.44,86.66,235,86h0l8.09-.47,1.26-.07,2.63-.14,2.63-.14q10.89-.58,21.91-1c.88,0,1.76-.08,2.64-.12l2.63-.1c23.63-1,47.61-1.52,71.73-1.7l2.63,0h2.64c3.65,0,7.31,0,11,0s7.31,0,11,0h2.64l2.63,0c3.78,0,7.55.06,11.32.12,2.45,0,4.89.06,7.33.1q26.64.41,52.85,1.47l2.63.1,2.63.12q11,.45,21.92,1l2.63.14,2.63.14c.87,0,1.75.09,2.62.15q4.92.27,9.81.58,5.75.35,11.44.73,24.33,1.63,47.79,3.81c.88.07,1.75.16,2.62.24l2.63.25q11,1,21.82,2.23l2.62.29,2.62.29c23.62,2.64,46.28,5.71,67.68,9.18l2.61.43,2.59.43,3,.49Z"/><path class="c" d="M696.38,143.05l-3.25,20.57c-91.75-16.79-208.1-26-328.39-26s-236.65,9.21-328.38,26L33.1,143.05c92.68-17,210.22-26.34,331.64-26.34S603.71,126.06,696.38,143.05Z"/><path d="M556,127.35c-.21,0-.41,0-.62-.06l.27-2.59-2.63-.23.28-2.62c-22.78-1.94-46.19-3.54-70-4.77l-2.63-.13-2.63-.13q-10.9-.54-21.92-1l-2.63-.1-2.64-.1c-23-.85-46.33-1.36-69.83-1.52l-2.63,0h-2.64q-5.47,0-11,0t-11,0h-2.64l-2.63,0c-23.58.16-47,.67-70.07,1.53l-2.63.1-2.64.1q-11,.44-21.91,1l-2.64.13-2.63.13c-23.93,1.24-47.42,2.84-70.28,4.8l.28,2.62-2.63.23.16,1.52-.72.13-1.88.34.09.87,2.63-.23,2.63-.23c20.48-1.76,41.47-3.23,62.84-4.41l7.16-.38,2.63-.13,2.64-.13,3.29-.16q7-.33,14-.62l4.63-.19,2.63-.1,2.63-.1q5.25-.19,10.53-.36l6.05-.19q26.4-.8,53.22-1l2.63,0h2.64c3,0,6.05,0,9.08,0h1.88q5.49,0,11,0h2.64l2.63,0,4.35,0,8.87.1q7.68.09,15.33.24h.05q11.39.21,22.68.55l3.27.09q7.53.23,15,.5l2.63.1,2.63.1,4.16.17,9.33.4,8.43.4,2.63.13,2.63.13q27.67,1.43,54.45,3.51,7.07.54,14,1.14l1.29.11,2.62.23,1.67.14Zm142.68,14.43a2.63,2.63,0,0,0-1.83-1.32q-6.39-1.17-12.94-2.29l-2.6-.44-2-.34-.6-.1-2.4-.4q-8-1.32-16.12-2.56l-.31-.05-1.41-.21c-.48-.07-1-.15-1.44-.21-.86-.14-1.73-.27-2.6-.39l-2.61-.39q-5.57-.81-11.2-1.59c-17.73-2.44-36.1-4.64-55-6.59l-2.62-.27-2.63-.26q-10.81-1.09-21.84-2.06l-2.62-.23-2.63-.23c-22.78-1.94-46.19-3.54-70-4.77l-2.63-.13-2.63-.13q-10.9-.54-21.92-1l-2.63-.1-2.64-.1c-23-.85-46.33-1.36-69.83-1.52l-2.63,0h-2.64q-5.47,0-11,0t-11,0h-2.64l-2.63,0c-23.58.16-47,.67-70.07,1.53l-2.63.1-2.64.1q-11,.44-21.91,1l-2.64.13-2.63.13c-23.93,1.24-47.42,2.84-70.28,4.8l-2.62.23-2.63.23q-11,1-21.84,2.07l-2.62.26-2.62.27q-21.76,2.25-42.54,4.94-11.79,1.53-23.2,3.2l-2.61.38-2.6.39q-9.62,1.42-18.93,3l-2.74.46-.82.13-1.78.31-2.59.44q-6.54,1.11-12.94,2.29A2.6,2.6,0,0,0,30.69,142a2.54,2.54,0,0,0-.19,1.45l.19,1.19.41,2.62L33,159l.41,2.6.39,2.48a.53.53,0,0,0,0,.12,2.69,2.69,0,0,0,1,1.62,2.64,2.64,0,0,0,1.53.48,2.42,2.42,0,0,0,.47,0c81.16-14.85,182-23.78,287.47-25.61l1.23,0q19.52-.33,39.21-.33t39.21.33l1.22,0c105.49,1.83,206.31,10.76,287.48,25.61a2.63,2.63,0,0,0,2-.44,2.66,2.66,0,0,0,1.06-1.62s0-.08,0-.12l.39-2.48.42-2.6L698.42,147l.42-2.63.15-.95A2.61,2.61,0,0,0,698.69,141.78Zm-5.31,3.4L693.1,147l-1.77,11.17-.38,2.42q-5.57-1-11.24-2-14.7-2.5-30.15-4.75c-21.17-3.09-43.32-5.82-66.26-8.17q-15.67-1.62-31.83-3-7.12-.61-14.33-1.17-27.75-2.16-56.56-3.62-12.7-.63-25.58-1.14l-1.17,0q-22.12-.85-44.63-1.29l-2.16,0-5-.08-9.12-.13h-.33q-13.87-.17-27.84-.17-18.71,0-37.29.3l-5.17.08-2,0q-22.92.43-45.48,1.32-13.12.51-26.09,1.16-18.49.94-36.6,2.17l-.3,0-4.94.35-1.47.1q-14.07,1-27.85,2.18l-6.4.56q-12.84,1.14-25.4,2.43h0c-38.23,3.93-74.29,8.9-107.2,14.84l-.38-2.42-1.73-10.9-.32-2,3.47-.62c2.26-.4,4.52-.8,6.81-1.19l2.6-.44,1.64-.28.95-.16,2.06-.35,2.81-.46.54-.08q8-1.31,16.26-2.54l2.61-.39,2.6-.38Q93.9,136,110,134q10.35-1.28,21-2.46c1.21-.13,2.42-.27,3.64-.39q4.65-.52,9.33-1l2.62-.27,2.62-.26Q160,128.57,171,127.6l2.63-.23,2.63-.23c20.48-1.76,41.47-3.23,62.84-4.41l7.16-.38,2.63-.13,2.64-.13,3.29-.16q7-.33,14-.62l4.63-.19,2.63-.1,2.63-.1q5.25-.19,10.53-.36l6.05-.19q26.4-.8,53.22-1l2.63,0h2.64c3,0,6.05,0,9.08,0h1.88q5.49,0,11,0h2.64l2.63,0,4.35,0,8.87.1q7.68.09,15.33.24h.05q11.39.21,22.68.55l3.27.09q7.53.23,15,.5l2.63.1,2.63.1,4.16.17,9.33.4,8.43.4,2.63.13,2.63.13q27.67,1.43,54.45,3.51,7.07.54,14,1.14l1.29.11,2.62.23,1.67.14,1,.09q11,1,21.84,2.05l2.62.27,2.63.26c22.81,2.36,44.85,5.08,65.92,8.15l2.61.38,2.6.39q7.11,1.06,14.06,2.18l2.93.47,3.56.59,1.12.19,1.54.26,1.06.18,2.59.44,5,.87Z"/><path class="a" d="M52.39,58.24c5-.81,10.35-.47,15.51-1.25s10-2.44,15.18-3.18,10.35-.2,15.51-.9,10.08-2.18,15.24-2.84,10.25-.91,15.41-1.53,10.09-2.24,15.26-2.81,10.33-.17,15.5-.7,10.13-2.18,15.3-2.67,10.39.67,15.57.22,10.16-2,15.34-2.41,10.37.66,15.55.3,10.18-2,15.36-2.34,10.32,0,15.5-.23,10.26-.88,15.45-1.12,10.3-.11,15.49-.3,10.28-.75,15.46-.9,10.32.81,15.51.7S324.8,34.22,330,34.15s10.31,1.16,15.5,1.13,10.3-.85,15.49-.83c5.56,0,11.07,1,16.56,1s11.1-1.19,16.59-1.08,11,2,16.52,2.21,11.12-1.12,16.6-.91,11,2.08,16.48,2.34,11.16-1.17,16.64-.86,10.95,2.44,16.42,2.79,11.19-1.23,16.67-.82,10.9,2.75,16.36,3.2,11.13-.06,16.59.44,11,1.24,16.47,1.79,11,.84,16.5,1.44,11,1.68,16.41,2.32,11.16.12,16.59.81,10.88,2.38,16.3,3.11,11.05,1.07,16.47,1.85,10.92,2,16.32,2.83,11,1.27,16.43,2.15,10.77,2.89,16.15,3.81,11.25.26,16.62,1.23c0,.15-.4,1.2-.42,1.35s.37.37.35.52-1.14.12-1.17.27,1.37.53,1.34.69-1.4.07-1.42.22,1.32.53,1.29.68-.89.16-.91.31.82.45.79.6-.71.19-.74.34.32.36.3.51-1.15.12-1.17.27.72.43.7.58-.58.22-.61.37.87.45.84.6-1.49.06-1.52.21,1.39.54,1.37.69-1.06.13-1.09.28.6.41.58.56-.94.16-1,.31.67,1.21.65,1.37c-5.34-.89-10.61-2.64-16.06-3.5s-10.82-1.2-16.28-2-10.56-3-16-3.78-11,.41-16.51-.32-10.61-2.76-16.08-3.44-10.91-.45-16.38-1.09-10.71-2.2-16.19-2.79S564.43,57.58,559,57s-10.81-1.38-16.29-1.88-10.91-.33-16.4-.79S515.48,52.54,510,52.13s-10.94.22-16.43-.15-10.82-1.57-16.31-1.89-10.9-.25-16.39-.53-10.87-1-16.37-1.22-10.93.67-16.42.48-10.88-1.28-16.37-1.42-10.92.38-16.41.29-10.89-1.35-16.39-1.4S368,47.44,362.49,47.43c-5.22,0-10.41-.89-15.57-.85s-10.39.73-15.55.81-10.42-.84-15.58-.73-10.38,1.3-15.53,1.46-10.43-.49-15.59-.29-10.32,2-15.48,2.26-10.44-.58-15.59-.3-10.37.94-15.51,1.26-10.47-.59-15.62-.23S212.24,53.6,207.11,54s-10.51-.78-15.64-.34-10.3,1.65-15.43,2.13-10.38.83-15.5,1.35-10.28,1.83-15.4,2.39-10.44.26-15.56.86S119.29,62,114.19,62.64s-10.49.11-15.59.79-10.07,3.26-15.16,4-10.5.12-15.58.88S57.7,70.94,52.62,71.74c0-.2.76-1,.76-1.25s-1-.4-1-.6,1-.41,1-.61-1-.4-1-.6,1.25-.4,1.25-.6-1.71-.4-1.71-.6.73-.4.73-.6-.23-.4-.23-.61,1-.4,1-.6-1-.4-1-.6.31-.4.31-.6-.17-.4-.17-.6.81-.4.81-.6-1.16-.41-1.16-.61,1.16-.4,1.16-.6-1.08-.4-1.08-.6.58-.4.58-.6-.36-.4-.36-.6.18-.4.18-.61S52.39,58.44,52.39,58.24Z"/><path d="M664.66,67.7l-2.42-.27c-1.77-.2-3.56-.41-5.32-.68A61.82,61.82,0,0,1,649.43,65a64.35,64.35,0,0,0-8.56-2,32.8,32.8,0,0,0-4.74-.3c-1.35,0-2.69,0-4,.1l-1.75.06a36.4,36.4,0,0,1-6-.18A65,65,0,0,1,616.81,61l-.24-.06a65.54,65.54,0,0,0-8.34-1.75c-2.85-.36-5.75-.48-8.55-.59-1,0-2.06-.08-3.1-.14-.68,0-1.37-.07-2.06-.13s-1.42-.1-2.12-.18l-.57-.06c-1.35-.16-2.7-.37-4.06-.63-1.17-.21-2.35-.45-3.56-.7-2.78-.56-5.65-1.14-8.59-1.46s-5.76-.4-8.56-.49c-2.06-.06-4.17-.13-6.25-.29-.54,0-1.07-.08-1.6-.13l-.57-.06c-2.29-.24-4.63-.52-6.89-.81-2.88-.36-5.87-.74-8.85-1s-5.79-.35-8.6-.43c-2.57-.07-5.23-.15-7.82-.36s-5-.63-7.67-1.07-5.68-1-8.62-1.17-5.79-.15-8.6-.09c-2.59.05-5.28.11-7.85-.06-1.65-.11-3.29-.3-5-.52l-2.23-.31-.5-.07c-2.81-.41-5.71-.82-8.65-1s-5.89-.23-8.75-.29c-2.52-.06-5.12-.11-7.66-.24-2-.1-4-.27-6-.43l-1.62-.15-.47,0c-2.7-.24-5.49-.49-8.27-.6A81.68,81.68,0,0,0,436,46c-2.71.17-5.27.33-7.85.24s-5-.38-7.72-.69-5.72-.66-8.66-.74-5.8,0-8.62.14c-2.57.1-5.23.2-7.82.15a75.28,75.28,0,0,1-7.72-.67c-1.87-.22-3.77-.46-5.7-.59-.78-.06-1.56-.1-2.35-.12h-.64a74.26,74.26,0,0,0-8.62.58,72.67,72.67,0,0,1-7.79.56h0c-2.45,0-5-.22-7.43-.42-1.84-.16-3.72-.31-5.62-.39-.69,0-1.39-.05-2.08-.05h-.46c-2.78,0-5.55.22-8.23.42s-4.92.36-7.34.39-4.86-.15-7.43-.35a59.91,59.91,0,0,0-16.4.39c-2.54.32-4.93.63-7.33.7s-5,0-7.44-.15c-2.66-.12-5.41-.25-8.16-.14a51.53,51.53,0,0,0-8.17,1.16l-.12,0-1.82.35a37,37,0,0,1-5.39.72,71.63,71.63,0,0,1-7.43-.15,74,74,0,0,0-8.18-.14c-2.81.15-5.63.41-8.35.66L243,48l-2.2.19-2.87.2a64.09,64.09,0,0,1-7.43-.12,67.91,67.91,0,0,0-8.21-.1A43.21,43.21,0,0,0,214,49.88a38.37,38.37,0,0,1-7.07,1.49,49.65,49.65,0,0,1-7.37-.18,51.84,51.84,0,0,0-8.28-.16c-2.79.24-5.53.69-8.19,1.12-2.5.41-4.87.79-7.27,1q-3.07.28-6.14.52l-.68.06-1.55.13c-2.36.19-4.78.39-7.15.63-2.78.29-5.51.78-8.16,1.26s-4.86.87-7.25,1.13-5,.34-7.45.41h-.31l-2,.06c-1.93.06-3.89.16-5.83.39-2.8.33-5.59.77-8.28,1.2-2.35.37-4.78.76-7.14,1.05a62,62,0,0,1-7.43.36,70.74,70.74,0,0,0-8.18.43,45.46,45.46,0,0,0-8.2,2.13,41.65,41.65,0,0,1-7,1.86,57.44,57.44,0,0,1-7.41.4,63.11,63.11,0,0,0-8.19.48l-.5.08c-.87.14-1.73.31-2.58.5s-1.72.39-2.57.6l.27,1.73.14.89c.85-.22,1.71-.43,2.57-.62l.41,2.61c.86-.19,1.73-.36,2.59-.5l.44-.07a56.44,56.44,0,0,1,7.49-.43A63.53,63.53,0,0,0,83.81,70,47.24,47.24,0,0,0,91.69,68,41.3,41.3,0,0,1,99,66a61.28,61.28,0,0,1,7.54-.38,72.91,72.91,0,0,0,8-.41c2.45-.3,4.93-.7,7.32-1.08,2.64-.42,5.37-.85,8.06-1.16,1.58-.19,3.16-.28,4.78-.34l2.15-.08h.73l1.92,0,.48,0c.72,0,1.44,0,2.16-.1,1.1,0,2.21-.14,3.32-.26,2.57-.28,5.14-.74,7.62-1.19s5.18-.93,7.75-1.19l3-.29,2.14-.19.49,0,2.14-.18.49,0,.29,0,1.84-.15c1.68-.13,3.36-.28,5-.43,2.58-.25,5.15-.66,7.63-1.07s5.2-.85,7.78-1.07a48.27,48.27,0,0,1,7.46.17,53.86,53.86,0,0,0,8.16.17A42.58,42.58,0,0,0,215.36,55a38.75,38.75,0,0,1,7.3-1.51,62.06,62.06,0,0,1,7.56.11,69.07,69.07,0,0,0,8,.11l2.26-.16,2.15-.17.48,0,2.14-.2.32,0,.16,0,2.15-.19c1.93-.17,3.89-.33,5.83-.44a69.93,69.93,0,0,1,7.62.14,77.68,77.68,0,0,0,8,.16l.54,0c.72,0,1.44-.11,2.15-.21l.48-.06c.72-.1,1.43-.22,2.13-.35l.49-.09,2.12-.41h.07a49.51,49.51,0,0,1,7.47-1.09c2.53-.1,5.05,0,7.72.14s5.19.24,7.85.16,5.28-.42,7.82-.75a74.53,74.53,0,0,1,7.69-.71c2.49,0,5,.14,7.63.35s5.25.41,7.93.37,5.15-.22,7.65-.4,4.88-.36,7.3-.4h.58c.52,0,1.05,0,1.57,0a3.85,3.85,0,0,1,.48,0c.71,0,1.43.06,2.15.11l.49,0c.7,0,1.42.1,2.15.16l.84.07c2.56.22,5.2.44,7.87.44h0a78.31,78.31,0,0,0,8.35-.59c1.66-.18,3.27-.34,4.85-.44.72,0,1.44-.09,2.15-.1h1c.54,0,1.08,0,1.62,0,.17,0,.33,0,.49,0,.72,0,1.43.1,2.15.17,1.26.12,2.53.27,3.84.43a77.25,77.25,0,0,0,8.27.71c2.74,0,5.47,0,8.11-.15,2.86-.11,5.56-.21,8.28-.14s5.49.39,8.19.71,5.41.62,8.16.72,5.63-.08,8.34-.25a76.25,76.25,0,0,1,8.07-.23c2.53.1,5.11.32,7.63.54l.86.08,1.29.11.48,0c.71.07,1.43.13,2.14.18l.49,0,2.14.15,1.31.07c2.62.14,5.25.19,7.8.24,2.83.06,5.74.13,8.57.29,1.4.08,2.82.23,4.24.41.71.08,1.42.18,2.13.28l.49.07c.45.05.9.12,1.34.18l.79.11.49.07,2.13.29c1.54.2,3.11.38,4.68.48,2.81.19,5.61.13,8.31.07s5.46-.12,8.09.08,5.48.66,8.16,1.11,5.36.89,8.1,1.12,5.45.3,8.1.38c2.86.08,5.56.16,8.27.41,2.89.26,5.83.63,8.68,1,2.16.27,4.39.55,6.6.78l1,.1,1.15.1.49,0c.72.06,1.43.1,2.14.14l.49,0,2.15.09,1.78.05c2.83.09,5.51.17,8.17.46s5.44.85,8.1,1.39c1.22.25,2.46.5,3.72.73q1.07.2,2.13.36l.48.08,1.73.23.4,0,.49,0c.72.08,1.43.14,2.14.18,1.76.13,3.51.2,5.22.27,2.82.11,5.48.22,8.11.55a61.94,61.94,0,0,1,7.92,1.68,69.28,69.28,0,0,0,8.15,1.75,50.54,50.54,0,0,0,8.68.17,43.69,43.69,0,0,1,7.8.14A59.2,59.2,0,0,1,648,70,65.21,65.21,0,0,0,656.14,72c1.76.26,3.53.49,5.28.68l.41-2.6,2.62.28.35-2.18.06-.42ZM693.23,66a2.4,2.4,0,0,0-.12-.76,4.06,4.06,0,0,0,.16-.62,2.74,2.74,0,0,0-.14-1.4,2.54,2.54,0,0,0-.26-.49,2.59,2.59,0,0,0-1.73-1.13,56.3,56.3,0,0,0-8.74-.67l-1,0h0a48.72,48.72,0,0,1-6.84-.54c-1.86-.32-3.7-.77-5.6-1.27l-1.47-.4-.5-.13-.58-.16-1-.27-1.52-.4c-1.78-.46-3.6-.88-5.46-1.18-2.89-.47-5.84-.82-8.69-1.15-2.56-.3-5.2-.61-7.77-1s-5-.86-7.51-1.32c-2.87-.53-5.85-1.09-8.84-1.52s-5.85-.71-8.71-1c-2.55-.25-5.2-.51-7.77-.86s-5-.89-7.67-1.48c-2.8-.62-5.7-1.26-8.66-1.64a77.46,77.46,0,0,0-8.69-.44,75.55,75.55,0,0,1-7.92-.36c-2.52-.3-5.11-.71-7.62-1.1-2.87-.44-5.83-.91-8.81-1.23s-6-.57-9-.8c-2.48-.19-5.05-.39-7.56-.65s-4.8-.51-7.22-.79c-3-.35-6.15-.71-9.27-1-2.91-.27-5.85-.25-8.69-.24-2.61,0-5.32,0-7.92-.19a46.77,46.77,0,0,1-7.59-1.52,50.36,50.36,0,0,0-8.8-1.69,48.22,48.22,0,0,0-8.86.41,44.77,44.77,0,0,1-7.83.41A49.57,49.57,0,0,1,469.32,36a53.65,53.65,0,0,0-8.81-1.47,55.56,55.56,0,0,0-8.79.43,53.15,53.15,0,0,1-7.86.43,54.18,54.18,0,0,1-7.7-1.12,59.72,59.72,0,0,0-8.81-1.22,61.49,61.49,0,0,0-8.74.46,63,63,0,0,1-7.88.44,50.16,50.16,0,0,1-7.7-1.05,54.22,54.22,0,0,0-8.84-1.15,67.87,67.87,0,0,0-8.73.55,65.59,65.59,0,0,1-7.88.53c-2.57,0-5.12-.27-7.82-.51s-5.8-.53-8.77-.54h-.19c-2.71,0-5.4.21-8,.42s-4.91.4-7.31.41a72.56,72.56,0,0,1-7.36-.55,62.56,62.56,0,0,0-8.16-.58,44.45,44.45,0,0,0-8.34,1.12,42.42,42.42,0,0,1-7.14,1c-2.42.05-4.83-.15-7.38-.35a73.1,73.1,0,0,0-8.15-.36c-2.8.08-5.6.28-8.31.47-2.36.17-4.8.34-7.18.43s-4.85.11-7.22.14c-2.72,0-5.52.05-8.29.17s-5.61.36-8.33.59c-2.35.2-4.78.4-7.14.53s-4.95.11-7.39.09c-2.66,0-5.4,0-8.13.14a61.78,61.78,0,0,0-8.2,1.23,58.06,58.06,0,0,1-7.18,1.11,53.81,53.81,0,0,1-7.36-.16,59,59,0,0,0-8.21-.14,73.29,73.29,0,0,0-8.17,1.27A66.91,66.91,0,0,1,190.65,40a49,49,0,0,1-7.34-.12,51.64,51.64,0,0,0-8.26-.1,70.5,70.5,0,0,0-8.14,1.4,66.9,66.9,0,0,1-7.18,1.26c-2.42.25-5,.29-7.41.33-2.65,0-5.39.08-8.11.38a77.68,77.68,0,0,0-8.12,1.48c-2.47.54-4.81,1-7.16,1.33s-4.87.51-7.26.71c-2.68.23-5.45.47-8.17.82s-5.48.94-8.1,1.5-4.81,1-7.16,1.35a65.66,65.66,0,0,1-7.4.41,66.19,66.19,0,0,0-8.14.49c-2.77.4-5.47,1-8.07,1.67S69.85,54,67.5,54.38c-1,.15-1.92.25-2.9.33-.45,0-.91.08-1.37.1l-.83,0-.64,0L60.09,55l-1.2.06a60.05,60.05,0,0,0-6.92.61,2.65,2.65,0,0,0-1.78,1.15,2.61,2.61,0,0,0-.44,1.45,6.22,6.22,0,0,0,.17,1.22.43.43,0,0,0,0,0,2.75,2.75,0,0,0-.09.75v.11a2.66,2.66,0,0,0-.22,1.09,2.6,2.6,0,0,0,0,.4,2.22,2.22,0,0,0-.09.37,3,3,0,0,0,0,.43A2.52,2.52,0,0,0,49.87,64a.76.76,0,0,0,0,.15,2.75,2.75,0,0,0-.15.91c0,.12,0,.23,0,.34a2.36,2.36,0,0,0,0,.28l0,.17a2.64,2.64,0,0,0-.53,1.62,2.5,2.5,0,0,0,.09.69,2.29,2.29,0,0,0,.4.88c0,.08,0,.16,0,.24a2.88,2.88,0,0,0-.06.59,2.75,2.75,0,0,0,.14.88,2.28,2.28,0,0,0,.2.45,2.89,2.89,0,0,0,0,.53,2.63,2.63,0,0,0,3,2.6c2.61-.41,5.18-1.09,7.67-1.74l1.94-.51c.86-.22,1.72-.43,2.57-.62s1.73-.36,2.59-.5l.44-.07a56.44,56.44,0,0,1,7.49-.43A63.53,63.53,0,0,0,83.81,70,47.24,47.24,0,0,0,91.69,68,41.3,41.3,0,0,1,99,66a61.28,61.28,0,0,1,7.54-.38,72.91,72.91,0,0,0,8-.41c2.45-.3,4.93-.7,7.32-1.08,2.64-.42,5.37-.85,8.06-1.16,1.58-.19,3.16-.28,4.78-.34l2.15-.08h.73l1.92,0,.48,0c.72,0,1.44,0,2.16-.1,1.1,0,2.21-.14,3.32-.26,2.57-.28,5.14-.74,7.62-1.19s5.18-.93,7.75-1.19l3-.29,2.14-.19.49,0,2.14-.18.49,0,.29,0,1.84-.15c1.68-.13,3.36-.28,5-.43,2.58-.25,5.15-.66,7.63-1.07s5.2-.85,7.78-1.07a48.27,48.27,0,0,1,7.46.17,53.86,53.86,0,0,0,8.16.17A42.58,42.58,0,0,0,215.36,55a38.75,38.75,0,0,1,7.3-1.51,62.06,62.06,0,0,1,7.56.11,69.07,69.07,0,0,0,8,.11l2.26-.16,2.15-.17.48,0,2.14-.2.32,0,.16,0,2.15-.19c1.93-.17,3.89-.33,5.83-.44a69.93,69.93,0,0,1,7.62.14,77.68,77.68,0,0,0,8,.16l.54,0c.72,0,1.44-.11,2.15-.21l.48-.06c.72-.1,1.43-.22,2.13-.35l.49-.09,2.12-.41h.07a49.51,49.51,0,0,1,7.47-1.09c2.53-.1,5.05,0,7.72.14s5.19.24,7.85.16,5.28-.42,7.82-.75a74.53,74.53,0,0,1,7.69-.71c2.49,0,5,.14,7.63.35s5.25.41,7.93.37,5.15-.22,7.65-.4,4.88-.36,7.3-.4h.58c.52,0,1.05,0,1.57,0a3.85,3.85,0,0,1,.48,0c.71,0,1.43.06,2.15.11l.49,0c.7,0,1.42.1,2.15.16l.84.07c2.56.22,5.2.44,7.87.44h0a78.31,78.31,0,0,0,8.35-.59c1.66-.18,3.27-.34,4.85-.44.72,0,1.44-.09,2.15-.1h1c.54,0,1.08,0,1.62,0,.17,0,.33,0,.49,0,.72,0,1.43.1,2.15.17,1.26.12,2.53.27,3.84.43a77.25,77.25,0,0,0,8.27.71c2.74,0,5.47,0,8.11-.15,2.86-.11,5.56-.21,8.28-.14s5.49.39,8.19.71,5.41.62,8.16.72,5.63-.08,8.34-.25a76.25,76.25,0,0,1,8.07-.23c2.53.1,5.11.32,7.63.54l.86.08,1.29.11.48,0c.71.07,1.43.13,2.14.18l.49,0,2.14.15,1.31.07c2.62.14,5.25.19,7.8.24,2.83.06,5.74.13,8.57.29,1.4.08,2.82.23,4.24.41.71.08,1.42.18,2.13.28l.49.07c.45.05.9.12,1.34.18l.79.11.49.07,2.13.29c1.54.2,3.11.38,4.68.48,2.81.19,5.61.13,8.31.07s5.46-.12,8.09.08,5.48.66,8.16,1.11,5.36.89,8.1,1.12,5.45.3,8.1.38c2.86.08,5.56.16,8.27.41,2.89.26,5.83.63,8.68,1,2.16.27,4.39.55,6.6.78l1,.1,1.15.1.49,0c.72.06,1.43.1,2.14.14l.49,0,2.15.09,1.78.05c2.83.09,5.51.17,8.17.46s5.44.85,8.1,1.39c1.22.25,2.46.5,3.72.73q1.07.2,2.13.36l.48.08,1.73.23.4,0,.49,0c.72.08,1.43.14,2.14.18,1.76.13,3.51.2,5.22.27,2.82.11,5.48.22,8.11.55a61.94,61.94,0,0,1,7.92,1.68,69.28,69.28,0,0,0,8.15,1.75,50.54,50.54,0,0,0,8.68.17,43.69,43.69,0,0,1,7.8.14A59.2,59.2,0,0,1,648,70,65.21,65.21,0,0,0,656.14,72c1.76.26,3.53.49,5.28.68l2.62.3h0l2.58.28c2,.22,3.84.46,5.73.76,2.7.43,5.45,1.1,8.11,1.76l.46.11,2.58.62c.85.2,1.72.39,2.59.57.69.14,1.38.27,2.08.39l.23,0a2.09,2.09,0,0,0,.43,0A2.65,2.65,0,0,0,691,76.39h0a2.64,2.64,0,0,0,.44-1.87,2.92,2.92,0,0,0,.17-.36,2.63,2.63,0,0,0,.64-1.34,4.23,4.23,0,0,0,0-.48,2.83,2.83,0,0,0,.11-.44,2.71,2.71,0,0,0,0-1,2.56,2.56,0,0,0,.17-.43,2.56,2.56,0,0,0,.53-1.21,2.6,2.6,0,0,0,0-.57c0-.11.06-.22.08-.33a2.59,2.59,0,0,0,0-.55,2.11,2.11,0,0,0,.09-.38A2.49,2.49,0,0,0,693.23,66Zm-7,4a2.67,2.67,0,0,0-.55,1.25c0,.11,0,.22,0,.32l-1.49-.34-2.44-.6c-2.77-.68-5.62-1.38-8.54-1.85-1.9-.3-3.84-.54-5.74-.76l-2.62-.29-.2,0-2.42-.27c-1.77-.2-3.56-.41-5.32-.68A61.82,61.82,0,0,1,649.43,65a64.35,64.35,0,0,0-8.56-2,32.8,32.8,0,0,0-4.74-.3c-1.35,0-2.69,0-4,.1l-1.75.06a36.4,36.4,0,0,1-6-.18A65,65,0,0,1,616.81,61l-.24-.06a65.54,65.54,0,0,0-8.34-1.75c-2.85-.36-5.75-.48-8.55-.59-1,0-2.06-.08-3.1-.14-.68,0-1.37-.07-2.06-.13s-1.42-.1-2.12-.18l-.57-.06c-1.35-.16-2.7-.37-4.06-.63-1.17-.21-2.35-.45-3.56-.7-2.78-.56-5.65-1.14-8.59-1.46s-5.76-.4-8.56-.49c-2.06-.06-4.17-.13-6.25-.29-.54,0-1.07-.08-1.6-.13l-.57-.06c-2.29-.24-4.63-.52-6.89-.81-2.88-.36-5.87-.74-8.85-1s-5.79-.35-8.6-.43c-2.57-.07-5.23-.15-7.82-.36s-5-.63-7.67-1.07-5.68-1-8.62-1.17-5.79-.15-8.6-.09c-2.59.05-5.28.11-7.85-.06-1.65-.11-3.29-.3-5-.52l-2.23-.31-.5-.07c-2.81-.41-5.71-.82-8.65-1s-5.89-.23-8.75-.29c-2.52-.06-5.12-.11-7.66-.24-2-.1-4-.27-6-.43l-1.62-.15-.47,0c-2.7-.24-5.49-.49-8.27-.6A81.68,81.68,0,0,0,436,46c-2.71.17-5.27.33-7.85.24s-5-.38-7.72-.69-5.72-.66-8.66-.74-5.8,0-8.62.14c-2.57.1-5.23.2-7.82.15a75.28,75.28,0,0,1-7.72-.67c-1.87-.22-3.77-.46-5.7-.59-.78-.06-1.56-.1-2.35-.12h-.64a74.26,74.26,0,0,0-8.62.58,72.67,72.67,0,0,1-7.79.56h0c-2.45,0-5-.22-7.43-.42-1.84-.16-3.72-.31-5.62-.39-.69,0-1.39-.05-2.08-.05h-.46c-2.78,0-5.55.22-8.23.42s-4.92.36-7.34.39-4.86-.15-7.43-.35a59.91,59.91,0,0,0-16.4.39c-2.54.32-4.93.63-7.33.7s-5,0-7.44-.15c-2.66-.12-5.41-.25-8.16-.14a51.53,51.53,0,0,0-8.17,1.16l-.12,0-1.82.35a37,37,0,0,1-5.39.72,71.63,71.63,0,0,1-7.43-.15,74,74,0,0,0-8.18-.14c-2.81.15-5.63.41-8.35.66L243,48l-2.2.19-2.87.2a64.09,64.09,0,0,1-7.43-.12,67.91,67.91,0,0,0-8.21-.1A43.21,43.21,0,0,0,214,49.88a38.37,38.37,0,0,1-7.07,1.49,49.65,49.65,0,0,1-7.37-.18,51.84,51.84,0,0,0-8.28-.16c-2.79.24-5.53.69-8.19,1.12-2.5.41-4.87.79-7.27,1q-3.07.28-6.14.52l-.68.06-1.55.13c-2.36.19-4.78.39-7.15.63-2.78.29-5.51.78-8.16,1.26s-4.86.87-7.25,1.13-5,.34-7.45.41h-.31l-2,.06c-1.93.06-3.89.16-5.83.39-2.8.33-5.59.77-8.28,1.2-2.35.37-4.78.76-7.14,1.05a62,62,0,0,1-7.43.36,70.74,70.74,0,0,0-8.18.43,45.46,45.46,0,0,0-8.2,2.13,41.65,41.65,0,0,1-7,1.86,57.44,57.44,0,0,1-7.41.4,63.11,63.11,0,0,0-8.19.48l-.5.08c-.87.14-1.73.31-2.58.5s-1.72.39-2.57.6l-2.47.64c-1.07.28-2.11.56-3.15.81a1.77,1.77,0,0,0,0-.23A2.71,2.71,0,0,0,56,67a1.59,1.59,0,0,0-.15-.29,2.75,2.75,0,0,0,.19-1,2.59,2.59,0,0,0-.32-1.28l0,0a2.57,2.57,0,0,0,.21-1.08,3.81,3.81,0,0,0,0-.59,2.93,2.93,0,0,0,.06-.61,2.76,2.76,0,0,0-.12-.82,2.43,2.43,0,0,0-.36-.72c1.57-.14,3.18-.21,4.85-.29L63,60.1l.42,0c.87,0,1.75-.12,2.63-.21s1.5-.17,2.25-.28c2.57-.39,5.11-1,7.57-1.59s5.07-1.22,7.59-1.58A60.1,60.1,0,0,1,90.94,56a70.38,70.38,0,0,0,8-.46c2.56-.35,5.1-.89,7.56-1.42s5.12-1.1,7.66-1.42,5.34-.57,8-.8c2.42-.21,4.93-.42,7.42-.72s5.19-.88,7.67-1.42a74.12,74.12,0,0,1,7.58-1.39c2.46-.28,5-.31,7.6-.35s5.22-.08,7.87-.35A71.24,71.24,0,0,0,168,46.29a66,66,0,0,1,7.55-1.3,46.16,46.16,0,0,1,7.41.1,52.46,52.46,0,0,0,8.14.12A74.1,74.1,0,0,0,198.85,44a65.43,65.43,0,0,1,7.57-1.18,52.17,52.17,0,0,1,7.46.14,59.89,59.89,0,0,0,8.06.16,64.06,64.06,0,0,0,7.84-1.2,57,57,0,0,1,7.51-1.14c2.54-.16,5.08-.14,7.77-.13,2.51,0,5.11,0,7.7-.1,2.44-.13,4.91-.34,7.3-.54,2.67-.22,5.43-.45,8.13-.57s5.43-.15,8.09-.17c2.41,0,4.9,0,7.38-.14s4.95-.27,7.36-.44c2.65-.19,5.39-.38,8.08-.46a70.26,70.26,0,0,1,7.57.34,79,79,0,0,0,7.92.37,46.43,46.43,0,0,0,8.06-1.11,40.87,40.87,0,0,1,7.37-1,59.53,59.53,0,0,1,7.51.54,76.19,76.19,0,0,0,8,.59c2.6,0,5.2-.22,7.71-.42s5.23-.39,7.76-.41c2.74,0,5.58.27,8.31.52s5.46.49,8.23.53a74.16,74.16,0,0,0,8.51-.56,64.4,64.4,0,0,1,8.05-.52,48.74,48.74,0,0,1,8,1.06,55,55,0,0,0,8.51,1.14,66.73,66.73,0,0,0,8.55-.47,60,60,0,0,1,8-.43,53.88,53.88,0,0,1,8,1.13,58.15,58.15,0,0,0,8.44,1.2,56.13,56.13,0,0,0,8.65-.45,50.7,50.7,0,0,1,8-.41,49.4,49.4,0,0,1,7.94,1.35,54.54,54.54,0,0,0,8.46,1.44,49.48,49.48,0,0,0,8.74-.43,44.74,44.74,0,0,1,7.9-.4,45.59,45.59,0,0,1,7.89,1.55A51.06,51.06,0,0,0,509.61,45c2.82.23,5.65.22,8.38.21s5.52,0,8.18.22c3.06.28,6.15.64,9.15,1,2.44.28,4.87.56,7.29.81,2.58.26,5.17.46,7.68.66,2.9.22,5.9.46,8.81.78s5.76.76,8.57,1.2c1.32.21,2.66.42,4,.61s2.53.36,3.8.51,2.76.26,4.12.31,2.92.07,4.35.09a73.11,73.11,0,0,1,8.1.4c2.72.35,5.5,1,8.18,1.56.92.2,1.85.41,2.78.6,1.75.37,3.53.71,5.32,1,2.67.36,5.37.62,8,.88,2.8.27,5.69.56,8.47,1s5.8,1,8.62,1.48c2.52.47,5.11,1,7.68,1.35s5.35.72,7.95,1c2.8.33,5.69.67,8.46,1.12,1.82.3,3.66.73,5.48,1.21.86.21,1.72.44,2.56.67h0c.83.23,1.68.46,2.53.67,1.81.48,3.67.92,5.53,1.24a59.5,59.5,0,0,0,8.66.64l1.74,0c.94,0,1.87.07,2.78.13a1.15,1.15,0,0,0,0,.19l-.06.25a3.25,3.25,0,0,0,0,.82,2.61,2.61,0,0,0,.16.61,2.62,2.62,0,0,0-.57,1.27A2.82,2.82,0,0,0,686.27,70Z"/><path class="a" d="M675.9,135.73c-4.9-.94-9.62-3-14.63-3.9s-10-.86-15.06-1.72-9.7-2.92-14.73-3.73-10.05-.77-15.08-1.54-9.88-1.87-14.91-2.59-10.09-.37-15.13-1-9.84-2.26-14.88-2.89-10.12-.08-15.16-.66-9.81-2.75-14.87-3.29-10.12.11-15.17-.39-9.88-2.38-14.94-2.83-10.14.47-15.2.07-10-1.43-15-1.78-10.07-.32-15.13-.63-10-.91-15.1-1.17-10.07-.1-15.14-.31-10-1.49-15.09-1.65-10.11,1.56-15.19,1.44-10-1.47-15.11-1.54-10.07.7-15.15.67c-5.42,0-10.82-.94-16.19-.91s-10.81,1.44-16.18,1.51-10.86-1.59-16.23-1.46-10.78,1.76-16.15,2-10.89-1.23-16.25-1-10.74,2.22-16.1,2.51-10.92-1.18-16.27-.84-10.68,2.69-16,3.08-10.95-1.09-16.3-.64-10.71,1.93-16.05,2.43-10.81.82-16.14,1.37-10.75,1.42-16.07,2-10.82.79-16.14,1.44-10.6,2.56-15.91,3.27-10.88.49-16.18,1.25-10.66,2-16,2.82-10.77,1.27-16,2.13-10.63,2.2-15.9,3.11-10.88.8-16.13,1.76-10.34,3.61-15.58,4.62c0,.16-.31-.57-.29-.41s.47.28.49.44-1,.48-1,.65,1.46.13,1.49.3-1.31.52-1.29.68,1.42.14,1.44.31-.79.44-.77.61.92.21.94.37-.62.43-.59.59.41.28.44.45-1.06.48-1,.65.83.22.85.38-.48.41-.46.57,1,.21,1,.37-1.4.53-1.37.7,1.49.13,1.51.29-1,.47-.94.64.7.24.72.4-.85.46-.82.62.77-.56.79-.39c5.21-.93,10.6-1,15.92-1.86s10.42-2.21,15.75-3.06,10.72-.22,16.06-1,10.25-3.45,15.58-4.2,10.73-.1,16.07-.8,10.45-2.22,15.79-2.87,10.68-.29,16-.89,10.5-1.94,15.85-2.49,10.63-.74,16-1.24,10.55-1.6,15.91-2,10.7.08,16.06-.33S240,122.32,245.38,122s10.69.2,16.06-.1,10.62-.93,16-1.18,10.66,0,16-.21,10.62-1.47,16-1.62,10.68.66,16.06.56,10.65-.82,16-.87,10.67,1.11,16,1.1,10.67-1.2,16-1.15c5.09,0,10.15,1,15.19,1.11s10.18-.44,15.22-.31,10.13,1.31,15.17,1.49,10.2-.66,15.24-.44,10.12,1.3,15.15,1.56,10.25-1,15.28-.73,10.08,1.73,15.11,2.08,10.17.38,15.19.78,10,2.06,15,2.51,10.32-1.12,15.33-.63,10,2.6,15,3.13,10.2.34,15.2.91,10.09,1.34,15.08,2,10.2.51,15.19,1.17,10,2.24,14.95,2.94,10.13,1.06,15.1,1.81,9.87,2.73,14.84,3.52,10.35-.25,15.31.58,9.81,3.05,14.75,3.92,10.19.71,15.13,1.62c0-.22.74.21.74,0s-1-.44-1-.66,1-.44,1-.66-1-.45-1-.67,1.25-.42,1.25-.64-1.71-.46-1.7-.68.73-.43.74-.65-.23-.45-.23-.67,1-.43,1-.65-1-.45-1-.67.31-.43.32-.65-.17-.44-.17-.66.82-.44.82-.66-1.16-.45-1.16-.67,1.17-.43,1.17-.65-1.07-.45-1.07-.67.59-.43.59-.65-.36-.45-.36-.67.18-.43.18-.65S675.9,136,675.9,135.73Z"/><path d="M650.7,140.27a39,39,0,0,0-4.08-.93,33,33,0,0,0-5.41-.38c-.93,0-1.85,0-2.77,0a40,40,0,0,1-7.16-.25,61.39,61.39,0,0,1-6.93-1.66,66,66,0,0,0-7.93-1.86c-2.67-.4-5.4-.69-8-1-2.33-.25-4.74-.51-7.08-.84s-4.6-.84-7-1.39-5.23-1.19-8-1.55c-.41-.06-.83-.11-1.24-.15-.88-.1-1.76-.18-2.63-.24l-.27,2.63c.88.06,1.75.13,2.62.24.4,0,.79.08,1.18.13,5.06.67,10,2.24,14.95,2.94s10.13,1.06,15.1,1.81a68,68,0,0,1,8.29,2c2.66.12,5.49.24,8.55.34,5.37.17,11.31.36,17.76.54l1.75,0ZM451.37,105l-.36,0c-2.71-.14-5.45-.16-8.1-.18-2.32,0-4.72,0-7.07-.13s-4.62-.44-7.07-.79a72.09,72.09,0,0,0-8-.87,43.44,43.44,0,0,0-8.13.75,39.36,39.36,0,0,1-7.07.7,61.77,61.77,0,0,1-7.07-.74,62.13,62.13,0,0,0-8.07-.81c-2.68,0-5.38.16-8,.34-.47,0-.94.07-1.42.09-.87.07-1.75.12-2.63.16s-1.78.07-2.64.08h-.5c-2.54,0-5.16-.24-7.7-.45-2.78-.24-5.68-.48-8.53-.47a49.52,49.52,0,0,0-5.2.35c-.89.1-1.77.22-2.64.33l-.79.11-1.84.25a51.68,51.68,0,0,1-5.73.48,47.19,47.19,0,0,1-7.62-.71,49.06,49.06,0,0,0-8.64-.75,62.06,62.06,0,0,0-8.63,1,57,57,0,0,1-7.54.93,53.32,53.32,0,0,1-7.66-.48,57,57,0,0,0-8.62-.51,52.89,52.89,0,0,0-8.65,1.33,50.27,50.27,0,0,1-7.47,1.19h0l.14,2.63c-.87,0-1.75,0-2.63,0l.13,2.63c.87,0,1.75,0,2.64,0h0a53.33,53.33,0,0,0,8.28-1.3A49.19,49.19,0,0,1,294.3,109a51.49,51.49,0,0,1,7.81.47,56.84,56.84,0,0,0,8.42.52,64.93,64.93,0,0,0,8.23-1,58.63,58.63,0,0,1,7.89-1,47.17,47.17,0,0,1,7.75.7,53.54,53.54,0,0,0,8.46.77,50.43,50.43,0,0,0,5.65-.45c.86-.1,1.71-.22,2.55-.33h.08c.89-.12,1.77-.24,2.64-.34A44.45,44.45,0,0,1,359,108c2.62,0,5.27.21,8.05.45s5.37.45,8.12.47h.53c.88,0,1.77,0,2.64-.07s1.76-.09,2.63-.15l1.8-.13c2.6-.19,5.06-.36,7.52-.33a58.73,58.73,0,0,1,7.4.75,64.38,64.38,0,0,0,7.69.8,44.76,44.76,0,0,0,8-.76,37,37,0,0,1,7.15-.69,66.08,66.08,0,0,1,7.46.81,72.28,72.28,0,0,0,7.61.84c2.44.11,4.88.12,7.25.14,2.59,0,5.27,0,7.87.18l.36,0c.87,0,1.74.1,2.62.17l.14-2.64c-.87-.07-1.75-.12-2.63-.17Zm-286,22.55c-2.51.28-5.12.34-7.65.41-2.75.07-5.59.14-8.41.48l-.25,0c-.88.11-1.75.25-2.61.39s-1.74.31-2.6.48l-3,.61c-2.16.46-4.23.89-6.29,1.21q4.65-.52,9.33-1l2.62-.27,2.62-.26Q160,128.57,171,127.6l-.09-.87C169,127.07,167.2,127.37,165.36,127.58Zm-48,4.57A42.57,42.57,0,0,0,110,134q10.35-1.28,21-2.46c-1.66.1-3.35.12-5.11.13A63.56,63.56,0,0,0,117.4,132.15Zm562,14.56a2.33,2.33,0,0,0,.06-.53,1.27,1.27,0,0,0,0-.2,2.54,2.54,0,0,0,.24-1.12,2.8,2.8,0,0,0-.1-.79,2.14,2.14,0,0,0-.32-.7,2,2,0,0,0,.2-.62,2.33,2.33,0,0,0,.06-.53,2.46,2.46,0,0,0-.1-.78,2.62,2.62,0,0,0-.26-.62,2.61,2.61,0,0,0,.3-1.24,3.15,3.15,0,0,1,0-1.32,2.73,2.73,0,0,0-.13-.87,2.24,2.24,0,0,0-.37-.72,1.93,1.93,0,0,0-.07-.44,2.89,2.89,0,0,0-.11-.35,2.28,2.28,0,0,0,0-.27A2.71,2.71,0,0,0,677,133a2.89,2.89,0,0,0-1.42-.06c-2-.43-3.92-1-6-1.66a66.18,66.18,0,0,0-7.84-2.07c-1.28-.23-2.58-.41-3.87-.55l-2.62-.25-1.41-.12-1.23-.1c-2-.18-4-.38-6-.71a61.59,61.59,0,0,1-6.85-1.75,61.49,61.49,0,0,0-7.89-2c-2.64-.43-5.32-.63-7.91-.83-2.38-.17-4.84-.36-7.2-.72s-4.6-.78-6.86-1.2c-2.62-.49-5.34-1-8.08-1.39a74.32,74.32,0,0,0-8-.56c-2.5-.09-4.86-.17-7.2-.48l-.4-.06c-.87-.12-1.73-.28-2.6-.45s-1.71-.35-2.59-.55l-1.38-.31c-2.57-.58-5.22-1.18-7.94-1.52a67.45,67.45,0,0,0-8-.37c-1.54,0-3,0-4.5-.09-.89,0-1.77-.1-2.64-.2h0c-.85-.1-1.69-.25-2.55-.43-1.41-.3-2.84-.7-4.32-1.11a50.27,50.27,0,0,0-8-1.75,69.38,69.38,0,0,0-8-.22,65.6,65.6,0,0,1-7.2-.17,50.68,50.68,0,0,1-6.94-1.34,57.14,57.14,0,0,0-8-1.5,61.59,61.59,0,0,0-8,0,55.68,55.68,0,0,1-7.18,0c-2.33-.18-4.62-.5-7.05-.84-1.81-.26-3.65-.52-5.52-.71-.83-.09-1.66-.17-2.5-.23h-.12c-.88-.06-1.75-.11-2.63-.14-1.81-.09-3.62-.15-5.38-.2-2.31-.07-4.69-.14-7-.28s-4.63-.34-6.9-.54l-2.6-.23c-.87-.07-1.75-.15-2.63-.21s-1.75-.12-2.63-.17l-.36,0c-2.71-.14-5.45-.16-8.1-.18-2.32,0-4.72,0-7.07-.13s-4.62-.44-7.07-.79a72.09,72.09,0,0,0-8-.87,43.44,43.44,0,0,0-8.13.75,39.36,39.36,0,0,1-7.07.7,61.77,61.77,0,0,1-7.07-.74,62.13,62.13,0,0,0-8.07-.81c-2.68,0-5.38.16-8,.34-.47,0-.94.07-1.42.09-.87.07-1.75.12-2.63.16s-1.78.07-2.64.08h-.5c-2.54,0-5.16-.24-7.7-.45-2.78-.24-5.68-.48-8.53-.47a49.52,49.52,0,0,0-5.2.35c-.89.1-1.77.22-2.64.33l-.79.11-1.84.25a51.68,51.68,0,0,1-5.73.48,47.19,47.19,0,0,1-7.62-.71,49.06,49.06,0,0,0-8.64-.75,62.06,62.06,0,0,0-8.63,1,57,57,0,0,1-7.54.93,53.32,53.32,0,0,1-7.66-.48,57,57,0,0,0-8.62-.51,52.89,52.89,0,0,0-8.65,1.33,50.27,50.27,0,0,1-7.47,1.19h0a25.63,25.63,0,0,1-2.63,0c-.87,0-1.75-.1-2.65-.19s-1.56-.15-2.36-.23a50.57,50.57,0,0,0-8.65-.42A47,47,0,0,0,253,107l-2.21.55c-.89.22-1.76.41-2.62.57a25.26,25.26,0,0,1-2.56.33h-.06a44.56,44.56,0,0,1-7.58-.32,47.33,47.33,0,0,0-8.69-.32,86.18,86.18,0,0,0-8.55,1.28c-2.6.47-5.05.92-7.53,1.15s-4.72.41-7.08.59c-3,.23-6.06.47-9.08.79s-6,.71-8.93,1.11c-2.35.32-4.79.64-7.17.91-2,.23-4,.4-6,.55l-1.55.12-1.08.08-2.63.21c-1.63.14-3.26.29-4.88.49a73.46,73.46,0,0,0-8.5,1.72,68.94,68.94,0,0,1-7.44,1.54l-.84.11c-.87.1-1.74.17-2.62.23s-1.76.12-2.63.16l-1.62.08c-2.78.14-5.65.27-8.49.68s-5.83,1-8.64,1.51c-2.41.46-4.91.94-7.34,1.31s-5,.69-7.49,1c-2.82.34-5.73.69-8.59,1.15s-5.81,1.09-8.61,1.68c-2.4.51-4.89,1-7.31,1.45s-5.15.63-7.71.82h0l-2.64.21c-.87.07-1.75.16-2.62.26-1.06.12-2.12.27-3.17.46a54.83,54.83,0,0,0-8.4,2.47c-2.05.72-4,1.41-6,1.89a2.74,2.74,0,0,0-1.86-.07,2.65,2.65,0,0,0-1.73,1.94l0,0a2.44,2.44,0,0,0-.57,1.7,2.83,2.83,0,0,0,0,.3,2.63,2.63,0,0,0,.17.67,1.84,1.84,0,0,0,0,.33,2.6,2.6,0,0,0,.51,1.25l.15.18a2.57,2.57,0,0,0-.24,1.52.44.44,0,0,0,0,.1,2.78,2.78,0,0,0,.14.53,1.42,1.42,0,0,0-.11.35,2.62,2.62,0,0,0-.05,1.06,3.15,3.15,0,0,0,.18.69,2.48,2.48,0,0,0,.28.51,2.6,2.6,0,0,0,0,.74,2.65,2.65,0,0,0,.62,1.37,2.42,2.42,0,0,0,.72.59l.25.13a2.78,2.78,0,0,0,2.69-.32c1.23-.21,2.47-.37,3.74-.51s2.45-.24,3.71-.35c2.62-.23,5.33-.47,8-.92,1.13-.19,2.26-.41,3.39-.63l2.58-.52,1.53-.32,1-.22h0c2.36-.5,4.78-1,7.17-1.37a56.45,56.45,0,0,1,7.73-.49,63.72,63.72,0,0,0,8.31-.52,30.91,30.91,0,0,0,4-.88c1.4-.39,2.77-.85,4.11-1.3a42.54,42.54,0,0,1,7.5-2,59.18,59.18,0,0,1,7.77-.39,68.35,68.35,0,0,0,8.27-.41c2.65-.34,5.27-.9,7.81-1.43l2.42-.5c.86-.17,1.72-.34,2.59-.49s1.74-.29,2.61-.41l.34,0c2.56-.31,5.16-.37,7.9-.44s5.37-.14,8.11-.44c1.85-.21,3.7-.51,5.52-.83l2.27-.41.34-.06,2.6-.47c1.69-.29,3.4-.55,5.09-.72,2.79-.29,5.67-.48,8.46-.67,2.45-.17,5-.34,7.51-.57s5.21-.63,7.73-1c2.68-.4,5.44-.81,8.16-1s5.18-.19,7.93-.16,5.37.05,8.1-.16,5.36-.64,7.94-1.07c2.74-.45,5.33-.88,8-1.05l.83,0q1.31-.06,2.64-.06c.87,0,1.75,0,2.64,0l1.87,0c2.62,0,5.34.11,8,0,2.5-.14,5-.36,7.47-.56,1.49-.13,3-.26,4.53-.37.87-.07,1.75-.13,2.63-.17.45,0,.89-.06,1.34-.08l1.29,0c2.31-.08,4.68-.07,7-.07,2.52,0,5.14,0,7.74-.09s5.42-.47,8-.82a74.14,74.14,0,0,1,7.94-.8c2.6-.07,5.2.09,8,.27s5.34.36,8.08.29,5.25-.24,7.8-.43,5.48-.41,8.19-.43a61.79,61.79,0,0,1,7,.44l.89.09,1.74.18c.87.09,1.75.17,2.64.23,1.24.1,2.5.16,3.77.16h0a74,74,0,0,0,8.1-.59,67.72,67.72,0,0,1,7.92-.57c.71,0,1.41,0,2.12.08.87,0,1.75.11,2.64.2s1.74.16,2.63.25l.18,0c2.47.25,5,.52,7.6.56s5.08-.06,7.53-.16c2.65-.11,5.15-.21,7.66-.14a69,69,0,0,1,7.52.73c2.48.32,5,.66,7.63.75s5.24-.07,7.76-.23a70,70,0,0,1,7.46-.21c2.51.11,5.09.45,7.59.77s5,.66,7.54.79q.45,0,.9,0c.89,0,1.77,0,2.64,0s1.78-.11,2.65-.19l1.78-.17a46.71,46.71,0,0,1,7.28-.35,67,67,0,0,1,7.46,1c1.76.31,3.56.62,5.38.84.75.09,1.49.17,2.24.22l.38,0,2.63.15c1.43.08,2.85.13,4.24.19,2.61.1,5.31.21,7.93.41a59,59,0,0,1,7.37,1.23,65.27,65.27,0,0,0,7.65,1.28,41.4,41.4,0,0,0,8.14-.33,36,36,0,0,1,7.17-.3,46.05,46.05,0,0,1,7.22,1.51,50.93,50.93,0,0,0,7.73,1.62c2.56.27,5.12.36,7.6.45,1.5,0,2.95.1,4.37.19.88.05,1.76.12,2.63.21l.57.06,2.05.25c2.19.26,4.39.56,6.53.85s4.32.59,6.48.86c2.56.31,5.13.44,7.61.57l1.18.07c.89,0,1.77.09,2.64.16s1.75.13,2.62.23l1.11.13c2.49.33,5,.91,7.48,1.46,1.06.24,2.13.49,3.22.71,1.39.3,2.81.57,4.23.77,2.44.34,4.89.6,7.26.86,2.58.27,5.25.56,7.82.94a62.5,62.5,0,0,1,7.3,1.73l.95.27a61.33,61.33,0,0,0,6.56,1.52,45.31,45.31,0,0,0,8.11.31,39.07,39.07,0,0,1,7.18.27,36.28,36.28,0,0,1,4.13,1l1.68.5.87.27.53.17,2,.62a45.78,45.78,0,0,0,5.51,1.39,75.68,75.68,0,0,0,7.77.82,64.93,64.93,0,0,1,7.34.79,2.5,2.5,0,0,0,.55.05,3.12,3.12,0,0,0,.55,0h.05a2.66,2.66,0,0,0,1.63-.54,2.74,2.74,0,0,0,1.08-2.13,2.71,2.71,0,0,0-.08-.71A.22.22,0,0,0,679.37,146.71Zm-18-3.44a47.16,47.16,0,0,1-5.6-1.45l-1.26-.4-1.27-.39-.88-.27-1.68-.49a39,39,0,0,0-4.08-.93,33,33,0,0,0-5.41-.38c-.93,0-1.85,0-2.77,0a40,40,0,0,1-7.16-.25,61.39,61.39,0,0,1-6.93-1.66,66,66,0,0,0-7.93-1.86c-2.67-.4-5.4-.69-8-1-2.33-.25-4.74-.51-7.08-.84s-4.6-.84-7-1.39-5.23-1.19-8-1.55c-.41-.06-.83-.11-1.24-.15-.88-.1-1.76-.18-2.63-.24s-1.76-.12-2.63-.17l-1.47-.07c-2.39-.12-4.86-.25-7.24-.55-2.13-.26-4.27-.55-6.41-.84s-4.44-.6-6.69-.87l-1-.12-1-.12c-.21,0-.41,0-.62-.06-.87-.1-1.75-.17-2.63-.22l-1.29-.08c-1.16-.06-2.31-.1-3.44-.14-2.39-.08-4.86-.17-7.24-.42a28.82,28.82,0,0,1-3.36-.58c-1.17-.26-2.35-.57-3.57-.89a50.06,50.06,0,0,0-8.06-1.67,41,41,0,0,0-8.24.31,36.9,36.9,0,0,1-7.12.32,59.71,59.71,0,0,1-7-1.19,64.51,64.51,0,0,0-8-1.32c-2.71-.22-5.47-.32-8.13-.43l-4.18-.18c-.88,0-1.76-.09-2.63-.15l-.28,0c-.78,0-1.56-.14-2.34-.23-1.55-.21-3.12-.48-4.75-.76-1.15-.2-2.31-.4-3.49-.58-1.5-.23-3-.42-4.55-.51a36.65,36.65,0,0,0-5.14.09c-1,.08-2,.18-3,.28l-1,.1c-.9.08-1.78.16-2.65.21s-1.77.09-2.64.07l-.9,0c-2.34-.12-4.66-.43-7.12-.75-2.22-.29-4.51-.59-6.83-.75l-1.22-.07q-1.23,0-2.46,0c-1.88,0-3.74.14-5.56.25-2.51.16-4.87.31-7.24.23s-4.67-.39-7.14-.72l-2.34-.29a56.3,56.3,0,0,0-5.72-.48c-2.7-.08-5.4,0-8,.15l-2.06.07c-1.72.07-3.46.12-5.17.08-1.06,0-2.13-.08-3.2-.17-1.29-.09-2.6-.22-3.95-.36l-.72-.07c-.87-.09-1.74-.18-2.63-.25s-1.76-.15-2.64-.19c-.69,0-1.38-.06-2.08-.07a74.29,74.29,0,0,0-8.53.6l-2.39.25a50.23,50.23,0,0,1-5.14.31h0c-1.25,0-2.5-.07-3.77-.17-.4,0-.8-.06-1.2-.11s-1-.08-1.44-.14l-1.19-.12-1.44-.15a65,65,0,0,0-7-.41c-2.88,0-5.76.24-8.54.44-2.47.19-5,.38-7.5.43s-5.12-.13-7.64-.29c-2.75-.18-5.6-.36-8.44-.28a77.65,77.65,0,0,0-8.5.85c-1.95.26-3.82.51-5.67.67h0c-.61.05-1.21.09-1.82.11-1.36.05-2.73.07-4.1.07h-3.43c-2.38,0-4.83,0-7.27.07l-1.26,0-1.37.07c-.88,0-1.76.11-2.63.18l-4.69.38h-.1c-2.38.21-4.83.41-7.22.55-2.1.12-4.26.09-6.38.05l-1.27,0-2.25,0c-.88,0-1.76,0-2.65,0s-1.75,0-2.63.07l-.9,0c-2.19.14-4.34.45-6.45.78l-2,.33c-2.58.43-5,.83-7.48,1s-5.12.16-7.65.14c-2.76,0-5.6-.06-8.43.18s-5.73.67-8.49,1.08c-2.56.38-5,.74-7.44,1s-4.95.4-7.37.56c-2.84.19-5.77.39-8.65.68-1.72.18-3.43.43-5.1.72l-2.61.46-.72.13-1.88.34c-1.89.34-3.72.64-5.56.85-2.51.28-5.12.34-7.65.41-2.75.07-5.59.14-8.41.48l-.25,0c-.88.11-1.75.25-2.61.39s-1.74.31-2.6.48l-3,.61c-2.16.46-4.23.89-6.29,1.21l-1.11.16c-.84.11-1.68.18-2.53.23-1.66.1-3.35.12-5.11.13a63.56,63.56,0,0,0-8.45.44A42.57,42.57,0,0,0,110,134l-1,.35a43.71,43.71,0,0,1-7.18,2,60.74,60.74,0,0,1-7.63.46,60.71,60.71,0,0,0-8.46.56c-2.42.38-4.82.86-7.17,1.35l-1.31.28-1.27.27-2.58.52c-1.15.23-2.3.45-3.43.64-2.5.42-5.11.65-7.62.88-1.17.1-2.35.2-3.54.33l-1.7.19a1,1,0,0,0-.06-.16s0-.05,0-.08a3,3,0,0,0-.18-.36,2.59,2.59,0,0,0,0-.67,2.49,2.49,0,0,0,.13-1.29,1.37,1.37,0,0,0-.07-.34,1.17,1.17,0,0,0-.07-.25v-.14c1.71-.49,3.37-1.08,5-1.65a49.67,49.67,0,0,1,7.59-2.25c1-.18,2-.32,3-.44.86-.1,1.74-.18,2.62-.25s1.47-.12,2.22-.18l.41,0c2.56-.19,5.19-.39,7.81-.85s5-1,7.49-1.48,5.19-1.1,7.8-1.53l.58-.1c2.75-.45,5.6-.79,8.37-1.13,2.5-.3,5.09-.61,7.66-1s5.07-.87,7.53-1.35c2.75-.52,5.59-1.07,8.4-1.47,2.58-.37,5.21-.49,8-.62l1.92-.1c.87,0,1.75-.09,2.63-.16s1.74-.14,2.62-.25l1-.11a79,79,0,0,0,8-1.65,68.63,68.63,0,0,1,7.89-1.61c1.57-.2,3.18-.35,4.79-.48l2.63-.21.93-.07,1.7-.13c2-.15,4-.32,6.07-.55,2.43-.27,4.89-.61,7.28-.93,2.87-.39,5.84-.79,8.76-1.09s6-.54,9-.77c2.38-.19,4.77-.38,7.16-.6,2.71-.25,5.39-.75,8-1.22s5.38-1,8-1.21a44.43,44.43,0,0,1,7.73.31,49.45,49.45,0,0,0,8.38.35H246q1.25-.09,2.46-.3c.88-.14,1.76-.31,2.62-.51,1.09-.24,2.17-.52,3.24-.79a42.35,42.35,0,0,1,7.68-1.48,46.17,46.17,0,0,1,7.77.4c1.05.11,2.11.23,3.19.31q1.31.12,2.64.15c.87,0,1.75,0,2.64,0h0a53.33,53.33,0,0,0,8.28-1.3A49.19,49.19,0,0,1,294.3,109a51.49,51.49,0,0,1,7.81.47,56.84,56.84,0,0,0,8.42.52,64.93,64.93,0,0,0,8.23-1,58.63,58.63,0,0,1,7.89-1,47.17,47.17,0,0,1,7.75.7,53.54,53.54,0,0,0,8.46.77,50.43,50.43,0,0,0,5.65-.45c.86-.1,1.71-.22,2.55-.33h.08c.89-.12,1.77-.24,2.64-.34A44.45,44.45,0,0,1,359,108c2.62,0,5.27.21,8.05.45s5.37.45,8.12.47h.53c.88,0,1.77,0,2.64-.07s1.76-.09,2.63-.15l1.8-.13c2.6-.19,5.06-.36,7.52-.33a58.73,58.73,0,0,1,7.4.75,64.38,64.38,0,0,0,7.69.8,44.76,44.76,0,0,0,8-.76,37,37,0,0,1,7.15-.69,66.08,66.08,0,0,1,7.46.81,72.28,72.28,0,0,0,7.61.84c2.44.11,4.88.12,7.25.14,2.59,0,5.27,0,7.87.18l.36,0c.87,0,1.74.1,2.62.17l2.63.2,2.41.22c2.31.2,4.69.41,7.05.55s4.84.22,7.18.29c1.73,0,3.51.11,5.27.19.88,0,1.75.09,2.62.15h0c.86.06,1.73.14,2.6.24,1.69.18,3.39.42,5.05.66,2.4.33,4.89.68,7.37.88a62.19,62.19,0,0,0,7.85,0,54.5,54.5,0,0,1,7.33,0,50.39,50.39,0,0,1,7.25,1.38,57.3,57.3,0,0,0,7.66,1.46,72.8,72.8,0,0,0,7.78.19,63.65,63.65,0,0,1,7.37.19,44.37,44.37,0,0,1,7.17,1.59c1.69.46,3.41.94,5.18,1.29.82.17,1.65.3,2.49.4h.11c.88.1,1.76.17,2.64.22,1.69.09,3.37.1,5,.11a62.88,62.88,0,0,1,7.37.33c2.46.31,4.87.85,7.42,1.43l2,.45,2.6.53c.86.16,1.73.31,2.6.43l.25,0a75.63,75.63,0,0,0,7.72.52,69.47,69.47,0,0,1,7.38.52c2.63.37,5.29.87,7.87,1.35,2.29.43,4.67.87,7,1.23,2.56.39,5.12.58,7.6.77s5,.38,7.46.77a58.18,58.18,0,0,1,7.24,1.83l2.34.68a45.94,45.94,0,0,0,5.12,1.21c2,.35,4,.56,6,.73l1.61.14,1,.09c.89.07,1.77.15,2.63.25l1.44.16q.72.09,1.41.21l.31.05.59.1a61.93,61.93,0,0,1,7.23,1.91c1.66.51,3.36,1,5.1,1.47a1.49,1.49,0,0,0,0,.21,2.84,2.84,0,0,0-.13.84.86.86,0,0,0,0,.16,2.63,2.63,0,0,0,.32,1.18c0,.13,0,.24,0,.36a3,3,0,0,0-.15.74,1.27,1.27,0,0,0,0,.2,1.48,1.48,0,0,0,0,.21,2.42,2.42,0,0,0,.06.47,2.25,2.25,0,0,0-.06.36,2.48,2.48,0,0,0-.51,1.38.75.75,0,0,0,0,.21,1.69,1.69,0,0,0,0,.23c-1.38-.14-2.75-.24-4.09-.33s-2.47-.18-3.67-.29S662.57,143.47,661.39,143.27Z"/><rect class="c" x="43.32" y="58.99" width="27.21" height="94.23" transform="translate(-15.9 10.21) rotate(-9)"/><path d="M78.94,141.32l-.41-2.59-.07-.44-.41-2.61-.31-1.93-.1-.66-.31-2-.41-2.61L74.46,113,74,110.4l-.41-2.6-.18-1.13L73,104.06l-.13-.83-.28-1.77-.14-.85L72.08,98l-.86-5.47L70.8,90l-.41-2.61-.78-4.93-.41-2.6-.41-2.61L67.8,71c-.86.14-1.73.31-2.59.5l-.41-2.61c-.86.19-1.72.4-2.57.62l.41,2.61,1,6,.41,2.6.42,2.6.8,5.09.41,2.6.42,2.61.84,5.29.41,2.6.12.76.29,1.85.12.75.41,2.61.2,1.22.82,5.2L71.66,129l.41,2.61.36,2.25.06.35.35,2.25.41,2.6.12.74.26,1.61.15,1L74,144l.16,1,2.58-.52L76.7,144l-.34-2.12c.86-.17,1.72-.36,2.58-.54Zm1.39,8.77-.56-3.51L79.36,144l-.42-2.61v0l-.41-2.59-.07-.44-.41-2.61-.31-1.93-.1-.66-.31-2-.41-2.61L74.46,113,74,110.4l-.41-2.6-.18-1.13L73,104.06l-.13-.83-.28-1.77-.14-.85L72.08,98l-.86-5.47L70.8,90l-.41-2.61-.78-4.93-.41-2.6-.41-2.61L67.8,71l-.41-2.6-.11-.66L67,65.76l-.1-.65-.41-2.61L66,59.87l-.41-2.61,0-.1a.51.51,0,0,0,0-.13,2,2,0,0,0,0-.24,2,2,0,0,0-.07-.23c0-.09-.07-.18-.11-.27l-.08-.16a2.66,2.66,0,0,0-2.05-1.32,2.37,2.37,0,0,0-.65,0l-.18,0-.61.1-2.72.43-8.88,1.4-11,1.74L36.5,59l-.79.12a2.65,2.65,0,0,0-1.72,1,2.71,2.71,0,0,0-.47,1.14,2.82,2.82,0,0,0,0,.82l0,.19,12,75.88.41,2.59.17,1.07.24,1.54.17,1.09.42,2.62,1.28,8.09a2.64,2.64,0,0,0,.6,1.3,2.24,2.24,0,0,0,.45.42,2.64,2.64,0,0,0,1.55.51,1.84,1.84,0,0,0,.41,0l26.87-4.25a2.64,2.64,0,0,0,2.19-3ZM43.66,92.45,39.13,63.88l10.41-1.65,3.16-.5,3.13-.49,5-.79.46,2.93.56,3.48.27,1.73.14.89.41,2.61,1,6,.41,2.6.42,2.6.8,5.09.41,2.6.42,2.61.84,5.29.41,2.6.12.76.29,1.85.12.75.41,2.61.2,1.22.82,5.2L71.66,129l.41,2.61.36,2.25.06.35.35,2.25.41,2.6.12.74.26,1.61.15,1L74,144l.16,1,.26,1.66.26,1.65-21.67,3.43-.66-4.14-.09-.6-.42-2.63-.3-1.89-.11-.73-.3-1.88-.41-2.59-.25-1.57L43.92,94.13Z"/><polygon class="c" points="62.99 57.44 36.12 61.69 38.16 46.87 56.47 43.97 62.99 57.44"/><path d="M65.61,57.16a.51.51,0,0,0,0-.13,2,2,0,0,0,0-.24,2,2,0,0,0-.07-.23c0-.09-.07-.18-.11-.27l-.08-.16-.68-1.42L59.07,43.29l-.23-.47a2.6,2.6,0,0,0-2.74-1.45h0l-2.57.41L40.31,43.86l-2.56.41h0a2.62,2.62,0,0,0-2.16,2.23l-.07.52-2,14.25v0a2.72,2.72,0,0,0,0,.28.28.28,0,0,0,0,.09,1.87,1.87,0,0,0,0,.34v.06l0,.19a2.61,2.61,0,0,0,.72,1.28,2.64,2.64,0,0,0,1.85.76,1.9,1.9,0,0,0,.41,0l2.6-.41,10.41-1.65,3.16-.5,3.13-.49,5-.79L63,60.1,63.4,60a2.64,2.64,0,0,0,1.93-1.38,2.74,2.74,0,0,0,.29-1.4A.31.31,0,0,0,65.61,57.16Zm-6.54-1.77-8.88,1.4-11,1.74,1.29-9.36L55,46.88,58.89,55Z"/><rect class="b" x="36.89" y="31.19" width="18.62" height="14.32" transform="translate(-5.43 7.7) rotate(-9)"/><path d="M59.11,43.55l0-.26-2.2-13.88a2.65,2.65,0,0,0-1-1.72l-.21-.13a2.55,2.55,0,0,0-1.75-.34l-.85.13-5,.79h0l-6.7,1.06h-.1l-4.9.78-.84.13a2.62,2.62,0,0,0-2.19,3L35.48,47l0,.26a2.65,2.65,0,0,0,1,1.72,2.57,2.57,0,0,0,1.23.48l.32,0a2.73,2.73,0,0,0,.41,0l2-.31L55,46.88l2-.31a2.38,2.38,0,0,0,.7-.22A2.63,2.63,0,0,0,59.11,43.55ZM38.9,34.93l9.94-1.58,3.24-.51,1.41,8.94L40.31,43.86Z"/><rect class="b" x="34.31" y="12.78" width="18.62" height="18.62" rx="5.61" transform="translate(-2.92 7.1) rotate(-9)"/><path d="M56,23.57l-.64-4L54.9,17l0-.1A8.37,8.37,0,0,0,54,14.13,8.56,8.56,0,0,0,45.1,9.76l-6.7,1.06a8.53,8.53,0,0,0-7.2,8.64,7.3,7.3,0,0,0,.09,1.14l.24,1.5.41,2.61.41,2.6A8.44,8.44,0,0,0,33.89,31a8.3,8.3,0,0,0,2,2,8.49,8.49,0,0,0,4.87,1.54,8.78,8.78,0,0,0,1.35-.11l6.7-1.06a8.47,8.47,0,0,0,5.47-3.3,8.12,8.12,0,0,0,1.3-2.49A8.22,8.22,0,0,0,56,23.57ZM48,28.15l-6.7,1.06h-.1a3.27,3.27,0,0,1-3.65-2.74l-.75-4.72-.31-2A3.27,3.27,0,0,1,39.22,16L45.93,15a4.55,4.55,0,0,1,.52,0,3.29,3.29,0,0,1,1.92.63,3.23,3.23,0,0,1,1.28,2l0,.13,1.06,6.7A3.28,3.28,0,0,1,48,28.14Z"/><rect class="c" x="623.87" y="92.49" width="97.37" height="27.21" transform="translate(462.56 753.78) rotate(-81)"/><path d="M664.86,67.72l-.06.42-.35,2.18L661.83,70l-.41,2.6-.72,4.56-.42,2.61-.41,2.6-.81,5.14-.42,2.61-.41,2.6L657.4,98l-.41,2.59-.32,2-.1.6-.31,2-.41,2.58v0l-.4,2.58L655,113l-2.41,15.21-.41,2.61-.36,2.25-.05.35-.36,2.25-.41,2.61-.32,2-.07.44,1.75,0,.88.27,1.27.39,1.26.4.16-1,.28-1.8.41-2.6.41-2.55v0l.41-2.56.41-2.61,2.35-14.83.41-2.6.42-2.6,0-.22.41-2.6.28-1.76.14-.84.28-1.77.41-2.6.83-5.28.42-2.6.41-2.61.81-5.1.41-2.6.41-2.6.77-4.86.41-2.6.32-2,.09-.58Zm31.35-8a2.59,2.59,0,0,0-.47-1.14,2.65,2.65,0,0,0-1.72-1l-.78-.12L690.52,57l-19.86-3.15-2.72-.43-.79-.12a2.61,2.61,0,0,0-2.7,1.3l-.08.15c0,.09-.08.18-.11.27a2,2,0,0,0-.07.23,2,2,0,0,0-.05.24.51.51,0,0,0,0,.13l-.33,2.09-.41,2.61L663,62.5l-.07.42-.35,2.19-.37,2.32,0,.28L661.83,70l-.41,2.6-.72,4.56-.42,2.61-.41,2.6-.81,5.14-.42,2.61-.41,2.6L657.4,98l-.41,2.59-.32,2-.1.6-.31,2-.41,2.58v0l-.4,2.58L655,113l-2.41,15.21-.41,2.61-.36,2.25-.05.35-.36,2.25-.41,2.61-.32,2-.07.44-.34,2.19-.08.44-.34,2.17-.07.45-.9,5.68a2.66,2.66,0,0,0,0,.39,2.62,2.62,0,0,0,.5,1.57,2,2,0,0,0,.19.22,2.61,2.61,0,0,0,1.53.83l13.84,2.19,13,2.07a2.73,2.73,0,0,0,.41,0,2.1,2.1,0,0,0,.56-.07,2.21,2.21,0,0,0,.77-.3,1,1,0,0,0,.22-.13,2.65,2.65,0,0,0,1.05-1.72l0-.2,1.55-9.75.41-2.63.12-.77.3-1.85.12-.75.41-2.6,12.26-77.45,0-.17A2.89,2.89,0,0,0,696.21,59.72Zm-5.89,4.37L690,66.15l-.06.41-.09.55-.05.35-.37,2.32-.08.47-.06.43-.06.37-.08.52-.08.47-.08.48-.06.42-.06.38-.18,1.12-.06.39-.41,2.6-9.32,58.8-.16,1.06-.42,2.59-.24,1.53-.17,1.08-.24,1.54-.42,2.63-.56,3.51-.49,3.12-21.67-3.43.44-2.79.15-1,.27-1.66.15-1,.26-1.67.16-1,.28-1.8.41-2.6.41-2.55v0l.41-2.56.41-2.61,2.35-14.83.41-2.6.42-2.6,0-.22.41-2.6.28-1.76.14-.84.28-1.77.41-2.6.83-5.28.42-2.6.41-2.61.81-5.1.41-2.6.41-2.6.77-4.86.41-2.6.32-2,.09-.58.33-2,.27-1.72.14-.89.27-1.72.41-2.61,0-.16,12.41,2h0l9.22,1.46h0Z"/><polygon class="c" points="693.61 60.13 666.74 55.88 673.26 42.41 691.57 45.31 693.61 60.13"/><path d="M696.24,60.14v0c0-.11,0-.21,0-.32v-.05l-2-14.22-.08-.55A2.63,2.63,0,0,0,692,42.72h0l-2.55-.4-13.18-2.09-2.58-.41h0a2.63,2.63,0,0,0-2.76,1.45l-.21.44-6.23,12.88-.08.15c0,.09-.08.18-.11.27a2,2,0,0,0-.07.23,2,2,0,0,0-.05.24.51.51,0,0,0,0,.13,2.6,2.6,0,0,0,1.19,2.49,2.58,2.58,0,0,0,1,.39l1.1.17,1.5.24,12.41,2h0l9.23,1.47,2.27.36.33.05a2.83,2.83,0,0,0,.41,0,2.61,2.61,0,0,0,2.57-2.05l0-.17a.34.34,0,0,1,0-.1A3,3,0,0,0,696.24,60.14ZM674.78,45.32l14.45,2.29L690.52,57l-19.86-3.15Z"/><rect class="b" x="674.24" y="29.63" width="18.61" height="14.32" transform="translate(14.17 -106.48) rotate(9)"/><path d="M695.85,29.45a2.62,2.62,0,0,0-1.58-.87l-.85-.13-5-.8-6.7-1.06h0l-5-.79-.84-.13a2.6,2.6,0,0,0-1.77.35,1.22,1.22,0,0,0-.19.12,2.63,2.63,0,0,0-1.06,1.72L670.68,41.7l0,.3a2.63,2.63,0,0,0,1.48,2.78,2.46,2.46,0,0,0,.71.23l2,.31,14.45,2.29,2,.31a1.9,1.9,0,0,0,.41,0l.31,0a2.58,2.58,0,0,0,1.24-.49,2.61,2.61,0,0,0,1.05-1.72l0-.23,2.2-13.91A2.63,2.63,0,0,0,695.85,29.45Zm-19.6,10.77,1.42-8.94,3.23.51,6.71,1.07h.1l3.14.5-1.42,8.94Z"/><rect class="b" x="676.82" y="11.22" width="18.62" height="18.62" rx="5.61" transform="translate(11.66 -107.08) rotate(9)"/><path d="M687.06,13.23a4.09,4.09,0,0,0-2.42.31l4.33.69A3.93,3.93,0,0,0,687.06,13.23Zm10.65.77a8.58,8.58,0,0,0-6.37-4.74l-6.7-1.06a8.53,8.53,0,0,0-6.36,1.53,6.58,6.58,0,0,0-1,.88h0a7.78,7.78,0,0,0-1.79,2.63,8,8,0,0,0-.61,2.06l-.16,1L673.8,22a8.33,8.33,0,0,0,.32,4,8.18,8.18,0,0,0,1.21,2.37,1.34,1.34,0,0,0,.11.14,8.44,8.44,0,0,0,5.46,3.27l6.71,1.07h.1A8.73,8.73,0,0,0,689,33a8.56,8.56,0,0,0,8.44-7.21l.72-4.55.34-2.15a8,8,0,0,0,.1-1.19A8.45,8.45,0,0,0,697.71,14Zm-16,12.58a3.2,3.2,0,0,1-2.1-1.3,3.27,3.27,0,0,1-.59-2.44l.73-4.56.34-2.15a2.7,2.7,0,0,1,.12-.49A3.21,3.21,0,0,1,681.38,14a3.26,3.26,0,0,1,2.44-.58l.82.13,4.33.69,1.55.24a3.28,3.28,0,0,1,2.73,3.75l-.1.6-.42,2.64-.55,3.47a3.29,3.29,0,0,1-3.75,2.72l-6.7-1.06Z"/><path class="a" d="M30.59,22.19a5.22,5.22,0,0,1-4.76-7.37A21.39,21.39,0,0,1,39.8,3.2C50,.72,57.57,7.11,58.41,7.84a5.22,5.22,0,0,1-6.92,7.82,11,11,0,0,0-9.23-2.32,10.9,10.9,0,0,0-6.92,5.78A5.21,5.21,0,0,1,30.59,22.19Z"/><path d="M60.15,5.86c-.94-.82-9.51-8-21-5.22C28.67,3.19,24.22,12,23.43,13.73a7.85,7.85,0,0,0,3.92,10.39,7.69,7.69,0,0,0,3.24.71,7.53,7.53,0,0,0,1.35-.12,8,8,0,0,0,4.87-2.95,7.33,7.33,0,0,0,.93-1.55,8.28,8.28,0,0,1,5.14-4.31,8.15,8.15,0,0,1,6.77,1.66l.09.07a7.84,7.84,0,0,0,5.57,2h.12A7.78,7.78,0,0,0,60.83,17,7.86,7.86,0,0,0,60.15,5.86ZM54,14.13a2.45,2.45,0,0,1-.72-.44c-.21-.18-5.12-4.47-11.6-2.91A13.39,13.39,0,0,0,32.94,18a2.57,2.57,0,0,1-1.74,1.42,2.55,2.55,0,0,1-3-1.58,2.57,2.57,0,0,1,.07-2A18.62,18.62,0,0,1,40.42,5.76a17,17,0,0,1,4.08-.5A19.57,19.57,0,0,1,56.66,9.81a2.58,2.58,0,0,1,.22,3.65,2.54,2.54,0,0,1-1.77.87A2.64,2.64,0,0,1,54,14.13Z"/><path class="a" d="M695.08,19.18a5.26,5.26,0,0,1-4.89-3.31,4.76,4.76,0,0,0-3.13-2.63,4.57,4.57,0,0,0-3.65,1.06,5.26,5.26,0,0,1-7.09-7.78A14.7,14.7,0,0,1,700,12,5.26,5.26,0,0,1,697,18.8,5.16,5.16,0,0,1,695.08,19.18Z"/><path d="M702.41,11a17.34,17.34,0,0,0-27.87-6.41A7.91,7.91,0,0,0,674,15.68a7,7,0,0,0,.68.66,8,8,0,0,0,2.43,1.45,8.31,8.31,0,0,0,2.6.49,7.86,7.86,0,0,0,5.42-2,2,2,0,0,1,1.42-.46c.66.13,1.12.95,1.21,1.13a7.82,7.82,0,0,0,5,4.51,7.69,7.69,0,0,0,2.35.36h.27a7.58,7.58,0,0,0,2.66-.56l.1-.05A7.88,7.88,0,0,0,702.41,11Zm-4.91,4a2.64,2.64,0,0,1-1.45,1.41l-.18.06a2.59,2.59,0,0,1-3.23-1.53.61.61,0,0,1,0-.12,8.14,8.14,0,0,0-2.52-3,6.35,6.35,0,0,0-2.5-1.08,6.84,6.84,0,0,0-1.24-.12,6.61,6.61,0,0,0-2,.3,7.55,7.55,0,0,0-2.71,1.5,2.66,2.66,0,0,1-2.95.4,2.41,2.41,0,0,1-.78-.58,2.68,2.68,0,0,1-.67-1.53h0a2.63,2.63,0,0,1,.83-2.15,12.08,12.08,0,0,1,19.43,4.48,2.59,2.59,0,0,1,.19,1.06A2.62,2.62,0,0,1,697.5,15Z"/></svg>