<svg xmlns="http://www.w3.org/2000/svg" viewBox="0 0 1423.15 207.81"><defs><style>.a{fill:#fff;}</style></defs><path class="a" d="M1423.15,4.32V207.81H0V5l10.33,0H20.8c9.88,0,20.27,0,29.26.34C62.5,5.67,71.67,6.33,80.54,7c6.91.49,14.06,1,22.58,1.38,10.25.44,23.75.56,38,.69,12.25.12,24.91.23,35.34.57,6.81.22,13,.49,19.63.77,12.47.54,25.36,1.1,42.73,1.33l10.7.15c18.09.26,38.61.55,61.87.55l20.28,0h18.35c10.45,0,18.71,0,25.88-.07l2.66,0,6.23-.07,1.36,0,5.62-.08,2.66,0,1.54,0,1.12,0c.65,0,1.31,0,2,0L404.2,12c5-.07,10.08-.15,15.09-.24l2.66,0,2.64-.05h0c12.05-.23,23.67-.49,33.7-.81,11.42-.37,22-.83,32.09-1.3L493,9.43l7-.33c6.18-.29,12.3-.58,18.48-.85l1.73-.07L522.9,8c6.62-.38,11.74-.89,17.11-1.43,7.44-.75,15.14-1.53,27.2-1.92,7.64-.25,16.41-.45,25.17-.61,8.25-.17,16.49-.29,23.77-.4l7.74-.11,11.35-.16,11.41-.16c19.82-.27,44.48-.61,69.93-.61,7.46,0,14.5.1,21.25.24h.33l1.29,0c7.83.18,15.29.42,22.62.66l3.46.11c7.44.24,15.35.48,23,.58,3.91,0,7.64.12,11.21.19h.56l7.28.16h.05c6.76.17,13,.36,19,.56l11.73.41,14.33.49c10.37.34,23.08.45,35.37.56l8.76.08,2.64,0,2.66,0c8.08.09,15.59.23,22,.47l2.36.09h.28l2.63.14c7.41.36,13.59.85,19.58,1.32,6.15.48,12.45,1,20.23,1.36,2.76.14,5.71.26,8.9.36,5.27.17,11.1.36,17.42.54l1.75,0,.92,0,2.65.08,9.41.25c2.53.06,5.12.13,7.77.18q1.37,0,2.76.06l2.19.05,1.9,0h.76c.88,0,1.76,0,2.65.06l5.15.1,8.05.14,2.67,0,3.2,0c13.8.19,29.16.23,48,.23h26.45c26,0,48.49-.31,68.38-.58l4.38-.06c9.66-.13,19.49-.2,29-.28,16.62-.12,32.33-.23,44.92-.64,15.67-.51,29.83-1.17,43.51-1.8,5.71-.27,11.36-.53,17-.78,6.34-.28,12.43-.57,18.52-.86,12.31-.58,25-1.19,40-1.68,6.62-.21,13-.48,19.73-.76C1412.35,4.74,1417.61,4.52,1423.15,4.32Z"/><path d="M1407.07,2.32c-6.73.29-13.08.55-19.68.77-15,.48-27.73,1.09-40.06,1.68-6,.29-12.16.58-18.49.86l-17.07.77c-13.67.64-27.8,1.29-43.44,1.8-12.56.41-28.24.53-44.84.65-9.52.07-19.37.14-29,.27l-4.4.06c-19.87.28-42.39.58-68.32.58h-26.5c-18.79,0-34.13,0-47.89-.22l-3.39-.05-10.31-.17-5-.09L1026,9.18l-1.33,0-1.33,0-2.18-.05L1018.47,9,1015.54,9c-5-.12-9.78-.25-14.34-.38l-2.66-.08-.91,0-1.75-.05c-6.45-.18-12.39-.37-17.76-.54-3.06-.1-5.89-.22-8.55-.34-7.88-.39-14.25-.89-20.46-1.38l-7.53-.58c-3.7-.26-7.62-.52-12-.75L927,4.72l-.45,0-2.2-.09c-6.41-.24-13.92-.37-22-.47l-2.65,0-2.65,0L888,4c-12.28-.11-25-.23-35.32-.56l-14.34-.5-10.79-.38-2.64-.08c-7.8-.26-16.06-.5-25.38-.68l-4.45-.09-6.59-.1c-7.6-.1-15.48-.34-22.91-.58L762.16.92c-11.38-.36-23.07-.74-36-.87-3.13,0-6.33,0-9.62,0-7.7,0-15.33,0-22.78.09-17.19.11-33.4.33-47.24.52l-5.64.08-5,.06L624.61.91,622,1,616.11,1c-6.57.1-13.92.21-21.36.35l-2.64.05c-8.7.17-17.39.37-25,.62C555,2.44,547.23,3.22,539.75,4c-5.38.54-10.5,1.06-17.13,1.44L520,5.55l-1.57.07-1.07,0c-5.83.25-11.61.53-17.45.8l-4.5.21-2.64.13-2.63.11c-10.07.48-20.55.93-31.91,1.3l-6.45.19c-8.47.24-17.81.45-27.43.63h-.15l-2.66,0-2.65.05c-4.94.09-9.91.17-14.85.24l-1.76,0h-.57l-2.41,0-2.57,0h-.87c-.6,0-1.2,0-1.79,0l-2.66,0-5.25.07-1.5,0c-2.76,0-5.63.06-8.71.09-7.17,0-15.45.08-25.91.08l-18.33,0H311.43c-23.23,0-43.73-.29-61.81-.55L238.9,9.08c-17.35-.24-30.22-.79-42.67-1.33-6.6-.28-12.83-.55-19.64-.77-10.46-.34-23.14-.46-35.4-.57-14.27-.13-27.75-.25-38-.7-8.48-.37-15.29-.86-22.49-1.37C71.84,3.7,62.64,3,50.15,2.63c-9-.29-19.44-.33-29.35-.33H0V7.59l20.8,0c10.69,0,20.66,0,29.17.33,22.2.72,33.66,2.23,53,3.08s51.22.54,73.42,1.26c19.88.65,36,1.75,62.41,2.11,21.26.28,44.73.7,72.6.7,13.47,0,26.41,0,38.6,0,9.25,0,18.06,0,26.32-.09L379,15c.89,0,1.78,0,2.66,0l4.54,0c2,0,4-.05,6-.09l2.66,0,2,0h.63l6.77-.1c5.22-.07,10.36-.16,15.39-.24l2.65-.05,2.66,0c12.16-.23,23.51-.49,33.37-.81,11.51-.37,22.08-.83,32.29-1.31l2.64-.12,2.44-.12,3.35-.15c5.79-.28,11.51-.55,17.28-.81l2.26-.1,4-.2c11.13-.62,18.2-1.63,28-2.44l1.47-.1c1.57-.13,3.21-.24,4.94-.35l.3,0c3-.18,6.26-.33,9.95-.45,13.67-.45,30.87-.75,48.88-1L641,6c21.26-.29,47.71-.69,75.58-.69,7.37,0,14.38.09,21.1.24h.42l1,0h.07c9.23.2,17.92.5,26.24.76,7.94.25,15.57.48,23,.58L800,7.07h.25c2.25,0,4.43.09,6.57.15h.2c17,.41,30.66,1,45.51,1.48,8.85.29,19.28.41,29.85.5l8,.08,6.13.06,2.9,0c10,.11,19.41.27,26.9.59h.12c.9,0,1.78.08,2.64.12,17.62.87,27.77,2.38,48.89,3.06q8.19.27,17.1.52l1.75.05.91,0,2.65.07,9.71.26h.07l11,.26h0l1.3,0,2.13,0h.53l2.66.05c3.44.06,7,.13,10.54.18l2.66.05,2.66,0,3.58.05c14.3.2,30.44.23,48,.23h26.5c27.87,0,51.53-.35,72.79-.64,26.46-.36,54.11-.28,74-.92,22.2-.72,41.21-1.73,60.57-2.58s36.28-1.81,58.49-2.54c11.72-.38,22.93-.93,35.59-1.4V1.68C1417.56,1.88,1412.26,2.1,1407.07,2.32ZM1006.18,13.58a43.82,43.82,0,0,1-5.55-1.41l.15-1,.26-1.67-1.26-.4-1.27-.39-.88-.27-1.75-.05c-6.45-.18-12.39-.37-17.76-.54-3.06-.1-5.89-.22-8.55-.34-7.88-.39-14.25-.89-20.46-1.38l-7.53-.58c-3.7-.26-7.62-.52-12-.75L927,4.72l-.45,0-2.2-.09c-6.41-.24-13.92-.37-22-.47l-2.65,0-2.65,0L888,4c-12.28-.11-25-.23-35.32-.56l-14.34-.5-10.79-.38-2.64-.08c-7.8-.26-16.06-.5-25.38-.68l-4.45-.09-6.59-.1c-7.6-.1-15.48-.34-22.91-.58L762.16.92c-11.38-.36-23.07-.74-36-.87-3.13,0-6.33,0-9.62,0-7.7,0-15.33,0-22.78.09-17.19.11-33.4.33-47.24.52l-5.64.08-5,.06L624.61.91,622,1,616.11,1c-6.57.1-13.92.21-21.36.35l-2.64.05c-8.7.17-17.39.37-25,.62C555,2.44,547.23,3.22,539.75,4c-5.38.54-10.5,1.06-17.13,1.44L520,5.55l-1.57.07-1.07,0c-5.83.25-11.61.53-17.45.8l-4.5.21-2.64.13-2.63.11c-10.07.48-20.55.93-31.91,1.3l-6.45.19c-8.47.24-17.81.45-27.43.63l-.15,0c-.86.18-1.72.37-2.58.54l.34,2.12.08.49-2.58.52.26,1.66,2.65-.05,2.66,0c12.16-.23,23.51-.49,33.37-.81,11.51-.37,22.08-.83,32.29-1.31l2.64-.12,2.44-.12,3.35-.15c5.79-.28,11.51-.55,17.28-.81l2.26-.1,4-.2c11.13-.62,18.2-1.63,28-2.44l1.47-.1c1.57-.13,3.21-.24,4.94-.35l.3,0c3-.18,6.26-.33,9.95-.45,13.67-.45,30.87-.75,48.88-1L641,6c21.26-.29,47.71-.69,75.58-.69,7.37,0,14.38.09,21.1.24h.42l1,0h.07c9.23.2,17.92.5,26.24.76,7.94.25,15.57.48,23,.58L800,7.07h.25c2.25,0,4.43.09,6.57.15h.2c17,.41,30.66,1,45.51,1.48,8.85.29,19.28.41,29.85.5l8,.08,6.13.06,2.9,0c10,.11,19.41.27,26.9.59h.12c.9,0,1.78.08,2.64.12,17.62.87,27.77,2.38,48.89,3.06q8.19.27,17.1.52l1.75.05.91,0,2.65.07,9.71.26C1008.77,14,1007.47,13.81,1006.18,13.58Z"/></svg>