<svg xmlns="http://www.w3.org/2000/svg" viewBox="0 0 234.5 388.39"><defs><style>.a{fill:#fff;}</style></defs><path class="a" d="M202,43a29.57,29.57,0,0,0-5.68.55A54.5,54.5,0,0,0,89,57c0,1.36,0,2.7.15,4-.38,0-.76,0-1.15,0A22,22,0,0,0,68.4,73H232A30,30,0,0,0,202,43Zm-30.25-5.5A6.68,6.68,0,0,1,166,34.3a8,8,0,0,1-1.78.2A8.25,8.25,0,1,1,172.19,24a6.74,6.74,0,0,1-.44,13.47Z"/><path d="M232,75.5H68.4a2.51,2.51,0,0,1-2.23-3.64A24.43,24.43,0,0,1,86.52,58.54c0-.51,0-1,0-1.54A57,57,0,0,1,198.14,40.73,33.18,33.18,0,0,1,202,40.5,32.54,32.54,0,0,1,234.5,73,2.5,2.5,0,0,1,232,75.5Zm-159-5H229.39A27.48,27.48,0,0,0,196.8,46a2.48,2.48,0,0,1-2.9-1.84A52,52,0,0,0,91.5,57c0,1.29,0,2.58.14,3.84A2.49,2.49,0,0,1,89,63.53c-.34,0-.67,0-1,0A19.42,19.42,0,0,0,73,70.5ZM171.75,40a9.14,9.14,0,0,1-6.83-3l-.67,0A10.75,10.75,0,1,1,174,21.79,9.25,9.25,0,0,1,171.75,40ZM166,31.8a2.48,2.48,0,0,1,2.13,1.2,4.19,4.19,0,0,0,3.59,2,4.24,4.24,0,0,0,.29-8.48,2.48,2.48,0,0,1-2.26-1.83A5.75,5.75,0,1,0,164.25,32a5.57,5.57,0,0,0,1.22-.14A2.74,2.74,0,0,1,166,31.8Z"/><path d="M68.4,75.5H35.89a2.5,2.5,0,0,1,0-5H68.4a2.5,2.5,0,0,1,0,5Z"/><path d="M24.56,75.5H10.11a2.5,2.5,0,0,1,0-5H24.56a2.5,2.5,0,1,1,0,5Z"/><circle cx="2.5" cy="73" r="2.5"/><circle class="a" cx="52.07" cy="376.72" r="9.18"/><path d="M52.07,388.39a11.68,11.68,0,1,1,11.68-11.67A11.69,11.69,0,0,1,52.07,388.39Zm0-18.35a6.68,6.68,0,1,0,6.68,6.68A6.68,6.68,0,0,0,52.07,370Z"/><circle class="a" cx="74.98" cy="321.2" r="10.2"/><path d="M75,333.9a12.7,12.7,0,1,1,12.69-12.7A12.71,12.71,0,0,1,75,333.9Zm0-20.39a7.7,7.7,0,1,0,7.69,7.69A7.7,7.7,0,0,0,75,313.51Z"/><circle class="a" cx="101.83" cy="129.63" r="8.44"/><path d="M101.83,140.57a10.95,10.95,0,1,1,11-10.95A11,11,0,0,1,101.83,140.57Zm0-16.89a5.95,5.95,0,1,0,6,5.94A6,6,0,0,0,101.83,123.68Z"/><circle class="a" cx="155.99" cy="99.94" r="10.21"/><path d="M156,112.65a12.71,12.71,0,1,1,12.7-12.71A12.72,12.72,0,0,1,156,112.65Zm0-20.41a7.71,7.71,0,1,0,7.7,7.7A7.72,7.72,0,0,0,156,92.24Z"/></svg>