<svg xmlns="http://www.w3.org/2000/svg" viewBox="0 0 183.12 59.31"><defs><style>.a{fill:#fff;}</style></defs><path class="a" d="M180.62,56.81H56.05a25.76,25.76,0,0,1-1-7A25.38,25.38,0,0,1,80.47,24.41c.44,0,.87,0,1.31,0A32.2,32.2,0,0,1,144,29,28.48,28.48,0,0,1,151.77,28,28.84,28.84,0,0,1,180.62,56.81Z"/><path d="M180.62,59.31H56.05a2.5,2.5,0,0,1-2.4-1.82A27.93,27.93,0,0,1,80,21.91,34.71,34.71,0,0,1,145.91,26a31.79,31.79,0,0,1,5.86-.55,31.38,31.38,0,0,1,31.35,31.35A2.5,2.5,0,0,1,180.62,59.31ZM58,54.31H178a26.35,26.35,0,0,0-33.32-22.88,2.5,2.5,0,0,1-3.14-2,29.7,29.7,0,0,0-57.39-4.23,2.48,2.48,0,0,1-2.5,1.7c-.4,0-.79,0-1.18,0A22.93,22.93,0,0,0,58,54.31Z"/><path d="M56.05,59.31H24.88a2.5,2.5,0,1,1,0-5H56.05a2.5,2.5,0,0,1,0,5Z"/><path d="M17.69,59.31H2.5a2.5,2.5,0,0,1,0-5H17.69a2.5,2.5,0,0,1,0,5Z"/></svg>