<svg xmlns="http://www.w3.org/2000/svg" viewBox="0 0 291.55 166.52"><defs><style>.a{fill:#fff;}</style></defs><path class="a" d="M208.79,44.29H184.73A11.34,11.34,0,0,1,196.07,33c.37,0,.73,0,1.09,0a17.51,17.51,0,0,1,14.16-12.17,24,24,0,0,1,46.95,1.69A15.55,15.55,0,0,1,276.63,31a13.28,13.28,0,0,1,12.42,13.25H220.92"/><path d="M289.05,46.79H220.92a2.5,2.5,0,0,1,0-5h65.33a10.77,10.77,0,0,0-9.78-8.25,2.51,2.51,0,0,1-2.12-1.46,13.07,13.07,0,0,0-11.87-7.64,12.59,12.59,0,0,0-3.53.49,2.51,2.51,0,0,1-3.15-2,21.47,21.47,0,0,0-42.05-1.51,2.5,2.5,0,0,1-2.07,1.88,15.07,15.07,0,0,0-12.13,10.44,2.5,2.5,0,0,1-2.62,1.76,8.11,8.11,0,0,0-.86,0,8.86,8.86,0,0,0-8.48,6.34h21.2a2.5,2.5,0,0,1,0,5H184.73a2.5,2.5,0,0,1-2.5-2.5,13.86,13.86,0,0,1,13.19-13.82,20.09,20.09,0,0,1,13.9-11.8,26.48,26.48,0,0,1,50.87.91,19.29,19.29,0,0,1,2.29-.14,18.08,18.08,0,0,1,15.77,9.27,15.8,15.8,0,0,1,13.3,15.58A2.5,2.5,0,0,1,289.05,46.79Z"/><path d="M184.73,46.79h0l-21.18-.14a2.5,2.5,0,0,1,0-5h0l21.18.14a2.5,2.5,0,0,1,0,5Z"/><circle cx="154.55" cy="44.22" r="2.5"/><circle cx="146.55" cy="44.15" r="2.5"/><circle class="a" cx="10.4" cy="156.12" r="7.9"/><path d="M10.4,166.52a10.4,10.4,0,1,1,10.4-10.4A10.41,10.41,0,0,1,10.4,166.52Zm0-15.8a5.4,5.4,0,1,0,5.4,5.4A5.4,5.4,0,0,0,10.4,150.72Z"/><circle class="a" cx="85.82" cy="101.51" r="9.1"/><path d="M85.82,113.11a11.6,11.6,0,1,1,11.6-11.6A11.61,11.61,0,0,1,85.82,113.11Zm0-18.2a6.6,6.6,0,1,0,6.6,6.6A6.61,6.61,0,0,0,85.82,94.91Z"/><circle class="a" cx="138.99" cy="62.67" r="10.04"/><path d="M139,75.21a12.54,12.54,0,1,1,12.54-12.54A12.56,12.56,0,0,1,139,75.21Zm0-20.08a7.54,7.54,0,1,0,7.54,7.54A7.55,7.55,0,0,0,139,55.13Z"/></svg>