<svg xmlns="http://www.w3.org/2000/svg" viewBox="0 0 161.6 47.5"><defs><style>.a{fill:#fff;}</style></defs><path class="a" d="M159.1,45H40.78a12.73,12.73,0,0,1-.18-2.15A12.53,12.53,0,0,1,53.13,30.32a12.32,12.32,0,0,1,4,.67,16.58,16.58,0,0,1,21.71-9.11,29.51,29.51,0,0,1,56.71,4.66c.33,0,.67,0,1,0a12.51,12.51,0,0,1,11.67,8h.33A10.5,10.5,0,0,1,159.1,45Z"/><path d="M159.1,47.5H40.78a2.51,2.51,0,0,1-2.47-2.08,15.55,15.55,0,0,1-.21-2.57,15,15,0,0,1,15-15,15.66,15.66,0,0,1,2.66.23,19,19,0,0,1,16.74-9.93,19.36,19.36,0,0,1,4.92.64A32,32,0,0,1,137.59,24a15.16,15.16,0,0,1,12.31,8A13,13,0,0,1,161.6,45,2.5,2.5,0,0,1,159.1,47.5Zm-116-5H156.2a8,8,0,0,0-7.6-5.5h-.12a2.49,2.49,0,0,1-2.55-1.59A10.05,10.05,0,0,0,136.6,29c-.27,0-.53,0-.79,0a2.49,2.49,0,0,1-2.68-2,27,27,0,0,0-51.9-4.26,2.51,2.51,0,0,1-3.31,1.45,14.07,14.07,0,0,0-18.43,7.73,2.5,2.5,0,0,1-3.14,1.43,9.88,9.88,0,0,0-3.22-.53A10,10,0,0,0,43.1,42.5Z"/><path d="M40.78,47.5H27.1a2.5,2.5,0,1,1,0-5H40.78a2.5,2.5,0,0,1,0,5Z"/><path d="M18.18,47.5H2.5a2.5,2.5,0,0,1,0-5H18.18a2.5,2.5,0,0,1,0,5Z"/></svg>