<svg xmlns="http://www.w3.org/2000/svg" viewBox="0 0 179.4 59.02"><defs><style>.a{fill:#fff;}</style></defs><path d="M50.45,59H20.26a2.5,2.5,0,1,1,0-5H50.45a2.5,2.5,0,0,1,0,5Z"/><path class="a" d="M176.9,56.52H50.45A33.5,33.5,0,0,1,83.94,23a33,33,0,0,1,7.69.9A23.51,23.51,0,0,1,137,17.65a16.51,16.51,0,0,1,24,14.72,15.93,15.93,0,0,1-.38,3.54A21.2,21.2,0,0,1,176.9,56.52Z"/><path d="M176.9,59H50.45a2.5,2.5,0,0,1-2.5-2.5A36,36,0,0,1,89.52,21,25.84,25.84,0,0,1,115.05,0a26.17,26.17,0,0,1,23.27,14.39,19,19,0,0,1,25.19,18,17,17,0,0,1-.08,1.75,23.59,23.59,0,0,1,16,22.4A2.5,2.5,0,0,1,176.9,59ZM53.05,54H174.23a18.58,18.58,0,0,0-14.18-15.67,2.51,2.51,0,0,1-1.86-3,13.3,13.3,0,0,0,.32-3,14,14,0,0,0-14-14,13.85,13.85,0,0,0-6.35,1.52,2.52,2.52,0,0,1-3.48-1.34,21,21,0,0,0-40.56,5.6,2.54,2.54,0,0,1-1,1.81,2.51,2.51,0,0,1-2,.4,30.59,30.59,0,0,0-7.11-.83A31,31,0,0,0,53.05,54Z"/><circle cx="2.5" cy="56.52" r="2.5"/><circle cx="11.5" cy="56.52" r="2.5"/></svg>