<svg xmlns="http://www.w3.org/2000/svg" viewBox="0 0 198 181.1"><defs><style>.a{fill:#fff;}</style></defs><path class="a" d="M143,53.64h52.5A21.46,21.46,0,0,0,163.37,35,35.53,35.53,0,0,0,96.56,21.43,30.1,30.1,0,0,0,58.88,50.51a29.4,29.4,0,0,0,.17,3.13H132.7M138,32.32a5,5,0,0,1-4.92-4.17,7.51,7.51,0,1,1,5.75-5.75,5,5,0,0,1-.83,9.92Z"/><path d="M195.5,56.14H143a2.5,2.5,0,0,1,0-5h49.84a19,19,0,0,0-28.22-14,2.51,2.51,0,0,1-2.41,0,2.47,2.47,0,0,1-1.33-2A33,33,0,0,0,98.77,22.6a2.51,2.51,0,0,1-2.84,1.25A27.6,27.6,0,0,0,61.38,50.51c0,.21,0,.42,0,.63H132.7a2.5,2.5,0,0,1,0,5H59.05a2.5,2.5,0,0,1-2.49-2.23A32.59,32.59,0,0,1,95.3,18.58a38,38,0,0,1,70.1,12.7A24,24,0,0,1,198,53.64,2.5,2.5,0,0,1,195.5,56.14ZM138,34.82a7.46,7.46,0,0,1-6.64-4A10,10,0,1,1,141.5,20.68,7.5,7.5,0,0,1,138,34.82Zm-4.92-9.17a2.49,2.49,0,0,1,2.47,2.1A2.46,2.46,0,0,0,138,29.82a2.5,2.5,0,0,0,2.5-2.5,2.46,2.46,0,0,0-2.07-2.45,2.48,2.48,0,0,1-1.66-1.06,2.45,2.45,0,0,1-.38-1.93,5.53,5.53,0,0,0,.11-1.06,5,5,0,1,0-3.95,4.89A2.39,2.39,0,0,1,133.08,25.65Z"/><path d="M59.05,56.14H30a2.5,2.5,0,0,1,0-5H59.05a2.5,2.5,0,0,1,0,5Z"/><circle cx="22.5" cy="53.64" r="2.5"/><circle cx="12.5" cy="53.64" r="2.5"/><circle cx="2.5" cy="53.64" r="2.5"/><circle class="a" cx="63.97" cy="169.64" r="8.95"/><path d="M64,181.1a11.46,11.46,0,1,1,11.45-11.46A11.47,11.47,0,0,1,64,181.1Zm0-17.91a6.46,6.46,0,1,0,6.45,6.45A6.46,6.46,0,0,0,64,163.19Z"/><circle class="a" cx="179.02" cy="93.28" r="8.83"/><path d="M179,104.61a11.33,11.33,0,1,1,11.33-11.33A11.35,11.35,0,0,1,179,104.61ZM179,87a6.33,6.33,0,1,0,6.33,6.32A6.34,6.34,0,0,0,179,87Z"/><circle class="a" cx="76.49" cy="79.65" r="8.59"/><path d="M76.49,90.75a11.1,11.1,0,1,1,11.09-11.1A11.11,11.11,0,0,1,76.49,90.75Zm0-17.19a6.1,6.1,0,1,0,6.09,6.09A6.1,6.1,0,0,0,76.49,73.56Z"/></svg>