<svg xmlns="http://www.w3.org/2000/svg" viewBox="0 0 167.69 58"><defs><style>.a{fill:#fff;}</style></defs><path class="a" d="M165.19,55.5H42.46a11.51,11.51,0,0,1,11.23-9,12.08,12.08,0,0,1,1.71.12A17.5,17.5,0,0,1,71.69,35.5h.62a36,36,0,0,1,71.76,0c.37,0,.74,0,1.12,0A20,20,0,0,1,165.19,55.5Z"/><path d="M165.19,58H42.46A2.5,2.5,0,0,1,40,55,14.14,14.14,0,0,1,53.84,44,19.84,19.84,0,0,1,70.07,33.06a38.51,38.51,0,0,1,76.24,0A22.52,22.52,0,0,1,167.69,55.5,2.5,2.5,0,0,1,165.19,58Zm-119-5H162.52a17.54,17.54,0,0,0-17.33-15c-.31,0-.61,0-.92,0a2.5,2.5,0,0,1-2.69-2.29,33.51,33.51,0,0,0-66.78,0A2.49,2.49,0,0,1,72.19,38h-.5a14.91,14.91,0,0,0-14,9.53,2.5,2.5,0,0,1-2.68,1.57,8.71,8.71,0,0,0-1.36-.1A9.07,9.07,0,0,0,46.21,53Z"/><path d="M42.46,58H29.69a2.5,2.5,0,1,1,0-5H42.46a2.5,2.5,0,1,1,0,5Z"/><circle cx="24.19" cy="55.5" r="2.5"/><path d="M16.82,58H2.5a2.5,2.5,0,0,1,0-5H16.82a2.5,2.5,0,0,1,0,5Z"/></svg>