<svg xmlns="http://www.w3.org/2000/svg" viewBox="0 0 176.83 57.64"><defs><style>.a{fill:#fff;}</style></defs><path class="a" d="M174.33,55.14H57.62a1.62,1.62,0,0,1,0-.22A15.26,15.26,0,0,1,72.87,39.66h0a39.13,39.13,0,0,1,76.55-9.29h.08A24.78,24.78,0,0,1,174.33,55.14Z"/><path d="M174.33,57.64H57.62a2.5,2.5,0,0,1-2.47-2.12,4,4,0,0,1,0-.6A17.78,17.78,0,0,1,70.59,37.31a41.63,41.63,0,0,1,80.72-9.38,27.32,27.32,0,0,1,25.52,27.21A2.5,2.5,0,0,1,174.33,57.64Zm-114-5H171.69a22.31,22.31,0,0,0-22.14-19.77,2.59,2.59,0,0,1-2.47-1.78,36.63,36.63,0,0,0-71.66,8.69,2.51,2.51,0,0,1-2.5,2.38A12.81,12.81,0,0,0,60.31,52.64Z"/><path d="M57.62,57.64H30a2.5,2.5,0,0,1,0-5H57.62a2.5,2.5,0,0,1,0,5Z"/><circle cx="2.5" cy="55" r="2.5"/><path d="M23,57.5H10.45a2.5,2.5,0,1,1,0-5H23a2.5,2.5,0,0,1,0,5Z"/></svg>