<svg xmlns="http://www.w3.org/2000/svg" viewBox="0 0 188.81 188.35"><defs><style>.a{fill:#fff;}</style></defs><path class="a" d="M161.65,34.3a16.34,16.34,0,0,0-3.3.33c0-.51,0-1,0-1.55a30.58,30.58,0,1,0-61.15,0v.54a12.81,12.81,0,0,0-4.9-.95A13.05,13.05,0,0,0,79.48,43.53a9.5,9.5,0,0,0-2.22-.26,9.38,9.38,0,0,0-9.16,7.34H178A16.31,16.31,0,0,0,161.65,34.3Zm-17.12-6.93a3.64,3.64,0,0,1-3.2-1.88,5.62,5.62,0,0,1-1.69.25,6.12,6.12,0,1,1,6.11-6.12c0,.21,0,.4,0,.61a3.67,3.67,0,0,1-1.19,7.14Z"/><path d="M178,53.11H68.1a2.5,2.5,0,0,1-2.44-3,12,12,0,0,1,11.6-9.3h.34a15.5,15.5,0,0,1,14.74-10.6,16,16,0,0,1,2.51.2,33.08,33.08,0,0,1,66,1.45l.78,0a18.83,18.83,0,0,1,18.81,18.81A2.5,2.5,0,0,1,178,53.11Zm-105.86-5H175.23A13.83,13.83,0,0,0,161.65,36.8a14.43,14.43,0,0,0-2.79.28,2.48,2.48,0,0,1-2.13-.54,2.53,2.53,0,0,1-.88-2c0-.48,0-1,0-1.44a28.08,28.08,0,1,0-56.15,0v.43a2.5,2.5,0,0,1-3.44,2.43,10.35,10.35,0,0,0-4-.77A10.52,10.52,0,0,0,81.94,44a2.5,2.5,0,0,1-3,2,6.74,6.74,0,0,0-1.63-.19A6.92,6.92,0,0,0,72.1,48.11Zm72.43-18.24a6.19,6.19,0,0,1-4.21-1.66c-.22,0-.45,0-.68,0a8.62,8.62,0,1,1,8.57-9.49,6.17,6.17,0,0,1-3.68,11.12ZM141.33,23a2.51,2.51,0,0,1,2.19,1.29,1.13,1.13,0,0,0,1,.59,1.17,1.17,0,0,0,.37-2.28,2.49,2.49,0,0,1-1.66-2.67c0-.1,0-.2,0-.3a3.62,3.62,0,1,0-3.61,3.62,3.39,3.39,0,0,0,1-.14A2.57,2.57,0,0,1,141.33,23Z"/><path d="M68.1,53.11H43.86a2.5,2.5,0,0,1,0-5H68.1a2.5,2.5,0,0,1,0,5Z"/><path d="M37.34,53.11H30a2.5,2.5,0,0,1,0-5h7.34a2.5,2.5,0,0,1,0,5Z"/><circle cx="22.5" cy="50.61" r="2.5"/><circle cx="12.5" cy="50.61" r="2.5"/><circle cx="2.5" cy="50.61" r="2.5"/><circle class="a" cx="178.24" cy="177.78" r="8.07"/><path d="M178.24,188.35a10.57,10.57,0,1,1,10.57-10.57A10.58,10.58,0,0,1,178.24,188.35Zm0-16.14a5.57,5.57,0,1,0,5.57,5.57A5.58,5.58,0,0,0,178.24,172.21Z"/><circle class="a" cx="124.21" cy="142.24" r="7.45"/><path d="M124.21,152.19a9.95,9.95,0,1,1,10-9.95A10,10,0,0,1,124.21,152.19Zm0-14.9a5,5,0,1,0,5,5A5,5,0,0,0,124.21,137.29Z"/><circle class="a" cx="70.73" cy="104.89" r="9.19"/><path d="M70.73,116.58a11.69,11.69,0,1,1,11.69-11.69A11.7,11.7,0,0,1,70.73,116.58Zm0-18.38a6.69,6.69,0,1,0,6.69,6.69A6.7,6.7,0,0,0,70.73,98.2Z"/><circle class="a" cx="169.8" cy="79.29" r="8.39"/><path d="M169.8,90.18a10.89,10.89,0,1,1,10.88-10.89A10.9,10.9,0,0,1,169.8,90.18Zm0-16.78a5.89,5.89,0,1,0,5.88,5.89A5.89,5.89,0,0,0,169.8,73.4Z"/></svg>