<svg xmlns="http://www.w3.org/2000/svg" viewBox="0 0 250.74 250"><defs><style>.a{fill:#00247d;}.b{fill:#fff;}.c{fill:#cf142b;}</style></defs><polygon class="a" points="250.74 168.31 250.38 168.31 250.38 250 0.38 250 0.38 168.31 0.02 168.31 0.38 168.13 0.38 81.87 0 81.68 0.38 81.68 0.38 0 250.38 0 250.38 168.13 250.74 168.31"/><polygon class="b" points="250.74 168.31 250.38 168.31 250.38 216.56 168.7 175.72 151.37 167.05 125.38 154.06 99.39 167.05 82.06 175.72 0.38 216.56 0.38 168.31 0.02 168.31 0.38 168.13 0.38 158.44 15.29 150.99 67.27 125 15.29 99.01 0.38 91.56 0.38 81.87 0 81.68 0.38 81.68 0.38 33.44 82.06 74.28 99.39 82.95 125.38 95.94 151.37 82.95 168.7 74.28 250.38 33.44 250.38 91.56 235.47 99.01 183.49 125 235.47 150.99 250.38 158.44 250.38 168.13 250.74 168.31"/><polygon class="c" points="250.38 168.13 250.74 168.31 250.38 168.31 250.38 206.87 173.26 168.31 151.37 157.36 125.38 144.37 99.39 157.36 77.5 168.31 0.38 206.87 0.38 168.31 0.02 168.31 0.38 168.13 34.66 150.99 86.64 125 34.66 99.01 0.38 81.87 0 81.68 0.38 81.68 0.38 43.13 77.48 81.68 99.39 92.63 125.38 105.63 151.37 92.63 173.28 81.68 250.38 43.13 250.38 62.5 212.02 81.68 177.36 99.01 125.38 125 164.12 125 216.1 150.99 250.38 168.13"/><polygon class="b" points="250.74 168.31 168.7 168.31 168.7 250 82.06 250 82.06 168.31 0.02 168.31 0.38 168.13 0.38 81.87 0 81.68 82.06 81.68 82.06 0 168.7 0 168.7 81.68 250.38 81.68 250.38 168.13 250.74 168.31"/><polygon class="c" points="250.38 99.01 250.38 150.99 151.37 150.99 151.37 250 99.39 250 99.39 150.99 0.38 150.99 0.38 99.01 99.39 99.01 99.39 0 151.37 0 151.37 99.01 250.38 99.01"/></svg>