<svg xmlns="http://www.w3.org/2000/svg" viewBox="0 0 416.26 554.54"><defs><style>.a{fill:#ffbde1;}.b{fill:#423224;}.c{fill:#ffd32a;}.d{fill:#004f27;}.e{fill:#fff;}</style></defs><path d="M111.65,494.43a2.48,2.48,0,0,1-1.53-.52,2.51,2.51,0,0,1-.45-3.51,73.9,73.9,0,0,0,15.43-41.91,72.88,72.88,0,0,0-7.19-34.29,2.5,2.5,0,0,1,4.51-2.17,77.88,77.88,0,0,1,7.68,36.66,79.08,79.08,0,0,1-16.47,44.78A2.53,2.53,0,0,1,111.65,494.43Z"/><path class="a" d="M204.19,413.53A11.18,11.18,0,0,0,192,422.45a8.17,8.17,0,0,0-13.62,5.19,1.85,1.85,0,0,0,0,.23,9.67,9.67,0,0,0-3.37-1,9.48,9.48,0,0,0-10.44,8.41,9.37,9.37,0,0,0,2,6.86,11.16,11.16,0,0,0-5.35,8.38v0a12.39,12.39,0,0,0-8.41,2.47A8.61,8.61,0,1,0,144,465.1a8.73,8.73,0,0,0,3.89-.49,12.49,12.49,0,0,0,24.8-.31,11.48,11.48,0,0,0,.06-1.43,11.19,11.19,0,0,0,7.27-19.3,9.23,9.23,0,0,0,3.43-7.46,8.38,8.38,0,0,0,2.19.55,8.18,8.18,0,0,0,8.49-5.13,11.2,11.2,0,1,0,10-18Z"/><path d="M160.31,478a15.16,15.16,0,0,1-1.64-.09A14.94,14.94,0,0,1,146,467.59a10.86,10.86,0,0,1-2.28,0,11.11,11.11,0,1,1,9.84-18,15,15,0,0,1,5.54-1.53,13.5,13.5,0,0,1,4.08-6.55,12,12,0,0,1,12.08-17.11,11.72,11.72,0,0,1,1.32.22,10.7,10.7,0,0,1,14-5.92,13.62,13.62,0,0,1,13.8-7.62h0a13.7,13.7,0,1,1-9.85,24.47,10.73,10.73,0,0,1-9,3.66,11.93,11.93,0,0,1-2.2,4.49,13.54,13.54,0,0,1,2.53,9.5,13.78,13.78,0,0,1-10.83,11.93A15,15,0,0,1,160.31,478Zm-12.4-15.84a2.46,2.46,0,0,1,1.29.36,2.5,2.5,0,0,1,1.19,1.81,10,10,0,0,0,19.83-.25,8.18,8.18,0,0,0,.05-1.14,2.51,2.51,0,0,1,2.41-2.52,8.74,8.74,0,0,0,8.31-7.75,8.65,8.65,0,0,0-2.67-7.24,2.47,2.47,0,0,1-.78-1.9,2.5,2.5,0,0,1,.9-1.84,6.91,6.91,0,0,0,2.5-4.62,5.92,5.92,0,0,0,0-.88,2.53,2.53,0,0,1,1.09-2.1,2.49,2.49,0,0,1,2.35-.25,6,6,0,0,0,1.52.39,5.69,5.69,0,0,0,5.89-3.57,2.49,2.49,0,0,1,4.3-.61,8.71,8.71,0,1,0-1.65-7.06,2.51,2.51,0,0,1-1.67,1.88,2.49,2.49,0,0,1-2.46-.52,5.68,5.68,0,0,0-9.45,3.61v.15a2.5,2.5,0,0,1-3.65,2,6.87,6.87,0,0,0-2.48-.76,7,7,0,0,0-6.24,11.24,2.49,2.49,0,0,1-.67,3.68,8.65,8.65,0,0,0-4.16,6.5A2.57,2.57,0,0,1,161,453a10,10,0,0,0-6.72,2,2.49,2.49,0,0,1-3.78-1,6.12,6.12,0,0,0-9.4-2.25,6.14,6.14,0,0,0-2.25,4.11,6.13,6.13,0,0,0,5.43,6.74,5.94,5.94,0,0,0,2.76-.35A2.55,2.55,0,0,1,147.91,462.11Z"/><circle class="a" cx="206.13" cy="455.77" r="4.74"/><path d="M206.13,463a6.91,6.91,0,0,1-.78,0,7.24,7.24,0,1,1,1.56-14.39,7.24,7.24,0,0,1,6.42,8A7.25,7.25,0,0,1,206.13,463Zm0-9.48a2.24,2.24,0,1,0,2.23,2.48h0a2.23,2.23,0,0,0-.49-1.64,2.18,2.18,0,0,0-1.5-.82Z"/><path class="b" d="M401.64,158.39c.31,42.58-12,68.91-22.11,84.28-2.86,4.34-6.06,8.59-36.51,41.12-31.48,33.64-46.95,49.53-46.95,49.53-46.74,48-70.12,72-79.79,80.65-45.72,40.86-81.92,63.49-93.42,70.51-11.35,6.91-21.14,12.33-30.5,17.5-39.11,21.63-78.83,40.54-79.62,39.07-.38-.71,8.44-5.81,62.21-38.35,27.56-16.68,41.48-25.11,48.25-29.45,58.92-37.79,53.11-41.35,73.59-55.32,3.65-2.5,11.09-7.33,14.6-14.89.5-1.05,1.49-3.4,3.32-6.58a74.4,74.4,0,0,1,6.15-8.86c6.56-8,94.54-102.84,110.12-120.71,19.43-22.29,42.9-58.57,55.22-118Z"/><path d="M12.85,543.62a2.49,2.49,0,0,1-.73-.11,2.68,2.68,0,0,1-1.59-1.28c-1.15-2.16,1-3.69,1.9-4.34s2.59-1.75,5.16-3.35c5-3.14,13.87-8.47,28.5-17.31l27.57-16.67c28.64-17.33,41.58-25.18,48.19-29.42,38-24.35,48.75-34.25,57.41-42.21a126.35,126.35,0,0,1,16.12-13.07l.47-.32c3.56-2.42,10.2-6.93,13.28-13.55l.25-.57a65.71,65.71,0,0,1,3.16-6.2,75.06,75.06,0,0,1,6.4-9.21c3.23-3.93,25.85-28.55,49.8-54.61,25.75-28,52.38-57,60.36-66.15,26.48-30.38,44.87-69.69,54.65-116.84a2.5,2.5,0,0,1,3.76-1.62L403,156.26a2.47,2.47,0,0,1,1.19,2.11c.25,33.8-7.33,62.63-22.52,85.67-3,4.54-6.36,9-36.77,41.46-16.28,17.39-28.18,29.94-35.3,37.4-3.91,4.09-6.83,7.13-8.77,9.15-1.48,1.53-2.36,2.44-2.95,3l0,0c-46.72,48-70.17,72.07-79.91,80.77-39.59,35.38-72.86,58-93.79,70.78C112.77,493.55,103,499,93.59,504.16,76.17,513.79,56.7,523.94,40.16,532,19.19,542.21,14.47,543.62,12.85,543.62ZM387.91,152.9c-10.13,46.46-28.64,85.35-55,115.63-8,9.2-34.67,38.2-60.45,66.25-23.9,26-46.48,50.59-49.63,54.41a73.79,73.79,0,0,0-5.92,8.52,62.91,62.91,0,0,0-2.93,5.78l-.28.61c-3.66,7.87-11,12.89-15,15.58l-.47.31a121.61,121.61,0,0,0-15.55,12.63c-8.8,8.08-19.75,18.15-58.09,42.73-6.66,4.28-19.62,12.13-48.3,29.49L48.68,521.51l-6.54,3.94c13.74-6.77,31-15.7,49-25.65,9.4-5.2,19.11-10.57,30.4-17.46,20.76-12.65,53.76-35.11,93.06-70.24,9.62-8.58,33-32.63,79.67-80.52h0c.3-.32,15.57-16,46.91-49.49,29.53-31.56,33.4-36.46,36.25-40.79,14.43-21.89,21.73-49.3,21.7-81.5Z"/><path class="a" d="M263.47,345.16a12.82,12.82,0,0,1,3.57,3.23,4.92,4.92,0,0,1,.78,4.67v0a6.14,6.14,0,0,1-.27.64,5,5,0,0,1-3.12,2.49,11.38,11.38,0,0,1-4.53.35,8.57,8.57,0,0,1-5.41-2.3,8.16,8.16,0,0,1-1.47-1.83,1.3,1.3,0,0,1,0-1.37,6.48,6.48,0,0,1,1.3-1.43,5.76,5.76,0,0,1,1.53-.93,6.74,6.74,0,0,1-.57-1.71,7.08,7.08,0,0,1-.05-1.93,1.3,1.3,0,0,1,.85-1.07,8.1,8.1,0,0,1,2.31-.44A8.35,8.35,0,0,1,263.47,345.16Z"/><path d="M261.31,358.56a11.67,11.67,0,0,1-1.56-.1,10.55,10.55,0,0,1-6.57-2.8,10.05,10.05,0,0,1-1.81-2.25,3.19,3.19,0,0,1,.1-3.39,8.21,8.21,0,0,1,1.67-1.85l.41-.32c0-.17-.07-.33-.1-.5a8.74,8.74,0,0,1-.08-2.5,3.21,3.21,0,0,1,2.12-2.65,9.74,9.74,0,0,1,9.05,1.39,14.91,14.91,0,0,1,4,3.64,6.8,6.8,0,0,1,1.06,6.47l0,.07c-.1.27-.22.54-.35.81a6.88,6.88,0,0,1-4.31,3.47A13.24,13.24,0,0,1,261.31,358.56Zm-1.42-3.9.24,0a9.47,9.47,0,0,0,3.77-.29,3,3,0,0,0,1.94-1.52,2.65,2.65,0,0,0,.18-.42l0,0a3.06,3.06,0,0,0-.51-2.86,10.94,10.94,0,0,0-3-2.76l-.18-.13a6.44,6.44,0,0,0-3.8-1.2,6,6,0,0,0-1.38.22,4.67,4.67,0,0,0,.07,1,4.75,4.75,0,0,0,.39,1.19,1.89,1.89,0,0,1-1,2.6,4.41,4.41,0,0,0-1.05.65,4.65,4.65,0,0,0-.69.71,6.54,6.54,0,0,0,.91,1.06,6.69,6.69,0,0,0,4.11,1.78h0Zm-5.25-3.19Zm2.51-6.19h0Z"/><path class="a" d="M259.89,359a13,13,0,0,1,4.17-2.4,5,5,0,0,1,4.69.7l0,0c.18.14.35.3.52.46a5,5,0,0,1,1.4,3.74,11.39,11.39,0,0,1-1.07,4.4,8.47,8.47,0,0,1-6.05,5.28,1.29,1.29,0,0,1-1.29-.47,6.55,6.55,0,0,1-1-1.67,6.15,6.15,0,0,1-.41-1.75,6,6,0,0,1-1.8,0,6.65,6.65,0,0,1-1.85-.54,1.3,1.3,0,0,1-.76-1.14,7.8,7.8,0,0,1,3.38-6.64Z"/><path d="M263.31,373.13a3.23,3.23,0,0,1-2.51-1.21,8.88,8.88,0,0,1-1.24-2.17,4.84,4.84,0,0,1-.18-.49l-.51-.05a9.18,9.18,0,0,1-2.4-.7,3.21,3.21,0,0,1-1.86-2.83,9.71,9.71,0,0,1,4.12-8.19,15,15,0,0,1,4.7-2.69,6.81,6.81,0,0,1,6.49,1l0,0c.24.19.46.39.68.6a6.86,6.86,0,0,1,2,5.16,13.23,13.23,0,0,1-1.21,5.06A10.63,10.63,0,0,1,266.7,372a9.84,9.84,0,0,1-2.71,1A3.08,3.08,0,0,1,263.31,373.13Zm-2.39-7.72a1.9,1.9,0,0,1,1.18.41,1.92,1.92,0,0,1,.71,1.34,4.26,4.26,0,0,0,.29,1.21,4.54,4.54,0,0,0,.46.87,6.6,6.6,0,0,0,1.29-.53,6.69,6.69,0,0,0,3-3.38l.09-.22a9.35,9.35,0,0,0,.89-3.67,3.06,3.06,0,0,0-.84-2.31,2.67,2.67,0,0,0-.36-.31.27.27,0,0,0-.08-.07,3,3,0,0,0-2.82-.36,11,11,0,0,0-3.57,2.05,1.18,1.18,0,0,1-.18.13,6.65,6.65,0,0,0-2.32,3.25,6.21,6.21,0,0,0-.21,1.38,5.29,5.29,0,0,0,1,.24,4.68,4.68,0,0,0,1.24,0Zm-2.86-.36Z"/><path class="a" d="M271.94,366.68a13,13,0,0,1-1-4.71,5,5,0,0,1,2.11-4.24l0,0a6.21,6.21,0,0,1,.6-.35,5,5,0,0,1,4-.19,11.6,11.6,0,0,1,3.86,2.38,8.56,8.56,0,0,1,3,5.05,8.08,8.08,0,0,1,.12,2.34,1.3,1.3,0,0,1-.84,1.08,6.69,6.69,0,0,1-1.9.4,6,6,0,0,1-1.78-.15,6.53,6.53,0,0,1-1.64,3.31,1.28,1.28,0,0,1-1.32.36,8.34,8.34,0,0,1-2.12-1A8.43,8.43,0,0,1,271.94,366.68Z"/><path d="M277.57,373.9a3.19,3.19,0,0,1-.91-.14,9.84,9.84,0,0,1-2.62-1.23,10.13,10.13,0,0,1-3.89-5.21,15,15,0,0,1-1.1-5.3,6.82,6.82,0,0,1,2.95-5.87,9.31,9.31,0,0,1,.82-.49,6.91,6.91,0,0,1,5.52-.27,13.22,13.22,0,0,1,4.43,2.71,10.62,10.62,0,0,1,3.67,6.13,10.34,10.34,0,0,1,.14,2.89,3.2,3.2,0,0,1-2.07,2.68,8.39,8.39,0,0,1-2.44.52h-.52l-.21.47a8.36,8.36,0,0,1-1.41,2.06A3.21,3.21,0,0,1,277.57,373.9Zm-.44-3.61Zm-3.36-4.14a6.53,6.53,0,0,0,2.37,3.21,6,6,0,0,0,1.24.63,4.39,4.39,0,0,0,.53-.84,4,4,0,0,0,.38-1.19,1.91,1.91,0,0,1,.83-1.27,1.88,1.88,0,0,1,1.49-.27,4.11,4.11,0,0,0,1.24.1,4.79,4.79,0,0,0,1-.16,6.51,6.51,0,0,0-.11-1.4,6.75,6.75,0,0,0-2.27-3.86,1.56,1.56,0,0,1-.2-.16,9.35,9.35,0,0,0-3.22-2,3,3,0,0,0-2.46.09,3.38,3.38,0,0,0-.41.24,3.05,3.05,0,0,0-1.3,2.63,11,11,0,0,0,.85,4A1.72,1.72,0,0,1,273.77,366.15Z"/><path class="a" d="M283,357.59a13.2,13.2,0,0,1-4.79-.51,5,5,0,0,1-3.37-3.32v0a4,4,0,0,1-.15-.67,4.92,4.92,0,0,1,1.06-3.86,11.42,11.42,0,0,1,3.45-2.93,8.58,8.58,0,0,1,5.74-1.33,8.21,8.21,0,0,1,2.26.62,1.29,1.29,0,0,1,.77,1.13,6.53,6.53,0,0,1-.21,1.93,6.3,6.3,0,0,1-.69,1.65,6.3,6.3,0,0,1,1.46,1.05,6.78,6.78,0,0,1,1.18,1.53,1.3,1.3,0,0,1-.06,1.37,8.55,8.55,0,0,1-1.61,1.71A8.39,8.39,0,0,1,283,357.59Z"/><path d="M281.94,359.53a15.12,15.12,0,0,1-4.3-.63,6.83,6.83,0,0,1-4.66-4.6.24.24,0,0,0,0-.08,8.41,8.41,0,0,1-.19-.87,6.89,6.89,0,0,1,1.44-5.34,13.26,13.26,0,0,1,4-3.37,10.62,10.62,0,0,1,7-1.59,10,10,0,0,1,2.79.75,3.21,3.21,0,0,1,1.92,2.8,8.55,8.55,0,0,1-.27,2.48,4.13,4.13,0,0,1-.15.5l.39.35a8.42,8.42,0,0,1,1.52,2,3.2,3.2,0,0,1-.15,3.38,9.73,9.73,0,0,1-8.14,4.2C282.66,359.52,282.3,359.53,281.94,359.53Zm-5.32-6.34v0a3.07,3.07,0,0,0,2.1,2,11,11,0,0,0,4.09.44H283a5.9,5.9,0,0,0,4.77-2.25,5.34,5.34,0,0,0-.64-.77,4.2,4.2,0,0,0-1-.72,1.93,1.93,0,0,1-.95-1.18,1.91,1.91,0,0,1,.21-1.51,4.39,4.39,0,0,0,.48-1.14,5.14,5.14,0,0,0,.14-1,7.25,7.25,0,0,0-1.36-.32,6.7,6.7,0,0,0-4.39,1l-.2.13a9.22,9.22,0,0,0-2.88,2.44,3.07,3.07,0,0,0-.68,2.37C276.55,352.89,276.58,353,276.62,353.19Zm11.39.58Z"/><path class="a" d="M277.74,344.29a13,13,0,0,1-2,4.39,4.91,4.91,0,0,1-4.2,2.19h0l-.69-.06a5,5,0,0,1-3.33-2.2,11.4,11.4,0,0,1-1.73-4.2,8.61,8.61,0,0,1,.51-5.86,8.21,8.21,0,0,1,1.29-2,1.27,1.27,0,0,1,1.31-.38,6.28,6.28,0,0,1,1.77.79,5.81,5.81,0,0,1,1.36,1.17,6.42,6.42,0,0,1,1.44-1.07,6.81,6.81,0,0,1,1.83-.64,1.29,1.29,0,0,1,1.28.47A8.31,8.31,0,0,1,277.7,339,8.42,8.42,0,0,1,277.74,344.29Z"/><path d="M271.72,352.78h-.22a6.87,6.87,0,0,1-5.58-3.11,13.38,13.38,0,0,1-2-4.8,10.65,10.65,0,0,1,.64-7.11,10.4,10.4,0,0,1,1.58-2.42,3.19,3.19,0,0,1,3.25-.95,8.38,8.38,0,0,1,2.28,1l.43.3.45-.26a8.91,8.91,0,0,1,2.35-.84,3.19,3.19,0,0,1,3.17,1.19,9.71,9.71,0,0,1,1.48,9,14.83,14.83,0,0,1-2.22,4.94A6.84,6.84,0,0,1,271.72,352.78Zm-3-14.62a5.85,5.85,0,0,0-.73,1.19,6.66,6.66,0,0,0-.43,4.48,2,2,0,0,1,.06.23,9.51,9.51,0,0,0,1.44,3.49,3.09,3.09,0,0,0,2,1.38,3.73,3.73,0,0,0,.47,0,3,3,0,0,0,2.6-1.36,11.15,11.15,0,0,0,1.69-3.76.83.83,0,0,1,.06-.21,6.57,6.57,0,0,0,0-4,6.09,6.09,0,0,0-.64-1.24,4.91,4.91,0,0,0-.92.37,4.69,4.69,0,0,0-1,.74,2,2,0,0,1-1.42.55,1.94,1.94,0,0,1-1.36-.67,4.47,4.47,0,0,0-.94-.81A5.13,5.13,0,0,0,268.75,338.16Zm6.92.16h0Z"/><circle class="c" cx="271.22" cy="354.49" r="3.68"/><path d="M271.22,360.07a5.69,5.69,0,0,1-1.93-.34,5.58,5.58,0,0,1,3.86-10.48h0a5.58,5.58,0,0,1,3.31,7.17A5.59,5.59,0,0,1,271.22,360.07Zm0-7.36a1.78,1.78,0,1,0,1.67,2.39,1.74,1.74,0,0,0-.05-1.36,1.77,1.77,0,0,0-1-.92h0A1.69,1.69,0,0,0,271.22,352.71Z"/><path class="a" d="M104.46,500.71a12.66,12.66,0,0,1,2.44-4,4.82,4.82,0,0,1,4.33-1.59h0a5.18,5.18,0,0,1,.66.14,4.86,4.86,0,0,1,2.94,2.54,11.06,11.06,0,0,1,1.14,4.26,8.3,8.3,0,0,1-1.22,5.58,7.87,7.87,0,0,1-1.48,1.73,1.27,1.27,0,0,1-1.32.21,6.7,6.7,0,0,1-1.6-1,5.89,5.89,0,0,1-1.17-1.3,6,6,0,0,1-3.36,1.24,1.24,1.24,0,0,1-1.18-.62,7.93,7.93,0,0,1-.83-2.12A8.17,8.17,0,0,1,104.46,500.71Z"/><path d="M112.48,511.54a3.2,3.2,0,0,1-1.22-.24,8.68,8.68,0,0,1-2.07-1.26l-.38-.34-.46.19a8.38,8.38,0,0,1-2.37.52,3.13,3.13,0,0,1-2.91-1.55,9.92,9.92,0,0,1-1-2.62,9.81,9.81,0,0,1,.73-6.27,14.45,14.45,0,0,1,2.76-4.49,6.61,6.61,0,0,1,6-2.17,6.86,6.86,0,0,1,.91.2,6.65,6.65,0,0,1,4.09,3.49,13,13,0,0,1,1.32,4.87,10.39,10.39,0,0,1-1.5,6.78,9.52,9.52,0,0,1-1.83,2.13A3,3,0,0,1,112.48,511.54Zm-3.27-6.07a1.73,1.73,0,0,1,.32,0,1.84,1.84,0,0,1,1.23.81,4.45,4.45,0,0,0,.81.9,4.63,4.63,0,0,0,.8.53,6.59,6.59,0,0,0,.85-1.06,6.49,6.49,0,0,0,1-4.27l0-.23a9.11,9.11,0,0,0-1-3.54,3,3,0,0,0-4.92-.69,10.9,10.9,0,0,0-2.09,3.41,1.67,1.67,0,0,1-.08.2,6.24,6.24,0,0,0-.47,3.84,5.45,5.45,0,0,0,.46,1.28,4.89,4.89,0,0,0,.93-.24,4.44,4.44,0,0,0,1.07-.59A1.8,1.8,0,0,1,109.21,505.47Zm-3.49,1.25Z"/><path class="a" d="M118.32,501.64a12.62,12.62,0,0,1-3-3.55,4.81,4.81,0,0,1-.17-4.61v0a4.69,4.69,0,0,1,.35-.58,4.81,4.81,0,0,1,3.31-2,11.18,11.18,0,0,1,4.41.23,8.33,8.33,0,0,1,4.93,2.89,8.06,8.06,0,0,1,1.19,1.94,1.27,1.27,0,0,1-.21,1.32,6.6,6.6,0,0,1-1.43,1.22,6,6,0,0,1-1.59.71,6.11,6.11,0,0,1,.33,1.71,6.64,6.64,0,0,1-.19,1.87,1.25,1.25,0,0,1-1,.93,8,8,0,0,1-2.28.13A8.13,8.13,0,0,1,118.32,501.64Z"/><path d="M123.65,505.69l-.81,0a9.88,9.88,0,0,1-5.75-2.64,14.53,14.53,0,0,1-3.41-4,6.62,6.62,0,0,1-.22-6.37,7.35,7.35,0,0,1,.48-.8,6.66,6.66,0,0,1,4.58-2.81,12.92,12.92,0,0,1,5,.25,10.32,10.32,0,0,1,6,3.52,9.67,9.67,0,0,1,1.47,2.4,3.12,3.12,0,0,1-.51,3.25,8.86,8.86,0,0,1-1.84,1.58l-.45.25c0,.17,0,.33,0,.5a8.89,8.89,0,0,1-.24,2.41,3.15,3.15,0,0,1-2.37,2.3A10.51,10.51,0,0,1,123.65,505.69Zm-4-5.35a6.25,6.25,0,0,0,3.51,1.63,5.65,5.65,0,0,0,1.36,0,4.42,4.42,0,0,0,0-1,4.26,4.26,0,0,0-.23-1.19,1.86,1.86,0,0,1,.11-1.48,1.88,1.88,0,0,1,1.16-.92,3.92,3.92,0,0,0,1.1-.49,4.52,4.52,0,0,0,.75-.59,6.24,6.24,0,0,0-.75-1.14,6.55,6.55,0,0,0-3.75-2.24l-.23,0a9.22,9.22,0,0,0-3.67-.19,3,3,0,0,0-2,1.22,3.26,3.26,0,0,0-.24.4,3,3,0,0,0,.12,2.85,10.76,10.76,0,0,0,2.6,3Zm8-3.69h0Z"/><path class="a" d="M123.49,488.75a12.62,12.62,0,0,1-4.32,1.79,4.79,4.79,0,0,1-4.43-1.25l0,0c-.16-.16-.31-.33-.45-.5a4.85,4.85,0,0,1-.89-3.78,11.2,11.2,0,0,1,1.58-4.12,8.38,8.38,0,0,1,4.27-3.8,8.18,8.18,0,0,1,2.22-.53,1.25,1.25,0,0,1,1.18.61,6.77,6.77,0,0,1,.73,1.73,6.28,6.28,0,0,1,.18,1.74,6.25,6.25,0,0,1,1.73.21,6.54,6.54,0,0,1,1.72.76,1.23,1.23,0,0,1,.58,1.19A7.66,7.66,0,0,1,127,485,8.17,8.17,0,0,1,123.49,488.75Z"/><path d="M118.09,492.51a6.55,6.55,0,0,1-4.66-1.92,8.94,8.94,0,0,1-.61-.7,6.68,6.68,0,0,1-1.26-5.22,12.81,12.81,0,0,1,1.85-4.8h0a10,10,0,0,1,7.86-5.19,3.14,3.14,0,0,1,2.94,1.49,8.86,8.86,0,0,1,.93,2.24c0,.17.08.34.11.5l.48.11a8.7,8.7,0,0,1,2.23,1,3.11,3.11,0,0,1,1.44,3,10.17,10.17,0,0,1-.7,2.72,10,10,0,0,1-4.28,4.66,14.61,14.61,0,0,1-4.87,2A6.69,6.69,0,0,1,118.09,492.51Zm-1.46-10.86a2.12,2.12,0,0,1-.11.21,9.29,9.29,0,0,0-1.32,3.43,3,3,0,0,0,.53,2.33c.1.12.2.24.31.35a3,3,0,0,0,2.74.77,11,11,0,0,0,3.7-1.53l.18-.11a6.39,6.39,0,0,0,2.64-2.84,6.28,6.28,0,0,0,.38-1.3,5,5,0,0,0-.9-.36,4.5,4.5,0,0,0-1.21-.14,1.88,1.88,0,0,1-1.36-.56,1.84,1.84,0,0,1-.52-1.39,4,4,0,0,0-.13-1.2,3.84,3.84,0,0,0-.33-.89,5.91,5.91,0,0,0-1.31.36A6.52,6.52,0,0,0,116.63,481.65Zm9.38,1.5Z"/><path class="a" d="M112.83,479.85a12.77,12.77,0,0,1,.37,4.66,4.83,4.83,0,0,1-2.56,3.83h0c-.21.1-.41.19-.62.27a4.84,4.84,0,0,1-3.87-.32,11,11,0,0,1-3.43-2.78,8.3,8.3,0,0,1-2.29-5.23,7.79,7.79,0,0,1,.18-2.28,1.24,1.24,0,0,1,.94-.93,6.8,6.8,0,0,1,1.88-.16,6.32,6.32,0,0,1,1.7.37,6.09,6.09,0,0,1,.74-1.58,6.45,6.45,0,0,1,1.25-1.4,1.23,1.23,0,0,1,1.31-.19,8.06,8.06,0,0,1,1.93,1.22A8.22,8.22,0,0,1,112.83,479.85Z"/><path d="M108.45,490.73a6.86,6.86,0,0,1-3.19-.8,12.9,12.9,0,0,1-3.94-3.16,10.37,10.37,0,0,1-2.77-6.36,9.76,9.76,0,0,1,.22-2.8,3.11,3.11,0,0,1,2.33-2.33,8.32,8.32,0,0,1,2.42-.2l.51.05c.08-.14.16-.28.25-.42a8.49,8.49,0,0,1,1.62-1.82,3.12,3.12,0,0,1,3.26-.46,9.76,9.76,0,0,1,2.38,1.52,9.93,9.93,0,0,1,3.1,5.5,14.65,14.65,0,0,1,.4,5.25,6.63,6.63,0,0,1-3.57,5.29c-.31.15-.58.26-.85.36A6.2,6.2,0,0,1,108.45,490.73Zm-6.15-11.92a6.11,6.11,0,0,0-.06,1.35,6.47,6.47,0,0,0,1.72,4l.16.17a9.22,9.22,0,0,0,2.86,2.31,3,3,0,0,0,2.38.22l.42-.18a3,3,0,0,0,1.58-2.38,10.8,10.8,0,0,0-.31-4,1.6,1.6,0,0,1,0-.21,6.34,6.34,0,0,0-1.88-3.39A5.81,5.81,0,0,0,108,476a4.41,4.41,0,0,0-.62.75,4.32,4.32,0,0,0-.51,1.09,1.86,1.86,0,0,1-1,1.13,1.88,1.88,0,0,1-1.47.07,3.92,3.92,0,0,0-1.18-.25A4.46,4.46,0,0,0,102.3,478.81Z"/><path class="a" d="M101.07,487.24a12.57,12.57,0,0,1,4.55,1.09,4.81,4.81,0,0,1,2.84,3.62v0c0,.23,0,.45.06.67a4.81,4.81,0,0,1-1.5,3.58,11,11,0,0,1-3.7,2.4,8.36,8.36,0,0,1-5.69.57,7.71,7.71,0,0,1-2.1-.88,1.24,1.24,0,0,1-.6-1.18,6.58,6.58,0,0,1,.43-1.83,6.12,6.12,0,0,1,.88-1.51A6.18,6.18,0,0,1,95,492.61,6.59,6.59,0,0,1,94,491a1.23,1.23,0,0,1,.22-1.31A8,8,0,0,1,96,488.23,8.17,8.17,0,0,1,101.07,487.24Z"/><path d="M99.69,501.3a10.29,10.29,0,0,1-2.5-.31,9.67,9.67,0,0,1-2.6-1.08A3.09,3.09,0,0,1,93.1,497a8.06,8.06,0,0,1,.56-2.36c.06-.16.13-.31.2-.47-.11-.12-.22-.24-.32-.37a8.51,8.51,0,0,1-1.23-2.1,3.12,3.12,0,0,1,.57-3.24,9.25,9.25,0,0,1,2.18-1.79,9.79,9.79,0,0,1,6.19-1.25,14.45,14.45,0,0,1,5.12,1.24,6.6,6.6,0,0,1,3.92,5v0h0a8.91,8.91,0,0,1,.08.89,6.66,6.66,0,0,1-2.06,5,12.82,12.82,0,0,1-4.23,2.77A10.23,10.23,0,0,1,99.69,501.3Zm-2.86-4.37a5.73,5.73,0,0,0,1.27.48,6.49,6.49,0,0,0,4.35-.4l.21-.1a9.09,9.09,0,0,0,3.08-2,3,3,0,0,0,.94-2.2,3.42,3.42,0,0,0,0-.45v0a3,3,0,0,0-1.77-2.21,10.75,10.75,0,0,0-3.89-.93l-.21,0a6.34,6.34,0,0,0-3.8.75,6.48,6.48,0,0,0-1.08.83,5,5,0,0,0,.52.82,4.59,4.59,0,0,0,.89.82,1.91,1.91,0,0,1,.78,1.26,1.86,1.86,0,0,1-.39,1.42,4.08,4.08,0,0,0-.61,1.05A4.44,4.44,0,0,0,96.83,496.93Zm-1.09-6.64Z"/><circle class="c" cx="111.98" cy="491.63" r="3.58"/><path d="M112,497.06a5.59,5.59,0,0,1-.91-.08,5.35,5.35,0,1,1,.91.08Zm0-7.16a1.7,1.7,0,0,0-1,.32,1.73,1.73,0,1,0,2.41.4,1.77,1.77,0,0,0-1.12-.7Z"/><path class="a" d="M15.87,525.11a11.8,11.8,0,0,1,1.58,4.09,4.46,4.46,0,0,1-1.27,4.11l0,0a4.72,4.72,0,0,1-.48.41,4.54,4.54,0,0,1-3.56.75,10.52,10.52,0,0,1-3.81-1.58,7.78,7.78,0,0,1-3.46-4.08,7.12,7.12,0,0,1-.44-2.09A1.17,1.17,0,0,1,5,525.65,6.38,6.38,0,0,1,6.63,525a5.76,5.76,0,0,1,1.63-.12,5.53,5.53,0,0,1,.24-1.62,6.36,6.36,0,0,1,.74-1.59,1.19,1.19,0,0,1,1.14-.52,7.8,7.8,0,0,1,2,.58A7.67,7.67,0,0,1,15.87,525.11Z"/><path d="M13,536.31a6,6,0,0,1-1.26-.13,12,12,0,0,1-4.37-1.78,9.73,9.73,0,0,1-4.19-5,9.28,9.28,0,0,1-.55-2.57,2.91,2.91,0,0,1,1.47-2.71,7.7,7.7,0,0,1,2.11-.82,3.89,3.89,0,0,1,.47-.09,3.74,3.74,0,0,1,.12-.45,7.74,7.74,0,0,1,1-2.06,2.93,2.93,0,0,1,2.8-1.29,9.31,9.31,0,0,1,2.54.73,9.24,9.24,0,0,1,4.25,4.11,13.57,13.57,0,0,1,1.76,4.6,6.17,6.17,0,0,1-1.79,5.69,6.35,6.35,0,0,1-.66.56A6.15,6.15,0,0,1,13,536.31ZM6.16,527a5.81,5.81,0,0,0,.3,1.23,6.1,6.1,0,0,0,2.62,3.14l.19.11a8.7,8.7,0,0,0,3.17,1.31,2.82,2.82,0,0,0,2.2-.44l.34-.28a2.81,2.81,0,0,0,.77-2.55A10.18,10.18,0,0,0,14.41,526a1.62,1.62,0,0,1-.1-.18,6,6,0,0,0-2.59-2.53,6.11,6.11,0,0,0-1.21-.39,4.43,4.43,0,0,0-.36.84,4.33,4.33,0,0,0-.16,1.12,1.76,1.76,0,0,1-.56,1.27,1.72,1.72,0,0,1-1.3.45A4.49,4.49,0,0,0,7,526.7,4,4,0,0,0,6.16,527Zm4.53-4.37Z"/><path class="a" d="M7.3,534.89a11.74,11.74,0,0,1,4.37-.24,4.47,4.47,0,0,1,3.52,2.48l0,0a6,6,0,0,1,.23.59,4.49,4.49,0,0,1-.39,3.61,10.39,10.39,0,0,1-2.67,3.14,7.83,7.83,0,0,1-5,2,7.7,7.7,0,0,1-2.13-.22,1.18,1.18,0,0,1-.85-.91,6.14,6.14,0,0,1-.1-1.76,5.81,5.81,0,0,1,.38-1.58A5.87,5.87,0,0,1,2,540.13a1.19,1.19,0,0,1-.15-1.24A7.71,7.71,0,0,1,3,537.12,7.57,7.57,0,0,1,7.3,534.89Z"/><path d="M7.12,548.26A9,9,0,0,1,4.88,548a2.89,2.89,0,0,1-2.12-2.23,7.52,7.52,0,0,1-.13-2.26,3.93,3.93,0,0,1,.06-.48l-.39-.25a7.41,7.41,0,0,1-1.66-1.55,2.89,2.89,0,0,1-.36-3.06A9.33,9.33,0,0,1,1.75,536,9.18,9.18,0,0,1,7,533.19a13.52,13.52,0,0,1,4.92-.26,6.22,6.22,0,0,1,4.87,3.46c.13.29.23.55.32.8a6.27,6.27,0,0,1-.52,5,12,12,0,0,1-3,3.61,9.62,9.62,0,0,1-6,2.44Zm-1-3.55a5.94,5.94,0,0,0,1.26.09,6.08,6.08,0,0,0,3.8-1.52l.16-.14a8.55,8.55,0,0,0,2.23-2.62,2.79,2.79,0,0,0,.26-2.22,2.9,2.9,0,0,0-.16-.41,2.79,2.79,0,0,0-2.18-1.53,10.39,10.39,0,0,0-3.74.2l-.2,0a5.94,5.94,0,0,0-3.21,1.69,5.2,5.2,0,0,0-.74,1,4.3,4.3,0,0,0,.69.59,4,4,0,0,0,1,.51,1.72,1.72,0,0,1,1,.91,1.74,1.74,0,0,1,0,1.38,4.12,4.12,0,0,0-.26,1.1A3.9,3.9,0,0,0,6.09,544.71Zm-2.75-5.66Z"/><path class="a" d="M14,546.06a11.84,11.84,0,0,1,1.12-4.23,4.49,4.49,0,0,1,3.45-2.58h0c.21,0,.42,0,.63,0a4.51,4.51,0,0,1,3.32,1.49,10.41,10.41,0,0,1,2.16,3.51,7.81,7.81,0,0,1,.39,5.34,7.61,7.61,0,0,1-.86,2,1.17,1.17,0,0,1-1.12.53,6.21,6.21,0,0,1-1.71-.45,5.61,5.61,0,0,1-1.39-.85,5.67,5.67,0,0,1-1.14,1.16,5.83,5.83,0,0,1-1.54.85,1.16,1.16,0,0,1-1.22-.24,7.73,7.73,0,0,1-1.32-1.68A7.6,7.6,0,0,1,14,546.06Z"/><path d="M16.88,554.54a2.88,2.88,0,0,1-2-.8,9.12,9.12,0,0,1-1.63-2.07,9.27,9.27,0,0,1-1-5.83,13.18,13.18,0,0,1,1.28-4.75,6.18,6.18,0,0,1,4.79-3.56c.32,0,.59,0,.86-.06h.06a6.23,6.23,0,0,1,4.54,2,12,12,0,0,1,2.49,4,9.64,9.64,0,0,1,.47,6.47,9.25,9.25,0,0,1-1.07,2.41,2.92,2.92,0,0,1-2.78,1.33,8,8,0,0,1-2.19-.58l-.43-.2-.36.29a7.76,7.76,0,0,1-2,1.1A2.79,2.79,0,0,1,16.88,554.54Zm-.2-3.43h0Zm-1-4.73a5.9,5.9,0,0,0,.62,3.57,4.93,4.93,0,0,0,.75,1,4.66,4.66,0,0,0,.77-.47,4.09,4.09,0,0,0,.8-.81,1.72,1.72,0,0,1,2.51-.3,4,4,0,0,0,1,.59,4.43,4.43,0,0,0,.85.26,5.22,5.22,0,0,0,.48-1.18,6.1,6.1,0,0,0-.27-4.08,1.76,1.76,0,0,1-.09-.2,8.77,8.77,0,0,0-1.8-2.93,3,3,0,0,0-2-.93,3.25,3.25,0,0,0-.44,0,2.8,2.8,0,0,0-2.13,1.6,10.25,10.25,0,0,0-1,3.62A.69.69,0,0,1,15.64,546.38Z"/><path class="a" d="M26.62,543.19A11.94,11.94,0,0,1,23,540.82a4.49,4.49,0,0,1-1.39-4.08v0a6.23,6.23,0,0,1,.15-.62,4.5,4.5,0,0,1,2.44-2.69,10.35,10.35,0,0,1,4-1,7.8,7.8,0,0,1,5.2,1.27A7.55,7.55,0,0,1,35,535.13a1.15,1.15,0,0,1,.16,1.23,5.82,5.82,0,0,1-1,1.48,5.74,5.74,0,0,1-1.24,1.06,5.67,5.67,0,0,1,.75,1.45,6,6,0,0,1,.33,1.72,1.16,1.16,0,0,1-.6,1.09,7.15,7.15,0,0,1-6.78,0Z"/><path d="M30.06,545.76a9.45,9.45,0,0,1-4.17-1,13.68,13.68,0,0,1-4.13-2.69,6.18,6.18,0,0,1-1.9-5.63.17.17,0,0,1,0-.07,7.19,7.19,0,0,1,.2-.8,6.25,6.25,0,0,1,3.36-3.74A12,12,0,0,1,28,530.71a9.62,9.62,0,0,1,6.3,1.55,9.36,9.36,0,0,1,2,1.76,2.93,2.93,0,0,1,.41,3.05A8,8,0,0,1,35.46,539l-.33.35c.06.14.12.28.17.43a7.73,7.73,0,0,1,.43,2.23,2.89,2.89,0,0,1-1.51,2.69,9.09,9.09,0,0,1-2.47.91A8.42,8.42,0,0,1,30.06,545.76Zm-2.61-4.09a5.35,5.35,0,0,0,4.8.13,4.24,4.24,0,0,0-.73-1.89,1.71,1.71,0,0,1-.3-1.35,1.74,1.74,0,0,1,.79-1.13,3.9,3.9,0,0,0,.86-.74,4.31,4.31,0,0,0,.51-.73,6.29,6.29,0,0,0-1-.82,6.08,6.08,0,0,0-4-1l-.21,0a8.54,8.54,0,0,0-3.34.81,2.75,2.75,0,0,0-1.52,1.64c0,.13-.07.27-.1.4a.2.2,0,0,0,0,.07,2.79,2.79,0,0,0,.87,2.48,10.37,10.37,0,0,0,3.14,2A.75.75,0,0,1,27.45,541.67Z"/><path class="a" d="M27.82,530.25a11.86,11.86,0,0,1-3.4,2.76,4.49,4.49,0,0,1-4.31.06l0,0a5.84,5.84,0,0,1-.53-.33,4.52,4.52,0,0,1-1.81-3.15,10.34,10.34,0,0,1,.32-4.12,7.81,7.81,0,0,1,2.81-4.55,7.39,7.39,0,0,1,1.85-1.06,1.16,1.16,0,0,1,1.22.22,6.14,6.14,0,0,1,1.12,1.37,5.67,5.67,0,0,1,.62,1.51,5.83,5.83,0,0,1,1.61-.28,6.4,6.4,0,0,1,1.74.22,1.16,1.16,0,0,1,.85.92,7.55,7.55,0,0,1,.08,2.13A7.66,7.66,0,0,1,27.82,530.25Z"/><path d="M22.19,535.32a6.07,6.07,0,0,1-2.91-.73c-.28-.16-.51-.31-.73-.46A6.28,6.28,0,0,1,16,529.77a12.23,12.23,0,0,1,.35-4.71,9.7,9.7,0,0,1,3.43-5.51,8.93,8.93,0,0,1,2.28-1.32,2.91,2.91,0,0,1,3,.56,7.51,7.51,0,0,1,1.43,1.76c.08.13.16.27.23.41l.47,0a8.16,8.16,0,0,1,2.25.27,2.94,2.94,0,0,1,2.09,2.27,9,9,0,0,1,.09,2.64,9.22,9.22,0,0,1-2.59,5.31,13.46,13.46,0,0,1-3.83,3.1A6.37,6.37,0,0,1,22.19,535.32ZM23,521.59a5.65,5.65,0,0,0-1.07.67,6,6,0,0,0-2.18,3.46,1.29,1.29,0,0,1-.05.21,8.59,8.59,0,0,0-.26,3.43,2.83,2.83,0,0,0,1.09,1.95c.12.08.24.16.37.23a2.81,2.81,0,0,0,2.67,0,10.15,10.15,0,0,0,2.9-2.36,1,1,0,0,1,.14-.15,5.32,5.32,0,0,0,1.6-4.52,4,4,0,0,0-.9-.08,4.1,4.1,0,0,0-1.12.19,1.68,1.68,0,0,1-1.37-.14,1.71,1.71,0,0,1-.84-1.09,3.74,3.74,0,0,0-.44-1.05A3.6,3.6,0,0,0,23,521.59Z"/><circle class="c" cx="18.35" cy="535.86" r="3.35"/><path d="M18.35,540.94a5.08,5.08,0,1,1,3.71-8.54h0a5.08,5.08,0,0,1-3.71,8.54Zm0-6.69a1.59,1.59,0,0,0-1.1.43,1.62,1.62,0,1,0,2.21,2.37,1.67,1.67,0,0,0,.51-1.13,1.61,1.61,0,0,0-.44-1.16h0A1.6,1.6,0,0,0,18.35,534.25Z"/><path class="a" d="M205.8,391.66a16,16,0,0,1-1.12,5.82,6.09,6.09,0,0,1-4.41,3.81h0a6.21,6.21,0,0,1-.85.12,6.06,6.06,0,0,1-4.61-1.69,13.86,13.86,0,0,1-3.25-4.54,10.52,10.52,0,0,1-1-7.16,10.27,10.27,0,0,1,1-2.71,1.58,1.58,0,0,1,1.47-.83,8.37,8.37,0,0,1,2.34.44,8,8,0,0,1,1.95,1,8,8,0,0,1,1.44-1.68,8.36,8.36,0,0,1,2-1.29,1.6,1.6,0,0,1,1.68.21,9.63,9.63,0,0,1,3.47,8.48Z"/><path d="M199,403.77a8.55,8.55,0,0,1-5.78-2.34,16.26,16.26,0,0,1-3.74-5.19,13.06,13.06,0,0,1-1.24-8.69,12.23,12.23,0,0,1,1.21-3.35,4,4,0,0,1,3.62-2.06,10.71,10.71,0,0,1,3,.57l.6.24.46-.43a10.7,10.7,0,0,1,2.58-1.68,3.93,3.93,0,0,1,4.13.54,12,12,0,0,1,4.33,10.41,18.42,18.42,0,0,1-1.28,6.54,8.37,8.37,0,0,1-6.13,5.25,11.21,11.21,0,0,1-1.17.16C199.36,403.76,199.15,403.77,199,403.77Zm-5.65-16.91a7.23,7.23,0,0,0-.53,1.63,8.14,8.14,0,0,0,.75,5.48c0,.08.1.18.14.26a11.66,11.66,0,0,0,2.7,3.78,3.76,3.76,0,0,0,2.84,1.07,5.77,5.77,0,0,0,.58-.08,3.77,3.77,0,0,0,2.72-2.37,13.51,13.51,0,0,0,1-5,2.45,2.45,0,0,1,0-.27,8.1,8.1,0,0,0-1.17-4.77,7.56,7.56,0,0,0-1.11-1.31,6,6,0,0,0-1,.71,5.8,5.8,0,0,0-1,1.17,2.34,2.34,0,0,1-3.36.64,5.12,5.12,0,0,0-1.36-.7A5.49,5.49,0,0,0,193.3,386.86Zm8.34-1.76h0Z"/><path class="a" d="M189,396.73a15.92,15.92,0,0,1,5.19,2.86A6.07,6.07,0,0,1,196.4,405V405q-.06.42-.15.84a6.07,6.07,0,0,1-3,3.86,13.88,13.88,0,0,1-5.32,1.69,10.56,10.56,0,0,1-7.13-1.22,10,10,0,0,1-2.28-1.78,1.58,1.58,0,0,1-.33-1.65,8,8,0,0,1,1.15-2.09,7.6,7.6,0,0,1,1.57-1.54,8,8,0,0,1-1.16-1.88,8.49,8.49,0,0,1-.61-2.3,1.6,1.6,0,0,1,.72-1.53,10,10,0,0,1,2.63-1.17A10.32,10.32,0,0,1,189,396.73Z"/><path d="M186.08,413.9a13.05,13.05,0,0,1-6.48-1.69,12.32,12.32,0,0,1-2.8-2.19,3.9,3.9,0,0,1-.84-4.08,10.44,10.44,0,0,1,1.47-2.69c.14-.17.27-.34.41-.5l-.27-.57a10.52,10.52,0,0,1-.79-3,3.93,3.93,0,0,1,1.78-3.77,12.65,12.65,0,0,1,3.26-1.46,12.49,12.49,0,0,1,8,.57,18.3,18.3,0,0,1,5.83,3.23,8.38,8.38,0,0,1,3.1,7.45s0,.09,0,.11a9.14,9.14,0,0,1-.2,1.05,8.48,8.48,0,0,1-4.17,5.37,16.17,16.17,0,0,1-6.09,1.95A11.57,11.57,0,0,1,186.08,413.9Zm-5.55-6.77a7.52,7.52,0,0,0,1.38,1,8.17,8.17,0,0,0,5.45,1l.29-.05a11.65,11.65,0,0,0,4.43-1.4A3.77,3.77,0,0,0,194,405.3a5.4,5.4,0,0,0,.11-.58,3.8,3.8,0,0,0-1.41-3.32,13.54,13.54,0,0,0-4.44-2.44l-.25-.1a8,8,0,0,0-4.89-.37,7.71,7.71,0,0,0-1.59.65,5.68,5.68,0,0,0,.36,1.17,5.44,5.44,0,0,0,.81,1.31,2.37,2.37,0,0,1,.52,1.79,2.33,2.33,0,0,1-1,1.61,5.62,5.62,0,0,0-1.7,2.11Zm-.36-.35Zm1.26-8.12h0Z"/><path class="a" d="M188.58,414.31a15.94,15.94,0,0,1,4.32-4.05,6.08,6.08,0,0,1,5.81-.48h0a7.81,7.81,0,0,1,.76.41,6.13,6.13,0,0,1,2.74,4.08,14.14,14.14,0,0,1,0,5.58,10.58,10.58,0,0,1-3.37,6.41,9.91,9.91,0,0,1-2.39,1.61,1.56,1.56,0,0,1-1.67-.19,8.14,8.14,0,0,1-1.64-1.74,7.7,7.7,0,0,1-1-2,7.79,7.79,0,0,1-2.15.52,8.47,8.47,0,0,1-2.37-.13,1.59,1.59,0,0,1-1.23-1.15,10,10,0,0,1-.3-2.87A10.26,10.26,0,0,1,188.58,414.31Z"/><path d="M195.77,430.37a4,4,0,0,1-2.46-.84,10.84,10.84,0,0,1-2.1-2.24c-.12-.18-.24-.36-.35-.54l-.62.08a10.54,10.54,0,0,1-3.07-.17,3.92,3.92,0,0,1-3-2.86,12.24,12.24,0,0,1-.38-3.54,12.48,12.48,0,0,1,3-7.42,18.25,18.25,0,0,1,4.87-4.55,8.39,8.39,0,0,1,8.05-.64l.11.05c.28.13.61.31.93.5a8.49,8.49,0,0,1,3.81,5.63,16.22,16.22,0,0,1,0,6.4,13.12,13.12,0,0,1-4.1,7.77,13,13,0,0,1-2.95,2A3.83,3.83,0,0,1,195.77,430.37Zm-3.62-8.73a2.5,2.5,0,0,1,1,.22,2.35,2.35,0,0,1,1.23,1.41,5,5,0,0,0,.69,1.37,6.06,6.06,0,0,0,.79.91,8.2,8.2,0,0,0,4-5.89,1.45,1.45,0,0,1,0-.29,11.73,11.73,0,0,0,0-4.65,3.77,3.77,0,0,0-1.67-2.53,4.11,4.11,0,0,0-.51-.27,3.77,3.77,0,0,0-3.6.31,13.71,13.71,0,0,0-3.69,3.46l-.17.21a8,8,0,0,0-1.87,4.54,7.63,7.63,0,0,0,.13,1.71,5.47,5.47,0,0,0,2.72-.34A2.4,2.4,0,0,1,192.15,421.64Zm-4.07.43h0Z"/><path class="a" d="M205.18,420.11a16.12,16.12,0,0,1-2.52-5.36,6.11,6.11,0,0,1,1.34-5.68l0,0c.2-.21.41-.4.62-.59a6.1,6.1,0,0,1,4.73-1.34,14,14,0,0,1,5.29,1.76,10.55,10.55,0,0,1,5.06,5.18,10.09,10.09,0,0,1,.79,2.78,1.57,1.57,0,0,1-.7,1.53,8.27,8.27,0,0,1-2.15,1,7.86,7.86,0,0,1-2.18.33,8.43,8.43,0,0,1-.17,2.2,8.16,8.16,0,0,1-.86,2.22,1.58,1.58,0,0,1-1.48.81,9.8,9.8,0,0,1-2.82-.6A10.29,10.29,0,0,1,205.18,420.11Z"/><path d="M213.07,427.27h-.24a13,13,0,0,1-3.49-.74,12.55,12.55,0,0,1-6.13-5.15,18.47,18.47,0,0,1-2.81-6,8.35,8.35,0,0,1,1.87-7.85,10.63,10.63,0,0,1,.85-.82,8.47,8.47,0,0,1,6.54-1.88,16.39,16.39,0,0,1,6.07,2,13.11,13.11,0,0,1,6.12,6.31,12.2,12.2,0,0,1,1,3.42,3.92,3.92,0,0,1-1.72,3.79,10.52,10.52,0,0,1-2.78,1.31l-.62.17c0,.2-.07.41-.12.62a10.52,10.52,0,0,1-1.1,2.87A4,4,0,0,1,213.07,427.27Zm-.66-4.3h0Zm-5.19-4a8,8,0,0,0,3.74,3.17,8.32,8.32,0,0,0,1.67.41,5.55,5.55,0,0,0,.39-1.17,5,5,0,0,0,.12-1.53,2.38,2.38,0,0,1,.63-1.76,2.35,2.35,0,0,1,1.71-.73h0a5.41,5.41,0,0,0,1.49-.23,5.65,5.65,0,0,0,1.11-.48,7.74,7.74,0,0,0-.52-1.63,8.31,8.31,0,0,0-3.82-4,1.83,1.83,0,0,1-.28-.14,11.72,11.72,0,0,0-4.41-1.46,3.76,3.76,0,0,0-2.92.8c-.15.13-.28.26-.42.4v0a3.75,3.75,0,0,0-.81,3.5,13.93,13.93,0,0,0,2.15,4.59A1.82,1.82,0,0,1,207.22,419Zm11-1.82Z"/><path class="a" d="M215.82,406.11a16.15,16.15,0,0,1-5.88.74,6.08,6.08,0,0,1-5-3l0,0a7.76,7.76,0,0,1-.37-.77,6.09,6.09,0,0,1,.18-4.91,14,14,0,0,1,3.31-4.49,10.43,10.43,0,0,1,9.38-3.11,1.6,1.6,0,0,1,1.24,1.14A8.35,8.35,0,0,1,219,394a7.42,7.42,0,0,1-.37,2.18,7.86,7.86,0,0,1,2,.84,8.52,8.52,0,0,1,1.84,1.5,1.61,1.61,0,0,1,.32,1.66,9.62,9.62,0,0,1-7,5.92Z"/><path d="M210.91,409.22l-1.1,0a8.4,8.4,0,0,1-6.89-4.22l0-.1a7.65,7.65,0,0,1-.46-.95,8.45,8.45,0,0,1,.22-6.8,16.33,16.33,0,0,1,3.78-5.16,13.07,13.07,0,0,1,7.89-3.87,12.45,12.45,0,0,1,3.55.12,3.92,3.92,0,0,1,3.08,2.81,10.67,10.67,0,0,1,.39,3c0,.22,0,.44,0,.65a5.86,5.86,0,0,1,.55.3,10.64,10.64,0,0,1,2.39,1.94,4,4,0,0,1,.77,4.1,12.39,12.39,0,0,1-1.78,3.09,12.58,12.58,0,0,1-6.78,4.24A18.24,18.24,0,0,1,210.91,409.22ZM207,402.69a3.78,3.78,0,0,0,3.08,1.82,13.79,13.79,0,0,0,5-.62l.26-.07a8.06,8.06,0,0,0,4.18-2.58,7.43,7.43,0,0,0,.9-1.46,5.86,5.86,0,0,0-1-.74,5.45,5.45,0,0,0-1.42-.58,2.35,2.35,0,0,1-1.65-3,5.29,5.29,0,0,0,.25-1.5,5.56,5.56,0,0,0-.11-1.21,8.17,8.17,0,0,0-6.7,2.41l-.2.21a11.59,11.59,0,0,0-2.76,3.74,3.78,3.78,0,0,0-.14,3,5.16,5.16,0,0,0,.26.53Zm13.78-2.57Z"/><circle class="c" cx="200.94" cy="405.77" r="4.53"/><path d="M200.92,412.64a6.86,6.86,0,0,1-6.72-5.55,6.87,6.87,0,0,1,5.42-8.06,6.88,6.88,0,0,1,8.06,5.42h0a6.87,6.87,0,0,1-5.42,8.06A6.76,6.76,0,0,1,200.92,412.64Zm0-9.06a2,2,0,0,0-.42,0,2.19,2.19,0,0,0-1.73,2.57,2.19,2.19,0,0,0,4.3-.84h0A2.21,2.21,0,0,0,200.94,403.58Z"/><path class="a" d="M128.36,451.76A17,17,0,0,1,133,456a6.39,6.39,0,0,1,1,6v0c-.11.29-.23.56-.36.83a6.43,6.43,0,0,1-4,3.2,14.57,14.57,0,0,1-5.84.42,11.08,11.08,0,0,1-7-3,10.71,10.71,0,0,1-1.89-2.37,1.67,1.67,0,0,1,.07-1.77,8.53,8.53,0,0,1,1.68-1.85,7.78,7.78,0,0,1,2-1.19,8.56,8.56,0,0,1-.72-2.21,8.82,8.82,0,0,1-.06-2.49,1.67,1.67,0,0,1,1.11-1.39,10.17,10.17,0,0,1,9.5,1.54Z"/><path d="M125.56,469.06a16.25,16.25,0,0,1-2.08-.13,13.71,13.71,0,0,1-8.47-3.65,13.25,13.25,0,0,1-2.33-2.92,4.17,4.17,0,0,1,.14-4.38A11.5,11.5,0,0,1,115,455.6c.18-.15.36-.28.54-.41,0-.22-.09-.43-.13-.65a11.28,11.28,0,0,1-.09-3.23,4.14,4.14,0,0,1,2.75-3.41,12.54,12.54,0,0,1,11.69,1.84,19.17,19.17,0,0,1,5.16,4.73,8.8,8.8,0,0,1,1.34,8.37c-.16.42-.32.79-.49,1.13a8.88,8.88,0,0,1-5.58,4.46A17.38,17.38,0,0,1,125.56,469.06Zm-8.36-8.74a8.07,8.07,0,0,0,1.17,1.37,8.72,8.72,0,0,0,5.32,2.34,1.56,1.56,0,0,1,.31,0,12.21,12.21,0,0,0,4.87-.36,4,4,0,0,0,2.51-1.95c.09-.18.17-.37.25-.56a4,4,0,0,0-.63-3.74,14.36,14.36,0,0,0-3.93-3.58,1.88,1.88,0,0,1-.23-.16,8.28,8.28,0,0,0-4.91-1.58,8.55,8.55,0,0,0-1.78.28,6.13,6.13,0,0,0,.08,1.29,6.23,6.23,0,0,0,.5,1.53,2.43,2.43,0,0,1,.1,2,2.48,2.48,0,0,1-1.37,1.4,5.7,5.7,0,0,0-1.37.83A6.39,6.39,0,0,0,117.2,460.32Zm3-8.43h0Z"/><path class="a" d="M123.66,469.62a16.81,16.81,0,0,1,5.41-3.08,6.4,6.4,0,0,1,6.05.93l0,0a7.73,7.73,0,0,1,.67.6,6.38,6.38,0,0,1,1.8,4.83,14.61,14.61,0,0,1-1.41,5.69,11,11,0,0,1-7.84,6.79,1.68,1.68,0,0,1-1.66-.61,8.53,8.53,0,0,1-1.24-2.17,7.82,7.82,0,0,1-.52-2.26,7.84,7.84,0,0,1-2.32,0,8.62,8.62,0,0,1-2.4-.71,1.66,1.66,0,0,1-1-1.48,10.68,10.68,0,0,1,.39-3A10.86,10.86,0,0,1,123.66,469.62Z"/><path d="M128,487.9a4.16,4.16,0,0,1-3.25-1.58,11.24,11.24,0,0,1-1.6-2.8c-.08-.22-.16-.43-.23-.64l-.65-.07a11.54,11.54,0,0,1-3.1-.92,4.12,4.12,0,0,1-2.39-3.67,12.68,12.68,0,0,1,.48-3.71,13.08,13.08,0,0,1,4.88-6.84,19.06,19.06,0,0,1,6.09-3.45,8.79,8.79,0,0,1,8.37,1.32,9.68,9.68,0,0,1,.93.82,8.84,8.84,0,0,1,2.51,6.68,17,17,0,0,1-1.59,6.53,13.76,13.76,0,0,1-6.09,6.92,13.07,13.07,0,0,1-3.5,1.31A3.55,3.55,0,0,1,128,487.9Zm-3.08-10a2.46,2.46,0,0,1,1.53.54,2.49,2.49,0,0,1,.92,1.74,5.55,5.55,0,0,0,.36,1.56,6.1,6.1,0,0,0,.59,1.13,8.4,8.4,0,0,0,1.67-.69,8.56,8.56,0,0,0,3.85-4.32c0-.1.08-.21.13-.31a12.26,12.26,0,0,0,1.17-4.74,4,4,0,0,0-1.09-3,4.62,4.62,0,0,0-.46-.41,4,4,0,0,0-3.74-.56,14.43,14.43,0,0,0-4.62,2.63l-.23.17a8.48,8.48,0,0,0-3,4.18,8.07,8.07,0,0,0-.29,1.78,5.6,5.6,0,0,0,1.25.32,5.43,5.43,0,0,0,1.61,0Zm-3.69-.48Z"/><path class="a" d="M139.2,479.61a16.61,16.61,0,0,1-1.26-6.09,6.39,6.39,0,0,1,2.75-5.47l0,0c.25-.16.51-.31.77-.45a6.44,6.44,0,0,1,5.16-.21,14.74,14.74,0,0,1,5,3.09,11.11,11.11,0,0,1,3.89,6.53,10.43,10.43,0,0,1,.14,3,1.66,1.66,0,0,1-1.09,1.39,8.48,8.48,0,0,1-2.45.51,8.19,8.19,0,0,1-2.31-.2,8,8,0,0,1-.71,2.2,8.73,8.73,0,0,1-1.42,2.06,1.66,1.66,0,0,1-1.7.47,10.1,10.1,0,0,1-6.78-6.83Z"/><path d="M146.44,489a4,4,0,0,1-1.18-.17,13.56,13.56,0,0,1-3.39-1.61,13.14,13.14,0,0,1-5-6.75,19.13,19.13,0,0,1-1.4-6.86,8.79,8.79,0,0,1,3.84-7.56c.38-.25.72-.45,1.06-.63a8.86,8.86,0,0,1,7.14-.32,17,17,0,0,1,5.71,3.52,13.79,13.79,0,0,1,4.71,7.94,12.92,12.92,0,0,1,.16,3.73,4.14,4.14,0,0,1-2.68,3.46,11.33,11.33,0,0,1-3.16.65l-.68,0q-.12.3-.27.6a11,11,0,0,1-1.83,2.66A4.16,4.16,0,0,1,146.44,489Zm-.56-4.66h0Zm-4.32-5.36a8.37,8.37,0,0,0,3,4.15,8.16,8.16,0,0,0,1.61.83,5.66,5.66,0,0,0,.68-1.09,5.83,5.83,0,0,0,.5-1.53,2.45,2.45,0,0,1,3-2,5.46,5.46,0,0,0,1.6.14,6.19,6.19,0,0,0,1.25-.22,8.22,8.22,0,0,0-.14-1.79,8.64,8.64,0,0,0-2.93-5,2.31,2.31,0,0,1-.24-.2,12.14,12.14,0,0,0-4.15-2.57,4,4,0,0,0-3.17.1,5.79,5.79,0,0,0-.54.31,4,4,0,0,0-1.69,3.39,14.27,14.27,0,0,0,1.08,5.21Z"/><path class="a" d="M153.49,467.92a16.8,16.8,0,0,1-6.18-.69,6.37,6.37,0,0,1-4.35-4.3v0a7.31,7.31,0,0,1-.19-.88,6.4,6.4,0,0,1,1.38-5,14.84,14.84,0,0,1,4.49-3.78,11.06,11.06,0,0,1,7.41-1.68,10.58,10.58,0,0,1,2.92.81,1.67,1.67,0,0,1,1,1.46,8.79,8.79,0,0,1-.28,2.49,7.76,7.76,0,0,1-.9,2.13,8.35,8.35,0,0,1,1.88,1.36,8.68,8.68,0,0,1,1.51,2,1.64,1.64,0,0,1-.08,1.77,10.64,10.64,0,0,1-2.08,2.2A10.8,10.8,0,0,1,153.49,467.92Z"/><path d="M152.21,470.43a19.37,19.37,0,0,1-5.61-.84,8.81,8.81,0,0,1-6-6,11.1,11.1,0,0,1-.27-1.2,8.88,8.88,0,0,1,1.89-6.89,17.18,17.18,0,0,1,5.12-4.35,13.82,13.82,0,0,1,9-2,13.28,13.28,0,0,1,3.6,1,4.14,4.14,0,0,1,2.46,3.63,11,11,0,0,1-.35,3.2c-.06.22-.12.44-.2.65l.5.44a11.15,11.15,0,0,1,2,2.57,4.13,4.13,0,0,1-.22,4.37,12.57,12.57,0,0,1-10.54,5.39C153.11,470.41,152.66,470.43,152.21,470.43ZM154.65,454a8.5,8.5,0,0,0-4.59,1.31l-.26.16a12.22,12.22,0,0,0-3.73,3.15,4,4,0,0,0-.89,3.05c0,.2.08.41.13.61a4,4,0,0,0,2.71,2.65,14.23,14.23,0,0,0,5.28.59h.29a8.3,8.3,0,0,0,4.89-1.61,8.08,8.08,0,0,0,1.28-1.27,6.05,6.05,0,0,0-.83-1,5.38,5.38,0,0,0-1.3-.94,2.46,2.46,0,0,1-.95-3.47,5.54,5.54,0,0,0,.62-1.48,5.72,5.72,0,0,0,.19-1.26,7.69,7.69,0,0,0-1.75-.42A8.29,8.29,0,0,0,154.65,454ZM160,463Z"/><path class="a" d="M146.79,450.71a16.69,16.69,0,0,1-2.56,5.67,6.4,6.4,0,0,1-5.44,2.81h0a6.69,6.69,0,0,1-.9-.09,6.35,6.35,0,0,1-4.29-2.85,14.59,14.59,0,0,1-2.21-5.43,11.08,11.08,0,0,1,.69-7.57,10.45,10.45,0,0,1,1.67-2.53,1.64,1.64,0,0,1,1.7-.48,8.46,8.46,0,0,1,2.28,1,8.18,8.18,0,0,1,1.75,1.52,8.11,8.11,0,0,1,1.87-1.36,8.38,8.38,0,0,1,2.36-.83,1.64,1.64,0,0,1,1.65.62,10.5,10.5,0,0,1,1.45,2.66A10.76,10.76,0,0,1,146.79,450.71Z"/><path d="M139,461.65h-.32a11.4,11.4,0,0,1-1.23-.12,8.88,8.88,0,0,1-6-3.93,16.92,16.92,0,0,1-2.55-6.21,13.7,13.7,0,0,1,.86-9.18,12.57,12.57,0,0,1,2.05-3.12,4.15,4.15,0,0,1,4.21-1.22,11,11,0,0,1,2.94,1.33c.19.12.37.25.55.38l.58-.33a11,11,0,0,1,3-1.07,4.15,4.15,0,0,1,4.1,1.55,13.72,13.72,0,0,1,1.79,3.29,13.15,13.15,0,0,1,.07,8.4,19.21,19.21,0,0,1-2.9,6.37A8.81,8.81,0,0,1,139,461.65Zm-3.81-18.9a8.07,8.07,0,0,0-.94,1.53,8.73,8.73,0,0,0-.59,5.76,1.92,1.92,0,0,1,.09.32,12,12,0,0,0,1.84,4.52,3.92,3.92,0,0,0,2.63,1.79,6,6,0,0,0,.61.06,3.92,3.92,0,0,0,3.36-1.75,14.26,14.26,0,0,0,2.19-4.84,2.14,2.14,0,0,1,.09-.27,8.56,8.56,0,0,0,0-5.16,8.43,8.43,0,0,0-.82-1.61,6,6,0,0,0-2.5,1.43,2.45,2.45,0,0,1-3.59-.17,5.72,5.72,0,0,0-1.21-1.05A6,6,0,0,0,135.21,442.75Zm8.94.24Z"/><circle class="c" cx="138.33" cy="463.86" r="4.76"/><path d="M138.33,471.07a7.21,7.21,0,0,1-6.76-9.73,7.2,7.2,0,1,1,6.76,9.73Zm0-9.51a2.31,2.31,0,0,0-2.16,1.49,2.33,2.33,0,0,0,.06,1.76,2.3,2.3,0,0,0,1.29,1.2,2.33,2.33,0,0,0,1.76-.06,2.3,2.3,0,0,0-.15-4.25A2.21,2.21,0,0,0,138.33,461.56Z"/><path class="a" d="M316.69,287.1a12.85,12.85,0,0,1-4.4,1.88,4.91,4.91,0,0,1-4.54-1.24l0,0a5.53,5.53,0,0,1-.46-.52,4.91,4.91,0,0,1-.95-3.85,11.3,11.3,0,0,1,1.57-4.23,8.57,8.57,0,0,1,4.33-3.93,8,8,0,0,1,2.26-.56,1.28,1.28,0,0,1,1.22.61,6.7,6.7,0,0,1,.76,1.76,6.62,6.62,0,0,1,.2,1.78,6.17,6.17,0,0,1,1.77.2,6.59,6.59,0,0,1,1.77.75,1.3,1.3,0,0,1,.61,1.22,8.7,8.7,0,0,1-.56,2.26A8.34,8.34,0,0,1,316.69,287.1Z"/><path d="M311.14,291a6.66,6.66,0,0,1-4.72-1.92,6.52,6.52,0,0,1-.63-.7,6.82,6.82,0,0,1-1.34-5.33,13.08,13.08,0,0,1,1.79-4.85,10.53,10.53,0,0,1,5.26-4.76,9.92,9.92,0,0,1,2.79-.69,3.17,3.17,0,0,1,3,1.5,8.36,8.36,0,0,1,1,2.27,4.7,4.7,0,0,1,.12.51l.49.11a8.61,8.61,0,0,1,2.29,1,3.19,3.19,0,0,1,1.51,3,10.35,10.35,0,0,1-.69,2.8,10.14,10.14,0,0,1-4.34,4.8,14.82,14.82,0,0,1-5,2.09A7.07,7.07,0,0,1,311.14,291Zm3.13-14.44a6.13,6.13,0,0,0-1.33.38,6.56,6.56,0,0,0-3.33,3c0,.06-.08.14-.12.21a9.53,9.53,0,0,0-1.31,3.52,3.06,3.06,0,0,0,.57,2.38,3.38,3.38,0,0,0,.31.35,3.08,3.08,0,0,0,2.82.76,11,11,0,0,0,3.76-1.61l.19-.11a6.46,6.46,0,0,0,2.67-2.93,5.81,5.81,0,0,0,.37-1.33,5.48,5.48,0,0,0-.92-.36,4.77,4.77,0,0,0-1.24-.14,1.88,1.88,0,0,1-1.94-2,4.51,4.51,0,0,0-.14-1.23A4.65,4.65,0,0,0,314.27,276.56Zm4.94,4.79Z"/><path class="a" d="M305.7,278.11a13,13,0,0,1,.43,4.76,5,5,0,0,1-2.59,3.94h0a5.78,5.78,0,0,1-.63.28,4.9,4.9,0,0,1-4-.29,11.17,11.17,0,0,1-3.53-2.8,8.48,8.48,0,0,1-2.4-5.33,8.26,8.26,0,0,1,.16-2.33,1.26,1.26,0,0,1,1-1,6.6,6.6,0,0,1,1.91-.18,5.91,5.91,0,0,1,1.75.36,6.2,6.2,0,0,1,.74-1.63,6.53,6.53,0,0,1,1.26-1.44,1.28,1.28,0,0,1,1.35-.21,8,8,0,0,1,2,1.23A8.34,8.34,0,0,1,305.7,278.11Z"/><path d="M301.26,289.28a7,7,0,0,1-3.2-.78,13.13,13.13,0,0,1-4.06-3.2,10.6,10.6,0,0,1-2.9-6.48,10.27,10.27,0,0,1,.2-2.87,3.19,3.19,0,0,1,2.36-2.4,8.66,8.66,0,0,1,2.47-.23l.52.05.26-.43a8.62,8.62,0,0,1,1.63-1.88,3.18,3.18,0,0,1,3.33-.5,10,10,0,0,1,2.45,1.52,10.11,10.11,0,0,1,3.22,5.6,14.86,14.86,0,0,1,.47,5.37,6.79,6.79,0,0,1-3.6,5.44,7,7,0,0,1-.87.38A6.57,6.57,0,0,1,301.26,289.28Zm-6.33-12.13a6.38,6.38,0,0,0-.06,1.38,6.7,6.7,0,0,0,1.81,4.1l.16.17a9.34,9.34,0,0,0,2.94,2.33,3,3,0,0,0,2.44.2,3.3,3.3,0,0,0,.43-.19,3,3,0,0,0,1.59-2.44,11.11,11.11,0,0,0-.36-4.08,1.6,1.6,0,0,1-.05-.21,6.39,6.39,0,0,0-2-3.44,5.37,5.37,0,0,0-1.15-.77,4.24,4.24,0,0,0-.63.77,4.9,4.9,0,0,0-.51,1.12,1.87,1.87,0,0,1-1,1.17,1.93,1.93,0,0,1-1.51.08,4.4,4.4,0,0,0-1.21-.24A4,4,0,0,0,294.93,277.15Zm.07-.4Zm6-2.82h0Z"/><path class="a" d="M293.74,285.78a13,13,0,0,1,4.67,1.07,4.93,4.93,0,0,1,2.95,3.67v0a5.41,5.41,0,0,1,.07.68,4.92,4.92,0,0,1-1.5,3.68,11.26,11.26,0,0,1-3.75,2.49,8.55,8.55,0,0,1-5.82.64,8.4,8.4,0,0,1-2.16-.87,1.28,1.28,0,0,1-.62-1.21,6.28,6.28,0,0,1,1.3-3.43,6.38,6.38,0,0,1-1.32-1.2,6.66,6.66,0,0,1-1-1.65,1.28,1.28,0,0,1,.22-1.35,8.56,8.56,0,0,1,1.78-1.5A8.39,8.39,0,0,1,293.74,285.78Z"/><path d="M292.37,300.18a9.87,9.87,0,0,1-2.45-.3,9.64,9.64,0,0,1-2.67-1.07,3.18,3.18,0,0,1-1.56-3,8.45,8.45,0,0,1,.55-2.42c.07-.17.13-.33.21-.48l-.34-.38a8.29,8.29,0,0,1-1.27-2.14,3.17,3.17,0,0,1,.54-3.32,9.88,9.88,0,0,1,2.21-1.85,10.09,10.09,0,0,1,6.32-1.34,14.92,14.92,0,0,1,5.25,1.21,6.78,6.78,0,0,1,4.06,5.11v0a7,7,0,0,1,.09.9,6.85,6.85,0,0,1-2.05,5.1,13.24,13.24,0,0,1-4.3,2.87A10.5,10.5,0,0,1,292.37,300.18Zm-2.86-4.45a6,6,0,0,0,1.3.48,6.61,6.61,0,0,0,4.45-.45l.21-.1a9.52,9.52,0,0,0,3.13-2.08,3,3,0,0,0,.94-2.25,2.42,2.42,0,0,0-.05-.47v0a3.06,3.06,0,0,0-1.83-2.23,11,11,0,0,0-4-.92l-.22,0a6.47,6.47,0,0,0-3.88.8,6,6,0,0,0-1.09.86,4.23,4.23,0,0,0,.54.83,4.81,4.81,0,0,0,.91.84,1.89,1.89,0,0,1,.42,2.74,4.2,4.2,0,0,0-.6,1.07A4.06,4.06,0,0,0,289.51,295.73Zm-.36-.19Zm-.83-6.58Z"/><path class="a" d="M297.35,299.52a13,13,0,0,1,2.46-4.1,4.9,4.9,0,0,1,4.4-1.67h0a4.84,4.84,0,0,1,3.71,2.7,11.44,11.44,0,0,1,1.2,4.35,8.5,8.5,0,0,1-1.19,5.72,8.11,8.11,0,0,1-1.5,1.79,1.28,1.28,0,0,1-1.34.22,6.86,6.86,0,0,1-1.65-1,6.1,6.1,0,0,1-1.2-1.31,6.67,6.67,0,0,1-1.56.88,6.51,6.51,0,0,1-1.87.42,1.27,1.27,0,0,1-1.21-.62,8.06,8.06,0,0,1-.87-2.16A8.32,8.32,0,0,1,297.35,299.52Z"/><path d="M305.62,310.53a3.18,3.18,0,0,1-1.21-.24,8.9,8.9,0,0,1-2.13-1.27l-.39-.35-.47.2a8.44,8.44,0,0,1-2.42.56,3.18,3.18,0,0,1-3-1.55,9.68,9.68,0,0,1-.4-9.1,14.87,14.87,0,0,1,2.78-4.61,6.77,6.77,0,0,1,6.11-2.29,9.37,9.37,0,0,1,.93.2,6.81,6.81,0,0,1,4.21,3.53,13.14,13.14,0,0,1,1.4,5,10.52,10.52,0,0,1-1.46,6.94,9.75,9.75,0,0,1-1.85,2.21A3.17,3.17,0,0,1,305.62,310.53Zm-3.34-6.18.3,0a1.9,1.9,0,0,1,1.27.82,4.16,4.16,0,0,0,.84.91,4.27,4.27,0,0,0,.82.53,6.39,6.39,0,0,0,.85-1.09,6.6,6.6,0,0,0,.95-4.37,1.75,1.75,0,0,1,0-.24,9.53,9.53,0,0,0-1-3.61,3.08,3.08,0,0,0-1.85-1.6l-.47-.1a3.05,3.05,0,0,0-2.72,1,11,11,0,0,0-2.1,3.51l-.09.2a6.54,6.54,0,0,0-.44,3.94,6.16,6.16,0,0,0,.48,1.3,4.83,4.83,0,0,0,1-.25,5,5,0,0,0,1.08-.61A1.88,1.88,0,0,1,302.28,304.35Zm-3.58,1.31h0Z"/><path class="a" d="M311.54,300.34a12.88,12.88,0,0,1-3.15-3.61,4.91,4.91,0,0,1-.22-4.7v0a5.88,5.88,0,0,1,.35-.6,4.91,4.91,0,0,1,3.37-2.09,11.21,11.21,0,0,1,4.51.19,8.51,8.51,0,0,1,5.07,2.91,8.36,8.36,0,0,1,1.24,2,1.28,1.28,0,0,1-.21,1.35,6.53,6.53,0,0,1-1.44,1.26,6.2,6.2,0,0,1-1.63.74,6.32,6.32,0,0,1,.36,1.75,6.59,6.59,0,0,1-.17,1.91,1.28,1.28,0,0,1-1,1,8.16,8.16,0,0,1-2.32.16A8.28,8.28,0,0,1,311.54,300.34Z"/><path d="M316.92,304.43l-.73,0a10.11,10.11,0,0,1-5.9-2.64,14.86,14.86,0,0,1-3.53-4.06,6.79,6.79,0,0,1-.28-6.52,7.73,7.73,0,0,1,.47-.82,6.85,6.85,0,0,1,4.66-2.92,13.16,13.16,0,0,1,5.16.21,10.48,10.48,0,0,1,6.15,3.53,10.24,10.24,0,0,1,1.53,2.44A3.19,3.19,0,0,1,324,297a8.68,8.68,0,0,1-1.86,1.63q-.22.15-.45.27c0,.17,0,.34.05.51a8.56,8.56,0,0,1-.23,2.47,3.16,3.16,0,0,1-2.39,2.37A10.55,10.55,0,0,1,316.92,304.43Zm.87-3.47Zm-4.92-2a5.89,5.89,0,0,0,5,1.58,4.77,4.77,0,0,0,.05-1,4.14,4.14,0,0,0-.25-1.22,1.94,1.94,0,0,1,.1-1.51,1.91,1.91,0,0,1,1.17-.95,4.49,4.49,0,0,0,1.13-.51,4.33,4.33,0,0,0,.75-.62,5.92,5.92,0,0,0-.77-1.15,6.62,6.62,0,0,0-3.86-2.25l-.23-.05a9.5,9.5,0,0,0-3.76-.15,3,3,0,0,0-2.09,1.27l-.24.41a3.08,3.08,0,0,0,.15,2.91,11.11,11.11,0,0,0,2.69,3.08Z"/><circle class="c" cx="305.05" cy="290.21" r="3.66"/><path d="M305.05,295.76a5.57,5.57,0,1,1,3.92-1.63h0a5.51,5.51,0,0,1-3.92,1.63Zm0-7.32h0a1.76,1.76,0,0,0-1.77,1.77,1.78,1.78,0,0,0,1.77,1.77h0a1.75,1.75,0,0,0,1.25-.52h0a1.79,1.79,0,0,0,0-2.5A1.79,1.79,0,0,0,305.05,288.44Z"/><path class="d" d="M124.85,413.42a5.69,5.69,0,0,1-.74,1.1,5.34,5.34,0,0,1-4.74,1.83,6.21,6.21,0,0,1-1.3-.31c-3.44-1.25-4.87-5.37-5.53-8.43a6.32,6.32,0,0,1,3.15.24c1.23.44,2.46,1.37,3.76.87s1.6-2.06,2.19-3.16a5.32,5.32,0,0,1,1.78-1.86C124.94,406.41,126.52,410.28,124.85,413.42Z"/><path d="M120.05,418.89a8.51,8.51,0,0,1-1-.06,8.85,8.85,0,0,1-1.83-.44c-3.53-1.28-5.92-4.72-7.12-10.25a2.5,2.5,0,0,1,2.05-3,8.87,8.87,0,0,1,4.37.36,11.37,11.37,0,0,1,1.14.47,7.52,7.52,0,0,0,.87.37c.12-.21.28-.58.4-.85a10.54,10.54,0,0,1,.52-1.12,7.7,7.7,0,0,1,2.62-2.77,2.55,2.55,0,0,1,2-.33,2.49,2.49,0,0,1,1.57,1.21c2.7,4.79,3.19,8.86,1.46,12.11a8.23,8.23,0,0,1-1.07,1.57A7.83,7.83,0,0,1,120.05,418.89Zm-3.85-8.1a5.27,5.27,0,0,0,2.72,2.89,3.17,3.17,0,0,0,.74.18,2.81,2.81,0,0,0,2.55-1,3.24,3.24,0,0,0,.43-.64h0a4.92,4.92,0,0,0,.21-3.41,4.93,4.93,0,0,1-2.51,2.23A5.36,5.36,0,0,1,116.2,410.79Z"/><path class="a" d="M123.42,403.7a5.32,5.32,0,0,0-1.78,1.86c-.59,1.1-.87,2.65-2.19,3.16s-2.53-.43-3.76-.87a6.32,6.32,0,0,0-3.15-.24c-.21-.92-.34-1.73-.44-2.35a22.72,22.72,0,0,1-.2-5.53,23.6,23.6,0,0,1,.92-5,1.07,1.07,0,0,1,1.63-.62,24.32,24.32,0,0,1,4,3.05,22.85,22.85,0,0,1,3.54,4.23C122.4,402,122.91,402.79,123.42,403.7Z"/><path d="M118.68,411.37a7.43,7.43,0,0,1-3.1-.85,7.6,7.6,0,0,0-.73-.31,3.91,3.91,0,0,0-1.92-.13,2.51,2.51,0,0,1-2.83-1.92c-.21-.94-.35-1.76-.47-2.51a25.36,25.36,0,0,1-.22-6.12,26,26,0,0,1,1-5.48,3.55,3.55,0,0,1,5.33-2,26.44,26.44,0,0,1,4.44,3.36,25.69,25.69,0,0,1,4,4.72c.41.64.93,1.44,1.46,2.39a2.5,2.5,0,0,1-.83,3.32,2.74,2.74,0,0,0-1,1c-.1.19-.2.43-.3.67a5.84,5.84,0,0,1-3.18,3.62A4.67,4.67,0,0,1,118.68,411.37Zm-4.08-6.3a7.86,7.86,0,0,1,1.92.43,11.37,11.37,0,0,1,1.14.47,7.52,7.52,0,0,0,.87.37c.12-.21.28-.58.4-.85a10.54,10.54,0,0,1,.52-1.12,6.9,6.9,0,0,1,.77-1.14l-.24-.38-.06-.09a20.39,20.39,0,0,0-3.15-3.75,21.84,21.84,0,0,0-2-1.67,22.86,22.86,0,0,0-.36,2.58,21.13,21.13,0,0,0,.17,4.93C114.57,404.92,114.59,405,114.6,405.07Zm-1.44-8.79h0Zm2.07-.82v0Z"/><circle class="e" cx="415.76" cy="0.5" r="0.5"/></svg>