<svg xmlns="http://www.w3.org/2000/svg" viewBox="0 0 700.63 579.36"><defs><style>.a{fill:#ffbde1;}.b{fill:#423224;}.c{fill:#ffd32a;}.d{fill:#004f27;}.e{fill:#fff;}</style></defs><path d="M13.92,579.36a2.5,2.5,0,0,1-.73-4.89A62.47,62.47,0,0,0,27.47,568C44.12,557.72,52.18,541.87,56,530.39A2.5,2.5,0,0,1,60.76,532C57.41,542,49,560.61,30.1,572.26a66.85,66.85,0,0,1-15.44,7A2.34,2.34,0,0,1,13.92,579.36Z"/><path d="M46.81,555.9a2.53,2.53,0,0,1-.71-.1A47.68,47.68,0,0,1,33,549.61a48.34,48.34,0,0,1-14.3-15.23,2.5,2.5,0,0,1,4.3-2.55,43.28,43.28,0,0,0,12.8,13.64A42.75,42.75,0,0,0,47.53,551a2.5,2.5,0,0,1-.72,4.89Z"/><path d="M366,314a2.5,2.5,0,0,1-2.19-1.29c-2.86-5.18-13.93-22.53-36.54-28.34-22.35-5.73-40.28,3.89-45.24,7a2.5,2.5,0,1,1-2.64-4.24c5.39-3.36,24.85-13.8,49.12-7.58,24.56,6.3,36.58,25.14,39.67,30.76a2.5,2.5,0,0,1-1,3.4A2.47,2.47,0,0,1,366,314Z"/><path d="M360.08,395.17a2.5,2.5,0,0,1-2.13-3.81,103.12,103.12,0,0,0,13.92-37.3A104.48,104.48,0,0,0,369.62,310a2.5,2.5,0,0,1,4.83-1.31,109.75,109.75,0,0,1,2.36,46.24,108.3,108.3,0,0,1-14.6,39.1A2.49,2.49,0,0,1,360.08,395.17Z"/><path class="a" d="M287.81,420.91a18.06,18.06,0,0,0-2.34-10.1,10.17,10.17,0,1,0-18.08-9.11,18.22,18.22,0,0,0-16,17,16.19,16.19,0,0,0,0,2.09,15.23,15.23,0,0,0-21.2,6,9.75,9.75,0,1,0-8.7,15.15h0a13.55,13.55,0,0,0-3.1,5.71,11.44,11.44,0,0,0-20.93.63,12.3,12.3,0,1,0,2.41,12.27A11.41,11.41,0,0,0,219,456a13.57,13.57,0,0,0,26.13-4.21,13.92,13.92,0,0,0-.11-2.75,15.12,15.12,0,0,0,8-3.1,14.83,14.83,0,0,0,26.17-8.62,15.26,15.26,0,0,0,0-2A18.18,18.18,0,0,0,287.81,420.91Z"/><path d="M188.32,471.18q-.45,0-.9,0a14.8,14.8,0,1,1,9.43-26.87A14,14,0,0,1,209,438.59a13.8,13.8,0,0,1,3.08.54,12.25,12.25,0,0,1,17.85-16.45,17.86,17.86,0,0,1,14.86-6.52,18.16,18.16,0,0,1,4.3.81,20.71,20.71,0,0,1,16.6-17.53,12.68,12.68,0,0,1,22.64,11.4,20.59,20.59,0,0,1,2,10.22h0a20.76,20.76,0,0,1-8.64,15.57c0,.31,0,.6,0,.89a17.35,17.35,0,0,1-18.38,16.23,17.09,17.09,0,0,1-10.64-4.52,17.85,17.85,0,0,1-5,2q0,.39,0,.78a16.08,16.08,0,0,1-17,15,16.14,16.14,0,0,1-11.48-5.94,13.91,13.91,0,0,1-18.32,3.27A14.86,14.86,0,0,1,188.32,471.18Zm0-24.59a9.79,9.79,0,1,0,9.24,13.06,2.5,2.5,0,0,1,4.15-.91,8.92,8.92,0,0,0,14.9-3.47,2.5,2.5,0,0,1,4.7-.17,11.12,11.12,0,0,0,9.58,6.93,11.07,11.07,0,0,0,11.73-10.36,10.48,10.48,0,0,0-.09-2.24,2.51,2.51,0,0,1,2.26-2.84,12.64,12.64,0,0,0,6.66-2.59,2.5,2.5,0,0,1,3.44.37,12.33,12.33,0,0,0,21.76-7.16,12.48,12.48,0,0,0,0-1.7,2.49,2.49,0,0,1,1.19-2.31,15.8,15.8,0,0,0,7.51-12.45,15.62,15.62,0,0,0-2-8.71,2.52,2.52,0,0,1,.06-2.57,7.67,7.67,0,1,0-13.64-6.87,2.49,2.49,0,0,1-2,1.58,15.73,15.73,0,0,0-13.78,14.63c0,.55,0,1.15,0,1.81a2.49,2.49,0,0,1-3.76,2.28,12.72,12.72,0,0,0-17.73,5,2.5,2.5,0,0,1-4.28.21,7.25,7.25,0,1,0-6.5,11.26h.07a2.49,2.49,0,0,1,2.15,1.56,2.52,2.52,0,0,1-.47,2.61,11,11,0,0,0-2.52,4.66,2.5,2.5,0,0,1-4.68.45,8.94,8.94,0,0,0-16.36.49,2.5,2.5,0,0,1-4.18.72,9.73,9.73,0,0,0-6.71-3.26C188.73,446.59,188.53,446.59,188.32,446.59Z"/><path class="a" d="M70,536.14A9.17,9.17,0,0,0,75,535a11.44,11.44,0,0,0,19.9,1l.13,0a8.91,8.91,0,0,0,6-1.84A14.39,14.39,0,0,0,125.53,521a9.75,9.75,0,1,0,10.11-16.6c0-.11,0-.22,0-.34a13.14,13.14,0,0,0-26.24-1.62,12.54,12.54,0,0,0,0,1.84,9.33,9.33,0,1,0-12.22,14.05,9.89,9.89,0,0,0-1.11-.15,8.89,8.89,0,0,0-5.56,1.54,11.38,11.38,0,0,0-12.69,1.33,9.32,9.32,0,1,0-7.92,15Z"/><path d="M85.23,543.81c-.29,0-.58,0-.86,0A14,14,0,0,1,74,538.14a11.65,11.65,0,0,1-4.19.5h0A11.82,11.82,0,0,1,62.72,518a11.8,11.8,0,0,1,15.48-.14,13.82,13.82,0,0,1,12.25-.89,10.57,10.57,0,0,1,1.88-.76,11.83,11.83,0,0,1,11.36-17,12,12,0,0,1,3.57.79,15.65,15.65,0,0,1,30.94,3.07,12.26,12.26,0,0,1-9.82,22,1.69,1.69,0,0,1,0,.23,16.9,16.9,0,0,1-27.66,12,11.35,11.35,0,0,1-4.53,1.21A13.93,13.93,0,0,1,85.23,543.81ZM75,532.51a2.52,2.52,0,0,1,2.23,1.38,8.94,8.94,0,0,0,15.55.75,2.5,2.5,0,0,1,2.33-1.15h.13a6.33,6.33,0,0,0,4.24-1.32,2.52,2.52,0,0,1,3.35.26A11.9,11.9,0,0,0,123.38,525a12.26,12.26,0,0,0-.28-3.41A2.5,2.5,0,0,1,127,519a7.15,7.15,0,0,0,3.83,1.39,7.25,7.25,0,0,0,3.68-13.73,2.49,2.49,0,0,1-1.37-2.47l0-.25a10.65,10.65,0,0,0-21.25-1.33,11.12,11.12,0,0,0,0,1.5,2.5,2.5,0,0,1-4.24,2,6.82,6.82,0,1,0-8.94,10.28,2.5,2.5,0,0,1-2,4.43,7.09,7.09,0,0,0-.79-.1,6.33,6.33,0,0,0-4,1.1,2.49,2.49,0,0,1-2.58.15,8.82,8.82,0,0,0-3.63-1A9,9,0,0,0,79.49,523a2.49,2.49,0,0,1-3.57-.38A6.84,6.84,0,0,0,71,520a6.84,6.84,0,0,0-7.24,6.39,6.81,6.81,0,0,0,10.08,6.41A2.55,2.55,0,0,1,75,532.51Z"/><path class="a" d="M470,250.79a9.32,9.32,0,0,0-13.57-8.87,8.48,8.48,0,0,0-15.85,3.65v0l-.42-.05a8.91,8.91,0,0,0-9.44,8.34V254a12,12,0,0,0-3.36-.7,11.82,11.82,0,0,0-10.09,4.55,11.89,11.89,0,0,0-17.05,9.08l-.46-.05a13.14,13.14,0,0,0-8.68,23.64,15.25,15.25,0,0,0-12.77,14.12c0,.34,0,.67,0,1a9.75,9.75,0,0,0-1.73-.26,10.17,10.17,0,1,0,9.06,13.24,15.25,15.25,0,0,0,16.26-25.81,13.15,13.15,0,0,0,10.19-12c0-.16,0-.31,0-.46a11.88,11.88,0,0,0,9.28-4.57,11.72,11.72,0,0,0,4.55,1.21,11.86,11.86,0,0,0,12.58-11.11,12.33,12.33,0,0,0-.13-2.59l.71.08a8.91,8.91,0,0,0,9.44-8.34c0-.14,0-.29,0-.43h0a11.17,11.17,0,0,0,1.42,0,8.75,8.75,0,0,0-1.7,4.69,8.84,8.84,0,0,0,1.08,4.82,9.32,9.32,0,1,0,8.64,4.59A8.87,8.87,0,0,0,465.81,258,9.33,9.33,0,0,0,470,250.79Z"/><path d="M375.91,328.16l-.79,0a12.68,12.68,0,0,1,.77-25.33H376a17.65,17.65,0,0,1,10.4-13.54,15.64,15.64,0,0,1,11.84-24.95,14.41,14.41,0,0,1,14.65-10.23,14.19,14.19,0,0,1,3.72.73,14.38,14.38,0,0,1,10.93-4.07c.42,0,.83.07,1.24.13a11.44,11.44,0,0,1,9.73-7.8,11,11,0,0,1,18.83-4.2,11.82,11.82,0,0,1,15.17,12.06h0a11.7,11.7,0,0,1-4,8.14,10.74,10.74,0,0,1,0,1.39,11.31,11.31,0,0,1-7.14,9.88,12.13,12.13,0,0,1,.36,3.71,11.83,11.83,0,0,1-23.63-.3,14.38,14.38,0,0,1-12.35,5.68,14,14,0,0,1-3.71-.73,14.29,14.29,0,0,1-7.67,3.89,15.75,15.75,0,0,1-7.71,10.95A17.76,17.76,0,0,1,386.79,322,12.65,12.65,0,0,1,375.91,328.16Zm0-20.35a7.68,7.68,0,1,0,7.31,10,2.5,2.5,0,0,1,3.68-1.38,12.61,12.61,0,0,0,5.83,1.84,12.76,12.76,0,0,0,7.76-23.42,2.5,2.5,0,0,1,.82-4.53,10.71,10.71,0,0,0,8.24-9.71v-.38A2.5,2.5,0,0,1,412,277.8a9.36,9.36,0,0,0,7.33-3.61,2.49,2.49,0,0,1,3.08-.7,9.3,9.3,0,0,0,3.59,1,9.32,9.32,0,0,0,9.83-10.82,2.5,2.5,0,0,1,2.82-2.87c.17,0,.34.05.52.06a6.41,6.41,0,0,0,6.78-6v-.3a2.5,2.5,0,0,1,.81-1.81,2.53,2.53,0,0,1,1.87-.65h.05a5.25,5.25,0,0,0,.95,0,2.5,2.5,0,0,1,2.42,1.24,2.47,2.47,0,0,1-.15,2.72,6.37,6.37,0,0,0-.44,6.84,2.5,2.5,0,0,1-2,3.7,6.83,6.83,0,1,0,6.33,3.35,2.5,2.5,0,0,1,1.93-3.75,6.36,6.36,0,0,0,5.78-6,6,6,0,0,0-.12-1.68,2.51,2.51,0,0,1,1.06-2.59,6.75,6.75,0,0,0,3.05-5.26h0a6.82,6.82,0,0,0-6.39-7.23,6.82,6.82,0,0,0-3.54.74,2.49,2.49,0,0,1-3.32-1,6,6,0,0,0-11.17,2.52,2.49,2.49,0,0,1-2.77,2.4l-.31,0a6.39,6.39,0,0,0-6.78,5.94v.07a2.5,2.5,0,0,1-3.36,2.25,9.34,9.34,0,0,0-10.62,3,2.51,2.51,0,0,1-3.09.7,9.3,9.3,0,0,0-3.59-1,9.4,9.4,0,0,0-9.86,8.13,2.49,2.49,0,0,1-2.72,2.16l-.38-.05a10.64,10.64,0,0,0-7,19.15,2.5,2.5,0,0,1-1.1,4.47,12.69,12.69,0,0,0-10.68,11.8c0,.22,0,.44,0,.66v.18a2.48,2.48,0,0,1-.94,2,2.51,2.51,0,0,1-2.13.48,7.69,7.69,0,0,0-1.31-.21Z"/><circle class="a" cx="234.37" cy="398.91" r="3.82"/><path d="M234.38,405.22H234a6.32,6.32,0,0,1-3.79-11,6.36,6.36,0,0,1,4.57-1.57,6.33,6.33,0,0,1,5.92,6.7h0a6.33,6.33,0,0,1-6.3,5.92Zm0-7.63a1.31,1.31,0,0,0-1.31,1.24,1.28,1.28,0,0,0,.33.95,1.32,1.32,0,0,0,2.3-.79h0a1.33,1.33,0,0,0-1.24-1.4Z"/><circle class="a" cx="459.23" cy="293.88" r="4.66"/><path d="M459.23,301h-.44a7.16,7.16,0,0,1-4.3-12.52,7.06,7.06,0,0,1,5.18-1.78,7.16,7.16,0,0,1-.44,14.31Zm0-9.33a2.19,2.19,0,0,0-2.16,2,2.17,2.17,0,0,0,2,2.3,2.19,2.19,0,0,0,2.29-2,2.16,2.16,0,0,0-.54-1.56,2.1,2.1,0,0,0-1.49-.73Z"/><circle class="a" cx="62.06" cy="485.53" r="5.94"/><path d="M62.07,494h-.53a8.44,8.44,0,1,1,1-16.84,8.43,8.43,0,0,1,7.9,8.94h0A8.44,8.44,0,0,1,62.07,494Zm0-11.87a3.44,3.44,0,0,0-.21,6.87,3.39,3.39,0,0,0,2.48-.86,3.43,3.43,0,0,0,1.16-2.36h0a3.44,3.44,0,0,0-.86-2.49,3.34,3.34,0,0,0-2.36-1.15Z"/><circle class="a" cx="400.22" cy="341.2" r="4.66"/><path d="M400.23,348.37l-.45,0a7.11,7.11,0,0,1-4.93-2.4,7.17,7.17,0,0,1,5.82-11.9,7.17,7.17,0,0,1-.44,14.32Zm0-9.33a2.16,2.16,0,0,0-2.16,2,2.2,2.2,0,0,0,.54,1.57,2.13,2.13,0,0,0,1.49.72,2.17,2.17,0,0,0,2.29-2,2.14,2.14,0,0,0-.53-1.57,2.22,2.22,0,0,0-1.49-.73Z"/><circle class="a" cx="226.59" cy="483.39" r="4.66"/><path d="M226.6,490.55h-.45a7.22,7.22,0,1,1,.45,0Zm0-9.32a2.16,2.16,0,0,0-2.16,2,2.18,2.18,0,0,0,.54,1.56,2.16,2.16,0,0,0,3.25-2.86,2.18,2.18,0,0,0-1.49-.73Z"/><path class="b" d="M684.59,231.78c-24.85,11.12-46.09.27-80.8,1.13-23.2.57-15.08,5.46-75.9,15.51-13.82,2.29-26.24,4-43.11,10.08s-28,12.76-35.9,17.32a616.13,616.13,0,0,1-73.66,35.78L376.9,310a398,398,0,0,1-31.18,40.14c-3,3.43-13.4,15-31.72,32-13.62,12.63-21.06,18.44-70.69,57.65-30.59,24.17-35,27.65-44.57,33.77a379,379,0,0,1-46.59,25.16c-6.42,2.9-11,4.76-15.71,6.67-49.42,20.15-74.61,31.86-75,31.05-.46-1,36.73-20.28,73.72-37.92C164,484.8,174.46,480.74,191.31,469c17.17-11.95,16-14.45,39.57-34.22,40.4-33.83,50.08-31.62,75-58.23,12.17-13,21-22.41,30.17-36.67,4.62-7.17,16.3-19.59,29.88-38.19a6,6,0,0,1,1.48-1.45l.21-.14c3.21-3.05,8.05-7.45,14.27-12.31,7.77-6.06,23.28-17.22,54.57-30.6,17.39-7.43,16.27-5.52,42.41-15.77,29.68-11.64,32.66-14.58,46.44-19.52,25.75-9.22,28.26-3.61,76-11.4,41.65-6.79,64.13-15,84.49-4.15,3.13,1.68,12.57,6.72,12.34,13.1C697.91,225.7,688.59,230,684.59,231.78Z"/><path d="M61.33,539a2.19,2.19,0,0,1-2.14-1.49C58,535,60,534,66.36,530.42c4-2.23,9.79-5.3,16.76-8.89,15.14-7.81,33.71-17,51-25.24,5.34-2.54,10-4.76,14.28-6.75C167,480.79,176.32,476.4,189.88,467a126.37,126.37,0,0,0,18.68-15.48c4.51-4.34,10.13-9.75,20.71-18.61A395,395,0,0,1,270,402.74c12-7.92,20.69-13.63,34-27.88,12.08-12.91,20.81-22.24,29.89-36.32,2.22-3.43,5.92-7.93,10.6-13.63,5.4-6.56,12.11-14.73,19.37-24.67a8.76,8.76,0,0,1,2.08-2l.05,0c4.55-4.3,9.36-8.45,14.31-12.32,5.16-4,20.85-16.27,55.13-30.93,8.95-3.83,13.12-5.23,18.4-7,5-1.69,11.31-3.79,24.07-8.8,16-6.28,24.1-10,30.59-12.91,5.32-2.42,9.52-4.33,15.93-6.63,14.82-5.31,22.14-5.82,34.28-6.65a411.1,411.1,0,0,0,42.18-4.87c8.84-1.44,17-3,24.12-4.33,27.19-5.14,45.15-8.53,62,.45,3.81,2,13.94,7.45,13.66,15.39s-11,12.7-15,14.51h0c-16.22,7.25-31,5.51-48,3.5-9.83-1.16-21-2.48-33.72-2.16-10.51.26-14.21,1.38-21.59,3.61-8.53,2.59-21.42,6.49-54,11.87l-3.41.56c-12.35,2-24,3.92-39.26,9.4a195.76,195.76,0,0,0-33.93,16.23l-1.57.91a623.85,623.85,0,0,1-72.43,35.29,403.75,403.75,0,0,1-30.11,38.53c-8.44,9.53-19.46,20.67-31.89,32.19-13.2,12.25-20.18,17.77-65.63,53.67l-6.85,5.41c-29.12,23-33.6,26.54-43.14,32.62A380.16,380.16,0,0,1,153.18,501c-6.2,2.8-10.78,4.67-15.22,6.47l-.57.24c-24.5,10-43.18,18-55.55,23.24-6.49,2.77-11.18,4.77-14.44,6.1C64.55,538.24,62.65,539,61.33,539ZM662.87,203.56c-10.09,0-21.84,2.22-36.92,5.07-7.19,1.36-15.34,2.9-24.25,4.36a414.58,414.58,0,0,1-42.64,4.91c-12.1.84-18.77,1.3-32.93,6.38-6.22,2.23-10.13,4-15.55,6.47-6.54,3-14.68,6.68-30.83,13-12.88,5-19.22,7.18-24.31,8.88-5.38,1.81-9.26,3.11-18,6.86-33.69,14.4-49,26.35-54,30.27-4.88,3.82-9.62,7.9-14.09,12.15l-.32.26-.2.13a3.94,3.94,0,0,0-.87.86c-7.35,10.06-14.11,18.29-19.54,24.91-4.59,5.57-8.2,10-10.26,13.16-9.33,14.46-18.19,23.92-30.44,37C294,393,284.6,399.11,272.76,406.91a389.85,389.85,0,0,0-40.28,29.81c-10.44,8.74-16,14.08-20.46,18.38a131.42,131.42,0,0,1-19.29,16c-13.9,9.67-23.37,14.13-42.24,23-4.22,2-8.92,4.19-14.24,6.73-9.4,4.49-18.59,9-27.11,13.19q11.77-4.92,26.36-10.88l.58-.24c4.39-1.79,8.93-3.64,15-6.4a374.57,374.57,0,0,0,46.27-25c9.33-5.95,13.78-9.47,42.73-32.34l6.85-5.41c45.31-35.79,52.28-41.29,65.33-53.4,12.31-11.42,23.22-22.43,31.55-31.85a397,397,0,0,0,28.87-36.8,2.48,2.48,0,0,1,.78-1.91l1.69-1.59a2.51,2.51,0,0,1,2.79-.44,613.83,613.83,0,0,0,69.65-34.1l1.57-.9a200,200,0,0,1,34.74-16.6c15.68-5.64,27.56-7.58,40.14-9.63l3.4-.56c32.22-5.33,44.92-9.18,53.33-11.72,7.57-2.29,11.73-3.55,22.92-3.83,13.1-.32,24.43,1,34.43,2.19,17,2,30.45,3.59,45.4-3.1h0c7.9-3.53,12-6.94,12.07-10.12s-3.59-6.83-11-10.8C677.86,205,670.89,203.56,662.87,203.56Zm21.72,28.22h0Z"/><path class="a" d="M48,539.29a14.63,14.63,0,0,1,3.73-4,5.6,5.6,0,0,1,5.31-.78l0,0a5.83,5.83,0,0,1,.72.32,5.63,5.63,0,0,1,2.74,3.59,12.66,12.66,0,0,1,.28,5.13,9.7,9.7,0,0,1-2.72,6.07,9.17,9.17,0,0,1-2.11,1.62,1.45,1.45,0,0,1-1.54-.08,7.6,7.6,0,0,1-1.6-1.5,7.17,7.17,0,0,1-1-1.76,7.22,7.22,0,0,1-1.94.6,7.68,7.68,0,0,1-2.19,0,1.47,1.47,0,0,1-1.19-1,8.81,8.81,0,0,1,1.49-8.3Z"/><path d="M55.24,553.63a3.71,3.71,0,0,1-2.07-.64,10,10,0,0,1-2.06-1.94l-.35-.48-.56.11a9.59,9.59,0,0,1-2.83,0,3.64,3.64,0,0,1-2.95-2.46,11.7,11.7,0,0,1-.55-3.23,11.57,11.57,0,0,1,2.33-7,17,17,0,0,1,4.22-4.45,7.7,7.7,0,0,1,7.35-1,9.16,9.16,0,0,1,1,.45,7.77,7.77,0,0,1,3.82,5,15.12,15.12,0,0,1,.34,5.87,12,12,0,0,1-3.33,7.36,11.23,11.23,0,0,1-2.59,2A3.53,3.53,0,0,1,55.24,553.63Zm-3.45-7.82a2.14,2.14,0,0,1,2,1.37,5,5,0,0,0,.71,1.22,5.81,5.81,0,0,0,.78.79,7,7,0,0,0,1.22-1,7.52,7.52,0,0,0,2.12-4.63,2.48,2.48,0,0,1,0-.27,10.65,10.65,0,0,0-.24-4.27,3.43,3.43,0,0,0-1.67-2.22,4.37,4.37,0,0,0-.49-.23,3.47,3.47,0,0,0-3.28.49,12.55,12.55,0,0,0-3.2,3.39,1.43,1.43,0,0,1-.14.2,7.34,7.34,0,0,0-1.46,4.27,7.71,7.71,0,0,0,.22,1.57,5.32,5.32,0,0,0,1.13-.06,4.64,4.64,0,0,0,1.34-.41A2.18,2.18,0,0,1,51.79,545.81Zm-3.84.63Z"/><path class="a" d="M63.52,543.67a14.73,14.73,0,0,1-2.61-4.78,5.57,5.57,0,0,1,.9-5.28l0,0a6,6,0,0,1,.54-.58,5.6,5.6,0,0,1,4.26-1.5,12.78,12.78,0,0,1,5,1.31,9.74,9.74,0,0,1,4.93,4.47,9.14,9.14,0,0,1,.89,2.5,1.47,1.47,0,0,1-.55,1.45,7.52,7.52,0,0,1-1.92,1,6.69,6.69,0,0,1-2,.42,7,7,0,0,1,0,2,7.38,7.38,0,0,1-.66,2.08,1.46,1.46,0,0,1-1.31.83,8.9,8.9,0,0,1-7.43-4Z"/><path d="M71,549.8A11,11,0,0,1,61.87,545h0a17.23,17.23,0,0,1-3-5.47,7.73,7.73,0,0,1,1.28-7.32,8.21,8.21,0,0,1,.73-.79,7.72,7.72,0,0,1,5.89-2.11,14.81,14.81,0,0,1,5.69,1.49,12,12,0,0,1,6,5.44,11.31,11.31,0,0,1,1.1,3.08,3.62,3.62,0,0,1-1.36,3.58,9.71,9.71,0,0,1-2.48,1.36l-.56.19c0,.19,0,.38-.07.57a9.87,9.87,0,0,1-.85,2.7A3.63,3.63,0,0,1,71,549.8Zm-.63-3.92h0Zm-5-3.38A7.39,7.39,0,0,0,69,545.2a7.08,7.08,0,0,0,1.55.28,5.35,5.35,0,0,0,.3-1.09,5.13,5.13,0,0,0,0-1.41,2.15,2.15,0,0,1,2-2.42,5.28,5.28,0,0,0,1.38-.3,5.11,5.11,0,0,0,1-.5,6.92,6.92,0,0,0-.58-1.47,7.62,7.62,0,0,0-3.72-3.44l-.27-.11a10.65,10.65,0,0,0-4.13-1.1,3.47,3.47,0,0,0-2.64.91,4.86,4.86,0,0,0-.37.4,3.48,3.48,0,0,0-.54,3.27,12.73,12.73,0,0,0,2.23,4.08A1.3,1.3,0,0,1,65.33,542.5Z"/><path class="a" d="M72.5,530.22a15,15,0,0,1-5.36,1,5.6,5.6,0,0,1-4.74-2.49l0,0c-.14-.22-.27-.45-.39-.68a5.6,5.6,0,0,1-.11-4.52,12.88,12.88,0,0,1,2.79-4.31,9.66,9.66,0,0,1,5.77-3.31,8.94,8.94,0,0,1,2.65-.07,1.45,1.45,0,0,1,1.21,1,8.05,8.05,0,0,1,.41,2.15,6.85,6.85,0,0,1-.22,2,7.24,7.24,0,0,1,1.93.66,7.47,7.47,0,0,1,1.77,1.27,1.45,1.45,0,0,1,.39,1.5,9.66,9.66,0,0,1-1.18,2.38A9.55,9.55,0,0,1,72.5,530.22Z"/><path d="M67.12,533.38a7.71,7.71,0,0,1-6.53-3.48,9.14,9.14,0,0,1-.53-.94,7.76,7.76,0,0,1-.18-6.25,15.1,15.1,0,0,1,3.17-5,12.09,12.09,0,0,1,7-4,11.18,11.18,0,0,1,3.27-.09,3.65,3.65,0,0,1,3,2.4,9.67,9.67,0,0,1,.52,2.78c0,.2,0,.39,0,.59l.52.24a9.66,9.66,0,0,1,2.3,1.65,3.62,3.62,0,0,1,.95,3.71,11,11,0,0,1-7.45,7.22,16.93,16.93,0,0,1-6,1.12ZM72,517.9a7,7,0,0,0-1.21.1,7.55,7.55,0,0,0-4.43,2.49,1.81,1.81,0,0,1-.18.21,10.58,10.58,0,0,0-2.32,3.59,3.44,3.44,0,0,0,0,2.78c.08.17.17.32.26.48a3.49,3.49,0,0,0,2.93,1.53h0a12.5,12.5,0,0,0,4.57-.87l.24-.07a7.4,7.4,0,0,0,3.68-2.61,6.62,6.62,0,0,0,.75-1.39,5.35,5.35,0,0,0-.95-.62,5,5,0,0,0-1.33-.45,2.17,2.17,0,0,1-1.69-2.67,5.17,5.17,0,0,0,0-2.5Zm4.69,6.53h0Z"/><path class="a" d="M62.48,517.52a14.6,14.6,0,0,1-.7,5.41A5.58,5.58,0,0,1,58,526.67h0a7,7,0,0,1-.77.16,5.61,5.61,0,0,1-4.33-1.29,12.92,12.92,0,0,1-3.24-4,9.69,9.69,0,0,1-1.36-6.52A9,9,0,0,1,49,512.5a1.46,1.46,0,0,1,1.29-.84,7.41,7.41,0,0,1,2.18.28,7.11,7.11,0,0,1,1.85.82,7.25,7.25,0,0,1,1.22-1.62,7.41,7.41,0,0,1,1.76-1.3,1.45,1.45,0,0,1,1.55.1,8.87,8.87,0,0,1,3.67,7.58Z"/><path d="M56.43,529a7.86,7.86,0,0,1-5-1.83,15.2,15.2,0,0,1-3.73-4.55,12,12,0,0,1-1.63-7.91,11.21,11.21,0,0,1,.92-3.14,3.62,3.62,0,0,1,3.21-2.1,9.65,9.65,0,0,1,2.8.36,5.22,5.22,0,0,1,.56.18c.13-.15.26-.29.4-.43a10,10,0,0,1,2.27-1.68,3.63,3.63,0,0,1,3.83.26,11.06,11.06,0,0,1,2.34,2.29,11.5,11.5,0,0,1,2.22,7,16.83,16.83,0,0,1-.8,6.07,7.69,7.69,0,0,1-5.33,5.17,9.57,9.57,0,0,1-1.06.22A8.72,8.72,0,0,1,56.43,529Zm-5.7-15.22a6.88,6.88,0,0,0-.39,1.53,7.59,7.59,0,0,0,1,5c.05.07.1.16.15.24a10.62,10.62,0,0,0,2.7,3.32,3.45,3.45,0,0,0,2.66.82,5,5,0,0,0,.53-.11,3.45,3.45,0,0,0,2.36-2.33,12.6,12.6,0,0,0,.6-4.61,1,1,0,0,1,0-.25A7.38,7.38,0,0,0,59,513.1,6.89,6.89,0,0,0,57.9,512a5.49,5.49,0,0,0-.89.7,5.35,5.35,0,0,0-.84,1.13,2.16,2.16,0,0,1-1.36,1.06,2.14,2.14,0,0,1-1.69-.28,5.07,5.07,0,0,0-1.29-.56A5.49,5.49,0,0,0,50.73,513.82Z"/><path class="a" d="M47.31,523.13a14.83,14.83,0,0,1,4.92,2.33,5.59,5.59,0,0,1,2.38,4.81v0c0,.27,0,.53-.09.79A5.63,5.63,0,0,1,52,534.81a12.88,12.88,0,0,1-4.79,1.85,9.67,9.67,0,0,1-6.61-.72,9.22,9.22,0,0,1-2.19-1.5A1.46,1.46,0,0,1,38,533a7.33,7.33,0,0,1,.93-2,7.09,7.09,0,0,1,1.36-1.5,7.22,7.22,0,0,1-1.86-3.74,1.46,1.46,0,0,1,.57-1.44,8.86,8.86,0,0,1,8.35-1.15Z"/><path d="M44.88,539.08a12,12,0,0,1-5.28-1.21A11.52,11.52,0,0,1,36.9,536a3.64,3.64,0,0,1-1-3.71,9.78,9.78,0,0,1,1.2-2.55c.11-.16.23-.33.35-.48-.1-.17-.19-.33-.28-.51a9.85,9.85,0,0,1-.9-2.68,3.62,3.62,0,0,1,1.42-3.56A11.41,11.41,0,0,1,40.6,521a11.54,11.54,0,0,1,7.36.06,16.67,16.67,0,0,1,5.53,2.64,7.69,7.69,0,0,1,3.27,6.66c0,.4-.07.74-.12,1.08a7.81,7.81,0,0,1-3.53,5.16,15,15,0,0,1-5.48,2.14A11.4,11.4,0,0,1,44.88,539.08Zm-4.72-5.92a7.15,7.15,0,0,0,1.33.85,7.59,7.59,0,0,0,5.06.59,1.22,1.22,0,0,1,.26-.06,10.81,10.81,0,0,0,4-1.55,3.48,3.48,0,0,0,1.6-2.28,4.52,4.52,0,0,0,.06-.53v-.08A3.45,3.45,0,0,0,51,527.21a12.41,12.41,0,0,0-4.21-2l-.24-.08a7.43,7.43,0,0,0-4.51-.06,6.89,6.89,0,0,0-1.42.69,5.64,5.64,0,0,0,.4,1.06,5.18,5.18,0,0,0,.81,1.15,2.16,2.16,0,0,1-.2,3.14,5,5,0,0,0-1.45,2Zm.35-7.83h0Z"/><circle class="c" cx="58.69" cy="530.74" r="4.17"/><path d="M58.69,537.06a6.11,6.11,0,0,1-2.3-.44,6.32,6.32,0,1,1,8.18-3.57,6.32,6.32,0,0,1-5.88,4Zm0-8.33a1.93,1.93,0,0,0-.81.17A2,2,0,0,0,56.82,530a2,2,0,0,0,2.68,2.58,2,2,0,0,0,1-2.65,2,2,0,0,0-1.11-1.07A1.91,1.91,0,0,0,58.69,528.73Z"/><path class="a" d="M269.38,419.28a15.66,15.66,0,0,1,5.54-1.49A5.9,5.9,0,0,1,280.1,420l0,0c.17.23.32.46.46.69a5.88,5.88,0,0,1,.48,4.73,13.47,13.47,0,0,1-2.58,4.75,10.11,10.11,0,0,1-8.58,4.23,1.56,1.56,0,0,1-1.34-.93,8.11,8.11,0,0,1-.6-2.23,7.48,7.48,0,0,1,.06-2.13,7.93,7.93,0,0,1-2.07-.54,8,8,0,0,1-2-1.19,1.54,1.54,0,0,1-.53-1.55,9.33,9.33,0,0,1,5.92-6.61Z"/><path d="M270.29,436.73h-.48a3.81,3.81,0,0,1-3.32-2.29,10.46,10.46,0,0,1-.78-2.87c0-.21,0-.41,0-.62l-.57-.21a10.18,10.18,0,0,1-2.54-1.55,3.81,3.81,0,0,1-1.29-3.82,12,12,0,0,1,1.3-3.2,12.14,12.14,0,0,1,5.94-5,17.85,17.85,0,0,1,6.24-1.65,8.11,8.11,0,0,1,7.16,3.12c.25.34.45.64.64.95a8.17,8.17,0,0,1,.68,6.54,15.63,15.63,0,0,1-2.93,5.45,12.65,12.65,0,0,1-7.05,4.76A12.17,12.17,0,0,1,270.29,436.73ZM265.79,426a5.56,5.56,0,0,0,1,.57,5.39,5.39,0,0,0,1.44.38,2.25,2.25,0,0,1,2,2.66,5.53,5.53,0,0,0,0,1.48,6.07,6.07,0,0,0,.27,1.14,7.45,7.45,0,0,0,1.64-.23,7.94,7.94,0,0,0,4.46-3c.05-.07.11-.16.17-.23a11.16,11.16,0,0,0,2.15-3.95,3.67,3.67,0,0,0-.27-2.92,3.88,3.88,0,0,0-.32-.47,3.66,3.66,0,0,0-3.21-1.38,13.27,13.27,0,0,0-4.73,1.27l-.24.1a7.72,7.72,0,0,0-3.66,3A7.19,7.19,0,0,0,265.79,426Zm-.37-.29h0Z"/><path class="a" d="M280.91,431.81a15.63,15.63,0,0,1,.3-5.73,5.88,5.88,0,0,1,3.73-4.24h0a7.94,7.94,0,0,1,.8-.22,5.86,5.86,0,0,1,4.65,1,13.58,13.58,0,0,1,3.72,3.92,10.26,10.26,0,0,1,1.95,6.73,10.12,10.12,0,0,1-.59,2.73,1.54,1.54,0,0,1-1.29,1,8.12,8.12,0,0,1-2.31-.12,7.58,7.58,0,0,1-2-.72,7.38,7.38,0,0,1-1.15,1.8,8,8,0,0,1-1.74,1.51,1.54,1.54,0,0,1-1.63,0,9.86,9.86,0,0,1-2.14-1.8A10,10,0,0,1,280.91,431.81Z"/><path d="M286.16,442a3.69,3.69,0,0,1-2-.56,11.55,11.55,0,0,1-5.53-9.4,17.75,17.75,0,0,1,.35-6.44,8.11,8.11,0,0,1,5.19-5.85,7.59,7.59,0,0,1,1.09-.31,8.21,8.21,0,0,1,6.44,1.36,16,16,0,0,1,4.28,4.48,12.72,12.72,0,0,1,2.35,8.17,12.22,12.22,0,0,1-.72,3.37,3.83,3.83,0,0,1-3.21,2.46,10.08,10.08,0,0,1-3-.15,6,6,0,0,1-.61-.15c-.12.17-.25.32-.38.48a10.45,10.45,0,0,1-2.25,1.95A3.9,3.9,0,0,1,286.16,442Zm-.38-4.41Zm-2.6-5.79a7.76,7.76,0,0,0,1.74,4.42,7.28,7.28,0,0,0,1.24,1.1,5.32,5.32,0,0,0,1.67-2.06,2.26,2.26,0,0,1,1.34-1.21,2.22,2.22,0,0,1,1.8.15,5.06,5.06,0,0,0,1.39.49,5.53,5.53,0,0,0,1.17.11,7.75,7.75,0,0,0,.3-1.64,8.06,8.06,0,0,0-1.45-5.16c-.06-.07-.12-.16-.17-.23a11.18,11.18,0,0,0-3.1-3.26,3.61,3.61,0,0,0-2.85-.65,4.94,4.94,0,0,0-.55.15,3.65,3.65,0,0,0-2.3,2.63,13.33,13.33,0,0,0-.26,4.9A2.06,2.06,0,0,1,283.18,431.76Z"/><path class="a" d="M296.38,424.71a15.49,15.49,0,0,1-5.35-2,5.91,5.91,0,0,1-2.88-4.86v0a7.5,7.5,0,0,1,0-.82,5.9,5.9,0,0,1,2.39-4.11,13.62,13.62,0,0,1,4.88-2.33,10.26,10.26,0,0,1,7,.23,9.72,9.72,0,0,1,2.42,1.4,1.53,1.53,0,0,1,.54,1.54,8.29,8.29,0,0,1-.82,2.15,7.31,7.31,0,0,1-1.31,1.69,7.49,7.49,0,0,1,1.36,1.65,8.09,8.09,0,0,1,.89,2.13,1.52,1.52,0,0,1-.48,1.55,10.12,10.12,0,0,1-2.37,1.48A10,10,0,0,1,296.38,424.71Z"/><path d="M299,427.32a12.26,12.26,0,0,1-3.15-.4,17.69,17.69,0,0,1-6-2.33,8.09,8.09,0,0,1-4-6.74,10.21,10.21,0,0,1,0-1.13,8.19,8.19,0,0,1,3.29-5.7,15.85,15.85,0,0,1,5.58-2.69,12.7,12.7,0,0,1,8.5.3,11.68,11.68,0,0,1,3,1.72,3.84,3.84,0,0,1,1.35,3.81,10.39,10.39,0,0,1-1.06,2.77c-.11.18-.21.36-.33.53.12.17.23.34.34.51a10.21,10.21,0,0,1,1.15,2.75,3.81,3.81,0,0,1-1.21,3.85,12.51,12.51,0,0,1-2.92,1.83A11.45,11.45,0,0,1,299,427.32Zm-2-4.78a7.81,7.81,0,0,0,4.74-.29,7.5,7.5,0,0,0,1.44-.84,5.93,5.93,0,0,0-.51-1.08,5.2,5.2,0,0,0-.94-1.14,2.23,2.23,0,0,1-.74-1.65,2.27,2.27,0,0,1,.7-1.67,5.24,5.24,0,0,0,.9-1.17,5.48,5.48,0,0,0,.46-1.08,7.43,7.43,0,0,0-1.47-.79,7.91,7.91,0,0,0-5.35-.21l-.27.08a11.27,11.27,0,0,0-4.06,1.94,3.63,3.63,0,0,0-1.5,2.52,3.54,3.54,0,0,0,0,.57,3.65,3.65,0,0,0,1.79,3,13.11,13.11,0,0,0,4.57,1.75Z"/><path class="a" d="M294.42,407.8a15.5,15.5,0,0,1-3.61,4.46,5.91,5.91,0,0,1-5.5,1.24l0,0a6.55,6.55,0,0,1-.78-.28,6,6,0,0,1-3.17-3.55,13.62,13.62,0,0,1-.7-5.36A10.2,10.2,0,0,1,283,397.7a9.79,9.79,0,0,1,2.08-1.87,1.54,1.54,0,0,1,1.63,0,8.25,8.25,0,0,1,1.79,1.44,7.75,7.75,0,0,1,1.21,1.77,7.26,7.26,0,0,1,2-.79A8.22,8.22,0,0,1,294,398a1.53,1.53,0,0,1,1.33,1,9.56,9.56,0,0,1,.67,2.71A9.94,9.94,0,0,1,294.42,407.8Z"/><path d="M286.93,416a7.73,7.73,0,0,1-2.28-.34,8.29,8.29,0,0,1-1.07-.39,8.15,8.15,0,0,1-4.4-4.89,15.93,15.93,0,0,1-.83-6.14,12.73,12.73,0,0,1,2.91-8,11.71,11.71,0,0,1,2.56-2.3,3.8,3.8,0,0,1,4-.1,10.31,10.31,0,0,1,2.32,1.86l.4.48.59-.17a10.6,10.6,0,0,1,3-.25,3.84,3.84,0,0,1,3.29,2.35A11.61,11.61,0,0,1,296.36,409a18,18,0,0,1-4.07,5A8.24,8.24,0,0,1,286.93,416Zm-1-18a7.26,7.26,0,0,0-1.2,1.15,8,8,0,0,0-1.86,5,1.41,1.41,0,0,1,0,.29,11.22,11.22,0,0,0,.59,4.46,3.63,3.63,0,0,0,1.93,2.2,4.81,4.81,0,0,0,.53.2,3.66,3.66,0,0,0,3.41-.78,13.19,13.19,0,0,0,3.08-3.81l.14-.22a7.84,7.84,0,0,0,1.18-4.6,7.11,7.11,0,0,0-.35-1.62,5.15,5.15,0,0,0-1.18.14,5.36,5.36,0,0,0-1.38.54,2.23,2.23,0,0,1-1.8.2,2.28,2.28,0,0,1-1.37-1.19,4.81,4.81,0,0,0-.84-1.21A5.06,5.06,0,0,0,285.94,398Zm7.91,2.3h0Z"/><path class="a" d="M277.73,404.45a15.68,15.68,0,0,1,3.13,4.8,5.92,5.92,0,0,1-.53,5.62l0,0a8.06,8.06,0,0,1-.52.64,5.88,5.88,0,0,1-4.35,1.92,13.4,13.4,0,0,1-5.31-1,10.22,10.22,0,0,1-5.54-4.29,9.9,9.9,0,0,1-1.13-2.56,1.54,1.54,0,0,1,.47-1.56,7.86,7.86,0,0,1,1.93-1.26,7.53,7.53,0,0,1,2.05-.6,7.41,7.41,0,0,1-.13-2.13,7.52,7.52,0,0,1,.53-2.24,1.54,1.54,0,0,1,1.3-1,9.76,9.76,0,0,1,2.79.2A10,10,0,0,1,277.73,404.45Z"/><path d="M275.23,419.74a15.88,15.88,0,0,1-5.85-1.11,12.7,12.7,0,0,1-6.7-5.24,11.65,11.65,0,0,1-1.4-3.14,3.81,3.81,0,0,1,1.15-3.87,10.42,10.42,0,0,1,2.48-1.63l.58-.24,0-.6a10.3,10.3,0,0,1,.68-2.9,3.82,3.82,0,0,1,3.24-2.41,11.61,11.61,0,0,1,10,4.37,17.58,17.58,0,0,1,3.51,5.41,8.12,8.12,0,0,1-.76,7.78,8.93,8.93,0,0,1-.7.89,8.19,8.19,0,0,1-6,2.69Zm-9.44-10.26a6.9,6.9,0,0,0,.72,1.5,8,8,0,0,0,4.2,3.32,1.22,1.22,0,0,1,.27.09,11.35,11.35,0,0,0,4.43.82,3.67,3.67,0,0,0,2.69-1.16q.18-.21.36-.45l0-.06a3.62,3.62,0,0,0,.26-3.41A13.11,13.11,0,0,0,276.1,406l-.18-.2a7,7,0,0,0-5.66-2.72,5.36,5.36,0,0,0-.22,1.17,5.2,5.2,0,0,0,.09,1.48,2.31,2.31,0,0,1-.37,1.77,2.33,2.33,0,0,1-1.55.94,5.06,5.06,0,0,0-1.42.42A5.2,5.2,0,0,0,265.79,409.48Zm-.15-.47h0Zm4.78-6.35Z"/><circle class="c" cx="283.72" cy="417.55" r="4.38"/><path d="M283.74,424.21a7.59,7.59,0,0,1-.95-.07,6.56,6.56,0,1,1,.95.07Zm0-8.78a2.09,2.09,0,0,0-1.27.43,2.12,2.12,0,0,0-.42,3,2.13,2.13,0,0,0,3,.42,2.12,2.12,0,0,0,.82-1.4,2.1,2.1,0,0,0-1.8-2.39Z"/><path class="a" d="M348,297.9a14.07,14.07,0,0,1,5.26.16,5.37,5.37,0,0,1,4,3.33l0,0c.08.24.16.48.22.72a5.45,5.45,0,0,1-.84,4.29,12.52,12.52,0,0,1-3.52,3.49,9.43,9.43,0,0,1-6.14,1.92,9,9,0,0,1-2.52-.48,1.4,1.4,0,0,1-.93-1.17,7.25,7.25,0,0,1,.06-2.11,6.78,6.78,0,0,1,.62-1.86,7.48,7.48,0,0,1-1.68-1,7.65,7.65,0,0,1-1.41-1.57,1.42,1.42,0,0,1-.05-1.5A8.56,8.56,0,0,1,348,297.9Z"/><path d="M347.4,313.94h-.5a11.41,11.41,0,0,1-3.1-.59,3.5,3.5,0,0,1-2.32-2.89,9.2,9.2,0,0,1,.08-2.73,5.05,5.05,0,0,1,.12-.56l-.45-.34a9.54,9.54,0,0,1-1.83-2,3.5,3.5,0,0,1-.11-3.7,10.6,10.6,0,0,1,8.52-5.26,16.41,16.41,0,0,1,5.92.19,7.46,7.46,0,0,1,5.47,4.65h0l0,.07a9.36,9.36,0,0,1,.28.93,7.51,7.51,0,0,1-1.13,5.93,14.38,14.38,0,0,1-4,4A11.62,11.62,0,0,1,347.4,313.94Zm-1.83-4.4a7.91,7.91,0,0,0,1.51.24,7.16,7.16,0,0,0,4.71-1.44l.2-.15a10.31,10.31,0,0,0,2.94-2.91,3.39,3.39,0,0,0,.54-2.64,4.58,4.58,0,0,0-.15-.49,3.35,3.35,0,0,0-2.47-2.06,11.94,11.94,0,0,0-4.49-.14l-.24,0a7.2,7.2,0,0,0-4,1.69,6.89,6.89,0,0,0-1,1.16,5.1,5.1,0,0,0,.76.78,4.41,4.41,0,0,0,1.17.71,2.07,2.07,0,0,1,1,2.86,4.84,4.84,0,0,0-.42,1.3A4.69,4.69,0,0,0,345.57,309.54Zm-2.71-7.06Z"/><path class="a" d="M354.85,312a14.51,14.51,0,0,1,1.77-5,5.41,5.41,0,0,1,4.4-2.73h0a6.37,6.37,0,0,1,.76,0,5.4,5.4,0,0,1,3.82,2.12,12.48,12.48,0,0,1,2.23,4.42,9.46,9.46,0,0,1-.07,6.44,8.71,8.71,0,0,1-1.24,2.24,1.42,1.42,0,0,1-1.4.53,7.74,7.74,0,0,1-2-.71,6.69,6.69,0,0,1-1.58-1.17,6.73,6.73,0,0,1-1.49,1.28,7,7,0,0,1-1.93.86,1.41,1.41,0,0,1-1.44-.41,8.58,8.58,0,0,1-1.88-7.92Z"/><path d="M357.79,322.42a3.5,3.5,0,0,1-2.61-1.16,10.88,10.88,0,0,1-1.73-2.65,11.12,11.12,0,0,1-.64-7.08,16.25,16.25,0,0,1,2-5.57,7.45,7.45,0,0,1,6.1-3.77,7.19,7.19,0,0,1,1.05,0,7.47,7.47,0,0,1,5.29,2.9,14.59,14.59,0,0,1,2.58,5.07,11.7,11.7,0,0,1-.1,7.81,10.84,10.84,0,0,1-1.53,2.76,3.51,3.51,0,0,1-3.46,1.32,9.59,9.59,0,0,1-2.57-.92l-.5-.29c-.15.11-.3.22-.46.32a9.58,9.58,0,0,1-2.49,1.11A3.4,3.4,0,0,1,357.79,322.42Zm-.18-4.13h0Zm-.76-5.78a7.16,7.16,0,0,0,.37,4.35,6.74,6.74,0,0,0,.79,1.3,5.24,5.24,0,0,0,1-.48,4.93,4.93,0,0,0,1-.89,2.07,2.07,0,0,1,1.5-.72,2.14,2.14,0,0,1,1.54.62,5.29,5.29,0,0,0,1.1.8,5.22,5.22,0,0,0,1,.4,7.27,7.27,0,0,0,.79-6.26,1.22,1.22,0,0,1-.09-.27,10.33,10.33,0,0,0-1.86-3.68,3.35,3.35,0,0,0-2.34-1.33,4.51,4.51,0,0,0-.52,0,3.38,3.38,0,0,0-2.72,1.71,12.1,12.1,0,0,0-1.52,4.23A1.55,1.55,0,0,1,356.85,312.51Z"/><path class="a" d="M370.33,309.82a14.35,14.35,0,0,1-4.17-3.22,5.42,5.42,0,0,1-1.24-5v0a6,6,0,0,1,.25-.71,5.42,5.42,0,0,1,3.19-3,12.38,12.38,0,0,1,4.9-.75,9.39,9.39,0,0,1,6.1,2.05,8.46,8.46,0,0,1,1.75,1.87,1.41,1.41,0,0,1,.07,1.49,7.41,7.41,0,0,1-1.29,1.68,6.94,6.94,0,0,1-1.6,1.14,6.89,6.89,0,0,1,.76,1.81,7.36,7.36,0,0,1,.22,2.1,1.4,1.4,0,0,1-.84,1.24,9,9,0,0,1-2.47.67A9.13,9.13,0,0,1,370.33,309.82Z"/><path d="M375.07,313.27a11.41,11.41,0,0,1-5.74-1.63,16.14,16.14,0,0,1-4.72-3.66,7.44,7.44,0,0,1-1.69-7,7.63,7.63,0,0,1,.34-1,7.5,7.5,0,0,1,4.4-4.14,14.63,14.63,0,0,1,5.61-.88,11.67,11.67,0,0,1,7.39,2.51,11.3,11.3,0,0,1,2.17,2.3,3.55,3.55,0,0,1,.18,3.7,9.72,9.72,0,0,1-1.67,2.16c-.14.14-.29.27-.43.39.06.17.11.35.16.53a9.62,9.62,0,0,1,.29,2.72,3.51,3.51,0,0,1-2.09,3.07,11.63,11.63,0,0,1-3,.83A11.22,11.22,0,0,1,375.07,313.27Zm-3.59-5.18a7.18,7.18,0,0,0,4.24,1,6.52,6.52,0,0,0,1.48-.36,4.67,4.67,0,0,0-.68-2.33,2.09,2.09,0,0,1,.85-2.93,4.8,4.8,0,0,0,1.1-.79,5,5,0,0,0,.68-.83,6.89,6.89,0,0,0-1.08-1.08,7.26,7.26,0,0,0-4.64-1.6h-.26a10.33,10.33,0,0,0-4.09.63,3.37,3.37,0,0,0-2,1.82,4,4,0,0,0-.17.49,3.39,3.39,0,0,0,.78,3.11,12.08,12.08,0,0,0,3.56,2.75Z"/><path class="a" d="M373.07,294.43a14.18,14.18,0,0,1-4.35,3,5.41,5.41,0,0,1-5.16-.37l0,0c-.21-.15-.42-.3-.61-.46a5.42,5.42,0,0,1-1.84-4,12.27,12.27,0,0,1,.8-4.89,9.25,9.25,0,0,1,6.15-6.26,1.43,1.43,0,0,1,1.44.4,7.34,7.34,0,0,1,1.2,1.75,6.63,6.63,0,0,1,.59,1.87,6.9,6.9,0,0,1,2-.16,7.24,7.24,0,0,1,2.06.44,1.39,1.39,0,0,1,.92,1.18,8.9,8.9,0,0,1-.12,2.56A9.18,9.18,0,0,1,373.07,294.43Z"/><path d="M366.44,300a7.29,7.29,0,0,1-4-1.21,8.53,8.53,0,0,1-.83-.62,7.52,7.52,0,0,1-2.58-5.47,14.35,14.35,0,0,1,.9-5.61,11.62,11.62,0,0,1,4.66-6.26,11.06,11.06,0,0,1,2.87-1.34,3.49,3.49,0,0,1,3.57,1,9.57,9.57,0,0,1,1.54,2.25c.08.18.16.35.23.53h.56a9.36,9.36,0,0,1,2.67.57,3.48,3.48,0,0,1,2.27,2.93,10.6,10.6,0,0,1-3.8,9.26,16.36,16.36,0,0,1-4.91,3.32A7.65,7.65,0,0,1,366.44,300Zm-1.76-4.69.07,0a3.31,3.31,0,0,0,3.13.18A12.25,12.25,0,0,0,371.6,293l.18-.16a7.2,7.2,0,0,0,2.26-3.73,6.37,6.37,0,0,0,.12-1.52,5,5,0,0,0-1.08-.19,5.07,5.07,0,0,0-1.35.11,2.07,2.07,0,0,1-2.52-1.7,5,5,0,0,0-.42-1.3,4.85,4.85,0,0,0-.57-.9,6.69,6.69,0,0,0-1.36.69,7.19,7.19,0,0,0-3,3.92,1.83,1.83,0,0,1-.08.25,10.39,10.39,0,0,0-.67,4.08,3.41,3.41,0,0,0,1.12,2.45Zm9.88-7.59h0Z"/><path class="a" d="M359.29,287.07a14.09,14.09,0,0,1,1.48,5.05,5.39,5.39,0,0,1-1.95,4.8l0,0a6.37,6.37,0,0,1-.62.44,5.44,5.44,0,0,1-4.34.53,12.42,12.42,0,0,1-4.4-2.27,9.44,9.44,0,0,1-3.73-5.25,9,9,0,0,1-.32-2.54,1.42,1.42,0,0,1,.83-1.25,7.51,7.51,0,0,1,2-.59,6.42,6.42,0,0,1,2,0,6.86,6.86,0,0,1,.45-1.91,7.17,7.17,0,0,1,1.06-1.83,1.4,1.4,0,0,1,1.4-.51,9,9,0,0,1,2.4.91A9.14,9.14,0,0,1,359.29,287.07Z"/><path d="M355.42,300.21a8,8,0,0,1-2.16-.3,14.5,14.5,0,0,1-5.05-2.59A11.58,11.58,0,0,1,343.7,291a11.09,11.09,0,0,1-.4-3.14,3.52,3.52,0,0,1,2-3.1A9.39,9.39,0,0,1,348,284l.57-.06c.06-.18.12-.35.19-.53a9.65,9.65,0,0,1,1.36-2.37,3.51,3.51,0,0,1,3.49-1.25,11.32,11.32,0,0,1,3,1.12,11.11,11.11,0,0,1,4.67,5.36,16.26,16.26,0,0,1,1.65,5.69,7.47,7.47,0,0,1-2.73,6.64c-.3.23-.57.42-.85.6A7.33,7.33,0,0,1,355.42,300.21Zm-7.95-11.88a6.43,6.43,0,0,0,.24,1.51,7.3,7.3,0,0,0,2.81,4l.21.15a10.38,10.38,0,0,0,3.68,1.89,3.36,3.36,0,0,0,2.67-.3c.14-.09.29-.19.43-.3a3.37,3.37,0,0,0,1.19-3,12.09,12.09,0,0,0-1.26-4.31c0-.08-.07-.15-.09-.22a7.17,7.17,0,0,0-2.85-3.3,6.77,6.77,0,0,0-1.41-.59,4.85,4.85,0,0,0-.82,2.29,2.05,2.05,0,0,1-.8,1.46,2.1,2.1,0,0,1-1.61.41,4.36,4.36,0,0,0-1.35,0A4.29,4.29,0,0,0,347.47,288.33Zm0-.45h0Zm5.88-4.32Z"/><circle class="c" cx="361.09" cy="300.18" r="4.02"/><path d="M361.1,306.28A6.1,6.1,0,0,1,359,294.45h0a6.1,6.1,0,1,1,4.21,11.45A5.94,5.94,0,0,1,361.1,306.28Zm-.68-7.93a1.94,1.94,0,1,0,2.5,1.15,1.94,1.94,0,0,0-2.5-1.15Z"/><path class="a" d="M508.7,228.05a12.74,12.74,0,0,1-3.61,3.07,4.86,4.86,0,0,1-4.66.17l0,0a5.73,5.73,0,0,1-.59-.35,4.89,4.89,0,0,1-2-3.37,11.3,11.3,0,0,1,.25-4.46,8.39,8.39,0,0,1,2.94-5,7.94,7.94,0,0,1,2-1.2,1.27,1.27,0,0,1,1.33.22,6.3,6.3,0,0,1,2,3.06,6.18,6.18,0,0,1,1.73-.33,6.38,6.38,0,0,1,1.89.2,1.25,1.25,0,0,1,.94,1,7.72,7.72,0,0,1-2.08,7Z"/><path d="M502.58,233.68a6.49,6.49,0,0,1-3-.73,8.27,8.27,0,0,1-.81-.48,6.75,6.75,0,0,1-2.83-4.65,12.9,12.9,0,0,1,.27-5.11,10.46,10.46,0,0,1,3.58-6.05,9.85,9.85,0,0,1,2.43-1.47,3.14,3.14,0,0,1,3.29.53,8.22,8.22,0,0,1,1.59,1.86c.1.15.18.3.26.45l.5,0a8.76,8.76,0,0,1,2.45.25,3.16,3.16,0,0,1,2.31,2.41,10.13,10.13,0,0,1,.17,2.84,10,10,0,0,1-2.69,5.81,14.76,14.76,0,0,1-4.07,3.45A6.89,6.89,0,0,1,502.58,233.68Zm.73-14.88a6.32,6.32,0,0,0-1.15.75,6.61,6.61,0,0,0-2.28,3.79,1.85,1.85,0,0,1,0,.23,9.11,9.11,0,0,0-.2,3.72,3,3,0,0,0,1.23,2.08,2.65,2.65,0,0,0,.4.24,3,3,0,0,0,2.88-.11,10.9,10.9,0,0,0,3.09-2.62.75.75,0,0,1,.15-.16,6.46,6.46,0,0,0,1.66-3.55,5.83,5.83,0,0,0,0-1.38,5.38,5.38,0,0,0-1-.06,4.4,4.4,0,0,0-1.2.23,1.85,1.85,0,0,1-1.49-.12,1.83,1.83,0,0,1-.93-1.17,4.33,4.33,0,0,0-.5-1.11A3.85,3.85,0,0,0,503.31,218.8Zm6.08,3.07Z"/><path class="a" d="M495.66,222.78a12.71,12.71,0,0,1,1.8,4.38,4.88,4.88,0,0,1-1.28,4.48l0,0a4.22,4.22,0,0,1-.51.45,4.85,4.85,0,0,1-3.83.89,11.23,11.23,0,0,1-4.17-1.61,8.44,8.44,0,0,1-3.83-4.34,7.68,7.68,0,0,1-.53-2.24,1.25,1.25,0,0,1,.62-1.2,6.71,6.71,0,0,1,1.76-.73,6.33,6.33,0,0,1,1.75-.17,6.22,6.22,0,0,1,1-3.49,1.24,1.24,0,0,1,1.21-.59,8.18,8.18,0,0,1,2.23.58A8.26,8.26,0,0,1,495.66,222.78Z"/><path d="M492.71,235a7.09,7.09,0,0,1-1.22-.1,13.16,13.16,0,0,1-4.78-1.83,10.5,10.5,0,0,1-4.64-5.28,10,10,0,0,1-.66-2.76,3.17,3.17,0,0,1,1.53-3,8.21,8.21,0,0,1,2.26-.94l.51-.11c0-.16.07-.33.12-.49a8.38,8.38,0,0,1,1-2.25,3.14,3.14,0,0,1,3-1.45,9.67,9.67,0,0,1,2.76.72,10,10,0,0,1,4.7,4.35,14.73,14.73,0,0,1,2,4.93,6.69,6.69,0,0,1-1.8,6.2,6.41,6.41,0,0,1-.71.62A6.63,6.63,0,0,1,492.71,235ZM485.19,225a5.85,5.85,0,0,0,.36,1.32,6.56,6.56,0,0,0,2.9,3.34l.21.12a9.33,9.33,0,0,0,3.47,1.34,3,3,0,0,0,2.36-.53,3.27,3.27,0,0,0,.35-.3,3,3,0,0,0,.79-2.78,11,11,0,0,0-1.54-3.75l-.11-.19a6.4,6.4,0,0,0-2.86-2.68,7.19,7.19,0,0,0-1.32-.39,4.5,4.5,0,0,0-.36.92,4.59,4.59,0,0,0-.16,1.22,1.87,1.87,0,0,1-2,1.9,4.36,4.36,0,0,0-1.21.12A4.57,4.57,0,0,0,485.19,225Zm4.81-4.83h0Z"/><path class="a" d="M486.61,233.55a12.89,12.89,0,0,1,4.73-.36,4.85,4.85,0,0,1,3.86,2.61v0a3.76,3.76,0,0,1,.27.62,4.92,4.92,0,0,1-.33,3.92,11.27,11.27,0,0,1-2.82,3.46,8.48,8.48,0,0,1-5.32,2.31,7.93,7.93,0,0,1-2.3-.19,1.26,1.26,0,0,1-.94-1,6.6,6.6,0,0,1-.15-1.9,6,6,0,0,1,.38-1.72,6.25,6.25,0,0,1-1.6-.75,6.92,6.92,0,0,1-1.42-1.27,1.29,1.29,0,0,1-.19-1.34,8.33,8.33,0,0,1,1.25-1.94A8.23,8.23,0,0,1,486.61,233.55Z"/><path d="M486.52,248a9.83,9.83,0,0,1-2.22-.26,3.16,3.16,0,0,1-2.36-2.36,8.47,8.47,0,0,1-.18-2.45c0-.17,0-.34.05-.51-.15-.08-.29-.17-.43-.26a8.67,8.67,0,0,1-1.83-1.64,3.17,3.17,0,0,1-.46-3.31,10.26,10.26,0,0,1,1.54-2.4,10,10,0,0,1,5.59-3.12,14.54,14.54,0,0,1,5.31-.39,6.67,6.67,0,0,1,5.34,3.63,7.42,7.42,0,0,1,.37.86,6.77,6.77,0,0,1-.44,5.43,13.09,13.09,0,0,1-3.22,4,10.45,10.45,0,0,1-6.45,2.79Zm-1-3.83a5.81,5.81,0,0,0,1.38.07,6.54,6.54,0,0,0,4.07-1.73l.17-.16a9.3,9.3,0,0,0,2.35-2.88,3,3,0,0,0,.23-2.41,3.38,3.38,0,0,0-.18-.44,3,3,0,0,0-2.4-1.6,10.7,10.7,0,0,0-4,.31l-.21,0a5.75,5.75,0,0,0-4.21,3,4.48,4.48,0,0,0,.75.63,4.87,4.87,0,0,0,1.11.52,1.86,1.86,0,0,1,1.14,1,1.84,1.84,0,0,1,.06,1.49,4.32,4.32,0,0,0-.25,1.2A5.19,5.19,0,0,0,485.52,244.2Zm-3.1-6.06Z"/><path class="a" d="M494.06,245.48a12.94,12.94,0,0,1,1.11-4.6,4.88,4.88,0,0,1,3.68-2.87h0l.68-.06a4.87,4.87,0,0,1,3.62,1.53,11.15,11.15,0,0,1,2.42,3.75,8.49,8.49,0,0,1,.56,5.77,8.12,8.12,0,0,1-.89,2.13,1.29,1.29,0,0,1-1.21.6,6.52,6.52,0,0,1-1.85-.45,6.08,6.08,0,0,1-1.52-.89,6.09,6.09,0,0,1-1.21,1.29,6.85,6.85,0,0,1-1.65,1,1.27,1.27,0,0,1-1.33-.24,8.52,8.52,0,0,1-1.46-1.78A8.26,8.26,0,0,1,494.06,245.48Z"/><path d="M497.36,254.59a3.13,3.13,0,0,1-2.11-.81,9.91,9.91,0,0,1-1.81-2.21,10.07,10.07,0,0,1-1.25-6.28,14.61,14.61,0,0,1,1.28-5.18,6.7,6.7,0,0,1,5.1-4,8.25,8.25,0,0,1,.94-.09,6.79,6.79,0,0,1,5,2.1,13,13,0,0,1,2.78,4.29,10.41,10.41,0,0,1,.66,7,9.6,9.6,0,0,1-1.1,2.63,3.16,3.16,0,0,1-3,1.51,8.62,8.62,0,0,1-2.39-.58l-.47-.21-.38.33a8.69,8.69,0,0,1-2.13,1.23A3.17,3.17,0,0,1,497.36,254.59Zm-.23-3.7Zm-1.23-5.1a6.4,6.4,0,0,0,.75,3.85,6.16,6.16,0,0,0,.83,1.09,4.15,4.15,0,0,0,.83-.52,4.2,4.2,0,0,0,.84-.9,1.88,1.88,0,0,1,2.72-.38,4,4,0,0,0,1.05.61,4.85,4.85,0,0,0,.94.27,6.47,6.47,0,0,0,.49-1.29,6.63,6.63,0,0,0-.39-4.41,1.36,1.36,0,0,1-.1-.21,9.31,9.31,0,0,0-2-3.12,3,3,0,0,0-2.22-1l-.47,0a3.06,3.06,0,0,0-2.27,1.79,10.78,10.78,0,0,0-.95,3.93A1.46,1.46,0,0,1,495.9,245.79Z"/><path class="a" d="M507.71,242.09a12.88,12.88,0,0,1-4-2.49,4.88,4.88,0,0,1-1.59-4.38v0c0-.23.09-.45.15-.67a4.88,4.88,0,0,1,2.57-3,11.26,11.26,0,0,1,4.32-1.14,8.41,8.41,0,0,1,5.65,1.25,8.07,8.07,0,0,1,1.75,1.51,1.24,1.24,0,0,1,.2,1.33,6.54,6.54,0,0,1-1,1.62,6.26,6.26,0,0,1-1.32,1.18,6,6,0,0,1,.85,1.54,6.86,6.86,0,0,1,.4,1.86,1.3,1.3,0,0,1-.63,1.2,7.77,7.77,0,0,1-7.33.19Z"/><path d="M511.33,244.78a10.46,10.46,0,0,1-4.33-1,14.59,14.59,0,0,1-4.58-2.83,6.68,6.68,0,0,1-2.18-6.08,6.86,6.86,0,0,1,.2-.91,6.77,6.77,0,0,1,3.55-4.13,12.88,12.88,0,0,1,4.94-1.32,10.43,10.43,0,0,1,6.86,1.53,10,10,0,0,1,2.15,1.86,3.16,3.16,0,0,1,.52,3.29,8.58,8.58,0,0,1-1.29,2.1c-.11.13-.23.26-.35.38.07.15.14.31.2.46a8.65,8.65,0,0,1,.52,2.41,3.16,3.16,0,0,1-1.58,2.94,9.94,9.94,0,0,1-2.65,1A9.17,9.17,0,0,1,511.33,244.78Zm-2.75-4.35a6.42,6.42,0,0,0,3.89.48,6.21,6.21,0,0,0,1.29-.46,4.9,4.9,0,0,0-.24-.95,4.51,4.51,0,0,0-.59-1.08,1.84,1.84,0,0,1-.35-1.45,1.87,1.87,0,0,1,.82-1.24,4.07,4.07,0,0,0,.91-.82,4,4,0,0,0,.54-.8,6.36,6.36,0,0,0-1.07-.87,6.52,6.52,0,0,0-4.31-1l-.24,0a9.39,9.39,0,0,0-3.59.95,3,3,0,0,0-1.6,1.82,3.28,3.28,0,0,0-.11.45,3,3,0,0,0,1,2.71,10.86,10.86,0,0,0,3.44,2.13A.78.78,0,0,1,508.58,240.43Zm5.22.4h0Z"/><circle class="c" cx="498.6" cy="234.42" r="3.62"/><path d="M498.59,239.91a5.5,5.5,0,1,1,4.87-2.94A5.46,5.46,0,0,1,498.59,239.91Zm0-7.24a1.75,1.75,0,1,0,.81.2A1.7,1.7,0,0,0,498.6,232.67Z"/><path class="a" d="M321.39,363.88a12.38,12.38,0,0,1,4.2-1.59,4.62,4.62,0,0,1,4.22,1.35l0,0a4.72,4.72,0,0,1,.41.5,4.61,4.61,0,0,1,.74,3.66,10.76,10.76,0,0,1-1.64,3.9,8,8,0,0,1-4.22,3.52,7.6,7.6,0,0,1-2.15.44,1.19,1.19,0,0,1-1.12-.62,6.49,6.49,0,0,1-.64-1.69,6,6,0,0,1-.12-1.67,5.5,5.5,0,0,1-1.65-.26,6,6,0,0,1-1.63-.78,1.2,1.2,0,0,1-.53-1.16,7.34,7.34,0,0,1,4.11-5.62Z"/><path d="M322.9,377.46a3,3,0,0,1-2.6-1.53,8.13,8.13,0,0,1-.82-2.18,4,4,0,0,1-.09-.48l-.46-.13a8,8,0,0,1-2.11-1,3,3,0,0,1-1.3-2.89,9.81,9.81,0,0,1,.76-2.59,9.49,9.49,0,0,1,4.26-4.34,13.7,13.7,0,0,1,4.74-1.77,6.34,6.34,0,0,1,5.83,1.88,8.29,8.29,0,0,1,.57.69,6.38,6.38,0,0,1,1,5.05,12.26,12.26,0,0,1-1.87,4.48,9.9,9.9,0,0,1-5.13,4.26,9.41,9.41,0,0,1-2.64.55Zm-3.79-8.08a4.11,4.11,0,0,0,2,.55,1.76,1.76,0,0,1,1.75,1.92A3.85,3.85,0,0,0,323,373a4.12,4.12,0,0,0,.29.88,6,6,0,0,0,1.27-.31,6.23,6.23,0,0,0,3.24-2.65l.12-.2a8.77,8.77,0,0,0,1.37-3.25,2.87,2.87,0,0,0-.43-2.26,3.17,3.17,0,0,0-.29-.35,2.85,2.85,0,0,0-2.61-.82,10.32,10.32,0,0,0-3.59,1.36,1.51,1.51,0,0,1-.18.09,6.08,6.08,0,0,0-2.63,2.65A5.62,5.62,0,0,0,319.11,369.38Zm-.32-.2h0Z"/><path class="a" d="M331.36,372.76a12.12,12.12,0,0,1-.22-4.49,4.62,4.62,0,0,1,2.58-3.59l0,0a4.49,4.49,0,0,1,.61-.23,4.66,4.66,0,0,1,3.7.42,10.68,10.68,0,0,1,3.21,2.78,8,8,0,0,1,2,5.1,7.93,7.93,0,0,1-.24,2.17,1.21,1.21,0,0,1-.94.87,6.12,6.12,0,0,1-1.8.09,5.73,5.73,0,0,1-1.63-.4,6.09,6.09,0,0,1-2,2.8,1.18,1.18,0,0,1-1.27.14,7.64,7.64,0,0,1-1.81-1.23A7.81,7.81,0,0,1,331.36,372.76Z"/><path d="M335.94,380.3a2.94,2.94,0,0,1-1.29-.3,9.19,9.19,0,0,1-2.23-1.53,9.41,9.41,0,0,1-2.81-5.38,13.84,13.84,0,0,1-.23-5.06,6.34,6.34,0,0,1,3.6-5,7.4,7.4,0,0,1,.82-.33,6.42,6.42,0,0,1,5.14.57,12.46,12.46,0,0,1,3.68,3.16,9.9,9.9,0,0,1,2.46,6.2,9,9,0,0,1-.3,2.68,3,3,0,0,1-2.3,2.17,8,8,0,0,1-2.33.11l-.49-.07c-.08.14-.17.27-.26.4a8.07,8.07,0,0,1-1.6,1.7A3,3,0,0,1,335.94,380.3Zm-.34-3.43Zm-2.48-4.32a6.07,6.07,0,0,0,1.7,3.31,5.87,5.87,0,0,0,1.06.77,4.5,4.5,0,0,0,.61-.7,3.93,3.93,0,0,0,.53-1,1.76,1.76,0,0,1,1-1.05,1.8,1.8,0,0,1,1.42,0,4.18,4.18,0,0,0,1.12.28,4.72,4.72,0,0,0,.92,0,6.4,6.4,0,0,0,.11-1.3,6.34,6.34,0,0,0-1.54-3.92l-.14-.16a8.87,8.87,0,0,0-2.67-2.31,2.85,2.85,0,0,0-2.28-.28,2.05,2.05,0,0,0-.41.16,2.89,2.89,0,0,0-1.6,2.23,10.29,10.29,0,0,0,.18,3.84A1.42,1.42,0,0,1,333.12,372.55Zm8.23,1.91Z"/><path class="a" d="M342.88,366a12.36,12.36,0,0,1-4.34-1.19,4.63,4.63,0,0,1-2.62-3.56v0a4.58,4.58,0,0,1,0-.64,4.64,4.64,0,0,1,1.55-3.4,10.89,10.89,0,0,1,3.63-2.19,8,8,0,0,1,5.48-.36,7.28,7.28,0,0,1,2,.9,1.19,1.19,0,0,1,.54,1.16,6.14,6.14,0,0,1-.47,1.74,5.54,5.54,0,0,1-.89,1.42,5.83,5.83,0,0,1,1.19,1.19,6.06,6.06,0,0,1,.86,1.58,1.21,1.21,0,0,1-.26,1.26,7.63,7.63,0,0,1-1.73,1.33A7.87,7.87,0,0,1,342.88,366Z"/><path d="M344.14,367.91a9.09,9.09,0,0,1-1.49-.12,13.9,13.9,0,0,1-4.88-1.35,6.35,6.35,0,0,1-3.61-4.95,7.25,7.25,0,0,1-.06-.89,6.45,6.45,0,0,1,2.13-4.71,12.34,12.34,0,0,1,4.15-2.52,9.92,9.92,0,0,1,6.65-.43,9.54,9.54,0,0,1,2.46,1.11,3,3,0,0,1,1.35,2.87,8.06,8.06,0,0,1-.62,2.25,3.55,3.55,0,0,1-.21.44,3.47,3.47,0,0,1,.3.37,7.88,7.88,0,0,1,1.12,2,3,3,0,0,1-.65,3.1,9,9,0,0,1-6.64,2.78Zm-.92-3.63a6,6,0,0,0,3.68-.59,6,6,0,0,0,1.06-.77,5.84,5.84,0,0,0-.48-.8,4.3,4.3,0,0,0-.83-.82,1.77,1.77,0,0,1-.7-1.23,1.75,1.75,0,0,1,.42-1.35,4.37,4.37,0,0,0,.61-1,4.1,4.1,0,0,0,.27-.88,6,6,0,0,0-1.2-.5,6.2,6.2,0,0,0-4.19.25l-.21.09a8.78,8.78,0,0,0-3,1.82,2.83,2.83,0,0,0-1,2.08c0,.15,0,.3,0,.45a2.88,2.88,0,0,0,1.63,2.2,10.34,10.34,0,0,0,3.71,1Zm4.87-1h0Z"/><path class="a" d="M340,353a12.2,12.2,0,0,1-2.47,3.76,4.59,4.59,0,0,1-4.2,1.39h0a5.79,5.79,0,0,1-.63-.17,4.62,4.62,0,0,1-2.75-2.52,10.6,10.6,0,0,1-1-4.13,8,8,0,0,1,1.34-5.32,7.46,7.46,0,0,1,1.48-1.62,1.22,1.22,0,0,1,1.27-.16,6.71,6.71,0,0,1,1.51,1,6.07,6.07,0,0,1,1.08,1.29,5.81,5.81,0,0,1,1.49-.77,6.21,6.21,0,0,1,1.77-.32,1.2,1.2,0,0,1,1.12.63,7.89,7.89,0,0,1,.73,2.06A7.78,7.78,0,0,1,340,353Z"/><path d="M334.21,360a6.93,6.93,0,0,1-1.19-.11c-.31-.07-.59-.14-.86-.23a6.46,6.46,0,0,1-3.82-3.47,12.6,12.6,0,0,1-1.12-4.73,10,10,0,0,1,1.65-6.46,9.81,9.81,0,0,1,1.82-2,3,3,0,0,1,3.14-.4,7.93,7.93,0,0,1,1.95,1.28l.36.34.44-.17a7.86,7.86,0,0,1,2.3-.43,3,3,0,0,1,2.74,1.57,9.39,9.39,0,0,1,.91,2.55,9.5,9.5,0,0,1-.89,6,13.78,13.78,0,0,1-2.79,4.22A6.41,6.41,0,0,1,334.21,360Zm-1.55-14a6.17,6.17,0,0,0-.85,1,6.28,6.28,0,0,0-1.06,4,1.94,1.94,0,0,1,0,.24,8.66,8.66,0,0,0,.81,3.43,2.84,2.84,0,0,0,1.68,1.57,2.75,2.75,0,0,0,3-.75,10.2,10.2,0,0,0,2.11-3.22l.09-.18a6.05,6.05,0,0,0,.57-3.68,5.6,5.6,0,0,0-.4-1.24,4.61,4.61,0,0,0-.91.2,4.18,4.18,0,0,0-1,.53,1.77,1.77,0,0,1-2.55-.52,4.08,4.08,0,0,0-.75-.89A4.58,4.58,0,0,0,332.66,346Zm6.36,1.18h0Z"/><path class="a" d="M326.75,351.66a12.08,12.08,0,0,1,2.81,3.51,4.6,4.6,0,0,1,0,4.42l0,0A4.57,4.57,0,0,1,326,362a10.57,10.57,0,0,1-4.22-.36,8,8,0,0,1-4.65-2.92,7.46,7.46,0,0,1-1.08-1.91,1.2,1.2,0,0,1,.24-1.25,6,6,0,0,1,1.41-1.13,5.81,5.81,0,0,1,1.56-.63,5.83,5.83,0,0,1-.27-1.66,6.3,6.3,0,0,1,.24-1.79,1.2,1.2,0,0,1,.94-.86,7.69,7.69,0,0,1,2.19-.06A7.81,7.81,0,0,1,326.75,351.66Z"/><path d="M324.73,363.85a12.07,12.07,0,0,1-3.39-.48,9.94,9.94,0,0,1-5.64-3.56,9.56,9.56,0,0,1-1.33-2.35,3,3,0,0,1,.59-3.11,8.17,8.17,0,0,1,1.82-1.46c.14-.08.28-.16.43-.23l0-.48a7.89,7.89,0,0,1,.31-2.31,3,3,0,0,1,2.34-2.13,9.9,9.9,0,0,1,2.71-.08,9.54,9.54,0,0,1,5.44,2.71,13.88,13.88,0,0,1,3.15,4,6.38,6.38,0,0,1,0,6.13,7.47,7.47,0,0,1-.48.75,6.36,6.36,0,0,1-4.49,2.55A11.6,11.6,0,0,1,324.73,363.85Zm-6.91-7.34a6.2,6.2,0,0,0,4.22,3.38l.22.05a9,9,0,0,0,3.51.3,2.88,2.88,0,0,0,2-1.12c.08-.11.16-.24.24-.37a2.89,2.89,0,0,0,0-2.74,10.42,10.42,0,0,0-2.4-3l-.15-.14a6.1,6.1,0,0,0-3.33-1.68,5.65,5.65,0,0,0-1.3,0,4.88,4.88,0,0,0-.09.93,4.46,4.46,0,0,0,.19,1.15,1.78,1.78,0,0,1-.15,1.41,1.85,1.85,0,0,1-1.14.85,4.13,4.13,0,0,0-1.07.43A4.89,4.89,0,0,0,317.82,356.51Zm-.15-.35Z"/><circle class="c" cx="332.45" cy="361.42" r="3.44"/><path d="M332.45,366.64h-.22a5.13,5.13,0,0,1-3.62-1.68,5.21,5.21,0,0,1,.3-7.36h0a5.21,5.21,0,1,1,3.54,9.05Zm0-6.88a1.67,1.67,0,0,0-1.12.44h0a1.66,1.66,0,0,0-.1,2.35,1.6,1.6,0,0,0,1.16.53,1.57,1.57,0,0,0,1.19-.43,1.66,1.66,0,0,0-1.13-2.89Z"/><path class="a" d="M187,456.23a13.05,13.05,0,0,1,3.11,3.64,4.93,4.93,0,0,1,.16,4.71l0,0a4.36,4.36,0,0,1-.35.59,4.91,4.91,0,0,1-3.4,2.05A11.31,11.31,0,0,1,182,467a8.5,8.5,0,0,1-5-3,8.61,8.61,0,0,1-1.21-2,1.3,1.3,0,0,1,.22-1.35,6.59,6.59,0,0,1,1.46-1.24,6,6,0,0,1,1.64-.72,6,6,0,0,1-.34-1.75,6.48,6.48,0,0,1,.2-1.91,1.28,1.28,0,0,1,1-.95,7.72,7.72,0,0,1,7.09,2.1Z"/><path d="M184.84,469.26a13,13,0,0,1-3.23-.4,10.62,10.62,0,0,1-6.1-3.62,9.89,9.89,0,0,1-1.5-2.45,3.2,3.2,0,0,1,.54-3.33,8.41,8.41,0,0,1,1.88-1.61c.15-.09.3-.18.46-.26,0-.17,0-.33,0-.51a8.58,8.58,0,0,1,.26-2.47,3.16,3.16,0,0,1,2.42-2.33,10.06,10.06,0,0,1,2.88-.17,10.18,10.18,0,0,1,5.87,2.71,14.85,14.85,0,0,1,3.47,4.11,6.78,6.78,0,0,1,.21,6.52,8.23,8.23,0,0,1-.49.81,6.81,6.81,0,0,1-4.69,2.86A12.62,12.62,0,0,1,184.84,469.26Zm-7.18-7.59a5.66,5.66,0,0,0,.76,1.16,6.61,6.61,0,0,0,3.83,2.3l.23.05a9.45,9.45,0,0,0,3.75.2,3.06,3.06,0,0,0,2.11-1.24,3.38,3.38,0,0,0,.24-.41,3,3,0,0,0-.11-2.91,11.29,11.29,0,0,0-2.65-3.12,1.07,1.07,0,0,1-.16-.14,5.92,5.92,0,0,0-5-1.65,4.79,4.79,0,0,0-.06,1,4.47,4.47,0,0,0,.23,1.22,1.9,1.9,0,0,1-.12,1.51,1.84,1.84,0,0,1-1.18.93,4.39,4.39,0,0,0-1.12.5A4.05,4.05,0,0,0,177.66,461.67Zm3.1-6.14Z"/><path class="a" d="M181.68,469.4a12.8,12.8,0,0,1,4.43-1.82,4.91,4.91,0,0,1,4.52,1.29l0,0a4.5,4.5,0,0,1,.46.52,5,5,0,0,1,.9,3.86,11.4,11.4,0,0,1-1.63,4.21,8.51,8.51,0,0,1-4.38,3.87,8.17,8.17,0,0,1-2.27.54,1.28,1.28,0,0,1-1.2-.62,6.81,6.81,0,0,1-.74-1.78,6.19,6.19,0,0,1-.18-1.78,6.22,6.22,0,0,1-1.77-.22,6.31,6.31,0,0,1-1.75-.78,1.28,1.28,0,0,1-.6-1.22,8,8,0,0,1,.59-2.25A8.28,8.28,0,0,1,181.68,469.4Z"/><path d="M183.63,483.79a3.18,3.18,0,0,1-2.72-1.54A8.55,8.55,0,0,1,180,480c0-.18-.08-.35-.11-.52l-.5-.11a8.71,8.71,0,0,1-2.27-1,3.19,3.19,0,0,1-1.47-3,10.26,10.26,0,0,1,.73-2.78,10.16,10.16,0,0,1,4.39-4.75,14.74,14.74,0,0,1,5-2,6.78,6.78,0,0,1,6.27,1.82,6.56,6.56,0,0,1,.62.71,6.85,6.85,0,0,1,1.27,5.35,13,13,0,0,1-1.85,4.82,10.57,10.57,0,0,1-5.32,4.69,9.86,9.86,0,0,1-2.8.66Zm-2-8a1.9,1.9,0,0,1,1.89,2A4.47,4.47,0,0,0,184,480a6.17,6.17,0,0,0,1.34-.36,6.68,6.68,0,0,0,3.37-2.94l.11-.21a9.34,9.34,0,0,0,1.36-3.5,3.08,3.08,0,0,0-.54-2.39,2.51,2.51,0,0,0-.31-.35,3,3,0,0,0-2.8-.8,11.19,11.19,0,0,0-3.78,1.56l-.19.11a6.42,6.42,0,0,0-2.71,2.9,5.76,5.76,0,0,0-.39,1.32,4.32,4.32,0,0,0,.92.37,5,5,0,0,0,1.23.16Zm-2.52-.71Z"/><path class="a" d="M192.56,478.53a12.91,12.91,0,0,1-.37-4.77,4.92,4.92,0,0,1,2.64-3.9l0,0,.63-.27a5,5,0,0,1,4,.34,11.35,11.35,0,0,1,3.49,2.85,8.55,8.55,0,0,1,2.34,5.36,8.38,8.38,0,0,1-.2,2.32,1.27,1.27,0,0,1-1,1,6.78,6.78,0,0,1-1.92.15,6.17,6.17,0,0,1-1.74-.38,6.35,6.35,0,0,1-.76,1.61,6.52,6.52,0,0,1-1.28,1.43,1.26,1.26,0,0,1-1.35.19,8.16,8.16,0,0,1-2-1.26A8.34,8.34,0,0,1,192.56,478.53Z"/><path d="M197.58,486.4a3.21,3.21,0,0,1-1.29-.27,10.24,10.24,0,0,1-2.42-1.56,10.08,10.08,0,0,1-3.16-5.64,14.85,14.85,0,0,1-.4-5.37,6.76,6.76,0,0,1,3.67-5.39,8.88,8.88,0,0,1,.87-.38,6.84,6.84,0,0,1,5.48.45,13.24,13.24,0,0,1,4,3.25,10.57,10.57,0,0,1,2.81,6.51,10.29,10.29,0,0,1-.23,2.87,3.21,3.21,0,0,1-2.39,2.37,8.65,8.65,0,0,1-2.47.19l-.52-.05c-.09.14-.17.29-.27.43a8.32,8.32,0,0,1-1.65,1.85A3.17,3.17,0,0,1,197.58,486.4Zm-3.15-8.15a6.48,6.48,0,0,0,1.92,3.47,5.74,5.74,0,0,0,1.14.78,4.54,4.54,0,0,0,.63-.76,4.41,4.41,0,0,0,.53-1.12,1.9,1.9,0,0,1,1-1.15,1.93,1.93,0,0,1,1.51-.07,4,4,0,0,0,1.2.26,4,4,0,0,0,1,0,6.39,6.39,0,0,0,.07-1.38,6.64,6.64,0,0,0-1.75-4.11c0-.06-.12-.12-.16-.18a9.26,9.26,0,0,0-2.92-2.37,3,3,0,0,0-2.43-.23,4.17,4.17,0,0,0-.44.19,3.06,3.06,0,0,0-1.62,2.42,11.36,11.36,0,0,0,.31,4.08A1.6,1.6,0,0,1,194.43,478.25Zm8.81,1.77Z"/><path class="a" d="M204.61,471a13,13,0,0,1-4.65-1.13,4.9,4.9,0,0,1-2.9-3.71v0q0-.34-.06-.69a4.94,4.94,0,0,1,1.55-3.66,11.38,11.38,0,0,1,3.78-2.44,8.55,8.55,0,0,1,5.82-.56,7.51,7.51,0,0,1,2.15.9,1.26,1.26,0,0,1,.61,1.21,6.24,6.24,0,0,1-.45,1.87,6,6,0,0,1-.89,1.54,6.45,6.45,0,0,1,1.3,1.22,6.9,6.9,0,0,1,1,1.66,1.28,1.28,0,0,1-.23,1.34,7.81,7.81,0,0,1-7,2.48Z"/><path d="M205.7,473a9.73,9.73,0,0,1-1.28-.08,14.82,14.82,0,0,1-5.23-1.28,6.78,6.78,0,0,1-4-5.16v0h0c0-.3-.07-.6-.08-.9a6.86,6.86,0,0,1,2.12-5.07,13.16,13.16,0,0,1,4.33-2.82,10.61,10.61,0,0,1,7.06-.66,9.91,9.91,0,0,1,2.65,1.1,3.18,3.18,0,0,1,1.53,3,8.76,8.76,0,0,1-.58,2.41c-.07.16-.14.32-.22.48.12.12.23.25.34.38a8.71,8.71,0,0,1,1.24,2.15,3.16,3.16,0,0,1-.59,3.32,10.35,10.35,0,0,1-2.22,1.82A9.94,9.94,0,0,1,205.7,473Zm-.78-3.83a6.45,6.45,0,0,0,3.89-.75,6.29,6.29,0,0,0,1.1-.84,4.78,4.78,0,0,0-.53-.84,4.3,4.3,0,0,0-.91-.85,1.92,1.92,0,0,1-.79-1.29,1.9,1.9,0,0,1,.41-1.45,4.24,4.24,0,0,0,.62-1.07,4.64,4.64,0,0,0,.26-.94,6.33,6.33,0,0,0-1.29-.49,6.63,6.63,0,0,0-4.46.39l-.21.1a9.37,9.37,0,0,0-3.16,2,3.06,3.06,0,0,0-1,2.24c0,.16,0,.31,0,.47v0a3,3,0,0,0,1.8,2.26,11,11,0,0,0,4,1Zm5.15-1.24Z"/><path class="a" d="M201.17,457.22a13,13,0,0,1-2.5,4.08,4.93,4.93,0,0,1-4.43,1.61h0c-.23,0-.45-.09-.67-.15a4.9,4.9,0,0,1-3-2.6,11.23,11.23,0,0,1-1.16-4.36,8.52,8.52,0,0,1,1.27-5.71,7.65,7.65,0,0,1,1.52-1.76,1.26,1.26,0,0,1,1.34-.21,6.63,6.63,0,0,1,1.64,1,6.39,6.39,0,0,1,1.19,1.33,6.32,6.32,0,0,1,3.44-1.26,1.27,1.27,0,0,1,1.2.63,8.68,8.68,0,0,1,.85,2.17A8.3,8.3,0,0,1,201.17,457.22Z"/><path d="M195,464.86a6.56,6.56,0,0,1-1.08-.09,7.35,7.35,0,0,1-.92-.21,6.8,6.8,0,0,1-4.17-3.58,13.1,13.1,0,0,1-1.34-5,10.56,10.56,0,0,1,1.55-6.93,10,10,0,0,1,1.87-2.18,3.2,3.2,0,0,1,3.33-.52,8.68,8.68,0,0,1,2.11,1.3,4.4,4.4,0,0,1,.39.35l.47-.2a8.79,8.79,0,0,1,2.43-.52,3.16,3.16,0,0,1,3,1.59,10.51,10.51,0,0,1,1,2.68,10.1,10.1,0,0,1-.77,6.42,14.73,14.73,0,0,1-2.83,4.57A6.82,6.82,0,0,1,195,464.86ZM193.11,450a6.06,6.06,0,0,0-.87,1.08,6.6,6.6,0,0,0-1,4.35l0,.24a9.37,9.37,0,0,0,1,3.63,3,3,0,0,0,1.83,1.61,4,4,0,0,0,.47.11,3,3,0,0,0,2.73-1,10.81,10.81,0,0,0,2.15-3.48.88.88,0,0,1,.09-.2,6.49,6.49,0,0,0,.48-3.93,6,6,0,0,0-.46-1.31,4.52,4.52,0,0,0-1,.25,4.45,4.45,0,0,0-1.09.6,1.89,1.89,0,0,1-2.72-.48,4.4,4.4,0,0,0-.83-.92A3.81,3.81,0,0,0,193.11,450Zm6.8,1.05Z"/><circle class="c" cx="193.43" cy="466.43" r="3.66"/><path d="M193.42,472A5.55,5.55,0,1,1,196,461.51,5.54,5.54,0,0,1,193.42,472Zm0-7.31a1.57,1.57,0,0,0-.52.08,1.77,1.77,0,0,0-1.17,2.21,1.77,1.77,0,1,0,1.69-2.29Z"/><path class="a" d="M129.75,501.26a15.1,15.1,0,0,1-.66,5.53,5.71,5.71,0,0,1-3.89,3.86h0a7.25,7.25,0,0,1-.78.17,5.74,5.74,0,0,1-4.44-1.28,13.16,13.16,0,0,1-3.35-4,9.85,9.85,0,0,1-.71-9.26,1.5,1.5,0,0,1,1.32-.87,7.65,7.65,0,0,1,2.23.26,7.14,7.14,0,0,1,1.9.83,7.51,7.51,0,0,1,1.23-1.68,7.79,7.79,0,0,1,1.79-1.34,1.5,1.5,0,0,1,1.58.09,9.09,9.09,0,0,1,3.82,7.72Z"/><path d="M123.6,513.08a8.11,8.11,0,0,1-5-1.82,15.36,15.36,0,0,1-3.85-4.62,12.37,12.37,0,0,1-1.74-8.07,11.84,11.84,0,0,1,.92-3.22,3.7,3.7,0,0,1,3.26-2.17,10,10,0,0,1,2.86.34,5.58,5.58,0,0,1,.58.18l.4-.44a10.3,10.3,0,0,1,2.31-1.74,3.72,3.72,0,0,1,3.92.23,11.56,11.56,0,0,1,2.41,2.32,11.74,11.74,0,0,1,2.33,7.15,17.19,17.19,0,0,1-.76,6.22,7.86,7.86,0,0,1-5.4,5.33,8.79,8.79,0,0,1-1.08.23A6.91,6.91,0,0,1,123.6,513.08Zm-5.89-15.5a7.22,7.22,0,0,0-.39,1.57,7.71,7.71,0,0,0,1.07,5.09,1.88,1.88,0,0,1,.14.24,11.21,11.21,0,0,0,2.79,3.36,3.53,3.53,0,0,0,2.73.81,3.45,3.45,0,0,0,.54-.11,3.55,3.55,0,0,0,2.4-2.4,12.8,12.8,0,0,0,.56-4.73v-.25a7.5,7.5,0,0,0-1.4-4.39,7.74,7.74,0,0,0-1.13-1.16,5.86,5.86,0,0,0-.9.73,5.24,5.24,0,0,0-.85,1.16,2.19,2.19,0,0,1-1.38,1.09,2.22,2.22,0,0,1-1.74-.26,4.76,4.76,0,0,0-1.31-.57A5.23,5.23,0,0,0,117.71,497.58Zm.18-.44h0Zm7.52-1.76Z"/><path class="a" d="M114.29,507.13a15,15,0,0,1,5.06,2.34,5.7,5.7,0,0,1,2.47,4.89v0a5.16,5.16,0,0,1-.09.79,5.7,5.7,0,0,1-2.59,3.83,13.22,13.22,0,0,1-4.87,1.94,10,10,0,0,1-6.77-.68,9.71,9.71,0,0,1-2.26-1.51,1.5,1.5,0,0,1-.42-1.53,8.06,8.06,0,0,1,.94-2,7.19,7.19,0,0,1,1.37-1.55,8,8,0,0,1-1.21-1.69,7.6,7.6,0,0,1-.72-2.12,1.47,1.47,0,0,1,.57-1.47,9.57,9.57,0,0,1,2.39-1.28A9.71,9.71,0,0,1,114.29,507.13Z"/><path d="M111.85,523.46a12.25,12.25,0,0,1-5.3-1.19,11.5,11.5,0,0,1-2.78-1.87,3.72,3.72,0,0,1-1.06-3.77,10.11,10.11,0,0,1,1.21-2.62c.11-.17.23-.34.35-.5-.1-.17-.2-.34-.29-.52a9.93,9.93,0,0,1-.94-2.73,3.68,3.68,0,0,1,1.42-3.65A11.25,11.25,0,0,1,114.94,505a17,17,0,0,1,5.68,2.64,7.88,7.88,0,0,1,3.4,6.79s0,.08,0,.1a7.62,7.62,0,0,1-.11,1,7.94,7.94,0,0,1-3.56,5.31,15.15,15.15,0,0,1-5.58,2.23A11.48,11.48,0,0,1,111.85,523.46Zm-4.77-6a6.93,6.93,0,0,0,1.36.86,7.64,7.64,0,0,0,5.18.55l.27-.06a11,11,0,0,0,4.06-1.61,3.54,3.54,0,0,0,1.61-2.35,4.87,4.87,0,0,0,.06-.55,3.55,3.55,0,0,0-1.54-3,13,13,0,0,0-4.32-2l-.24-.07a6.87,6.87,0,0,0-6.06.69,5,5,0,0,0,.42,1.08,4.9,4.9,0,0,0,.84,1.17,2.2,2.2,0,0,1-.18,3.22,4.83,4.83,0,0,0-1,1.08A5.31,5.31,0,0,0,107.08,517.44Zm.28-8Z"/><path class="a" d="M115.1,523.64a15.09,15.09,0,0,1,3.78-4.08,5.69,5.69,0,0,1,5.42-.84h0c.25.1.49.21.73.33a5.76,5.76,0,0,1,2.84,3.64,13.28,13.28,0,0,1,.33,5.24,9.83,9.83,0,0,1-4.87,7.91,1.5,1.5,0,0,1-1.58-.07,7.87,7.87,0,0,1-1.64-1.52,7.26,7.26,0,0,1-1.06-1.79,7.19,7.19,0,0,1-2,.63,7.3,7.3,0,0,1-2.23,0,1.47,1.47,0,0,1-1.23-1,10,10,0,0,1-.48-2.67A9.71,9.71,0,0,1,115.1,523.64Z"/><path d="M122.65,538.24a3.72,3.72,0,0,1-2.1-.65,10.17,10.17,0,0,1-2.12-2c-.12-.16-.25-.32-.36-.48l-.58.12a10,10,0,0,1-2.89,0,3.67,3.67,0,0,1-3-2.48,11.53,11.53,0,0,1-.59-3.3,11.71,11.71,0,0,1,2.32-7.15,17.23,17.23,0,0,1,4.27-4.59,7.88,7.88,0,0,1,7.5-1.13l.11,0a8.56,8.56,0,0,1,.9.41,7.93,7.93,0,0,1,4,5,15.19,15.19,0,0,1,.4,6,12.29,12.29,0,0,1-3.33,7.56,11.46,11.46,0,0,1-2.63,2.06A3.68,3.68,0,0,1,122.65,538.24Zm-3.56-8a2.21,2.21,0,0,1,2,1.39,5,5,0,0,0,.73,1.23,4.72,4.72,0,0,0,.81.8,7.63,7.63,0,0,0,1.23-1,7.79,7.79,0,0,0,2.13-4.73c0-.1,0-.2,0-.3a10.75,10.75,0,0,0-.28-4.36,3.56,3.56,0,0,0-1.73-2.26,3.28,3.28,0,0,0-.5-.22,3.54,3.54,0,0,0-3.35.53,12.74,12.74,0,0,0-3.23,3.49l-.15.21a7.54,7.54,0,0,0-1.45,4.38,7.38,7.38,0,0,0,.24,1.59,5.51,5.51,0,0,0,1.15-.06,5.42,5.42,0,0,0,1.38-.44A2.13,2.13,0,0,1,119.09,530.27Zm-3.94.68h0Z"/><path class="a" d="M131.05,528a15,15,0,0,1-2.71-4.86,5.71,5.71,0,0,1,.87-5.41l0,0c.17-.21.35-.41.53-.6a5.71,5.71,0,0,1,4.35-1.57,13,13,0,0,1,5.08,1.3,9.92,9.92,0,0,1,5.08,4.52,9.5,9.5,0,0,1,.94,2.55,1.51,1.51,0,0,1-.56,1.48,7.62,7.62,0,0,1-1.95,1.1,7.1,7.1,0,0,1-2,.45,7.35,7.35,0,0,1-.67,4.21,1.47,1.47,0,0,1-1.33.86,9.49,9.49,0,0,1-2.68-.37A9.73,9.73,0,0,1,131.05,528Z"/><path d="M138.68,534.18a11.59,11.59,0,0,1-3.3-.46,11.81,11.81,0,0,1-6.09-4.42,17.27,17.27,0,0,1-3-5.48,7.88,7.88,0,0,1,1.24-7.48,10.53,10.53,0,0,1,.74-.83,8,8,0,0,1,6-2.2,15.43,15.43,0,0,1,5.83,1.47,12.33,12.33,0,0,1,6.16,5.51,11.82,11.82,0,0,1,1.15,3.14A3.69,3.69,0,0,1,146,527.1a9.48,9.48,0,0,1-2.51,1.41c-.19.08-.39.14-.58.2,0,.19,0,.39-.06.59a9.93,9.93,0,0,1-.85,2.76,3.7,3.7,0,0,1-3.3,2.12Zm-.66-4h0Zm-5.13-3.41a6.8,6.8,0,0,0,5.31,3,5.63,5.63,0,0,0,.3-1.12,5.34,5.34,0,0,0,0-1.44,2.19,2.19,0,0,1,.48-1.69,2.17,2.17,0,0,1,1.56-.81,5.07,5.07,0,0,0,1.4-.31,6,6,0,0,0,1-.52,7,7,0,0,0-.6-1.5,7.78,7.78,0,0,0-3.86-3.49l-.25-.1A10.94,10.94,0,0,0,134,517.7a3.52,3.52,0,0,0-2.68.95,3.6,3.6,0,0,0-.37.41,3.54,3.54,0,0,0-.53,3.35,12.89,12.89,0,0,0,2.32,4.15Z"/><path class="a" d="M140.11,514.15a15.14,15.14,0,0,1-5.47,1.08,5.74,5.74,0,0,1-4.87-2.51l0,0a7,7,0,0,1-.4-.7,5.73,5.73,0,0,1-.16-4.61A13.17,13.17,0,0,1,132,503a9.93,9.93,0,0,1,5.88-3.44,9.46,9.46,0,0,1,2.71-.1,1.49,1.49,0,0,1,1.23,1,7.51,7.51,0,0,1,.44,2.19,7.25,7.25,0,0,1-.2,2.07,7.17,7.17,0,0,1,2,.65,7.58,7.58,0,0,1,1.82,1.29,1.48,1.48,0,0,1,.41,1.53,9,9,0,0,1-6.16,6Z"/><path d="M134.56,517.43a7.87,7.87,0,0,1-6.63-3.5l0-.06a9.42,9.42,0,0,1-.51-.89,7.93,7.93,0,0,1-.24-6.39,15.46,15.46,0,0,1,3.2-5.09,12.29,12.29,0,0,1,7.14-4.15,11.66,11.66,0,0,1,3.34-.13,3.71,3.71,0,0,1,3.07,2.44,10,10,0,0,1,.57,2.83c0,.2,0,.4,0,.6l.54.25a9.76,9.76,0,0,1,2.36,1.66,3.7,3.7,0,0,1,1,3.79,11.33,11.33,0,0,1-7.55,7.44,17.17,17.17,0,0,1-6.15,1.2Zm5-15.87a8.05,8.05,0,0,0-1.3.11,7.8,7.8,0,0,0-4.51,2.59,1.81,1.81,0,0,1-.18.21,10.92,10.92,0,0,0-2.33,3.7,3.5,3.5,0,0,0,.07,2.84q.12.24.27.48a3.54,3.54,0,0,0,3,1.54h.05a12.82,12.82,0,0,0,4.67-.92,1.13,1.13,0,0,1,.24-.08,7.66,7.66,0,0,0,3.75-2.7,7.77,7.77,0,0,0,.75-1.43,5.89,5.89,0,0,0-1-.62,5,5,0,0,0-1.37-.46,2.2,2.2,0,0,1-1.75-2.7,4.71,4.71,0,0,0,.13-1.43,5,5,0,0,0-.17-1.13Zm4.79,6.64Z"/><circle class="c" cx="126.13" cy="514.81" r="4.26"/><path d="M126.12,521.27a6.42,6.42,0,1,1,1.69-.22A6.54,6.54,0,0,1,126.12,521.27Zm0-8.52a2.06,2.06,0,0,0-2,2.6,2,2,0,0,0,1,1.25,2.07,2.07,0,0,0,1.56.2,2,2,0,0,0,1.45-2.52A2.06,2.06,0,0,0,126.12,512.75Z"/><path class="a" d="M427.41,264.48a12.05,12.05,0,0,1-4.27,1.18,4.53,4.53,0,0,1-4-1.7l0,0a6.18,6.18,0,0,1-.36-.53,4.57,4.57,0,0,1-.39-3.65,10.35,10.35,0,0,1,2-3.67,7.86,7.86,0,0,1,4.45-3.07,7.63,7.63,0,0,1,2.14-.24,1.19,1.19,0,0,1,1,.71,6.38,6.38,0,0,1,.48,1.72,5.93,5.93,0,0,1,0,1.64,6.19,6.19,0,0,1,1.6.41,5.61,5.61,0,0,1,1.52.91,1.17,1.17,0,0,1,.42,1.18,7.74,7.74,0,0,1-.8,2A7.65,7.65,0,0,1,427.41,264.48Z"/><path d="M422.71,267.43a6.22,6.22,0,0,1-5-2.4l-.06-.08c-.13-.18-.29-.41-.43-.65a6.3,6.3,0,0,1-.57-5,12.24,12.24,0,0,1,2.24-4.22,9.81,9.81,0,0,1,5.41-3.71A9.31,9.31,0,0,1,427,251a3,3,0,0,1,2.58,1.74,8,8,0,0,1,.61,2.21c0,.16,0,.32,0,.48l.44.16a7.93,7.93,0,0,1,2,1.18,3,3,0,0,1,1,2.94,9.51,9.51,0,0,1-1,2.48,9.38,9.38,0,0,1-4.56,3.86,13.81,13.81,0,0,1-4.8,1.31A5.83,5.83,0,0,1,422.71,267.43Zm3.78-12.9a5.48,5.48,0,0,0-1.27.18A6.19,6.19,0,0,0,421.8,257a1,1,0,0,1-.13.17,8.56,8.56,0,0,0-1.63,3.07,2.81,2.81,0,0,0,.22,2.25,3.9,3.9,0,0,0,.25.36,2.81,2.81,0,0,0,2.48,1,10.15,10.15,0,0,0,3.64-1l.19-.08a6,6,0,0,0,2.81-2.36,5.6,5.6,0,0,0,.51-1.17,4.56,4.56,0,0,0-.81-.44,4,4,0,0,0-1.11-.28,1.73,1.73,0,0,1-1.21-.69,1.75,1.75,0,0,1-.33-1.35,3.92,3.92,0,0,0,0-1.14A3.52,3.52,0,0,0,426.49,254.53Zm.38,0Z"/><path class="a" d="M418.45,254.88a12,12,0,0,1-.2,4.42,4.55,4.55,0,0,1-2.85,3.29h0c-.21.07-.41.13-.62.18a4.56,4.56,0,0,1-3.59-.76,10.42,10.42,0,0,1-2.89-3,7.89,7.89,0,0,1-1.54-5.18,7.42,7.42,0,0,1,.44-2.11,1.17,1.17,0,0,1,1-.77,6.11,6.11,0,0,1,1.78.08,5.63,5.63,0,0,1,1.56.54,6.43,6.43,0,0,1,.87-1.4,6.26,6.26,0,0,1,1.34-1.16,1.19,1.19,0,0,1,1.26,0,7.22,7.22,0,0,1,3.48,5.89Z"/><path d="M413.83,264.63a6.47,6.47,0,0,1-3.66-1.17,12,12,0,0,1-3.32-3.43,9.71,9.71,0,0,1-1.86-6.29,9,9,0,0,1,.54-2.61,3,3,0,0,1,2.45-1.91,8.3,8.3,0,0,1,2.29.1l.47.11.29-.37a8,8,0,0,1,1.73-1.51,2.93,2.93,0,0,1,3.11-.05,8.9,8.9,0,0,1,4.32,7.22,13.74,13.74,0,0,1-.24,5,6.26,6.26,0,0,1-4,4.54,8.41,8.41,0,0,1-.84.24A5.79,5.79,0,0,1,413.83,264.63Zm-5.13-11.95a5.46,5.46,0,0,0-.22,1.26,6.12,6.12,0,0,0,1.14,4,.75.75,0,0,1,.13.18,8.69,8.69,0,0,0,2.41,2.5,2.8,2.8,0,0,0,2.21.48,3.31,3.31,0,0,0,.42-.12,2.83,2.83,0,0,0,1.76-2,10.24,10.24,0,0,0,.17-3.77,1.49,1.49,0,0,1,0-.21,6,6,0,0,0-1.37-3.39,5.22,5.22,0,0,0-1-.85,4.46,4.46,0,0,0-.67.63,4.51,4.51,0,0,0-.61,1,1.74,1.74,0,0,1-2.41.83,4.29,4.29,0,0,0-1.08-.37A3.86,3.86,0,0,0,408.7,252.68Zm.11-.36Zm5.86-1.84h0Z"/><path class="a" d="M406.55,260.44a12.1,12.1,0,0,1,4.14,1.55,4.55,4.55,0,0,1,2.24,3.73v0c0,.22,0,.43,0,.64a4.54,4.54,0,0,1-1.82,3.18,10.24,10.24,0,0,1-3.75,1.82,7.88,7.88,0,0,1-5.41-.13,7.63,7.63,0,0,1-1.87-1.07,1.18,1.18,0,0,1-.42-1.18,6.27,6.27,0,0,1,.62-1.67,5.88,5.88,0,0,1,1-1.31,5.81,5.81,0,0,1-1.06-1.27,6.35,6.35,0,0,1-.7-1.63,1.2,1.2,0,0,1,.37-1.2,7.14,7.14,0,0,1,6.68-1.49Z"/><path d="M404.83,273.54a9.65,9.65,0,0,1-3.53-.66,9.29,9.29,0,0,1-2.31-1.31,3,3,0,0,1-1.06-2.93,8.14,8.14,0,0,1,.8-2.15l.25-.41c-.09-.13-.18-.26-.26-.39a7.85,7.85,0,0,1-.9-2.11,2.94,2.94,0,0,1,.91-3,9.25,9.25,0,0,1,2.25-1.42,9.38,9.38,0,0,1,6-.45,13.89,13.89,0,0,1,4.65,1.77,6.25,6.25,0,0,1,3.06,6.05,6.32,6.32,0,0,1-2.51,4.42,12.19,12.19,0,0,1-4.28,2.09A9.37,9.37,0,0,1,404.83,273.54ZM401.44,269a5.82,5.82,0,0,0,1.13.6,6.12,6.12,0,0,0,4.13.14l.21-.07a8.47,8.47,0,0,0,3.12-1.52,2.83,2.83,0,0,0,1.15-1.95c0-.14,0-.28,0-.43v-.08a2.81,2.81,0,0,0-1.4-2.23,10.17,10.17,0,0,0-3.54-1.33l-.2,0a6,6,0,0,0-3.65.25,5.88,5.88,0,0,0-1.1.65,3.94,3.94,0,0,0,.39.83,4.21,4.21,0,0,0,.74.88A1.74,1.74,0,0,1,403,266a1.8,1.8,0,0,1-.54,1.29,4.21,4.21,0,0,0-1,1.74Zm-.25-6.35Z"/><path class="a" d="M408.16,273.47a12,12,0,0,1,2.75-3.46,4.56,4.56,0,0,1,4.24-1h0a3.89,3.89,0,0,1,.6.22,4.52,4.52,0,0,1,2.47,2.72,10.59,10.59,0,0,1,.57,4.13,7.91,7.91,0,0,1-1.8,5.09,7.32,7.32,0,0,1-1.6,1.45,1.16,1.16,0,0,1-1.25,0,5.88,5.88,0,0,1-1.39-1.11,5.5,5.5,0,0,1-.94-1.35,6.2,6.2,0,0,1-1.53.62,6.31,6.31,0,0,1-1.77.15,1.16,1.16,0,0,1-1-.72,7.53,7.53,0,0,1-.54-2.08A7.75,7.75,0,0,1,408.16,273.47Z"/><path d="M414.77,284.6a2.91,2.91,0,0,1-1.48-.4,7.78,7.78,0,0,1-1.79-1.42c-.11-.12-.22-.24-.32-.37l-.45.13a8,8,0,0,1-2.29.21,3,3,0,0,1-2.55-1.79,9.9,9.9,0,0,1-.66-2.58,9.46,9.46,0,0,1,1.42-5.8,13.51,13.51,0,0,1,3.12-3.88,6.23,6.23,0,0,1,5.88-1.34,7.1,7.1,0,0,1,.82.29,6.32,6.32,0,0,1,3.42,3.75,12.21,12.21,0,0,1,.68,4.73,9.84,9.84,0,0,1-2.2,6.18,9.31,9.31,0,0,1-2,1.79A2.9,2.9,0,0,1,414.77,284.6Zm-2.93-6.12a1.81,1.81,0,0,1,.51.08,1.78,1.78,0,0,1,1.06.9,3.7,3.7,0,0,0,.65.94,4.46,4.46,0,0,0,.69.59,6.11,6.11,0,0,0,2.32-4.78V276a8.67,8.67,0,0,0-.47-3.44,2.87,2.87,0,0,0-1.5-1.69l-.42-.15a2.83,2.83,0,0,0-2.62.62,10.28,10.28,0,0,0-2.36,3l-.1.17a5.93,5.93,0,0,0-.89,3.55,5.5,5.5,0,0,0,.28,1.25,4,4,0,0,0,.91-.11,4.29,4.29,0,0,0,1.06-.43A1.71,1.71,0,0,1,411.84,278.48Zm-3.21.78Z"/><path class="a" d="M421.05,276a12,12,0,0,1-2.44-3.69,4.56,4.56,0,0,1,.38-4.34v0a5.15,5.15,0,0,1,.4-.5,4.56,4.56,0,0,1,3.34-1.51,10.48,10.48,0,0,1,4.11.74,7.9,7.9,0,0,1,4.29,3.28,7.6,7.6,0,0,1,.88,2,1.16,1.16,0,0,1-.35,1.2,5.85,5.85,0,0,1-1.48,1,5.58,5.58,0,0,1-1.58.48,5.86,5.86,0,0,1,.11,1.64,6.21,6.21,0,0,1-.39,1.74,1.16,1.16,0,0,1-1,.75,7.55,7.55,0,0,1-2.15-.13A7.71,7.71,0,0,1,421.05,276Z"/><path d="M426.72,280.46a8.8,8.8,0,0,1-7-3.34A13.83,13.83,0,0,1,417,273a6.27,6.27,0,0,1,.54-6c.19-.27.36-.49.54-.7a6.34,6.34,0,0,1,4.63-2.09,12.1,12.1,0,0,1,4.7.82,9.81,9.81,0,0,1,5.2,4,9.44,9.44,0,0,1,1.09,2.42,3,3,0,0,1-.86,3,7.85,7.85,0,0,1-1.91,1.27l-.45.19c0,.15,0,.31,0,.46a8.39,8.39,0,0,1-.51,2.24,3,3,0,0,1-2.49,1.88Zm0-3.15Zm-4.27-2.4a6,6,0,0,0,3.11,1.94,5.27,5.27,0,0,0,1.27.12,4.08,4.08,0,0,0,.17-.9,3.91,3.91,0,0,0-.08-1.14,1.75,1.75,0,0,1,1.47-2.1,4.09,4.09,0,0,0,1.09-.33,4.41,4.41,0,0,0,.77-.47,5.11,5.11,0,0,0-.56-1.15,6.2,6.2,0,0,0-3.25-2.54l-.22-.07a8.55,8.55,0,0,0-3.42-.61,2.82,2.82,0,0,0-2.07.91,2.24,2.24,0,0,0-.27.34,2.84,2.84,0,0,0-.22,2.69,10.17,10.17,0,0,0,2.08,3.15A1,1,0,0,1,422.43,274.91Z"/><circle class="c" cx="416.35" cy="265.89" r="3.38"/><path d="M416.36,271a5.13,5.13,0,1,1,3.1-1h0A5.07,5.07,0,0,1,416.36,271Zm0-6.76a1.68,1.68,0,0,0-1,.33,1.64,1.64,0,1,0,1-.33Z"/><path class="a" d="M220.54,410.42a16.26,16.26,0,0,1,1.69,5.83,6.19,6.19,0,0,1-2.25,5.52l0,0c-.24.18-.48.35-.72.5a6.27,6.27,0,0,1-5,.6,14.14,14.14,0,0,1-5.08-2.63,10.78,10.78,0,0,1-4.28-6,10.08,10.08,0,0,1-.36-2.93,1.63,1.63,0,0,1,.95-1.44,8.41,8.41,0,0,1,2.34-.68,8.11,8.11,0,0,1,2.26,0,8,8,0,0,1,.52-2.2,8.42,8.42,0,0,1,1.22-2.1,1.62,1.62,0,0,1,1.62-.59,10.73,10.73,0,0,1,2.76,1.05A10.58,10.58,0,0,1,220.54,410.42Z"/><path d="M216.07,425.56a9,9,0,0,1-2.5-.36,16.6,16.6,0,0,1-5.82-3,13.4,13.4,0,0,1-5.18-7.35,12.86,12.86,0,0,1-.45-3.61,4,4,0,0,1,2.35-3.56,10.64,10.64,0,0,1,3-.88l.65-.07c.07-.2.14-.4.22-.61a11,11,0,0,1,1.57-2.72,4.05,4.05,0,0,1,4-1.44,12.26,12.26,0,0,1,8.79,7.48,19,19,0,0,1,1.88,6.56,8.59,8.59,0,0,1-3.15,7.64,12,12,0,0,1-1,.69A8.46,8.46,0,0,1,216.07,425.56Zm-9.15-13.7a7.7,7.7,0,0,0,.27,1.73,8.4,8.4,0,0,0,3.22,4.64,2.4,2.4,0,0,1,.26.18,11.77,11.77,0,0,0,4.23,2.19,3.88,3.88,0,0,0,3.08-.34,5.48,5.48,0,0,0,.49-.35,3.84,3.84,0,0,0,1.38-3.42,14,14,0,0,0-1.44-5,2.72,2.72,0,0,1-.11-.25,8.26,8.26,0,0,0-3.28-3.81,7.8,7.8,0,0,0-1.62-.68,6.27,6.27,0,0,0-.58,1.12,5.45,5.45,0,0,0-.37,1.52,2.38,2.38,0,0,1-2.77,2.15,5.79,5.79,0,0,0-1.56,0A5.89,5.89,0,0,0,206.92,411.86Z"/><path class="a" d="M207.55,422.88a16.35,16.35,0,0,1,6.06.19,6.24,6.24,0,0,1,4.56,3.85v0a6.68,6.68,0,0,1,.25.84,6.22,6.22,0,0,1-1,4.93,14.38,14.38,0,0,1-4.07,4,10.83,10.83,0,0,1-7.07,2.2,10.21,10.21,0,0,1-2.9-.56,1.61,1.61,0,0,1-1.07-1.35,8.49,8.49,0,0,1,.07-2.44,7.7,7.7,0,0,1,.72-2.14,7.84,7.84,0,0,1-1.93-1.17,8.36,8.36,0,0,1-1.63-1.82,1.62,1.62,0,0,1-.05-1.72,10.27,10.27,0,0,1,1.85-2.3A10.54,10.54,0,0,1,207.55,422.88Z"/><path d="M206.82,441.35h-.6a12.61,12.61,0,0,1-3.58-.69,4,4,0,0,1-2.66-3.33,10.62,10.62,0,0,1,.1-3.14c0-.22.08-.44.14-.65a6.41,6.41,0,0,1-.52-.39,10.9,10.9,0,0,1-2.1-2.34,4,4,0,0,1-.13-4.26,13.39,13.39,0,0,1,2.29-2.85,12.86,12.86,0,0,1,7.54-3.2,18.68,18.68,0,0,1,6.82.24,8.56,8.56,0,0,1,6.29,5.36,10.52,10.52,0,0,1,.35,1.15,8.63,8.63,0,0,1-1.31,6.83,16.59,16.59,0,0,1-4.64,4.62A13.43,13.43,0,0,1,206.82,441.35Zm-2.12-5.07a7.9,7.9,0,0,0,1.74.28,8.5,8.5,0,0,0,5.42-1.64l.24-.18a11.85,11.85,0,0,0,3.38-3.35,3.82,3.82,0,0,0,.63-3,5.58,5.58,0,0,0-.18-.58,3.85,3.85,0,0,0-2.83-2.37,13.88,13.88,0,0,0-5.17-.17l-.28,0a8.16,8.16,0,0,0-4.63,1.94,7.74,7.74,0,0,0-1.15,1.33,5.78,5.78,0,0,0,.88.9,5.49,5.49,0,0,0,1.34.82,2.39,2.39,0,0,1,1.31,1.39,2.36,2.36,0,0,1-.13,1.91,5.36,5.36,0,0,0-.48,1.48A5.07,5.07,0,0,0,204.7,436.28Zm-.49-.15Zm-2.63-8Z"/><path class="a" d="M215.38,439.08a16.5,16.5,0,0,1,2.05-5.7,6.23,6.23,0,0,1,5.07-3.14h.05a6.1,6.1,0,0,1,5.27,2.46,14.44,14.44,0,0,1,2.56,5.1,10.82,10.82,0,0,1-.09,7.41,10.43,10.43,0,0,1-1.43,2.59,1.65,1.65,0,0,1-1.62.6,8.49,8.49,0,0,1-2.29-.82,8,8,0,0,1-1.82-1.35,7.51,7.51,0,0,1-1.71,1.47,8.18,8.18,0,0,1-2.23,1,1.6,1.6,0,0,1-1.65-.48,9.79,9.79,0,0,1-2.16-9.13Z"/><path d="M218.76,451.15a4,4,0,0,1-3-1.35A12.3,12.3,0,0,1,213,438.58a18.79,18.79,0,0,1,2.34-6.41,8.58,8.58,0,0,1,7-4.33,11.49,11.49,0,0,1,1.2,0,8.6,8.6,0,0,1,6.1,3.36,16.72,16.72,0,0,1,3,5.84,13.37,13.37,0,0,1-.13,9,12.75,12.75,0,0,1-1.76,3.19,4,4,0,0,1-4,1.51,11.27,11.27,0,0,1-3-1.06c-.2-.11-.39-.22-.57-.34l-.53.37a11.26,11.26,0,0,1-2.88,1.28A4,4,0,0,1,218.76,451.15Zm-.22-4.77h0Zm-.86-6.65a8.24,8.24,0,0,0,.42,5,7.7,7.7,0,0,0,.91,1.5,5.63,5.63,0,0,0,1.13-.55,5.88,5.88,0,0,0,1.19-1,2.4,2.4,0,0,1,1.73-.82,2.43,2.43,0,0,1,1.78.71,5.4,5.4,0,0,0,1.26.92,5.8,5.8,0,0,0,1.14.47,7.5,7.5,0,0,0,.8-1.57,8.39,8.39,0,0,0,.12-5.66c0-.09-.07-.2-.1-.29a12,12,0,0,0-2.13-4.25,3.88,3.88,0,0,0-2.7-1.53,5.9,5.9,0,0,0-.6,0,3.87,3.87,0,0,0-3.13,1.95,14.13,14.13,0,0,0-1.76,4.88A1.31,1.31,0,0,1,217.68,439.73Z"/><path class="a" d="M233.21,436.65a16.36,16.36,0,0,1-4.79-3.72,6.22,6.22,0,0,1-1.42-5.79v0a7.39,7.39,0,0,1,.29-.83,6.18,6.18,0,0,1,3.68-3.42,14.2,14.2,0,0,1,5.65-.86,10.86,10.86,0,0,1,7,2.37,10.52,10.52,0,0,1,2,2.16,1.62,1.62,0,0,1,.08,1.72,8.3,8.3,0,0,1-1.5,1.93,7.84,7.84,0,0,1-1.83,1.31,8.41,8.41,0,0,1,.87,2.09,9,9,0,0,1,.25,2.42,1.62,1.62,0,0,1-1,1.42,9.89,9.89,0,0,1-2.85.77A10.54,10.54,0,0,1,233.21,436.65Z"/><path d="M238.66,440.64a13,13,0,0,1-6.65-1.92,18.72,18.72,0,0,1-5.38-4.2,8.58,8.58,0,0,1-1.94-8,10.85,10.85,0,0,1,.4-1.14,8.67,8.67,0,0,1,5.07-4.76,16.76,16.76,0,0,1,6.47-1,13.43,13.43,0,0,1,8.51,2.9,12.84,12.84,0,0,1,2.49,2.66,4,4,0,0,1,.19,4.26,11,11,0,0,1-1.92,2.49l-.49.44c.06.2.13.41.18.62a11,11,0,0,1,.33,3.13,4,4,0,0,1-2.41,3.52,12.78,12.78,0,0,1-3.52.95A10.09,10.09,0,0,1,238.66,440.64Zm2.47-4.75h0Zm-6.59-1.24a8.22,8.22,0,0,0,4.88,1.16,7.89,7.89,0,0,0,1.71-.41,5.7,5.7,0,0,0-.17-1.24,5.85,5.85,0,0,0-.61-1.45,2.4,2.4,0,0,1,1-3.37,5.17,5.17,0,0,0,1.27-.91,5.62,5.62,0,0,0,.79-.95,8.14,8.14,0,0,0-1.24-1.25,8.35,8.35,0,0,0-5.35-1.85h-.3a11.92,11.92,0,0,0-4.7.72,3.82,3.82,0,0,0-2.29,2.08,5.49,5.49,0,0,0-.2.57,3.86,3.86,0,0,0,.9,3.58,13.58,13.58,0,0,0,4.09,3.18Zm9.16-6.76Z"/><path class="a" d="M236.4,418.93a16.34,16.34,0,0,1-5,3.41,6.23,6.23,0,0,1-5.95-.44l0,0a7,7,0,0,1-.69-.53,6.23,6.23,0,0,1-2.12-4.56,14.33,14.33,0,0,1,.93-5.64,10.81,10.81,0,0,1,4.43-5.94,10.41,10.41,0,0,1,2.67-1.25,1.64,1.64,0,0,1,1.66.46,8.48,8.48,0,0,1,1.37,2,7.85,7.85,0,0,1,.68,2.15,8.22,8.22,0,0,1,2.25-.18,8.57,8.57,0,0,1,2.38.51,1.62,1.62,0,0,1,1.06,1.36,10.27,10.27,0,0,1-.15,3A10.52,10.52,0,0,1,236.4,418.93Z"/><path d="M228.77,425.3a8.46,8.46,0,0,1-4.66-1.4l-.11-.08c-.25-.17-.56-.4-.85-.64a8.67,8.67,0,0,1-3-6.31,16.58,16.58,0,0,1,1-6.46,13.37,13.37,0,0,1,5.39-7.19,12.62,12.62,0,0,1,3.3-1.55A4,4,0,0,1,234,402.8a10.88,10.88,0,0,1,1.77,2.6c.09.2.18.4.26.6l.65,0a10.8,10.8,0,0,1,3.08.66,4,4,0,0,1,2.61,3.37,13,13,0,0,1-.19,3.65,12.88,12.88,0,0,1-4.21,7,18.86,18.86,0,0,1-5.66,3.81A8.91,8.91,0,0,1,228.77,425.3Zm2.06-18.88a8.25,8.25,0,0,0-1.57.79,8.45,8.45,0,0,0-3.42,4.52,1.31,1.31,0,0,1-.09.28,12,12,0,0,0-.77,4.7,3.88,3.88,0,0,0,1.28,2.82,4.29,4.29,0,0,0,.48.36,3.84,3.84,0,0,0,3.68.26,14,14,0,0,0,4.29-2.91l.21-.18a8.2,8.2,0,0,0,2.6-4.29,7.9,7.9,0,0,0,.15-1.76,6.7,6.7,0,0,0-1.24-.21,5.47,5.47,0,0,0-1.57.13,2.4,2.4,0,0,1-2.89-2,5.91,5.91,0,0,0-.48-1.5A5.51,5.51,0,0,0,230.83,406.42Zm7.3,4.75h0Z"/><circle class="c" cx="222.67" cy="425.55" r="4.64"/><path d="M222.69,432.58a8.27,8.27,0,0,1-.86-.05,7,7,0,0,1-4.69-2.64,7,7,0,0,1,1.2-9.87,7,7,0,0,1,9.87,1.19h0a7,7,0,0,1-5.52,11.37Zm0-9.27a2.24,2.24,0,0,0-.26,4.46,2.19,2.19,0,0,0,1.65-.46,2.24,2.24,0,0,0,.38-3.14h0A2.22,2.22,0,0,0,222.67,423.31Z"/><path class="a" d="M3.72,508.29c-2.33,1.91-1.3,9,2.88,12.84a12,12,0,0,0,8.51,3A11.75,11.75,0,0,0,24.69,518c3.14-5.89.36-13.95-2.77-14.64-2.6-.57-3.79,4.34-9.18,5.44C8.06,509.77,5.58,506.77,3.72,508.29Z"/><path d="M14.56,526.67A14.28,14.28,0,0,1,4.9,523,15.88,15.88,0,0,1,0,511.48a6.59,6.59,0,0,1,2.13-5.12h0c1.93-1.59,4.07-.93,5.63-.45a8.47,8.47,0,0,0,4.47.46,8.93,8.93,0,0,0,4.65-2.95c1.35-1.36,3-3.05,5.57-2.49,1.88.42,3.54,2,4.68,4.49a16.07,16.07,0,0,1-.24,13.77,14.21,14.21,0,0,1-11.64,7.46ZM5.21,510.38c-.6,1.21-.08,6,3.09,8.92A9.58,9.58,0,0,0,15,521.66a9.34,9.34,0,0,0,7.53-4.82,11.13,11.13,0,0,0,.4-8.61,5.53,5.53,0,0,0-1.37-2.31,12.19,12.19,0,0,0-1.08,1,13.69,13.69,0,0,1-7.2,4.32,13.21,13.21,0,0,1-6.94-.57C6,510.58,5.5,510.44,5.21,510.38Z"/><path class="d" d="M24.32,530.26a8,8,0,0,1-1.22,1.45,7.57,7.57,0,0,1-7,1.89,8.12,8.12,0,0,1-1.8-.63c-4.71-2.28-6.12-8.35-6.61-12.8a9.17,9.17,0,0,1,4.45.82c1.68.81,3.29,2.31,5.21,1.79s2.58-2.69,3.59-4.17a7.35,7.35,0,0,1,2.8-2.37C25.49,520.31,27.15,526.05,24.32,530.26Z"/><path d="M17.84,536.3a10.19,10.19,0,0,1-2.32-.26,10.71,10.71,0,0,1-2.32-.82c-4.47-2.17-7.16-7.14-8-14.77a2.49,2.49,0,0,1,2.36-2.77,11.6,11.6,0,0,1,5.64,1.05c.53.25,1,.53,1.46.8.79.47,1.59,1,2,.84s.89-.94,1.33-1.74a15.48,15.48,0,0,1,.86-1.43A9.93,9.93,0,0,1,22.6,514,2.51,2.51,0,0,1,26,515.25c3,6.85,3.08,12.37.36,16.4h0a10.37,10.37,0,0,1-1.59,1.88A10.1,10.1,0,0,1,17.84,536.3Zm-7.16-13.22c.86,4,2.44,6.54,4.7,7.64a5.4,5.4,0,0,0,1.26.44,5.09,5.09,0,0,0,4.74-1.27,5.52,5.52,0,0,0,.87-1h0c1.31-2,1.45-4.74.41-8.3l-.27.49c-.82,1.47-1.93,3.48-4.4,4.15s-4.43-.51-5.87-1.36c-.36-.21-.71-.43-1.07-.6Zm13.64,7.18h0Z"/><path class="a" d="M351.62,409.84c2.3,1,7.14-2.45,8.42-7a10,10,0,0,0-1-7.47,9.83,9.83,0,0,0-8.21-4.76c-5.57-.08-10.48,5.05-9.8,7.64.57,2.15,4.66,1.15,7.54,4.73C351.06,406.05,349.78,409,351.62,409.84Z"/><path d="M352.53,412.51a4.64,4.64,0,0,1-1.9-.38h0c-2.12-.92-2.49-3-2.73-4.31a6.49,6.49,0,0,0-1.28-3.3,6.93,6.93,0,0,0-3.76-2.19c-1.53-.49-3.63-1.15-4.25-3.48-.44-1.67.14-3.64,1.62-5.54a13.87,13.87,0,0,1,10.47-5.23h.17a12.26,12.26,0,0,1,10.32,6,12.4,12.4,0,0,1,1.26,9.42,13.74,13.74,0,0,1-6.87,8.26A7.07,7.07,0,0,1,352.53,412.51Zm-8.95-15.21c.24.09.54.18.79.26a11.78,11.78,0,0,1,6.15,3.82,11.32,11.32,0,0,1,2.3,5.56c0,.16.06.34.1.51a8.39,8.39,0,0,0,4.72-5.32,7.54,7.54,0,0,0-.75-5.51,7.33,7.33,0,0,0-6.09-3.54A8.53,8.53,0,0,0,343.58,397.3Z"/><path class="d" d="M360.05,386.18a6.7,6.7,0,0,1,1.54.36,6.29,6.29,0,0,1,4.08,4.47,6.76,6.76,0,0,1,.22,1.58c.1,4.36-3.86,7.72-7,9.78a7.54,7.54,0,0,1-1.09-3.61c0-1.56.46-3.32-.66-4.55s-3-.88-4.46-1.07a6.19,6.19,0,0,1-2.83-1.17C352.23,389.11,355.85,385.69,360.05,386.18Z"/><path d="M358.92,404.87a2.22,2.22,0,0,1-.57-.07,2.48,2.48,0,0,1-1.59-1.18,10,10,0,0,1-1.43-4.78c0-.47,0-.95,0-1.42a5.15,5.15,0,0,0,0-1.52,4.54,4.54,0,0,0-1.51-.19c-.45,0-.93,0-1.43-.09a8.79,8.79,0,0,1-4-1.63,2.52,2.52,0,0,1-1-1.7,2.48,2.48,0,0,1,.55-1.91c4.05-4.93,8.22-7.17,12.4-6.68h0a9.73,9.73,0,0,1,2.09.48,8.87,8.87,0,0,1,5.66,6.23,9.59,9.59,0,0,1,.29,2.11c.1,4.3-2.62,8.31-8.09,11.93A2.44,2.44,0,0,1,358.92,404.87Zm-4.38-14.13a6.07,6.07,0,0,1,4.48,1.79,6.61,6.61,0,0,1,1.34,5.18c0,.14,0,.29,0,.44,2.07-1.88,3.09-3.72,3.05-5.5a4.82,4.82,0,0,0-.14-1,3.81,3.81,0,0,0-2.49-2.74,4,4,0,0,0-1-.23Q357.33,388.39,354.54,390.74Z"/><path class="a" d="M278.27,307.59c1.41.31,4.11-3.61,4.53-7.8a9.05,9.05,0,0,0-1.25-6.29c-2.33-3.4-6.54-3.58-7.22-3.61-4.63-.19-9.1,2.95-8.83,4.65.17,1,2.06.74,3.53,2.73s.49,3.31,1.82,4.51,3.11,0,4.91,1.31C277.83,304.57,277.13,307.34,278.27,307.59Z"/><path d="M278.43,310.11a3.44,3.44,0,0,1-.69-.08h0c-2-.44-2.51-2.4-2.73-3.34s-.35-1.31-.7-1.56-.38-.17-1.11-.18a5.55,5.55,0,0,1-4-1.32,5.28,5.28,0,0,1-1.68-3.48,2.58,2.58,0,0,0-.48-1.39,3,3,0,0,0-1.41-1,3.85,3.85,0,0,1-2.58-2.84,4.3,4.3,0,0,1,1.27-3.58,13.75,13.75,0,0,1,10.14-4c1.84.07,6.44.68,9.18,4.69a11.57,11.57,0,0,1,1.67,8c-.37,3.67-2.31,7.64-4.52,9.24A3.94,3.94,0,0,1,278.43,310.11ZM273,300h.19a6.36,6.36,0,0,1,4,1.11,5.93,5.93,0,0,1,2,2.33,11.19,11.19,0,0,0,1.15-3.85,6.66,6.66,0,0,0-.82-4.63c-1.46-2.14-4.17-2.47-5.26-2.52a9.48,9.48,0,0,0-5.25,1.49,7.28,7.28,0,0,1,2.06,1.9,7.47,7.47,0,0,1,1.41,3.63,5,5,0,0,0,.1.56Z"/><path class="d" d="M281.93,285.68a5.58,5.58,0,0,1,1.32.21,5.38,5.38,0,0,1,3.7,3.59,5.59,5.59,0,0,1,.27,1.32c.32,3.7-2.87,6.76-5.39,8.67a6.43,6.43,0,0,1-1.12-3c-.12-1.32.21-2.85-.8-3.83s-2.58-.59-3.84-.67a5.14,5.14,0,0,1-2.47-.85C275.44,288.58,278.34,285.48,281.93,285.68Z"/><path d="M281.83,302a2,2,0,0,1-.42,0,2.47,2.47,0,0,1-1.66-1.07,9,9,0,0,1-1.53-4.15c0-.42,0-.84-.05-1.25a7.71,7.71,0,0,0,0-1,7.83,7.83,0,0,0-1,0c-.43,0-.85,0-1.26,0a8,8,0,0,1-3.64-1.23,2.5,2.5,0,0,1-.69-3.58c3.26-4.5,6.82-6.68,10.49-6.48h0a8.12,8.12,0,0,1,1.89.31,7.94,7.94,0,0,1,5.39,5.23,8.64,8.64,0,0,1,.37,1.86c.33,3.78-1.82,7.44-6.38,10.88A2.47,2.47,0,0,1,281.83,302Zm-3.36-12.48a5,5,0,0,1,3.18,1.36,5.45,5.45,0,0,1,1.52,4,5.5,5.5,0,0,0,1.56-3.82,4,4,0,0,0-.15-.77,2.9,2.9,0,0,0-2-1.95,3.31,3.31,0,0,0-.78-.13h0A5,5,0,0,0,278.47,289.49Z"/><circle class="e" cx="700.13" cy="0.5" r="0.5"/></svg>