<svg xmlns="http://www.w3.org/2000/svg" viewBox="0 0 687.45 174.65"><defs><style>.a{fill:#ffbde1;}.b{fill:#423224;}.c{fill:#ffd32a;}.d{fill:#004f27;}.e{fill:#fff;}</style></defs><path d="M62.82,102.83a2.5,2.5,0,0,1-2.5-2.42,47,47,0,0,0-7.83-24.9A43,43,0,0,0,24.67,57.43a2.5,2.5,0,0,1,.87-4.92,48,48,0,0,1,31.09,20.2,52,52,0,0,1,8.69,27.55,2.49,2.49,0,0,1-2.42,2.57Z"/><path d="M55.21,77.3a2.52,2.52,0,0,1-2.33-1.59c-1.53-3.93-4.54-14.18.66-24.56a27.92,27.92,0,0,1,7.92-9.59,2.5,2.5,0,1,1,3.07,3.94A23.14,23.14,0,0,0,58,53.39c-4.42,8.83-1.48,17.92-.47,20.5a2.51,2.51,0,0,1-1.42,3.24A2.62,2.62,0,0,1,55.21,77.3Z"/><path d="M241.45,105.54a2.5,2.5,0,0,1-2.25-1.41c-3.4-7-13.64-31.93-2.42-58.2a66.77,66.77,0,0,1,20.73-26.5,2.5,2.5,0,0,1,3.05,4,61.79,61.79,0,0,0-19.18,24.5c-10.39,24.33-.85,47.52,2.32,54.05a2.52,2.52,0,0,1-2.25,3.6Z"/><path d="M261.62,157.75h-.23a2.51,2.51,0,0,1-2.27-2.71,60.81,60.81,0,0,0-19.36-50.16,2.49,2.49,0,1,1,3.38-3.67,65.73,65.73,0,0,1,21,54.27A2.5,2.5,0,0,1,261.62,157.75Z"/><path class="a" d="M215.8,92.26a12.07,12.07,0,0,0-10.11,4.43,8.74,8.74,0,0,0-14.32,5.84,10,10,0,0,0-4.12-1.18,11,11,0,0,0-2.15.1,12.09,12.09,0,0,0-22.43,5.48,12.54,12.54,0,0,0,.23,3.14,11.57,11.57,0,0,0-13.28,6.2,7.08,7.08,0,0,0-12.06-1.57,8.34,8.34,0,1,0,2.28,10.67,7.09,7.09,0,0,0,8.8-1.84,11.66,11.66,0,0,0,22.05,2.77,11.25,11.25,0,1,0,20.56-6.1,10,10,0,0,0,5.37-8.24c0-.18,0-.35,0-.52a9.06,9.06,0,0,0,2.91.7,8.67,8.67,0,0,0,5.29-1.4,12.08,12.08,0,1,0,11-18.48ZM173,119.64a11.15,11.15,0,0,0-1.25,2,11.28,11.28,0,0,0-.17-2.33A11.16,11.16,0,0,0,173,119.64Z"/><path d="M182,140.26l-.87,0a13.72,13.72,0,0,1-11.7-8.11,14.19,14.19,0,0,1-22-4.47,9.56,9.56,0,0,1-4.87,1,10.13,10.13,0,0,1-1.75-.27,10.84,10.84,0,1,1-3.6-16.82,9.59,9.59,0,0,1,12.35.38,14.12,14.12,0,0,1,10.57-4.73h.06c0-.15,0-.3,0-.44a14.58,14.58,0,0,1,26.16-7.94,9.33,9.33,0,0,1,1.06,0,11.89,11.89,0,0,1,2.23.34,11.25,11.25,0,0,1,15.71-5.75A14.62,14.62,0,0,1,216,89.76h0a14.63,14.63,0,0,1,13.67,15.47,14.61,14.61,0,0,1-15.47,13.66,14.63,14.63,0,0,1-10.08-5,11.13,11.13,0,0,1-4.69.71c-.22,0-.45,0-.66-.06a12.4,12.4,0,0,1-4.18,6.45,13.41,13.41,0,0,1,1.12,6.33A13.74,13.74,0,0,1,182,140.26ZM172,124.17a2.52,2.52,0,0,1,1.19,2.18,8.75,8.75,0,0,0,17.48.7,8.64,8.64,0,0,0-1.49-5.44,2.49,2.49,0,0,1,.91-3.62,7.45,7.45,0,0,0,4-6.19,1.08,1.08,0,0,0,0-.18v-.21a2.5,2.5,0,0,1,3.49-2.27,6.09,6.09,0,0,0,2.07.5,6.24,6.24,0,0,0,3.78-1,2.5,2.5,0,0,1,1.9-.35,2.57,2.57,0,0,1,1.58,1.11,9.58,9.58,0,1,0,.68-11.14,2.47,2.47,0,0,1-1.7.91,2.5,2.5,0,0,1-1.84-.57,6.23,6.23,0,0,0-10.22,4.17,2.51,2.51,0,0,1-3.68,2,7.24,7.24,0,0,0-3.09-.89,7.32,7.32,0,0,0-1.61.07,2.48,2.48,0,0,1-2.52-1.18,9.58,9.58,0,0,0-17.61,6.83,2.5,2.5,0,0,1-3,2.92,9,9,0,0,0-1.63-.25,9.16,9.16,0,0,0-8.81,5.13,2.46,2.46,0,0,1-2.3,1.4,2.52,2.52,0,0,1-2.23-1.5,4.58,4.58,0,0,0-7.81-1,2.5,2.5,0,0,1-3.47.45,5.84,5.84,0,1,0,1.6,7.46,2.5,2.5,0,0,1,3.35-1,4.46,4.46,0,0,0,1.84.52,4.58,4.58,0,0,0,3.85-1.71,2.5,2.5,0,0,1,4.41,1.11,9.16,9.16,0,0,0,17.32,2.18,2.51,2.51,0,0,1,2-1.43,2.52,2.52,0,0,1-1.2-2.2,9.29,9.29,0,0,0-.13-1.83,2.5,2.5,0,0,1,3.11-2.85,8.4,8.4,0,0,0,1.13.22,2.5,2.5,0,0,1,1.62,4,9,9,0,0,0-1,1.59A2.48,2.48,0,0,1,172,124.17Z"/><path class="a" d="M534.51,92.77a12.49,12.49,0,0,0-18.06-12A10.35,10.35,0,0,0,515,77.38a11.26,11.26,0,1,0-14.2-3.15,10.45,10.45,0,0,0-4.29,5.23,13.18,13.18,0,0,0-6.17-2,13.32,13.32,0,0,0-8.53,2.43c0-.15,0-.3.05-.45a17.51,17.51,0,0,0-34.77-3.79,11.09,11.09,0,0,0-4.19-1.13,10.83,10.83,0,0,0-11.08,7.82,12.19,12.19,0,0,0-2.85.55,7.51,7.51,0,1,0-8.23,7.79,12.79,12.79,0,0,0-.8,3.73,12.92,12.92,0,0,0,25.8,1.6c0-.14,0-.28,0-.41a10.89,10.89,0,0,0,6-5.12,17.46,17.46,0,0,0,24.41.81,13.09,13.09,0,0,0,.67,3.66,12.12,12.12,0,0,0-.23,1.71,13.33,13.33,0,0,0,22,11A8.33,8.33,0,0,0,514,111.34,10,10,0,0,0,530.65,101,12.44,12.44,0,0,0,534.51,92.77Zm-31.39,6.74a11.12,11.12,0,0,0,.13-1.16,13.15,13.15,0,0,0-.65-5c0-.17.07-.33.09-.49a10.69,10.69,0,0,0,2.95.62,10.48,10.48,0,0,0,3.93-.52,12.44,12.44,0,0,0,2.79,6.94c-.09.17-.17.35-.25.52a8.3,8.3,0,0,0-4.7-1.82A8.18,8.18,0,0,0,503.12,99.51Z"/><path d="M506.9,117.77c-.22,0-.45,0-.67,0a10.87,10.87,0,0,1-9.08-6.12,15.84,15.84,0,0,1-23-15.08l.06-.7a20,20,0,0,1-22-1.6,13.38,13.38,0,0,1-4.06,3.1,15.43,15.43,0,0,1-30.68-3.06,15,15,0,0,1,.21-1.77A10,10,0,1,1,430.53,79a13.43,13.43,0,0,1,12.52-6.92,13.91,13.91,0,0,1,2.24.33,20,20,0,0,1,38.95,3.49,15.58,15.58,0,0,1,6.25-.88,16,16,0,0,1,4.92,1.1,12.62,12.62,0,0,1,2.08-2.48,13.75,13.75,0,1,1,26-5.36,13.62,13.62,0,0,1-4.07,9A14.39,14.39,0,0,1,523,77,15,15,0,0,1,537,92.92h0a14.93,14.93,0,0,1-3.56,8.79,12.75,12.75,0,0,1,.29,3.54,12.5,12.5,0,0,1-19.45,9.61A10.85,10.85,0,0,1,506.9,117.77Zm-8.3-12.61a2.44,2.44,0,0,1,.95.19,2.49,2.49,0,0,1,1.54,2.1A5.84,5.84,0,0,0,511.86,110a2.5,2.5,0,0,1,3.94-.4,7.5,7.5,0,0,0,12.5-7.72,2.5,2.5,0,0,1,.62-2.67A9.93,9.93,0,0,0,532,92.61h0A10,10,0,0,0,522.64,82a10,10,0,0,0-5.07,1,2.48,2.48,0,0,1-2.19,0A2.53,2.53,0,0,1,514,81.35a7.75,7.75,0,0,0-1.11-2.6,2.56,2.56,0,0,1-.33-2,2.53,2.53,0,0,1,1.26-1.58,8.76,8.76,0,1,0-11-2.46,2.5,2.5,0,0,1-.67,3.64,7.91,7.91,0,0,0-3.26,4,2.51,2.51,0,0,1-3.66,1.26,10.83,10.83,0,0,0-11.94.38,2.5,2.5,0,0,1-3.94-2.26l0-.3a15,15,0,0,0-29.79-3.33,2.53,2.53,0,0,1-1.33,1.84,2.5,2.5,0,0,1-2.26,0,8.26,8.26,0,0,0-3.23-.87,8.4,8.4,0,0,0-8.52,6,2.5,2.5,0,0,1-2.21,1.8,10.42,10.42,0,0,0-2.29.44A2.49,2.49,0,0,1,426.47,83a5,5,0,1,0-5.49,5.2,2.48,2.48,0,0,1,1.88,1.16,2.51,2.51,0,0,1,.22,2.2,10.42,10.42,0,1,0,20.17,4.29v-.32a2.5,2.5,0,0,1,1.69-2.3,8.3,8.3,0,0,0,4.62-3.94A2.53,2.53,0,0,1,451.43,88a2.48,2.48,0,0,1,2.14.75,15,15,0,0,0,20.93.69,2.5,2.5,0,0,1,4.18,1.75,11,11,0,0,0,.54,3,2.42,2.42,0,0,1,.08,1.25,12.45,12.45,0,0,0-.19,1.4,10.83,10.83,0,0,0,17.86,8.9A2.54,2.54,0,0,1,498.6,105.16Zm13.49-2.24a2.43,2.43,0,0,1-1.54-.54,5.84,5.84,0,0,0-6.29-.65,2.49,2.49,0,0,1-3.61-2.59c0-.31.09-.62.11-.94a11,11,0,0,0-.53-4.06,2.53,2.53,0,0,1-.09-1.25l.08-.42a2.51,2.51,0,0,1,3.34-2,7.85,7.85,0,0,0,2.24.47,8,8,0,0,0,3-.39,2.5,2.5,0,0,1,3.28,2.18,9.9,9.9,0,0,0,2.23,5.54,2.49,2.49,0,0,1,.28,2.74l-.15.34a2.57,2.57,0,0,1-2.33,1.52ZM505.7,96c0,.06,0,.11,0,.17a11.41,11.41,0,0,1,1.85,0h0c0-.06,0-.12,0-.18A11.56,11.56,0,0,1,505.7,96Z"/><circle class="a" cx="202.37" cy="73.04" r="6.67"/><path d="M202.38,82.22l-.58,0a9.17,9.17,0,1,1,9.72-8.59,9.17,9.17,0,0,1-9.14,8.61Zm0-13.35a4.17,4.17,0,1,0,4.17,4.43h0a4.17,4.17,0,0,0-3.9-4.42Z"/><circle class="a" cx="446.2" cy="34.67" r="5"/><path d="M446.21,42.17l-.47,0a7.5,7.5,0,1,1,7.95-7h0a7.5,7.5,0,0,1-7.48,7Zm0-10a2.52,2.52,0,0,0-2.5,2.35,2.51,2.51,0,0,0,4.16,2,2.47,2.47,0,0,0,.84-1.72h0a2.5,2.5,0,0,0-2.34-2.65Z"/><circle class="a" cx="456.53" cy="130.97" r="6.25"/><path d="M456.54,139.72H456a8.74,8.74,0,0,1-8.19-9.28,8.76,8.76,0,0,1,9.27-8.2,8.77,8.77,0,0,1,8.2,9.28h0A8.77,8.77,0,0,1,456.54,139.72Zm0-12.51a3.68,3.68,0,0,0-2.48,1,3.76,3.76,0,0,0,2.25,6.56,3.76,3.76,0,0,0,.46-7.5Z"/><path class="b" d="M648.5,128.47c-40.64-6.8-76.37-12.38-106-16.82C467.86,100.44,452.6,99.51,434.64,100c-15.16.38-28.71,1.63-56.9,1.49-28.35-.13-39-1.52-55-1.73-21.28-.28-51.6,1.51-89.26,11.18a250.1,250.1,0,0,1-68.54,12.59,192.51,192.51,0,0,1-39.07-1.7c-38.48-5.86-66.29-23.2-65.74-24.54s22.8,11.81,59.54,16.64c25.6,3.36,48,1.42,60.14.38A151.12,151.12,0,0,0,200,111.33,142.55,142.55,0,0,0,232.45,100c88.07-11.44,124.42-14.68,135.39-14.18,1.11,0,8.08.43,17.53.25,10.55-.19,18.33-1,21-1.21,17.33-1.62,54.69-3.33,93-.86,9.56.62,16,1.3,27.19,2.46,59.94,6.24,133.23,13.88,134.47,29.4C661.23,118.54,659.34,122.71,648.5,128.47Z"/><path d="M648.5,131a2.73,2.73,0,0,1-.41,0c-35.2-5.9-70.84-11.56-105.93-16.82C468,103,452.49,102,434.7,102.45c-4.8.12-9.49.33-14.47.55-10.88.49-23.23,1-42.51.94-16.94-.08-27.5-.6-36.82-1.06-6.33-.32-11.8-.59-18.23-.67a339,339,0,0,0-88.52,11.08A253.31,253.31,0,0,1,165,126a196.69,196.69,0,0,1-39.55-1.73C88.57,118.63,60,102.25,58,98.66a2.69,2.69,0,0,1-.18-2.37,2.72,2.72,0,0,1,1.41-1.42c1.31-.54,2.26-.15,6.84,1.74A208.43,208.43,0,0,0,120,111.4c25.33,3.33,47.62,1.4,59.59.36a146.68,146.68,0,0,0,19.91-2.87,140.78,140.78,0,0,0,31.89-11.16,2.62,2.62,0,0,1,.78-.24C310.37,87.33,354.81,82.69,368,83.3h.23c6.83.33,13.09.31,17.14.23,10-.18,17.55-.89,20.39-1.16l.38,0a660.15,660.15,0,0,1,93.42-.86c9.62.62,16.27,1.31,27.29,2.46,79.22,8.25,135.4,15.36,136.7,31.69.39,5-4.13,9.89-13.84,15.05A2.5,2.5,0,0,1,648.5,131ZM440.83,97.37c16.24,0,36.13,1.9,102.07,11.8,34.84,5.23,70.21,10.85,105.17,16.69,9.7-5.29,10.55-8.63,10.45-9.83-.2-2.51-4.8-9.08-43.16-15.92-25.88-4.61-59.45-8.11-89.07-11.2-11-1.14-17.57-1.83-27.1-2.44-39-2.52-76.55-.65-92.62.85l-.38,0c-2.9.27-10.59,1-20.77,1.18-4.13.08-10.5.1-17.47-.24h-.22c-12.66-.59-57.93,4.16-134.55,14.11a145.2,145.2,0,0,1-32.65,11.37,151.21,151.21,0,0,1-20.55,3c-12.16,1-34.8,3-60.67-.4a207.28,207.28,0,0,1-24.54-4.74,184.21,184.21,0,0,0,31.43,7.7A189.6,189.6,0,0,0,164.8,121a248.28,248.28,0,0,0,67.86-12.46l.16,0a344,344,0,0,1,89.91-11.26c6.53.09,12,.36,18.42.67,9.26.46,19.76,1,36.6,1.06,19.16.09,31.43-.45,42.26-.93,5-.23,9.72-.44,14.57-.56C436.66,97.4,438.72,97.37,440.83,97.37Z"/><path class="a" d="M56.44,112.45a17.14,17.14,0,0,1-1.34-6.19,6.5,6.5,0,0,1,2.74-5.59l0,0a9,9,0,0,1,.78-.47,6.55,6.55,0,0,1,5.24-.27A15,15,0,0,1,69,103a11.28,11.28,0,0,1,4,6.6,10.91,10.91,0,0,1,.17,3.08,1.71,1.71,0,0,1-1.1,1.43,9.29,9.29,0,0,1-2.48.54,8.47,8.47,0,0,1-2.35-.18,8.3,8.3,0,0,1-2.13,4.35,1.67,1.67,0,0,1-1.73.49A10.54,10.54,0,0,1,60.61,118,11,11,0,0,1,56.44,112.45Z"/><path d="M63.86,121.89a4.17,4.17,0,0,1-1.16-.17,13.18,13.18,0,0,1-3.46-1.6,13.31,13.31,0,0,1-5.15-6.82,19.66,19.66,0,0,1-1.49-7,9,9,0,0,1,3.83-7.73A9.81,9.81,0,0,1,57.51,98a9,9,0,0,1,7.25-.41,17.37,17.37,0,0,1,5.84,3.53,14,14,0,0,1,4.87,8,13.35,13.35,0,0,1,.21,3.79,4.22,4.22,0,0,1-2.7,3.54,11.42,11.42,0,0,1-3.2.7l-.69,0-.27.62A11.23,11.23,0,0,1,67,120.51,4.21,4.21,0,0,1,63.86,121.89Zm-.58-4.74h0Zm-4.44-5.41a8.52,8.52,0,0,0,3.13,4.2,8.67,8.67,0,0,0,1.64.82,5.2,5.2,0,0,0,.69-1.12,5.54,5.54,0,0,0,.49-1.56,2.51,2.51,0,0,1,1.08-1.68,2.47,2.47,0,0,1,2-.36,5.36,5.36,0,0,0,1.63.12,5.84,5.84,0,0,0,1.27-.22,8.59,8.59,0,0,0-.16-1.83,8.8,8.8,0,0,0-3-5.07l-.25-.2a12.33,12.33,0,0,0-4.24-2.58,4,4,0,0,0-3.23.14,3.65,3.65,0,0,0-.54.32,4,4,0,0,0-1.68,3.46,14.4,14.4,0,0,0,1.14,5.29C58.78,111.56,58.81,111.65,58.84,111.74Z"/><path class="a" d="M70.86,100.42a17.26,17.26,0,0,1-6.29-.64,6.5,6.5,0,0,1-4.47-4.34v0a6.77,6.77,0,0,1-.21-.89,6.51,6.51,0,0,1,1.37-5.07,14.8,14.8,0,0,1,4.52-3.88,11.27,11.27,0,0,1,7.52-1.79,11,11,0,0,1,3,.79,1.72,1.72,0,0,1,1,1.48A8.63,8.63,0,0,1,77,88.57a8.1,8.1,0,0,1-.89,2.18,8.3,8.3,0,0,1,1.92,1.37,8.4,8.4,0,0,1,1.56,2,1.72,1.72,0,0,1-.06,1.8,11.19,11.19,0,0,1-2.1,2.26A11.05,11.05,0,0,1,70.86,100.42Z"/><path d="M69.4,103a19.88,19.88,0,0,1-5.53-.8,8.92,8.92,0,0,1-6.16-6l0-.08c-.1-.36-.19-.75-.26-1.14a9,9,0,0,1,1.86-7,17.31,17.31,0,0,1,5.16-4.46,14,14,0,0,1,9.14-2.15,13.19,13.19,0,0,1,3.67,1,4.2,4.2,0,0,1,2.53,3.66,11.4,11.4,0,0,1-.32,3.27c-.06.22-.13.44-.2.66.18.14.34.29.51.45a11.24,11.24,0,0,1,2,2.58,4.2,4.2,0,0,1-.17,4.45A12.82,12.82,0,0,1,71,102.92h0C70.43,103,69.92,103,69.4,103ZM72,86.2a8.67,8.67,0,0,0-4.74,1.37,2,2,0,0,1-.27.17A12.24,12.24,0,0,0,63.22,91a4,4,0,0,0-.87,3.11,4.15,4.15,0,0,0,.14.61,4,4,0,0,0,2.77,2.68,14.77,14.77,0,0,0,5.38.55,1.43,1.43,0,0,1,.29,0,8.48,8.48,0,0,0,5-1.69,8.35,8.35,0,0,0,1.29-1.3,5.85,5.85,0,0,0-.84-1A5.75,5.75,0,0,0,75,93a2.52,2.52,0,0,1-1.27-1.55,2.48,2.48,0,0,1,.27-2A5.75,5.75,0,0,0,74.62,88a6,6,0,0,0,.17-1.28A7.94,7.94,0,0,0,73,86.25,9.15,9.15,0,0,0,72,86.2Zm5.46,9.16Z"/><path class="a" d="M63.88,83a17.11,17.11,0,0,1-2.55,5.79,6.49,6.49,0,0,1-5.51,2.91h0a9,9,0,0,1-.91-.08,6.5,6.5,0,0,1-4.4-2.87,14.91,14.91,0,0,1-2.3-5.5,11.29,11.29,0,0,1,.63-7.7,10.74,10.74,0,0,1,1.67-2.59,1.69,1.69,0,0,1,1.72-.51,8.71,8.71,0,0,1,2.33,1A8,8,0,0,1,56.32,75a8.47,8.47,0,0,1,1.89-1.41,8.38,8.38,0,0,1,2.39-.86,1.69,1.69,0,0,1,1.69.61A10.29,10.29,0,0,1,63.88,83Z"/><path d="M56,94.18h-.23a11.41,11.41,0,0,1-1.25-.11,9,9,0,0,1-6.11-3.94,17.45,17.45,0,0,1-2.66-6.29,14,14,0,0,1,.78-9.35,13.33,13.33,0,0,1,2.07-3.19A4.18,4.18,0,0,1,52.85,70a11,11,0,0,1,3,1.32c.2.12.39.25.57.38l.58-.34a11.45,11.45,0,0,1,3.09-1.12,4.21,4.21,0,0,1,4.18,1.54,13.17,13.17,0,0,1,1.85,3.33,13.31,13.31,0,0,1,.16,8.54,19.55,19.55,0,0,1-2.89,6.51A9,9,0,0,1,56,94.18ZM52,75a8,8,0,0,0-1,1.58,8.69,8.69,0,0,0-.52,5.88,2.82,2.82,0,0,1,.07.31,12.61,12.61,0,0,0,1.92,4.58,4,4,0,0,0,2.7,1.78,6.2,6.2,0,0,0,.62.06,4.08,4.08,0,0,0,3.4-1.81,14.56,14.56,0,0,0,2.18-5c0-.09.05-.19.08-.28a8.5,8.5,0,0,0-.07-5.24,8.13,8.13,0,0,0-.84-1.63,6.51,6.51,0,0,0-1.22.5,6.06,6.06,0,0,0-1.31,1,2.49,2.49,0,0,1-3.66-.14,5.45,5.45,0,0,0-1.24-1A6.25,6.25,0,0,0,52,75Zm9.09.16Z"/><path class="a" d="M45.14,84.24a17.07,17.07,0,0,1,4.72,4.21,6.49,6.49,0,0,1,1.06,6.13v0a9,9,0,0,1-.36.83,6.54,6.54,0,0,1-4.08,3.31,15,15,0,0,1-5.94.48,11.3,11.3,0,0,1-7.14-3,10.79,10.79,0,0,1-1.95-2.39,1.7,1.7,0,0,1,0-1.79,8.78,8.78,0,0,1,1.69-1.9,8.17,8.17,0,0,1,2-1.24,8.24,8.24,0,0,1-.75-2.23,8.55,8.55,0,0,1-.09-2.54,1.71,1.71,0,0,1,1.11-1.42,10.32,10.32,0,0,1,9.68,1.48Z"/><path d="M42.3,101.86a18.21,18.21,0,0,1-1.95-.11,14,14,0,0,1-8.65-3.64,13.14,13.14,0,0,1-2.4-2.94,4.2,4.2,0,0,1,.1-4.45,11.42,11.42,0,0,1,2.18-2.45c.18-.15.36-.29.55-.42q-.09-.33-.15-.66a11.27,11.27,0,0,1-.11-3.28,4.2,4.2,0,0,1,2.76-3.5,13.21,13.21,0,0,1,3.73-.74,13.45,13.45,0,0,1,8.18,2.49,19.46,19.46,0,0,1,5.29,4.76,9,9,0,0,1,1.45,8.5c-.16.44-.32.8-.49,1.16a9.08,9.08,0,0,1-5.64,4.59A17.49,17.49,0,0,1,42.3,101.86Zm-8.42-8.81a7.93,7.93,0,0,0,1.2,1.38,8.75,8.75,0,0,0,5.43,2.32l.32,0a12.44,12.44,0,0,0,5-.41,4,4,0,0,0,2.53-2,5.06,5.06,0,0,0,.25-.58A4,4,0,0,0,47.88,90a14.51,14.51,0,0,0-4-3.6l-.24-.16a8.52,8.52,0,0,0-5-1.56,8.15,8.15,0,0,0-1.81.3,5.67,5.67,0,0,0,.62,2.86,2.5,2.5,0,0,1-1.26,3.44,5.36,5.36,0,0,0-1.39.86A6.06,6.06,0,0,0,33.88,93.05Zm3-8.6Z"/><path class="a" d="M40.54,102.45A17.06,17.06,0,0,1,46,99.26a6.5,6.5,0,0,1,6.16.88l0,0a6.75,6.75,0,0,1,.69.6,6.51,6.51,0,0,1,1.88,4.9,15,15,0,0,1-1.37,5.8,11.3,11.3,0,0,1-5,5.87,11,11,0,0,1-2.88,1.11,1.67,1.67,0,0,1-1.69-.6,8.62,8.62,0,0,1-1.28-2.2,8,8,0,0,1-.56-2.29,8.06,8.06,0,0,1-2.36,0,8.93,8.93,0,0,1-2.44-.7,1.71,1.71,0,0,1-1-1.5,10.58,10.58,0,0,1,.37-3A11,11,0,0,1,40.54,102.45Z"/><path d="M45.13,121a4.22,4.22,0,0,1-3.29-1.58,11.25,11.25,0,0,1-1.65-2.83c-.09-.21-.17-.43-.24-.65l-.67-.06a11.48,11.48,0,0,1-3.15-.9,4.23,4.23,0,0,1-2.48-3.71A12.84,12.84,0,0,1,39,100.47a19.75,19.75,0,0,1,6.16-3.56,9,9,0,0,1,8.53,1.25l.1.08a9,9,0,0,1,3.48,7.52,17.69,17.69,0,0,1-1.55,6.65,14,14,0,0,1-6.13,7.1,13.16,13.16,0,0,1-3.54,1.38A4.18,4.18,0,0,1,45.13,121ZM42,110.86a2.52,2.52,0,0,1,1.55.54,2.48,2.48,0,0,1,.94,1.75,6.14,6.14,0,0,0,.39,1.59,6.29,6.29,0,0,0,.61,1.14,8.42,8.42,0,0,0,1.69-.72A8.8,8.8,0,0,0,51,110.71c0-.09.07-.2.11-.29a12.4,12.4,0,0,0,1.14-4.83,4,4,0,0,0-1.13-3,3.73,3.73,0,0,0-.47-.41,4,4,0,0,0-3.82-.54,14.7,14.7,0,0,0-4.67,2.72l-.23.18a8.58,8.58,0,0,0-3,4.28,8.33,8.33,0,0,0-.28,1.81,5.83,5.83,0,0,0,1.28.31,6,6,0,0,0,1.64,0A1.58,1.58,0,0,1,42,110.86Zm-3.77-.45Z"/><circle class="c" cx="55.31" cy="96.55" r="4.84"/><path d="M55.32,103.89a7.44,7.44,0,0,1-6.08-3.22h0a7.33,7.33,0,1,1,6.08,3.22Zm0-9.68A2.34,2.34,0,0,0,53,96.11a2.31,2.31,0,0,0,.36,1.75h0a2.32,2.32,0,0,0,1.5,1,2.36,2.36,0,0,0,1.75-.37,2.34,2.34,0,0,0-.87-4.23A2.28,2.28,0,0,0,55.3,94.21Z"/><path class="a" d="M467.44,85.63A16.67,16.67,0,0,1,470,80.06a6.26,6.26,0,0,1,5.34-2.76h0c.3,0,.59,0,.88.09a6.29,6.29,0,0,1,4.23,2.81,14.54,14.54,0,0,1,2.17,5.33,10.89,10.89,0,0,1-.68,7.44,10.31,10.31,0,0,1-1.64,2.49,1.64,1.64,0,0,1-1.67.47,8.67,8.67,0,0,1-2.24-1,7.89,7.89,0,0,1-1.72-1.49,8.18,8.18,0,0,1-1.84,1.35,8.66,8.66,0,0,1-2.31.81,1.64,1.64,0,0,1-1.63-.61,10,10,0,0,1-1.45-9.35Z"/><path d="M479.08,98.41a4.24,4.24,0,0,1-1.11-.15,11,11,0,0,1-2.88-1.3l-.55-.38-.56.32A11,11,0,0,1,471,98a4.08,4.08,0,0,1-4-1.53,12.38,12.38,0,0,1-1.84-11.49A19,19,0,0,1,468,78.69a8.6,8.6,0,0,1,7.42-3.8,10.14,10.14,0,0,1,1.2.12,8.68,8.68,0,0,1,5.87,3.85A16.8,16.8,0,0,1,485,85a13.52,13.52,0,0,1-.84,9,12.94,12.94,0,0,1-2,3.07A4.06,4.06,0,0,1,479.08,98.41ZM474.67,91h.12a2.43,2.43,0,0,1,1.73.85,5.29,5.29,0,0,0,1.19,1,5.86,5.86,0,0,0,1.12.56,7.87,7.87,0,0,0,.93-1.51,8.46,8.46,0,0,0,.56-5.66c0-.11-.06-.21-.08-.32a11.92,11.92,0,0,0-1.81-4.44,3.83,3.83,0,0,0-2.58-1.75,3.08,3.08,0,0,0-.61-.06,3.87,3.87,0,0,0-3.3,1.72,14.17,14.17,0,0,0-2.15,4.76,2,2,0,0,1-.08.26,8.28,8.28,0,0,0,0,5.07,8.09,8.09,0,0,0,.8,1.58,6.05,6.05,0,0,0,1.18-.47,5.67,5.67,0,0,0,1.28-.93A2.38,2.38,0,0,1,474.67,91Z"/><path class="a" d="M485.56,84.59A16.53,16.53,0,0,1,481,80.48a6.3,6.3,0,0,1-1-5.94l0,0a7.32,7.32,0,0,1,.35-.81,6.31,6.31,0,0,1,4-3.15,14.45,14.45,0,0,1,5.74-.42A10.92,10.92,0,0,1,497,73.07a10.11,10.11,0,0,1,1.85,2.32,1.63,1.63,0,0,1-.06,1.74A8.49,8.49,0,0,1,497.16,79a7.83,7.83,0,0,1-2,1.17,8.25,8.25,0,0,1,.71,2.17,8.53,8.53,0,0,1,.06,2.45,1.64,1.64,0,0,1-1.09,1.36,9.91,9.91,0,0,1-9.33-1.51Z"/><path d="M491.61,89.07a13,13,0,0,1-7.42-2.49,19,19,0,0,1-5.07-4.64,8.64,8.64,0,0,1-1.32-8.23,10.56,10.56,0,0,1,.48-1.11,8.76,8.76,0,0,1,5.48-4.39,16.88,16.88,0,0,1,6.58-.5,13.55,13.55,0,0,1,8.33,3.59A13,13,0,0,1,501,74.17a4.07,4.07,0,0,1-.14,4.3,10.9,10.9,0,0,1-2.13,2.35l-.53.4c0,.21.1.42.13.64a10.87,10.87,0,0,1,.09,3.17,4.06,4.06,0,0,1-2.7,3.35,12.78,12.78,0,0,1-3.62.68Zm2-4.61Zm-6.53-1.77a8.28,8.28,0,0,0,4.82,1.55,8.18,8.18,0,0,0,1.75-.28,5.85,5.85,0,0,0-.08-1.26,5.94,5.94,0,0,0-.49-1.51,2.4,2.4,0,0,1,1.25-3.3,5.74,5.74,0,0,0,1.35-.82,6.67,6.67,0,0,0,.87-.89,7.89,7.89,0,0,0-1.15-1.35,8.49,8.49,0,0,0-5.23-2.29l-.31,0a12,12,0,0,0-4.78.35,3.89,3.89,0,0,0-2.47,1.92c-.08.17-.17.36-.24.55A3.89,3.89,0,0,0,483,79a14,14,0,0,0,3.86,3.52A1.88,1.88,0,0,1,487.05,82.69Zm9.74-6.08h0Z"/><path class="a" d="M490.16,67a16.69,16.69,0,0,1-5.31,3,6.29,6.29,0,0,1-5.94-.91l0,0a6.07,6.07,0,0,1-.65-.59,6.27,6.27,0,0,1-1.77-4.75,14.26,14.26,0,0,1,1.38-5.59,10.9,10.9,0,0,1,4.91-5.62,10.31,10.31,0,0,1,2.79-1,1.63,1.63,0,0,1,1.63.6,8.19,8.19,0,0,1,1.74,4.35,7.89,7.89,0,0,1,2.28,0,8.36,8.36,0,0,1,2.35.7,1.63,1.63,0,0,1,1,1.45,10.37,10.37,0,0,1-.38,3A10.63,10.63,0,0,1,490.16,67Z"/><path d="M482.67,72.86a8.52,8.52,0,0,1-5.25-1.8c-.35-.28-.64-.54-.91-.8A8.77,8.77,0,0,1,474,63.68a17.11,17.11,0,0,1,1.56-6.41,13.55,13.55,0,0,1,6-6.81A12.9,12.9,0,0,1,485,49.17a4.07,4.07,0,0,1,4.05,1.46,11,11,0,0,1,1.57,2.75c.08.21.16.42.22.63l.65.07a10.76,10.76,0,0,1,3,.9,4.09,4.09,0,0,1,2.36,3.6,13.29,13.29,0,0,1-.47,3.65,13,13,0,0,1-4.8,6.73,18.65,18.65,0,0,1-6,3.38A8.82,8.82,0,0,1,482.67,72.86ZM485.55,54a8.72,8.72,0,0,0-1.64.68A8.43,8.43,0,0,0,480.12,59a2.36,2.36,0,0,1-.12.28,12.06,12.06,0,0,0-1.14,4.66,3.93,3.93,0,0,0,1.06,2.94,4.55,4.55,0,0,0,.46.4,3.9,3.9,0,0,0,3.68.55,14.35,14.35,0,0,0,4.54-2.59,1.84,1.84,0,0,1,.22-.17,8.22,8.22,0,0,0,3-4.11,7.71,7.71,0,0,0,.28-1.75,6.52,6.52,0,0,0-1.23-.31,5.57,5.57,0,0,0-1.58,0,2.43,2.43,0,0,1-2.76-2.21,5.7,5.7,0,0,0-.36-1.54A5.89,5.89,0,0,0,485.55,54Zm7,5.36Z"/><path class="a" d="M474.89,57.23a16.44,16.44,0,0,1,1.24,6,6.26,6.26,0,0,1-2.7,5.37l0,0c-.25.16-.51.31-.76.44a6.34,6.34,0,0,1-5.07.22,14.65,14.65,0,0,1-4.89-3,10.92,10.92,0,0,1-3.83-6.42,10.34,10.34,0,0,1-.13-3,1.62,1.62,0,0,1,1.06-1.37,8.27,8.27,0,0,1,2.41-.5,7.92,7.92,0,0,1,2.27.19,8.42,8.42,0,0,1,.7-2.17,8.32,8.32,0,0,1,1.39-2,1.64,1.64,0,0,1,1.68-.47,9.94,9.94,0,0,1,6.66,6.71Z"/><path d="M469.9,72.12a9.3,9.3,0,0,1-3.18-.58,16.89,16.89,0,0,1-5.61-3.47,13.42,13.42,0,0,1-4.63-7.79,12.9,12.9,0,0,1-.17-3.67,4.09,4.09,0,0,1,2.64-3.4,10.91,10.91,0,0,1,3.1-.64c.23,0,.45,0,.67,0,.08-.2.17-.4.26-.59a11.2,11.2,0,0,1,1.8-2.62,4.08,4.08,0,0,1,4.15-1.13,13.09,13.09,0,0,1,3.33,1.58,12.89,12.89,0,0,1,4.91,6.64,19.07,19.07,0,0,1,1.38,6.73,8.67,8.67,0,0,1-3.77,7.44,10.81,10.81,0,0,1-1,.61A8.41,8.41,0,0,1,469.9,72.12ZM461.08,57.6a8,8,0,0,0,.14,1.76,8.43,8.43,0,0,0,2.89,4.93l.23.2A12.14,12.14,0,0,0,468.42,67a3.88,3.88,0,0,0,3.12-.11,5.39,5.39,0,0,0,.52-.3,3.93,3.93,0,0,0,1.66-3.34,14.09,14.09,0,0,0-1.06-5.11l-.09-.27a8.24,8.24,0,0,0-3-4.08A7.59,7.59,0,0,0,468,53a6.67,6.67,0,0,0-.68,1.07,5.9,5.9,0,0,0-.48,1.51,2.41,2.41,0,0,1-2.95,1.94,5.36,5.36,0,0,0-1.58-.13A5.47,5.47,0,0,0,461.08,57.6Zm7.25-5Z"/><path class="a" d="M460.85,68.73a16.51,16.51,0,0,1,6.08.67,6.26,6.26,0,0,1,4.27,4.23v0A6.23,6.23,0,0,1,470,79.41a14.54,14.54,0,0,1-4.4,3.72,10.89,10.89,0,0,1-7.29,1.65,10.43,10.43,0,0,1-2.87-.79,1.65,1.65,0,0,1-1-1.44,8.83,8.83,0,0,1,.27-2.44,7.68,7.68,0,0,1,.89-2.1,8,8,0,0,1-1.85-1.33,8.81,8.81,0,0,1-1.49-2,1.63,1.63,0,0,1,.08-1.74,10.32,10.32,0,0,1,2-2.16A10.57,10.57,0,0,1,460.85,68.73Z"/><path d="M459.69,87.28a13.19,13.19,0,0,1-1.63-.1,13,13,0,0,1-3.54-1,4.09,4.09,0,0,1-2.42-3.57,10.93,10.93,0,0,1,.34-3.14c.06-.22.13-.43.2-.64-.17-.14-.33-.29-.49-.44a11,11,0,0,1-1.93-2.51,4.09,4.09,0,0,1,.21-4.3A13.19,13.19,0,0,1,453,68.93a12.94,12.94,0,0,1,7.83-2.62,19,19,0,0,1,6.83.77,8.63,8.63,0,0,1,5.9,5.88,9.14,9.14,0,0,1,.27,1.2,8.72,8.72,0,0,1-1.86,6.76,16.84,16.84,0,0,1-5,4.27A13.48,13.48,0,0,1,459.69,87.28ZM456.93,82a7.45,7.45,0,0,0,1.72.42,8.51,8.51,0,0,0,5.56-1.21,1.61,1.61,0,0,1,.28-.17,12.18,12.18,0,0,0,3.66-3.1,3.9,3.9,0,0,0,.87-3,5.61,5.61,0,0,0-.13-.59,3.92,3.92,0,0,0-2.66-2.61,14,14,0,0,0-5.19-.58h-.28A8.29,8.29,0,0,0,456,72.72,7.78,7.78,0,0,0,454.7,74a5.09,5.09,0,0,0,.81,1,5.47,5.47,0,0,0,1.28.92,2.41,2.41,0,0,1,.93,3.41,5.88,5.88,0,0,0-.61,1.46A6.08,6.08,0,0,0,456.93,82Zm-2.49-8.42Z"/><circle class="c" cx="475.71" cy="72.64" r="4.67"/><path d="M475.72,79.73h-.31a7.09,7.09,0,0,1-6.78-7.38h0a7.09,7.09,0,1,1,7.09,7.39Zm-2.27-7.18a2.26,2.26,0,1,0,2.35-2.17A2.26,2.26,0,0,0,473.45,72.55Z"/><path class="a" d="M243.87,83.28a16,16,0,0,1-.89,5.83,6.06,6.06,0,0,1-4.24,4h0a6.17,6.17,0,0,1-.84.15,6,6,0,0,1-4.65-1.51,13.92,13.92,0,0,1-3.41-4.38,10.52,10.52,0,0,1-1.3-7.09,9.75,9.75,0,0,1,.87-2.73,1.58,1.58,0,0,1,1.43-.88,8.36,8.36,0,0,1,2.34.35,7.73,7.73,0,0,1,2,.94,8,8,0,0,1,1.36-1.72,8.31,8.31,0,0,1,1.94-1.36,1.58,1.58,0,0,1,1.67.14,9.57,9.57,0,0,1,3.78,8.3Z"/><path d="M237.22,95.58a8.5,8.5,0,0,1-5.54-2.11,16.2,16.2,0,0,1-3.91-5,13,13,0,0,1-1.57-8.6,12.28,12.28,0,0,1,1.08-3.37,3.91,3.91,0,0,1,3.51-2.19h0a10.42,10.42,0,0,1,3,.46,6.26,6.26,0,0,1,.61.21l.44-.45a10.65,10.65,0,0,1,2.5-1.76,3.93,3.93,0,0,1,4.13.37,11.9,11.9,0,0,1,4.7,10.19,18.28,18.28,0,0,1-1,6.55,8.35,8.35,0,0,1-5.9,5.46,11.15,11.15,0,0,1-1.15.2A6.94,6.94,0,0,1,237.22,95.58Zm-6-16.6a7.87,7.87,0,0,0-.47,1.64,8.22,8.22,0,0,0,1,5.43,2,2,0,0,1,.14.25A11.63,11.63,0,0,0,234.73,90a3.75,3.75,0,0,0,2.86,1l.57-.1a3.76,3.76,0,0,0,2.62-2.46,13.63,13.63,0,0,0,.76-5,2.44,2.44,0,0,1,0-.27,8.06,8.06,0,0,0-1.34-4.7,7.52,7.52,0,0,0-1.15-1.25,5.08,5.08,0,0,0-1,.74,5,5,0,0,0-1,1.2,2.33,2.33,0,0,1-3.32.76,5.51,5.51,0,0,0-1.38-.65A5.6,5.6,0,0,0,231.26,79Zm.21-.46h0Z"/><path class="a" d="M227.32,89a16.11,16.11,0,0,1,5.27,2.65A6,6,0,0,1,235,96.87v0a6.06,6.06,0,0,1-3,4.8,13.93,13.93,0,0,1-5.22,1.88,10.48,10.48,0,0,1-7.14-1,9.81,9.81,0,0,1-2.33-1.67,1.57,1.57,0,0,1-.4-1.63A8.22,8.22,0,0,1,218,97.22a7.74,7.74,0,0,1,1.51-1.6,7.52,7.52,0,0,1-1.22-1.82,8.21,8.21,0,0,1-.7-2.27,1.58,1.58,0,0,1,.66-1.54,9.58,9.58,0,0,1,9.06-1Z"/><path d="M224.6,106.16a13,13,0,0,1-6-1.45,12.12,12.12,0,0,1-2.87-2.07,3.91,3.91,0,0,1-1-4,10.43,10.43,0,0,1,1.37-2.73c.12-.17.25-.35.38-.51-.1-.18-.19-.37-.29-.56a10.74,10.74,0,0,1-.9-2.92,3.92,3.92,0,0,1,1.63-3.81,12.22,12.22,0,0,1,3.18-1.57,12.43,12.43,0,0,1,8,.25,18.07,18.07,0,0,1,5.92,3,8.34,8.34,0,0,1,3.36,7.3,7.78,7.78,0,0,1-.16,1.15,8.35,8.35,0,0,1-3.95,5.5,15.93,15.93,0,0,1-6,2.17A11.45,11.45,0,0,1,224.6,106.16Zm-5.27-6.54a7.09,7.09,0,0,0,1.42,1,8.16,8.16,0,0,0,5.45.76l.29-.06a11.45,11.45,0,0,0,4.35-1.56,3.8,3.8,0,0,0,1.79-2.43,5.21,5.21,0,0,0,.08-.57,3.76,3.76,0,0,0-1.53-3.26,13.81,13.81,0,0,0-4.5-2.26,1.25,1.25,0,0,1-.25-.09,8,8,0,0,0-4.88-.18,8.07,8.07,0,0,0-1.56.71,5.92,5.92,0,0,0,.41,1.16,5.47,5.47,0,0,0,.85,1.26,2.39,2.39,0,0,1,.59,1.77,2.35,2.35,0,0,1-.89,1.63,5.31,5.31,0,0,0-1,1.11A5.9,5.9,0,0,0,219.33,99.62Zm.57-8.45Z"/><path class="a" d="M227.61,106.46a15.9,15.9,0,0,1,4.14-4.2,6.09,6.09,0,0,1,5.76-.7l0,0a6.82,6.82,0,0,1,.77.37,6.1,6.1,0,0,1,2.88,4,13.88,13.88,0,0,1,.17,5.55,10.49,10.49,0,0,1-3.1,6.5,10.17,10.17,0,0,1-2.32,1.7,1.56,1.56,0,0,1-1.67-.13,8.21,8.21,0,0,1-1.69-1.66,7.34,7.34,0,0,1-1.05-1.93,7.59,7.59,0,0,1-2.12.6,8,8,0,0,1-2.36,0,1.58,1.58,0,0,1-1.27-1.1,10.37,10.37,0,0,1-.41-2.84A10.21,10.21,0,0,1,227.61,106.46Z"/><path d="M235.22,122.16a3.93,3.93,0,0,1-2.32-.76,10.3,10.3,0,0,1-2.18-2.14l-.37-.53-.61.11a10.81,10.81,0,0,1-3.06,0,3.93,3.93,0,0,1-3.13-2.73,11.91,11.91,0,0,1,2.19-11,18.18,18.18,0,0,1,4.68-4.7,8.34,8.34,0,0,1,8-1l.12,0a9.94,9.94,0,0,1,.93.46,8.35,8.35,0,0,1,4,5.46,16,16,0,0,1,.22,6.35,13,13,0,0,1-3.78,7.88,12.41,12.41,0,0,1-2.86,2.1A3.85,3.85,0,0,1,235.22,122.16Zm-3.69-8.55a2.38,2.38,0,0,1,.91.18,2.33,2.33,0,0,1,1.28,1.35,5.49,5.49,0,0,0,.73,1.33,5.71,5.71,0,0,0,.83.88,7.67,7.67,0,0,0,1.34-1,8.21,8.21,0,0,0,2.42-5,1.36,1.36,0,0,1,0-.29,11.68,11.68,0,0,0-.15-4.63,3.78,3.78,0,0,0-1.75-2.45,4.3,4.3,0,0,0-.53-.25,3.75,3.75,0,0,0-3.56.44,13.72,13.72,0,0,0-3.54,3.59l-.16.21a8,8,0,0,0-1.68,4.58,7.57,7.57,0,0,0,.19,1.7,5.57,5.57,0,0,0,2.69-.44A2.25,2.25,0,0,1,231.53,113.61Zm-4.12.58h0Z"/><path class="a" d="M244.33,111.59a15.86,15.86,0,0,1-2.7-5.23,6,6,0,0,1,1.11-5.7l0,0c.19-.22.39-.42.59-.61A6.11,6.11,0,0,1,248,98.5a14.07,14.07,0,0,1,5.34,1.55,10.53,10.53,0,0,1,5.22,5,10.24,10.24,0,0,1,.9,2.72,1.58,1.58,0,0,1-.64,1.55,8.24,8.24,0,0,1-2.1,1.09,7.6,7.6,0,0,1-2.16.41,7.89,7.89,0,0,1-.86,4.43,1.58,1.58,0,0,1-1.43.87,9.63,9.63,0,0,1-7.94-4.5Z"/><path d="M252.3,118.41h-.09a11.88,11.88,0,0,1-3.49-.6,12.34,12.34,0,0,1-6.29-4.88,18.15,18.15,0,0,1-3-5.9A8.34,8.34,0,0,1,241,99.15c.28-.32.54-.59.8-.84a8.43,8.43,0,0,1,6.43-2.13,16.31,16.31,0,0,1,6.12,1.76,13,13,0,0,1,6.32,6,12.35,12.35,0,0,1,1.11,3.37,3.93,3.93,0,0,1-1.57,3.84,10.27,10.27,0,0,1-2.71,1.4l-.61.19c0,.21-.06.41-.1.62a10.26,10.26,0,0,1-1,2.9A3.93,3.93,0,0,1,252.3,118.41Zm-.67-4.25Zm-5.31-3.79a8,8,0,0,0,3.84,3,7.61,7.61,0,0,0,1.67.34,5.42,5.42,0,0,0,.35-1.17,5.26,5.26,0,0,0,.06-1.53,2.38,2.38,0,0,1,.56-1.77,2.34,2.34,0,0,1,1.68-.8,5.45,5.45,0,0,0,2.58-.8,7.27,7.27,0,0,0-.58-1.6,8.21,8.21,0,0,0-4-3.83,2.21,2.21,0,0,1-.27-.12,11.64,11.64,0,0,0-4.44-1.29,3.79,3.79,0,0,0-2.88.91,5.33,5.33,0,0,0-.4.42,3.77,3.77,0,0,0-.68,3.53,13.86,13.86,0,0,0,2.31,4.47C246.22,110.22,246.27,110.3,246.32,110.37Z"/><path class="a" d="M254.39,97.27a16,16,0,0,1-5.82,1,6,6,0,0,1-5.07-2.82l0,0a5.4,5.4,0,0,1-.4-.75,6.07,6.07,0,0,1,0-4.89,14.05,14.05,0,0,1,3.12-4.59,10.53,10.53,0,0,1,6.34-3.43,9.82,9.82,0,0,1,2.87,0,1.57,1.57,0,0,1,1.27,1.08,8,8,0,0,1,.39,2.34,7.57,7.57,0,0,1-.28,2.18,7.6,7.6,0,0,1,2.06.76,7.71,7.71,0,0,1,1.89,1.42,1.57,1.57,0,0,1,.38,1.63,10.09,10.09,0,0,1-1.33,2.54A10.28,10.28,0,0,1,254.39,97.27Z"/><path d="M248.89,100.56h-.37a8.34,8.34,0,0,1-7-3.92c-.22-.37-.39-.7-.55-1a8.39,8.39,0,0,1,0-6.77,15.94,15.94,0,0,1,3.56-5.27,13,13,0,0,1,7.69-4.15,12.35,12.35,0,0,1,3.54,0,3.92,3.92,0,0,1,3.17,2.68,10.78,10.78,0,0,1,.5,3c0,.22,0,.43,0,.64l.56.28a10.43,10.43,0,0,1,2.44,1.84,3.9,3.9,0,0,1,.93,4,11.9,11.9,0,0,1-8.24,7.61A18.09,18.09,0,0,1,248.89,100.56ZM254,83.93a7.08,7.08,0,0,0-1.13.08A8.15,8.15,0,0,0,248,86.6c-.06.06-.13.15-.2.21a11.58,11.58,0,0,0-2.59,3.83,3.75,3.75,0,0,0,0,3,3.63,3.63,0,0,0,.28.51,3.75,3.75,0,0,0,3.14,1.74,13.55,13.55,0,0,0,5-.82l.26-.08a7.9,7.9,0,0,0,4-2.72,7.7,7.7,0,0,0,.85-1.48,5.7,5.7,0,0,0-1-.7,5.88,5.88,0,0,0-1.43-.53,2.32,2.32,0,0,1-1.76-2.92,5.12,5.12,0,0,0,.19-1.51,4.91,4.91,0,0,0-.15-1.19A5.62,5.62,0,0,0,254,83.93Z"/><circle class="c" cx="239.57" cy="97.5" r="4.51"/><path d="M239.57,104.33a6.82,6.82,0,1,1,1.57-.18A7.07,7.07,0,0,1,239.57,104.33Zm0-9a2.2,2.2,0,0,0-.5.06,2.17,2.17,0,1,0,.5-.06Z"/><path class="a" d="M332.81,65.38a16.54,16.54,0,0,1,4.58,4.1,6.31,6.31,0,0,1,1,6l0,0a7.32,7.32,0,0,1-.35.81,6.28,6.28,0,0,1-4,3.2,14.35,14.35,0,0,1-5.77.46,10.93,10.93,0,0,1-6.93-2.9,10.38,10.38,0,0,1-1.89-2.33,1.65,1.65,0,0,1,.05-1.75,8.56,8.56,0,0,1,1.65-1.84A7.63,7.63,0,0,1,323.14,70a8.34,8.34,0,0,1-.73-2.18,8.68,8.68,0,0,1-.08-2.46,1.66,1.66,0,0,1,1.08-1.38,10.49,10.49,0,0,1,2.94-.57A10.64,10.64,0,0,1,332.81,65.38Z"/><path d="M330.06,82.5a17.84,17.84,0,0,1-1.93-.11,13.57,13.57,0,0,1-8.4-3.55A12.87,12.87,0,0,1,317.41,76a4.08,4.08,0,0,1,.1-4.33,11.06,11.06,0,0,1,2.13-2.38l.53-.41c-.06-.21-.1-.42-.14-.63a10.75,10.75,0,0,1-.11-3.2,4.09,4.09,0,0,1,2.69-3.39,13.19,13.19,0,0,1,3.63-.71,13,13,0,0,1,7.94,2.44A19,19,0,0,1,339.32,68a8.7,8.7,0,0,1,1.38,8.26,8.53,8.53,0,0,1-.48,1.13,8.75,8.75,0,0,1-5.47,4.45A17.13,17.13,0,0,1,330.06,82.5Zm-8.2-8.58A7.94,7.94,0,0,0,323,75.27a8.59,8.59,0,0,0,5.28,2.27h.3a12.15,12.15,0,0,0,4.82-.38,3.94,3.94,0,0,0,2.46-2,5.55,5.55,0,0,0,.24-.56,3.93,3.93,0,0,0-.65-3.69,14.16,14.16,0,0,0-3.91-3.51,1.88,1.88,0,0,1-.23-.16,8.42,8.42,0,0,0-4.86-1.52,8.29,8.29,0,0,0-1.76.29,6.67,6.67,0,0,0,.09,1.27,5.49,5.49,0,0,0,.51,1.51,2.43,2.43,0,0,1-1.23,3.34,5.41,5.41,0,0,0-1.35.83A5.72,5.72,0,0,0,321.86,73.92Zm2.89-8.35Z"/><path class="a" d="M328.31,83.07A16.73,16.73,0,0,1,333.63,80a6.33,6.33,0,0,1,6,.87l0,0a7.54,7.54,0,0,1,.67.58,6.35,6.35,0,0,1,1.82,4.77,14.51,14.51,0,0,1-1.35,5.63,11,11,0,0,1-4.9,5.7,10.85,10.85,0,0,1-2.8,1.07,1.65,1.65,0,0,1-1.65-.59,8.86,8.86,0,0,1-1.24-2.13,7.92,7.92,0,0,1-.53-2.23,8,8,0,0,1-2.29,0A8.33,8.33,0,0,1,325,93a1.66,1.66,0,0,1-1-1.46,11.09,11.09,0,0,1,.36-3A10.74,10.74,0,0,1,328.31,83.07Z"/><path d="M332.74,101.1a4.1,4.1,0,0,1-3.19-1.54,10.78,10.78,0,0,1-1.6-2.75c-.09-.21-.16-.42-.23-.63l-.65-.07a11,11,0,0,1-3.07-.88,4.12,4.12,0,0,1-2.4-3.61,12.44,12.44,0,0,1,5.22-10.47,19,19,0,0,1,6-3.45,8.67,8.67,0,0,1,8.29,1.23l.09.07a8.7,8.7,0,0,1,3.37,7.32A16.76,16.76,0,0,1,343,92.78a13.56,13.56,0,0,1-6,6.89,12.92,12.92,0,0,1-3.45,1.33A3.8,3.8,0,0,1,332.74,101.1Zm-3.07-9.85a2.42,2.42,0,0,1,1.5.52,2.46,2.46,0,0,1,.92,1.71,5.74,5.74,0,0,0,.37,1.54,6.23,6.23,0,0,0,.59,1.11,8,8,0,0,0,1.65-.69,8.51,8.51,0,0,0,3.78-4.32,2.33,2.33,0,0,1,.11-.28,12.1,12.1,0,0,0,1.12-4.7,4,4,0,0,0-1.09-3,6,6,0,0,0-.46-.4l-.08-.06a3.9,3.9,0,0,0-3.63-.46,14.5,14.5,0,0,0-4.55,2.63,1.92,1.92,0,0,1-.22.18,8.31,8.31,0,0,0-2.94,4.15,7.27,7.27,0,0,0-.27,1.76,6,6,0,0,0,1.23.31,6.11,6.11,0,0,0,1.6,0A2.31,2.31,0,0,1,329.67,91.25ZM326,90.8h0Z"/><path class="a" d="M343.75,92.82a16.67,16.67,0,0,1-1.29-6,6.29,6.29,0,0,1,2.67-5.42l0,0c.25-.16.5-.31.76-.45a6.31,6.31,0,0,1,5.09-.25,14.36,14.36,0,0,1,5,3,11,11,0,0,1,3.9,6.42,10.2,10.2,0,0,1,.15,3A1.64,1.64,0,0,1,359,94.47a8.58,8.58,0,0,1-2.42.52,8,8,0,0,1-2.28-.18A8.26,8.26,0,0,1,352.18,99a1.64,1.64,0,0,1-1.68.47,10.48,10.48,0,0,1-2.71-1.26A10.71,10.71,0,0,1,343.75,92.82Z"/><path d="M351,102a4.09,4.09,0,0,1-1.14-.17,12.39,12.39,0,0,1-8.35-8.2A19,19,0,0,1,340,86.88a8.7,8.7,0,0,1,3.73-7.51,9.24,9.24,0,0,1,1.05-.62,8.72,8.72,0,0,1,7.05-.38,16.76,16.76,0,0,1,5.67,3.44,13.59,13.59,0,0,1,4.72,7.8,13,13,0,0,1,.19,3.69,4.1,4.1,0,0,1-2.63,3.44,11,11,0,0,1-3.11.67l-.67,0c-.08.2-.17.4-.26.6a11.07,11.07,0,0,1-1.79,2.64A4.1,4.1,0,0,1,351,102Zm-.56-4.61Zm-4.31-5.27a8.28,8.28,0,0,0,3,4.09,7.89,7.89,0,0,0,1.59.8,5.49,5.49,0,0,0,1.15-2.6,2.44,2.44,0,0,1,3-2,5,5,0,0,0,1.58.12,5.46,5.46,0,0,0,1.24-.21,8.14,8.14,0,0,0-.16-1.78,8.46,8.46,0,0,0-2.93-4.93,2.31,2.31,0,0,1-.24-.2,12,12,0,0,0-4.12-2.51,3.92,3.92,0,0,0-3.14.12,5.58,5.58,0,0,0-.52.32,3.9,3.9,0,0,0-1.65,3.36,14.5,14.5,0,0,0,1.1,5.14A2.77,2.77,0,0,1,346.08,92.13Z"/><path class="a" d="M357.79,81.15a16.59,16.59,0,0,1-6.12-.63,6.29,6.29,0,0,1-4.33-4.22l0,0c-.08-.29-.14-.58-.19-.87a6.34,6.34,0,0,1,1.33-4.92,14.49,14.49,0,0,1,4.4-3.77,10.87,10.87,0,0,1,10.21-1,1.66,1.66,0,0,1,1,1.44,8.49,8.49,0,0,1-.25,2.46,8,8,0,0,1-.88,2.12,8.36,8.36,0,0,1,1.87,1.33,8.65,8.65,0,0,1,1.51,2,1.65,1.65,0,0,1-.07,1.75,10.8,10.8,0,0,1-2,2.19A10.67,10.67,0,0,1,357.79,81.15Z"/><path d="M356.4,83.64a19,19,0,0,1-5.41-.79A8.67,8.67,0,0,1,345,77a11,11,0,0,1-.28-1.18A8.8,8.8,0,0,1,346.55,69a16.8,16.8,0,0,1,5-4.33,13.62,13.62,0,0,1,8.88-2.07,12.84,12.84,0,0,1,3.57,1,4.1,4.1,0,0,1,2.45,3.57,10.68,10.68,0,0,1-.32,3.16c-.06.22-.12.44-.19.65l.49.43a10.88,10.88,0,0,1,2,2.52,4.08,4.08,0,0,1-.18,4.32,12.8,12.8,0,0,1-2.52,2.71,13.08,13.08,0,0,1-7.85,2.7Q357.14,83.64,356.4,83.64Zm2.49-16.31a8.48,8.48,0,0,0-4.6,1.33,2.2,2.2,0,0,1-.25.17A12,12,0,0,0,350.37,72a3.9,3.9,0,0,0-.85,3c0,.2.08.4.14.6a3.93,3.93,0,0,0,2.69,2.6,14.18,14.18,0,0,0,5.23.54h.28a8.27,8.27,0,0,0,4.82-1.63,7.9,7.9,0,0,0,1.26-1.26,6.55,6.55,0,0,0-.82-1,6,6,0,0,0-1.3-.92,2.43,2.43,0,0,1-1-3.42,5.55,5.55,0,0,0,.78-2.71,8.15,8.15,0,0,0-1.74-.41A8.64,8.64,0,0,0,358.89,67.33Zm5.31,8.92ZM362.12,68Z"/><path class="a" d="M351,64.19a16.63,16.63,0,0,1-2.49,5.63,6.32,6.32,0,0,1-5.35,2.81h-.05a8.46,8.46,0,0,1-.88-.08A6.34,6.34,0,0,1,338,69.76a14.32,14.32,0,0,1-2.22-5.35,10.93,10.93,0,0,1,.62-7.49A10.68,10.68,0,0,1,338,54.41a1.64,1.64,0,0,1,1.67-.49,8.3,8.3,0,0,1,2.27,1,8,8,0,0,1,1.74,1.48A8.21,8.21,0,0,1,345.54,55a8.76,8.76,0,0,1,2.32-.84,1.62,1.62,0,0,1,1.64.61A10.59,10.59,0,0,1,351,57.42,10.72,10.72,0,0,1,351,64.19Z"/><path d="M343.36,75.06h-.24A10.83,10.83,0,0,1,341.9,75,8.76,8.76,0,0,1,336,71.11,16.83,16.83,0,0,1,333.41,65a13.53,13.53,0,0,1,.77-9.09,12.78,12.78,0,0,1,2-3.1,4.09,4.09,0,0,1,4.15-1.23,10.73,10.73,0,0,1,2.91,1.28l.56.38c.18-.11.37-.23.56-.33a11.13,11.13,0,0,1,3-1.09,4.1,4.1,0,0,1,4.06,1.51,12.77,12.77,0,0,1,1.8,3.24,13,13,0,0,1,.14,8.3,19.36,19.36,0,0,1-2.82,6.32A8.71,8.71,0,0,1,343.36,75.06Zm-3.84-18.65a7.49,7.49,0,0,0-.92,1.53,8.55,8.55,0,0,0-.53,5.72c0,.09.06.2.08.29A12.26,12.26,0,0,0,340,68.41a3.94,3.94,0,0,0,2.62,1.74,4.07,4.07,0,0,0,.61,0,3.87,3.87,0,0,0,3.31-1.75,14.17,14.17,0,0,0,2.12-4.8,2.29,2.29,0,0,1,.08-.28,8.24,8.24,0,0,0-.06-5.09,7.87,7.87,0,0,0-.81-1.58,5.84,5.84,0,0,0-1.18.48,5.75,5.75,0,0,0-1.28,1,2.49,2.49,0,0,1-1.81.7,2.46,2.46,0,0,1-1.75-.84,5.11,5.11,0,0,0-1.2-1A5.92,5.92,0,0,0,339.52,56.41Zm8.84.17h0Z"/><circle class="c" cx="342.76" cy="77.25" r="4.7"/><path d="M342.77,84.39a7.13,7.13,0,1,1,2.43-13.84h0a7.12,7.12,0,0,1,.58,13.16A7.07,7.07,0,0,1,342.77,84.39Zm0-9.41a2.28,2.28,0,0,0-2.07,3.23A2.3,2.3,0,0,0,342,79.39a2.24,2.24,0,0,0,1.74-.08,2.28,2.28,0,0,0-.19-4.2A2.31,2.31,0,0,0,342.77,75Z"/><path class="a" d="M204.75,129.44a12.16,12.16,0,0,1,.37-4.51,4.68,4.68,0,0,1,3-3.25h0q.31-.09.63-.15a4.64,4.64,0,0,1,3.64.91,10.61,10.61,0,0,1,2.83,3.18,8,8,0,0,1,1.37,5.35,7.7,7.7,0,0,1-.52,2.14,1.23,1.23,0,0,1-1.05.75,6.56,6.56,0,0,1-1.81-.15,5.54,5.54,0,0,1-1.57-.62,5.83,5.83,0,0,1-.95,1.39,6,6,0,0,1-1.41,1.14,1.2,1.2,0,0,1-1.29,0,7.35,7.35,0,0,1-3.32-6.15Z"/><path d="M208.73,137.57a2.94,2.94,0,0,1-1.64-.49,9.11,9.11,0,0,1-4.13-7.55,14.09,14.09,0,0,1,.44-5.07,6.4,6.4,0,0,1,4.23-4.48l.1,0a6.2,6.2,0,0,1,.77-.19,6.46,6.46,0,0,1,5,1.24,12.39,12.39,0,0,1,3.26,3.63,10,10,0,0,1,1.65,6.5,9.63,9.63,0,0,1-.65,2.64,3,3,0,0,1-2.59,1.86,8.61,8.61,0,0,1-2.33-.19l-.47-.13-.31.36a7.88,7.88,0,0,1-1.83,1.48A3,3,0,0,1,208.73,137.57Zm-.29-3.49Zm-1.9-4.63A6.11,6.11,0,0,0,207.8,133a6.24,6.24,0,0,0,.95.9,4.21,4.21,0,0,0,.71-.62,4.26,4.26,0,0,0,.66-1,1.78,1.78,0,0,1,2.5-.75,4.13,4.13,0,0,0,1.09.42,3.91,3.91,0,0,0,.91.11,6.37,6.37,0,0,0,.28-1.28,6.26,6.26,0,0,0-1-4.1,2,2,0,0,1-.12-.19,9,9,0,0,0-2.36-2.65,2.88,2.88,0,0,0-2.24-.58,3.54,3.54,0,0,0-.44.11,2.87,2.87,0,0,0-1.87,2,10.51,10.51,0,0,0-.33,3.85A1.36,1.36,0,0,1,206.54,129.45Zm8,3Z"/><path class="a" d="M217.12,124.22a12.32,12.32,0,0,1-4.17-1.74,4.68,4.68,0,0,1-2.15-3.9v0c0-.22,0-.44,0-.65a4.62,4.62,0,0,1,2-3.18,10.73,10.73,0,0,1,3.9-1.72,8.1,8.1,0,0,1,5.52.36,7.74,7.74,0,0,1,1.87,1.16,1.2,1.2,0,0,1,.38,1.22,6,6,0,0,1-.7,1.68,5.55,5.55,0,0,1-1.07,1.3,6.1,6.1,0,0,1,1.68,3A1.21,1.21,0,0,1,224,123a7.36,7.36,0,0,1-6.88,1.25Z"/><path d="M219.44,126.35a9.51,9.51,0,0,1-2.78-.4,14.11,14.11,0,0,1-4.69-2,6.38,6.38,0,0,1-2.95-5.41v-.06a7.37,7.37,0,0,1,.06-.84,6.45,6.45,0,0,1,2.74-4.41,12.22,12.22,0,0,1,4.46-2,10,10,0,0,1,6.69.44,9.56,9.56,0,0,1,2.31,1.43,3,3,0,0,1,1,3,8,8,0,0,1-.9,2.16l-.27.42c.09.13.17.27.25.41a7.88,7.88,0,0,1,.84,2.19,3,3,0,0,1-1,3,9.54,9.54,0,0,1-2.36,1.37A8.91,8.91,0,0,1,219.44,126.35Zm-1.75-3.82a6.1,6.1,0,0,0,3.74-.11,5.7,5.7,0,0,0,1.16-.63,5.07,5.07,0,0,0-.37-.86,4.37,4.37,0,0,0-.72-.93,1.76,1.76,0,0,1-.54-1.32,1.78,1.78,0,0,1,.59-1.29,4,4,0,0,0,.74-.9,4,4,0,0,0,.39-.84,6.5,6.5,0,0,0-1.14-.66,6.21,6.21,0,0,0-4.19-.3l-.24.06a9,9,0,0,0-3.25,1.43,2.87,2.87,0,0,0-1.24,1.95,3.25,3.25,0,0,0,0,.44v0a2.89,2.89,0,0,0,1.34,2.37,10.49,10.49,0,0,0,3.56,1.5Zm5-.38Z"/><path class="a" d="M216,110.85a12.19,12.19,0,0,1-3,3.42,4.65,4.65,0,0,1-4.37.84h0a6.44,6.44,0,0,1-.61-.24,4.65,4.65,0,0,1-2.41-2.88,10.69,10.69,0,0,1-.42-4.24,8.07,8.07,0,0,1,2-5.13,7.5,7.5,0,0,1,1.68-1.42,1.2,1.2,0,0,1,1.29,0,6.25,6.25,0,0,1,1.38,1.18,5.81,5.81,0,0,1,.9,1.42,6.22,6.22,0,0,1,1.59-.57,6.36,6.36,0,0,1,1.81-.09,1.21,1.21,0,0,1,1,.78,8,8,0,0,1,.46,2.15A7.87,7.87,0,0,1,216,110.85Z"/><path d="M210.08,117.13a6.09,6.09,0,0,1-2-.33,6.69,6.69,0,0,1-.84-.33,6.49,6.49,0,0,1-3.35-4,12.5,12.5,0,0,1-.49-4.85,10,10,0,0,1,2.48-6.23A9.21,9.21,0,0,1,208,99.67a3,3,0,0,1,3.18,0,8.18,8.18,0,0,1,1.78,1.52l.31.39.46-.11a8.06,8.06,0,0,1,2.35-.13,3,3,0,0,1,2.53,1.93,9.67,9.67,0,0,1,.57,2.66,9.54,9.54,0,0,1-1.67,5.87,14.06,14.06,0,0,1-3.34,3.85A6.49,6.49,0,0,1,210.08,117.13Zm-.53-14.22a5.43,5.43,0,0,0-1,.88A6.18,6.18,0,0,0,207,107.7c0,.07,0,.16,0,.23a8.69,8.69,0,0,0,.35,3.53,2.85,2.85,0,0,0,1.47,1.78,2.63,2.63,0,0,0,.42.17,2.88,2.88,0,0,0,2.7-.53,10.6,10.6,0,0,0,2.52-2.92,1.74,1.74,0,0,1,.11-.18,6.09,6.09,0,0,0,1-3.59,5.86,5.86,0,0,0-.24-1.29,4.87,4.87,0,0,0-.93.08,4.51,4.51,0,0,0-1.1.4,1.8,1.8,0,0,1-1.42.11,1.82,1.82,0,0,1-1-1,4.27,4.27,0,0,0-.63-1A4.1,4.1,0,0,0,209.55,102.91Zm6.18,2Zm-5.86-2.22Z"/><path class="a" d="M202.92,107.79a12.26,12.26,0,0,1,2.34,3.87,4.63,4.63,0,0,1-.55,4.41l0,0c-.13.17-.27.34-.42.5a4.67,4.67,0,0,1-3.48,1.4,10.67,10.67,0,0,1-4.16-.91,8.06,8.06,0,0,1-4.26-3.52,8.41,8.41,0,0,1-.83-2,1.21,1.21,0,0,1,.41-1.22,6.32,6.32,0,0,1,1.55-1,5.77,5.77,0,0,1,1.63-.42,6.28,6.28,0,0,1,0-1.69,6.16,6.16,0,0,1,.48-1.75,1.19,1.19,0,0,1,1.05-.73,7.53,7.53,0,0,1,2.19.22A7.91,7.91,0,0,1,202.92,107.79Z"/><path d="M200.88,119.79h-.12a12.45,12.45,0,0,1-4.77-1,10,10,0,0,1-5.16-4.29,9.66,9.66,0,0,1-1-2.51,3,3,0,0,1,1-3,7.84,7.84,0,0,1,2-1.22c.15-.07.31-.12.46-.18s0-.32,0-.48a7.73,7.73,0,0,1,.61-2.26,3,3,0,0,1,2.61-1.82,9.72,9.72,0,0,1,2.71.28,9.55,9.55,0,0,1,5.06,3.4,14,14,0,0,1,2.63,4.36,6.39,6.39,0,0,1-.79,6.12l-.07.09a5.84,5.84,0,0,1-.5.59A6.43,6.43,0,0,1,200.88,119.79Zm-7.5-8.33a5.4,5.4,0,0,0,.53,1.2,6.2,6.2,0,0,0,3.23,2.72l.21.08a9,9,0,0,0,3.47.76,2.94,2.94,0,0,0,2.15-.85c.1-.11.2-.22.29-.34a2.86,2.86,0,0,0,.33-2.74,10.35,10.35,0,0,0-2-3.3h0l-.12-.15a5.51,5.51,0,0,0-4.4-2.29,3.64,3.64,0,0,0-.21.91,4.57,4.57,0,0,0,0,1.17,1.77,1.77,0,0,1-.33,1.39,1.81,1.81,0,0,1-1.25.7,4,4,0,0,0-1.13.29A4.92,4.92,0,0,0,193.38,111.46Zm-.1-.37Zm3.92-4.89h0Z"/><path class="a" d="M196,119.28a12.2,12.2,0,0,1,4.4-1,4.67,4.67,0,0,1,4,1.89l0,0a4.53,4.53,0,0,1,.34.55,4.63,4.63,0,0,1,.26,3.75,10.53,10.53,0,0,1-2.15,3.67,8.05,8.05,0,0,1-4.67,3,7.59,7.59,0,0,1-2.19.16,1.22,1.22,0,0,1-1-.76,6.23,6.23,0,0,1-.41-1.77,5.74,5.74,0,0,1,.1-1.68,6.07,6.07,0,0,1-1.62-.48,5.79,5.79,0,0,1-1.52-1,1.21,1.21,0,0,1-.38-1.23,7.66,7.66,0,0,1,.89-2A7.9,7.9,0,0,1,196,119.28Z"/><path d="M196.56,133.06c-.23,0-.45,0-.68,0a3,3,0,0,1-2.56-1.88,7.8,7.8,0,0,1-.54-2.28c0-.17,0-.33,0-.49l-.44-.19a8,8,0,0,1-2-1.28,3,3,0,0,1-.92-3,9.82,9.82,0,0,1,1.1-2.49,9.61,9.61,0,0,1,4.81-3.77,14.05,14.05,0,0,1,5-1.15,6.38,6.38,0,0,1,5.56,2.64,5.55,5.55,0,0,1,.48.76,6.47,6.47,0,0,1,.38,5.18,12.21,12.21,0,0,1-2.45,4.22,9.94,9.94,0,0,1-5.67,3.58A9.78,9.78,0,0,1,196.56,133.06Zm-.05-3.58a6.16,6.16,0,0,0,4.9-2.36,1.18,1.18,0,0,1,.13-.18,8.64,8.64,0,0,0,1.79-3.06,2.88,2.88,0,0,0-.13-2.31c-.08-.13-.15-.26-.24-.38a2.87,2.87,0,0,0-2.5-1.16,10.3,10.3,0,0,0-3.76.88l-.19.07a6.09,6.09,0,0,0-3,2.3,5.85,5.85,0,0,0-.57,1.18,4.35,4.35,0,0,0,.8.48,4.69,4.69,0,0,0,1.13.33,1.77,1.77,0,0,1,1.21.75,1.72,1.72,0,0,1,.28,1.39,4.4,4.4,0,0,0,.11,2.07Zm-3.82-5.25Z"/><circle class="c" cx="207.3" cy="118.33" r="3.46"/><path d="M207.29,123.58a5.25,5.25,0,0,1-4.63-7.7,5.23,5.23,0,1,1,4.63,7.7Zm0-6.92a1.63,1.63,0,0,0-1.48.89,1.66,1.66,0,0,0-.12,1.27h0a1.68,1.68,0,1,0,1.6-2.17Z"/><path class="a" d="M120.06,126a13.06,13.06,0,0,1,4.69,1.09,4.92,4.92,0,0,1,2.94,3.71v0a5.72,5.72,0,0,1,.07.7,5,5,0,0,1-1.53,3.69,11.42,11.42,0,0,1-3.79,2.49,8.59,8.59,0,0,1-5.85.61,8.25,8.25,0,0,1-2.17-.89,1.29,1.29,0,0,1-.62-1.22,6.66,6.66,0,0,1,.44-1.88,6.18,6.18,0,0,1,.89-1.56,6.47,6.47,0,0,1-1.32-1.21,6.57,6.57,0,0,1-1-1.67,1.28,1.28,0,0,1,.22-1.35,8.74,8.74,0,0,1,1.8-1.5A8.42,8.42,0,0,1,120.06,126Z"/><path d="M118.66,140.44a10.57,10.57,0,0,1-2.52-.31,10.14,10.14,0,0,1-2.67-1.09,3.2,3.2,0,0,1-1.55-3,8.61,8.61,0,0,1,.56-2.43l.21-.48c-.12-.13-.23-.25-.34-.39a8.46,8.46,0,0,1-1.27-2.15,3.19,3.19,0,0,1,.57-3.34,9.72,9.72,0,0,1,8.59-3.17,15,15,0,0,1,5.27,1.25,6.8,6.8,0,0,1,4.06,5.15v0c0,.31.07.61.09.91a6.88,6.88,0,0,1-2.09,5.12,13.47,13.47,0,0,1-4.33,2.87A10.62,10.62,0,0,1,118.66,140.44ZM115.75,136a6.25,6.25,0,0,0,1.31.48,6.7,6.7,0,0,0,4.48-.43l.21-.1a9.34,9.34,0,0,0,3.16-2.08,3.05,3.05,0,0,0,1-2.26,3.75,3.75,0,0,0-.05-.47v0A3.12,3.12,0,0,0,124,128.8a11.16,11.16,0,0,0-4-.93l-.22,0a5.85,5.85,0,0,0-5,1.64,4.45,4.45,0,0,0,1.46,1.69,1.89,1.89,0,0,1,.4,2.75A4.62,4.62,0,0,0,116,135,4.56,4.56,0,0,0,115.75,136Zm-1.16-6.83h0Z"/><path class="a" d="M123.63,139.8a13.16,13.16,0,0,1,2.49-4.12,5,5,0,0,1,4.43-1.65h0c.23,0,.45.09.67.15a5,5,0,0,1,3,2.59,11.25,11.25,0,0,1,1.2,4.38,8.57,8.57,0,0,1-1.22,5.75,8.41,8.41,0,0,1-1.52,1.79,1.28,1.28,0,0,1-1.35.22,7,7,0,0,1-1.66-1,6.18,6.18,0,0,1-1.2-1.33,6.75,6.75,0,0,1-1.57.88,6.64,6.64,0,0,1-1.88.42,1.31,1.31,0,0,1-1.22-.63,8.73,8.73,0,0,1-.87-2.18A8.42,8.42,0,0,1,123.63,139.8Z"/><path d="M131.91,150.91a3.08,3.08,0,0,1-1.23-.25,8.41,8.41,0,0,1-2.14-1.29l-.39-.34-.47.2a8.54,8.54,0,0,1-2.44.54,3.19,3.19,0,0,1-3-1.57,9.76,9.76,0,0,1-.36-9.15,15.05,15.05,0,0,1,2.81-4.63,6.84,6.84,0,0,1,6.16-2.27,7.13,7.13,0,0,1,.93.21,6.82,6.82,0,0,1,4.22,3.56,13.14,13.14,0,0,1,1.39,5,10.69,10.69,0,0,1-1.5,7,10.3,10.3,0,0,1-1.87,2.2A3.17,3.17,0,0,1,131.91,150.91Zm-3.36-6.23a1.63,1.63,0,0,1,.31,0,1.86,1.86,0,0,1,1.28.82,4.4,4.4,0,0,0,.83.92,5.29,5.29,0,0,0,.82.54,5.63,5.63,0,0,0,.87-1.09,6.6,6.6,0,0,0,1-4.39c0-.08,0-.17,0-.24a9.42,9.42,0,0,0-1-3.64,3.07,3.07,0,0,0-1.86-1.62l-.47-.1a3,3,0,0,0-2.74,1,11,11,0,0,0-2.13,3.52l-.09.2a6.48,6.48,0,0,0-.46,4,6.68,6.68,0,0,0,.48,1.31,4.39,4.39,0,0,0,1-.26,4.14,4.14,0,0,0,1.09-.61A2,2,0,0,1,128.55,144.68ZM125,146Z"/><path class="a" d="M137.89,140.69a13.1,13.1,0,0,1-3.15-3.64,4.94,4.94,0,0,1-.2-4.73v0c.11-.21.23-.41.35-.6a5,5,0,0,1,3.41-2.09,11.18,11.18,0,0,1,4.53.21,8.61,8.61,0,0,1,5.09,2.95,8,8,0,0,1,1.23,2,1.28,1.28,0,0,1-.21,1.35,6.66,6.66,0,0,1-1.46,1.27,6.21,6.21,0,0,1-1.64.73,6,6,0,0,1,.35,1.76,6.63,6.63,0,0,1-.18,1.92,1.28,1.28,0,0,1-1,1,8.77,8.77,0,0,1-2.34.15A8.39,8.39,0,0,1,137.89,140.69Z"/><path d="M143.33,144.83a6.51,6.51,0,0,1-.77,0,10.19,10.19,0,0,1-5.93-2.67A15.06,15.06,0,0,1,133.1,138a6.82,6.82,0,0,1-.26-6.55l0-.05q.21-.41.45-.78a6.87,6.87,0,0,1,4.7-2.91,13.12,13.12,0,0,1,5.19.23,10.6,10.6,0,0,1,6.17,3.58A10,10,0,0,1,150.9,134a3.18,3.18,0,0,1-.51,3.35,8.78,8.78,0,0,1-1.88,1.63l-.45.27c0,.17,0,.34,0,.51a8.26,8.26,0,0,1-.23,2.48,3.2,3.2,0,0,1-2.43,2.37A10.1,10.1,0,0,1,143.33,144.83Zm.84-3.49Zm-4.94-2a6,6,0,0,0,5,1.62,4.84,4.84,0,0,0,.06-1,4.49,4.49,0,0,0-.25-1.22,1.92,1.92,0,0,1,.11-1.52,1.87,1.87,0,0,1,1.18-.95,4.4,4.4,0,0,0,1.9-1.13,6.2,6.2,0,0,0-.78-1.16,6.62,6.62,0,0,0-3.87-2.28l-.24,0a9.36,9.36,0,0,0-3.77-.17,3,3,0,0,0-2.11,1.27,3.81,3.81,0,0,0-.23.4l0,0a3.12,3.12,0,0,0,.16,2.9,11.22,11.22,0,0,0,2.69,3.11A1.07,1.07,0,0,1,139.23,139.34Z"/><path class="a" d="M143.14,127.4a13,13,0,0,1-4.44,1.87,4.93,4.93,0,0,1-4.56-1.27l0,0c-.16-.17-.31-.34-.46-.52a5,5,0,0,1-.93-3.89,11.35,11.35,0,0,1,1.6-4.24,8.61,8.61,0,0,1,4.37-3.93,8.07,8.07,0,0,1,2.28-.56,1.29,1.29,0,0,1,1.22.62,6.67,6.67,0,0,1,.75,1.78,6.28,6.28,0,0,1,.2,1.78,6.38,6.38,0,0,1,3.55,1,1.3,1.3,0,0,1,.61,1.23,8.08,8.08,0,0,1-.57,2.27A8.37,8.37,0,0,1,143.14,127.4Z"/><path d="M137.57,131.29a6.71,6.71,0,0,1-4.77-1.94,8.09,8.09,0,0,1-.64-.72,6.87,6.87,0,0,1-1.32-5.37,13.17,13.17,0,0,1,1.82-4.86,10.63,10.63,0,0,1,5.32-4.76,10,10,0,0,1,2.81-.69,3.19,3.19,0,0,1,3,1.52,8.76,8.76,0,0,1,1,2.3c0,.17.08.34.11.51l.5.11a8.35,8.35,0,0,1,2.29,1,3.21,3.21,0,0,1,1.51,3,9.8,9.8,0,0,1-5.09,7.62,15.16,15.16,0,0,1-5,2.09A7.32,7.32,0,0,1,137.57,131.29Zm3.18-14.5a6.19,6.19,0,0,0-1.34.37,6.72,6.72,0,0,0-3.36,3l-.12.23a9.28,9.28,0,0,0-1.34,3.53,3.09,3.09,0,0,0,.56,2.4l.31.36a3.08,3.08,0,0,0,2.83.77,11,11,0,0,0,3.79-1.59l.19-.11a6.57,6.57,0,0,0,2.7-2.94,5.92,5.92,0,0,0,.39-1.34,5.26,5.26,0,0,0-.93-.36,4.43,4.43,0,0,0-1.24-.15,1.93,1.93,0,0,1-1.41-.56,1.88,1.88,0,0,1-.54-1.42,4.22,4.22,0,0,0-.14-1.24A4.86,4.86,0,0,0,140.75,116.79Zm4.95,4.83Z"/><path class="a" d="M132.12,118.3a13.17,13.17,0,0,1,.41,4.8,5,5,0,0,1-2.62,4h0a5.17,5.17,0,0,1-.64.28,5,5,0,0,1-4-.31,11.39,11.39,0,0,1-3.54-2.84,8.61,8.61,0,0,1-2.39-5.37,8.23,8.23,0,0,1,.18-2.34,1.28,1.28,0,0,1,1-1,6.45,6.45,0,0,1,1.93-.16,6.24,6.24,0,0,1,1.75.36,6.59,6.59,0,0,1,.75-1.63,7.18,7.18,0,0,1,1.28-1.45,1.3,1.3,0,0,1,1.36-.2,7.84,7.84,0,0,1,4.58,5.87Z"/><path d="M127.64,129.52a7.13,7.13,0,0,1-3.25-.8,13.29,13.29,0,0,1-4.07-3.24,10.63,10.63,0,0,1-2.88-6.53,10,10,0,0,1,.21-2.88,3.21,3.21,0,0,1,2.38-2.41,8.81,8.81,0,0,1,2.49-.21l.52,0c.08-.15.17-.29.26-.44a8.75,8.75,0,0,1,1.66-1.88,3.21,3.21,0,0,1,3.35-.49,10.49,10.49,0,0,1,2.45,1.55,10.19,10.19,0,0,1,3.22,5.65,15,15,0,0,1,.44,5.39,6.8,6.8,0,0,1-3.65,5.46,7,7,0,0,1-.87.38A6.45,6.45,0,0,1,127.64,129.52Zm-6.35-12.23a6.48,6.48,0,0,0-.06,1.39,6.74,6.74,0,0,0,1.79,4.13,1.37,1.37,0,0,1,.17.17,9.35,9.35,0,0,0,3,2.36,3.07,3.07,0,0,0,2.45.21,4.17,4.17,0,0,0,.44-.19,3.1,3.1,0,0,0,1.61-2.45,11.23,11.23,0,0,0-.35-4.1,1.6,1.6,0,0,1,0-.21,6.48,6.48,0,0,0-2-3.47,5.81,5.81,0,0,0-1.15-.78,4.41,4.41,0,0,0-1.15,1.9,1.89,1.89,0,0,1-1,1.16,1.85,1.85,0,0,1-1.51.08,4.47,4.47,0,0,0-1.22-.25A4.67,4.67,0,0,0,121.29,117.29Zm6.13-3.21Z"/><circle class="c" cx="131.36" cy="130.37" r="3.68"/><path d="M131.35,136a5.61,5.61,0,1,1,.86-.07A5.07,5.07,0,0,1,131.35,136Zm0-7.37a1.24,1.24,0,0,0-.27,0,1.78,1.78,0,0,0-1.49,2,1.78,1.78,0,0,0,2,1.48,1.78,1.78,0,0,0,1.49-2,1.8,1.8,0,0,0-.71-1.16A1.74,1.74,0,0,0,131.36,128.59Z"/><path class="a" d="M403.29,87.36a16,16,0,0,1,3.51,4.72,6,6,0,0,1-.17,5.79l0,0a5.77,5.77,0,0,1-.48.7,6,6,0,0,1-4.33,2.24,13.79,13.79,0,0,1-5.5-.66,10.49,10.49,0,0,1-6-4.05A9.7,9.7,0,0,1,389,93.59,1.55,1.55,0,0,1,389.4,92a7.9,7.9,0,0,1,1.89-1.42,8,8,0,0,1,2.06-.75,7.87,7.87,0,0,1-.27-2.17,8.12,8.12,0,0,1,.4-2.33,1.54,1.54,0,0,1,1.27-1.08,9.86,9.86,0,0,1,2.87,0A10.22,10.22,0,0,1,403.29,87.36Z"/><path d="M400.67,103.21a16,16,0,0,1-5-.79,13,13,0,0,1-7.2-4.93,12,12,0,0,1-1.63-3.13,3.89,3.89,0,0,1,.92-4,10.35,10.35,0,0,1,2.44-1.82c.19-.11.39-.2.58-.29,0-.21,0-.41,0-.62a10.54,10.54,0,0,1,.5-3,3.94,3.94,0,0,1,3.17-2.68,12.7,12.7,0,0,1,3.54,0,12.38,12.38,0,0,1,7,3.8,18.2,18.2,0,0,1,3.94,5.32,8.31,8.31,0,0,1-.28,8,.41.41,0,0,1-.05.09,8.67,8.67,0,0,1-.61.87,8.39,8.39,0,0,1-6,3.13C401.53,103.19,401.1,103.21,400.67,103.21Zm-9.28-9.92a7,7,0,0,0,.84,1.48,8.13,8.13,0,0,0,4.51,3.13L397,98a11.51,11.51,0,0,0,4.58.55,3.75,3.75,0,0,0,2.68-1.36,4.07,4.07,0,0,0,.33-.48l0,0a3.75,3.75,0,0,0,.08-3.55,13.78,13.78,0,0,0-3-4,1.7,1.7,0,0,1-.19-.19,7.14,7.14,0,0,0-6-2.41,5.5,5.5,0,0,0-.16,1.21,5.84,5.84,0,0,0,.19,1.51,2.32,2.32,0,0,1-1.79,2.89,5,5,0,0,0-1.42.53A5.29,5.29,0,0,0,391.39,93.29Zm-.18-.47Z"/><path class="a" d="M395.7,103.09a16,16,0,0,1,5.58-1.88,6,6,0,0,1,5.44,2l0,0a6.67,6.67,0,0,1,.52.67,6.1,6.1,0,0,1,.79,4.82,14,14,0,0,1-2.33,5,10.5,10.5,0,0,1-5.69,4.41,10.19,10.19,0,0,1-2.82.47,1.57,1.57,0,0,1-1.43-.86,8.4,8.4,0,0,1-.76-2.24,7.42,7.42,0,0,1-.08-2.19,7.93,7.93,0,0,1-4.24-1.51,1.6,1.6,0,0,1-.64-1.55,10,10,0,0,1,.91-2.72A10.19,10.19,0,0,1,395.7,103.09Z"/><path d="M397.18,120.91a3.92,3.92,0,0,1-3.46-2.12,10.62,10.62,0,0,1-1-2.89q-.06-.32-.09-.63l-.6-.19a10.53,10.53,0,0,1-2.7-1.41,3.92,3.92,0,0,1-1.57-3.84,12.9,12.9,0,0,1,1.12-3.36,12.43,12.43,0,0,1,5.77-5.46,18.08,18.08,0,0,1,6.27-2.1,8.33,8.33,0,0,1,7.54,2.74,8.8,8.8,0,0,1,.71.92,8.42,8.42,0,0,1,1.13,6.66,16.09,16.09,0,0,1-2.66,5.77,13,13,0,0,1-6.9,5.33,12.44,12.44,0,0,1-3.49.58Zm-4.72-10.74a5.81,5.81,0,0,0,1.1.52,5.61,5.61,0,0,0,1.5.29,2.28,2.28,0,0,1,1.66.82,2.32,2.32,0,0,1,.54,1.77,4.93,4.93,0,0,0,.06,1.52,5.57,5.57,0,0,0,.34,1.15,7.28,7.28,0,0,0,1.67-.34,8.09,8.09,0,0,0,4.37-3.33l.16-.24a11.48,11.48,0,0,0,1.94-4.19,3.74,3.74,0,0,0-.46-3,5.07,5.07,0,0,0-.35-.46,3.73,3.73,0,0,0-3.38-1.2,13.67,13.67,0,0,0-4.76,1.6,1.15,1.15,0,0,1-.25.12,8,8,0,0,0-3.55,3.34A7.63,7.63,0,0,0,392.46,110.17Zm-.4-.27h0Z"/><path class="a" d="M408.32,115.17a15.83,15.83,0,0,1-.07-5.89,6,6,0,0,1,3.54-4.57l0,0a8.46,8.46,0,0,1,.8-.28,6.1,6.1,0,0,1,4.83.73,14,14,0,0,1,4.06,3.78,10.49,10.49,0,0,1,2.43,6.76,10.34,10.34,0,0,1-.42,2.84,1.58,1.58,0,0,1-1.27,1.09,8,8,0,0,1-2.36,0,7.77,7.77,0,0,1-2.11-.6,7.81,7.81,0,0,1-1.06,1.92,8.4,8.4,0,0,1-1.69,1.65,1.57,1.57,0,0,1-1.67.12,9.56,9.56,0,0,1-5.05-7.56Z"/><path d="M414.1,125.23a3.8,3.8,0,0,1-1.82-.45,11.84,11.84,0,0,1-6.26-9.27,18,18,0,0,1-.06-6.62,8.32,8.32,0,0,1,4.93-6.32,9.21,9.21,0,0,1,1.1-.39,8.42,8.42,0,0,1,6.68,1,16.31,16.31,0,0,1,4.67,4.31,13,13,0,0,1,2.93,8.22,12.24,12.24,0,0,1-.52,3.49,3.9,3.9,0,0,1-3.12,2.72,10,10,0,0,1-3,0c-.22,0-.43-.06-.64-.11a4.67,4.67,0,0,1-.36.51,10.05,10.05,0,0,1-2.18,2.14A3.89,3.89,0,0,1,414.1,125.23Zm-.43-4.5Zm-3-5.76a7.94,7.94,0,0,0,2.08,4.41,7.29,7.29,0,0,0,1.33,1.06,5.41,5.41,0,0,0,.84-.89,5.62,5.62,0,0,0,.74-1.33,2.32,2.32,0,0,1,3.15-1.29,5.45,5.45,0,0,0,1.46.41,5.94,5.94,0,0,0,1.2,0,7.49,7.49,0,0,0,.19-1.69,8.18,8.18,0,0,0-1.81-5.19l-.19-.23a11.54,11.54,0,0,0-3.38-3.14,3.78,3.78,0,0,0-3-.48c-.18.06-.37.12-.55.2a3.76,3.76,0,0,0-2.18,2.84,13.49,13.49,0,0,0,0,5A2,2,0,0,1,410.63,115Z"/><path class="a" d="M423.7,106.9a16,16,0,0,1-5.62-1.75,6,6,0,0,1-3.25-4.79v0a7.85,7.85,0,0,1,0-.84A6.08,6.08,0,0,1,417,95.11a14,14,0,0,1,4.84-2.69A10.49,10.49,0,0,1,429,92.2a10.15,10.15,0,0,1,2.56,1.27,1.58,1.58,0,0,1,.66,1.54,8.1,8.1,0,0,1-.71,2.26,7.82,7.82,0,0,1-1.22,1.82,8,8,0,0,1,1.5,1.6,8.05,8.05,0,0,1,1,2.11,1.58,1.58,0,0,1-.39,1.63,9.53,9.53,0,0,1-8.76,2.47Z"/><path d="M425.74,109.43a12.18,12.18,0,0,1-2.43-.23,18.31,18.31,0,0,1-6.31-2,8.31,8.31,0,0,1-4.49-6.64c0-.42,0-.8,0-1.17a8.44,8.44,0,0,1,3-6,16.33,16.33,0,0,1,5.54-3.1,13,13,0,0,1,8.72-.25,12,12,0,0,1,3.17,1.57,3.93,3.93,0,0,1,1.62,3.81,10.18,10.18,0,0,1-.91,2.91c-.09.2-.19.38-.29.57.13.16.25.33.37.5a10.4,10.4,0,0,1,1.36,2.73,3.9,3.9,0,0,1-1,4,12.38,12.38,0,0,1-2.88,2.06A11.91,11.91,0,0,1,425.74,109.43Zm-1.51-4.79a7.9,7.9,0,0,0,4.83-.61,6.91,6.91,0,0,0,1.42-1,5.8,5.8,0,0,0-.58-1.07,5.55,5.55,0,0,0-1-1.11,2.34,2.34,0,0,1-.86-1.64,2.29,2.29,0,0,1,.61-1.75,5.35,5.35,0,0,0,.85-1.26,5.81,5.81,0,0,0,.4-1.13,7.77,7.77,0,0,0-1.55-.72,8.16,8.16,0,0,0-5.5.13,1.25,1.25,0,0,1-.27.1,11.65,11.65,0,0,0-4,2.25,3.73,3.73,0,0,0-1.37,2.68,3.62,3.62,0,0,0,0,.57,3.73,3.73,0,0,0,2,3,13.29,13.29,0,0,0,4.8,1.5Zm6.42-1.11Z"/><path class="a" d="M420.59,89.72a16.12,16.12,0,0,1-3.4,4.8,6.06,6.06,0,0,1-5.56,1.62h0a6.94,6.94,0,0,1-.81-.25,6.05,6.05,0,0,1-3.47-3.42A13.92,13.92,0,0,1,406.24,87a10.56,10.56,0,0,1,2-6.91,10.24,10.24,0,0,1,2-2,1.54,1.54,0,0,1,1.66-.14,8,8,0,0,1,1.93,1.36A7.33,7.33,0,0,1,415.2,81a7.77,7.77,0,0,1,2-.93,8,8,0,0,1,2.33-.34,1.56,1.56,0,0,1,1.43.88,9.58,9.58,0,0,1-.36,9.09Z"/><path d="M412.94,98.61a8.16,8.16,0,0,1-1.83-.21,10.86,10.86,0,0,1-1.12-.33,8.42,8.42,0,0,1-4.83-4.73,16,16,0,0,1-1.24-6.22,13,13,0,0,1,2.46-8.37,12.33,12.33,0,0,1,2.47-2.53,3.93,3.93,0,0,1,4.12-.37,10.64,10.64,0,0,1,2.49,1.76c.16.15.3.31.45.46l.59-.2a10.67,10.67,0,0,1,3-.45h0a3.93,3.93,0,0,1,3.5,2.19A12.77,12.77,0,0,1,424.11,83a12.48,12.48,0,0,1-1.45,7.81,18.39,18.39,0,0,1-3.85,5.38A8.4,8.4,0,0,1,412.94,98.61Zm-1.66-18.38a8,8,0,0,0-1.15,1.25,8.16,8.16,0,0,0-1.58,5.27,1.41,1.41,0,0,1,0,.29,11.55,11.55,0,0,0,.9,4.53,3.72,3.72,0,0,0,2.11,2.13,5.36,5.36,0,0,0,.57.17,3.73,3.73,0,0,0,3.43-1,13.54,13.54,0,0,0,2.91-4.1,1.71,1.71,0,0,1,.13-.23,8,8,0,0,0,.91-4.79,8.2,8.2,0,0,0-.46-1.64,5.79,5.79,0,0,0-1.2.22,5.65,5.65,0,0,0-1.38.65,2.32,2.32,0,0,1-3.31-.81,5,5,0,0,0-.93-1.19A5.4,5.4,0,0,0,411.28,80.23Zm8.25,1.84Z"/><circle class="c" cx="410.36" cy="100.39" r="4.5"/><path d="M410.35,107.21a6.75,6.75,0,0,1-3.55-1,6.82,6.82,0,1,1,7.12-11.64h0a6.82,6.82,0,0,1-3.57,12.64Zm0-9a2.17,2.17,0,0,0-1.14,4,2.17,2.17,0,0,0,3-.72,2.17,2.17,0,0,0-.72-3A2.2,2.2,0,0,0,410.36,98.21Z"/><path class="d" d="M259.76,152.15a5.76,5.76,0,0,1,1.29,0,5.32,5.32,0,0,1,4.57,3.93c.95,3.41-1.52,6.84-3.56,9.07a6,6,0,0,1-1.57-2.62c-.34-1.22-.3-2.71-1.41-3.46s-2.53-.1-3.73,0a5,5,0,0,1-2.46-.37C254.17,156,256.36,152.59,259.76,152.15Z"/><path d="M262.06,167.62a2.51,2.51,0,0,1-1.79-.75,8.74,8.74,0,0,1-2.19-3.69c-.1-.38-.18-.78-.26-1.17s-.11-.6-.17-.82c-.23,0-.57.1-.82.15a10.32,10.32,0,0,1-1.19.22A7.49,7.49,0,0,1,252,161a2.5,2.5,0,0,1-1.33-3.39c2.29-4.83,5.26-7.51,8.81-8h0a7.81,7.81,0,0,1,7.91,4,8,8,0,0,1,.68,1.71c1,3.53-.41,7.37-4.13,11.43a2.46,2.46,0,0,1-1.8.81Zm-4.27-11.43a4.76,4.76,0,0,1,2.67.77,5.11,5.11,0,0,1,2.1,3.27,4.9,4.9,0,0,0,.65-3.52A3,3,0,0,0,263,156a2.65,2.65,0,0,0-2.14-1.43,2.8,2.8,0,0,0-.73,0h0a4.56,4.56,0,0,0-2.64,1.57Z"/><path class="a" d="M252.89,158.71a5,5,0,0,0,2.46.37c1.2-.14,2.59-.79,3.73,0s1.07,2.24,1.41,3.46a6,6,0,0,0,1.57,2.62c-.61.68-1.18,1.24-1.61,1.67a23.36,23.36,0,0,1-8.7,5.29,1,1,0,0,1-1.4-.94,22.43,22.43,0,0,1,.16-4.89,21.73,21.73,0,0,1,1.36-5.16C252.11,160.47,252.45,159.63,252.89,158.71Z"/><path d="M251.37,174.65a3.51,3.51,0,0,1-2-.59,3.57,3.57,0,0,1-1.57-2.75,25.67,25.67,0,0,1,.18-5.4,24.09,24.09,0,0,1,1.53-5.78c.28-.7.62-1.55,1.07-2.5a2.49,2.49,0,0,1,3.18-1.24,2.54,2.54,0,0,0,1.26.2c.21,0,.45-.08.7-.13a5.11,5.11,0,0,1,7,4.62c.05.25.09.5.16.74a3.66,3.66,0,0,0,1,1.56,2.5,2.5,0,0,1,.07,3.42c-.62.69-1.2,1.26-1.72,1.77a24.87,24.87,0,0,1-4.73,3.62,25.89,25.89,0,0,1-4.92,2.26A3.66,3.66,0,0,1,251.37,174.65Zm1.47-3.7h0ZM251,169.71h0Zm3.41-8.12c-.05.12-.1.23-.14.34l0,.11a19.43,19.43,0,0,0-1.2,4.56,21.19,21.19,0,0,0-.19,2.39,20.24,20.24,0,0,0,2.12-1.1,19.82,19.82,0,0,0,3.78-2.88l.11-.1a8.67,8.67,0,0,1-.72-1.73c-.1-.38-.18-.78-.26-1.17s-.11-.6-.17-.82c-.23,0-.57.1-.82.15a10.32,10.32,0,0,1-1.19.22A6.87,6.87,0,0,1,254.36,161.59Z"/><path class="a" d="M272.71,2.7c-1.44-1-6.38,2.07-8.9,6.58A11.12,11.12,0,0,0,262.16,17c1,5,5.63,7.21,6.38,7.57,5.13,2.47,11.69,1.11,12.21-.93.32-1.27-2-1.83-2.65-4.8s1.06-4,.14-6c-1-2.21-3.48-1.55-4.88-3.86C271.74,6.32,273.87,3.53,272.71,2.7Z"/><path d="M274.63,28.37a16.66,16.66,0,0,1-7.17-1.57c-2-.95-6.66-3.76-7.75-9.36a13.56,13.56,0,0,1,1.92-9.37c2.13-3.83,6.09-7.24,9.21-7.94a4,4,0,0,1,3.33.54h0C276,2,275.6,4,275.39,5.2a3.5,3.5,0,0,0,.11,2.49c.26.43.57.59,1.42,1a6.28,6.28,0,0,1,3.6,3.16,5.94,5.94,0,0,1,.16,4.35,3.8,3.8,0,0,0-.15,2.09,4.25,4.25,0,0,0,1.25,2.05,4.1,4.1,0,0,1,1.39,3.93,4.69,4.69,0,0,1-2.86,3A13.87,13.87,0,0,1,274.63,28.37ZM270.26,5.84A14.29,14.29,0,0,0,266,10.5a8.62,8.62,0,0,0-1.38,6c.65,3.37,3.72,5.18,5,5.8a11.92,11.92,0,0,0,7.86.71,8.71,8.71,0,0,1-1.83-3.62,8.61,8.61,0,0,1,.19-4.49c.21-.81.19-.85.12-1s-.2-.29-1.05-.67a7.35,7.35,0,0,1-3.7-3A7.21,7.21,0,0,1,270.26,5.84Z"/><path class="d" d="M257.94,25.6a6.76,6.76,0,0,1-1.39-.89,6.6,6.6,0,0,1-2.43-5.83,7.52,7.52,0,0,1,.35-1.63c1.43-4.31,6.51-6.21,10.29-7.14a8,8,0,0,1-.2,3.93c-.51,1.55-1.62,3.1-1,4.69s2.62,1.93,4,2.63A6.52,6.52,0,0,1,270,23.52C266.65,25.49,261.89,27.57,257.94,25.6Z"/><path d="M261.44,28.9a10.18,10.18,0,0,1-4.62-1.06h0a9.68,9.68,0,0,1-1.86-1.2,9.14,9.14,0,0,1-3.32-8,8.88,8.88,0,0,1,.46-2.16c1.4-4.22,5.46-7.17,12.07-8.78a2.44,2.44,0,0,1,1.95.33,2.47,2.47,0,0,1,1.1,1.64,10.47,10.47,0,0,1-.28,5.15c-.16.47-.35.92-.54,1.38s-.59,1.36-.49,1.58.92.56,1.47.78a14,14,0,0,1,1.36.59,9,9,0,0,1,3.29,3,2.48,2.48,0,0,1-.79,3.55C267.63,27.82,264.35,28.9,261.44,28.9Zm-2.39-5.53c1.6.79,3.68.69,6.2-.29a6.44,6.44,0,0,1-4-3.39c-.9-2.16-.09-4.07.51-5.47l.28-.66c-2.87,1.14-4.63,2.64-5.24,4.48a4.76,4.76,0,0,0-.23,1.07,4.11,4.11,0,0,0,1.52,3.66,4.27,4.27,0,0,0,.92.6Z"/><path class="a" d="M3.53,64.74c.91,1.52,6.68.64,10.79-2.5a11.08,11.08,0,0,0,4.57-6.39C20,50.91,16.6,47,16.06,46.36c-3.72-4.31-10.29-5.67-11.57-4-.8,1,1.06,2.46.52,5.45S2.46,51,2.5,53.22c0,2.44,2.58,2.82,2.94,5.49C5.86,61.8,2.8,63.51,3.53,64.74Z"/><path d="M5.7,68a7.59,7.59,0,0,1-1.47-.13A4,4,0,0,1,1.38,66h0c-1.12-1.89,0-3.61.69-4.64A3.5,3.5,0,0,0,3,59.05c-.06-.49-.29-.77-.91-1.44a6.29,6.29,0,0,1-2-4.34,6,6,0,0,1,1.58-4.06,3.77,3.77,0,0,0,1-1.85A4.23,4.23,0,0,0,2.22,45a4.09,4.09,0,0,1,.29-4.15,4.71,4.71,0,0,1,3.84-1.66A16.37,16.37,0,0,1,18,44.73c1.43,1.65,4.61,6.1,3.38,11.66a13.62,13.62,0,0,1-5.49,7.84A18.36,18.36,0,0,1,5.7,68ZM7.23,44.21a8.57,8.57,0,0,1,.24,4,8.72,8.72,0,0,1-2,4.05C5,53,5,53,5,53.17s.07.35.7,1a7.31,7.31,0,0,1,2.22,4.18A7.14,7.14,0,0,1,7,62.83a14.24,14.24,0,0,0,5.77-2.57,8.7,8.7,0,0,0,3.65-4.95C17.19,52,15.1,49.08,14.16,48A11.91,11.91,0,0,0,7.23,44.21Z"/><path class="d" d="M26.2,49.61A7,7,0,0,1,27.12,51,6.57,6.57,0,0,1,27,57.3a6.79,6.79,0,0,1-1,1.35C23,62,17.61,61.76,13.78,61.1a7.83,7.83,0,0,1,1.75-3.52c1.08-1.21,2.72-2.2,2.75-3.92s-1.64-2.81-2.63-4a6.35,6.35,0,0,1-1.31-2.91C18.16,46.25,23.37,46.24,26.2,49.61Z"/><path d="M18.16,64a29,29,0,0,1-4.8-.44,2.51,2.51,0,0,1-2-3,10.58,10.58,0,0,1,2.31-4.61c.33-.37.68-.71,1-1s1.08-1,1.09-1.26-.63-.88-1-1.29-.69-.69-1-1.09a9,9,0,0,1-1.83-4,2.48,2.48,0,0,1,2.13-3c6.55-.85,11.3.41,14.1,3.74h0a10,10,0,0,1,1.23,1.85,9.16,9.16,0,0,1-.14,8.67,9.87,9.87,0,0,1-1.28,1.8C25.72,62.78,22.45,64,18.16,64Zm-.55-5q4.63.15,6.59-2a4.3,4.3,0,0,0,.63-.88,4.09,4.09,0,0,0,.07-4,4.32,4.32,0,0,0-.61-.91h0c-1.15-1.36-3.09-2.1-5.8-2.21a6.5,6.5,0,0,1,2.29,4.69c0,2.34-1.55,3.77-2.65,4.81Z"/><circle class="e" cx="686.95" cy="0.5" r="0.5"/></svg>