<svg xmlns="http://www.w3.org/2000/svg" viewBox="0 0 703.02 334.45"><defs><style>.a{fill:#ffbde1;}.b{fill:#423224;}.c{fill:#ffd32a;}.d{fill:#004f27;}.e{fill:#fff;}</style></defs><path d="M70.14,319a2.62,2.62,0,0,1-1-.21,49.72,49.72,0,0,1-18.73-14.5,50.43,50.43,0,0,1-10.62-30.57,2.5,2.5,0,0,1,2.48-2.52h0a2.5,2.5,0,0,1,2.5,2.48,45.5,45.5,0,0,0,9.54,27.51,44.63,44.63,0,0,0,16.85,13,2.5,2.5,0,0,1-1,4.78Z"/><path d="M55.21,308.64a2.43,2.43,0,0,1-1.16-.29,26.32,26.32,0,0,0-12.2-3h-.4a26.5,26.5,0,0,0-11.62,2.91,2.5,2.5,0,1,1-2.28-4.44,31.21,31.21,0,0,1,28.83.11,2.5,2.5,0,0,1-1.17,4.72Z"/><path d="M341.25,263H341A66.81,66.81,0,0,1,315,254.39c-17.42-10.11-25.7-25.69-29.09-34.07a2.5,2.5,0,0,1,4.64-1.87c3.14,7.79,10.83,22.25,27,31.62a61.69,61.69,0,0,0,24,7.91,2.5,2.5,0,0,1-.28,5Z"/><path d="M288.25,221.89a2.51,2.51,0,0,1-2.43-1.92,73.49,73.49,0,0,0-18.45-34.06A70.32,70.32,0,0,0,252.1,174a2.5,2.5,0,0,1,2.51-4.33A75.76,75.76,0,0,1,271,182.42a78.49,78.49,0,0,1,19.72,36.38,2.51,2.51,0,0,1-1.85,3A2.87,2.87,0,0,1,288.25,221.89Z"/><path d="M304.42,245.49a2.49,2.49,0,0,1-1.58-4.43A29.38,29.38,0,0,1,313,235.67a30,30,0,0,1,17.9.28,2.5,2.5,0,0,1-1.54,4.76,25,25,0,0,0-14.92-.25,24.28,24.28,0,0,0-8.4,4.47A2.48,2.48,0,0,1,304.42,245.49Z"/><path class="a" d="M247.44,256a8.59,8.59,0,0,0-17.06-2.08,8.51,8.51,0,0,0,.84,4.86,8.63,8.63,0,0,0-1.89,4,12.83,12.83,0,0,0-15-1,10.75,10.75,0,1,0-6.05,11.15A12.88,12.88,0,0,0,234,274.23,13.44,13.44,0,0,0,234,272a8.58,8.58,0,0,0,11.43-11.55A8.58,8.58,0,0,0,247.44,256Z"/><path d="M221.2,288.07a15,15,0,0,1-1.89-.12,15.45,15.45,0,0,1-13.11-11.76,13.35,13.35,0,0,1-4.09.15A13.24,13.24,0,1,1,216,258.2a15.41,15.41,0,0,1,7.07-.8,15,15,0,0,1,5,1.53c.1-.18.2-.35.31-.52a11.08,11.08,0,0,1,11.87-14.49,11.09,11.09,0,0,1,8.05,16.91,11.09,11.09,0,0,1-11.87,14.49h-.1a15.42,15.42,0,0,1-15.13,12.76ZM208.29,270.4a2.48,2.48,0,0,1,2.5,2.46,10.38,10.38,0,0,0,20.69,1.07,11.22,11.22,0,0,0,.05-1.77,2.5,2.5,0,0,1,3.59-2.37,5.93,5.93,0,0,0,1.91.57,6.09,6.09,0,0,0,6.19-8.76,2.5,2.5,0,0,1,.33-2.73,6.07,6.07,0,0,0,1.41-3.21h0a6.09,6.09,0,1,0-11.51,2,2.48,2.48,0,0,1-.33,2.73,6.11,6.11,0,0,0-1.33,2.81,2.49,2.49,0,0,1-1.6,1.89,2.52,2.52,0,0,1-2.45-.42,10.35,10.35,0,0,0-5.32-2.29,10.23,10.23,0,0,0-6.75,1.51,2.51,2.51,0,0,1-3.81-1.79,8.23,8.23,0,1,0-4.64,8.56A2.53,2.53,0,0,1,208.29,270.4Z"/><path class="a" d="M185.92,205.87a7.67,7.67,0,0,0,.23-1.08,6.44,6.44,0,0,0-12.77-1.68,8.52,8.52,0,0,0-4.13-1.68h0c0-.14.06-.28.08-.43a7.3,7.3,0,0,0-14.13-3.33,7.72,7.72,0,1,0,.64,6.24,7.29,7.29,0,0,0,4.28,3.24,8,8,0,0,0-.41,1.77,8.59,8.59,0,0,0,14,7.65,8.59,8.59,0,1,0,12.23-10.7Z"/><path d="M181.67,224.42a10.34,10.34,0,0,1-1.36-.08,11.1,11.1,0,0,1-7.48-4.29,11.11,11.11,0,0,1-15.64-11.42,8.25,8.25,0,0,1-.88-.57,10.22,10.22,0,0,1-15.9-.25,10.24,10.24,0,0,1,14.42-14.33,9.81,9.81,0,0,1,17,6l.19.06a8.94,8.94,0,0,1,16.65,5.2,11.09,11.09,0,0,1-7,19.68Zm-8-10.35a2.54,2.54,0,0,1,.61.07,2.48,2.48,0,0,1,1.7,1.48,6.13,6.13,0,0,0,4.91,3.76A6.09,6.09,0,0,0,184.67,208a2.52,2.52,0,0,1-1.15-2.89,3.72,3.72,0,0,0,.15-.67,4,4,0,0,0-3.44-4.39,4,4,0,0,0-4.38,3.37,2.5,2.5,0,0,1-1.52,2,2.53,2.53,0,0,1-2.46-.32,6,6,0,0,0-2.88-1.18l-.12,0a2.46,2.46,0,0,1-1.67-1,2.49,2.49,0,0,1-.44-1.9l.06-.29a4.8,4.8,0,0,0-9.29-2.19,2.5,2.5,0,0,1-4.53.4,5.23,5.23,0,1,0-5.17,7.78,5.24,5.24,0,0,0,5.6-3.56,2.51,2.51,0,0,1,4.52-.52,4.74,4.74,0,0,0,2.81,2.13,2.51,2.51,0,0,1,1.69,3.23,6.09,6.09,0,0,0,5,8,6,6,0,0,0,4.62-1.37A2.55,2.55,0,0,1,173.69,214.07Z"/><path class="a" d="M464.67,190.38a9.42,9.42,0,0,0-4.52.15,11.77,11.77,0,0,0,.4-1.47,13.31,13.31,0,1,0-25.44,2,10.56,10.56,0,0,0-2.15,2.55,11.4,11.4,0,0,0-2.46-.87,9,9,0,0,0-15.62-5.87,10.71,10.71,0,0,0-11.21-2.7,9.45,9.45,0,0,0-18,1.61,10.2,10.2,0,0,0-.2,1.72l-.16,0a9.45,9.45,0,0,0-10.44,5.05,8.72,8.72,0,0,0-1.92-.67,8.59,8.59,0,0,0-7.4,1.9,7.73,7.73,0,0,0-12.4,4.41,7.49,7.49,0,0,0,0,3.09,8.64,8.64,0,0,0-4.06,3.07,6.87,6.87,0,1,0,2.6,12.39,8.34,8.34,0,0,0,2.58,1,8.59,8.59,0,0,0,8.82-3.46,9.55,9.55,0,0,0,1.08.3,9,9,0,0,0,10.6-6.51,8.6,8.6,0,0,0,3.7-3.27,9.35,9.35,0,0,0,2.92,1.16,9.45,9.45,0,0,0,11.22-7.26,10.2,10.2,0,0,0,.2-1.72l.16,0a9.41,9.41,0,0,0,3.81,0,10.72,10.72,0,0,0,19.34,3.2c.23.17.47.33.71.48a8.48,8.48,0,0,0-.24.9,11.59,11.59,0,0,0,21.72,7.58,10.26,10.26,0,0,0,1.6.49,10.75,10.75,0,0,0,12.75-8.26,10.53,10.53,0,0,0,.2-3l.51-.23a9.45,9.45,0,1,0,11.32-7.87Z"/><path d="M347.74,220.44a9.08,9.08,0,0,1-1.94-.21A9.37,9.37,0,0,1,348,201.7a11.32,11.32,0,0,1,2.49-2,10.52,10.52,0,0,1,.22-2.09,10.25,10.25,0,0,1,12.15-7.87,10,10,0,0,1,2.63,1,11,11,0,0,1,8-1.32l.34.08a11.94,11.94,0,0,1,9.51-4.73h0a11.95,11.95,0,0,1,21.6-3.48,13.18,13.18,0,0,1,9.92,2.3,11.61,11.61,0,0,1,9-1.84,11.47,11.47,0,0,1,7.89,6.11,16,16,0,0,1,.27-4.88,15.82,15.82,0,0,1,31.23,4.72,11.11,11.11,0,0,1,1.9.25h0a11.95,11.95,0,1,1-12.13,18.74,13.41,13.41,0,0,1-3.73,3.62,13.16,13.16,0,0,1-9.89,1.85,14.09,14.09,0,0,1-25.53-6.42,13.26,13.26,0,0,1-18.86-6h-.14a12,12,0,0,1-14.06,8.68,10.67,10.67,0,0,1-1.67-.49,11.09,11.09,0,0,1-2.37,1.88,11.5,11.5,0,0,1-12.84,7.3,11.07,11.07,0,0,1-10.25,3.08,10.58,10.58,0,0,1-2-.62A9.53,9.53,0,0,1,347.74,220.44Zm0-13.74a4.37,4.37,0,0,0-.92,8.64,4.33,4.33,0,0,0,3.4-.68,2.5,2.5,0,0,1,2.69-.1,6,6,0,0,0,1.83.72,6.1,6.1,0,0,0,6.26-2.45,2.5,2.5,0,0,1,2.86-.93,5.81,5.81,0,0,0,.78.23,6.51,6.51,0,0,0,7.66-4.71,2.49,2.49,0,0,1,1.37-1.63,6.16,6.16,0,0,0,2.63-2.32,2.5,2.5,0,0,1,3.42-.82,6.93,6.93,0,0,0,10.4-4.48,7.26,7.26,0,0,0,.14-1.27,2.5,2.5,0,0,1,3.06-2.37l.2.05a6.91,6.91,0,0,0,2.72,0,2.49,2.49,0,0,1,2.9,1.82A8.23,8.23,0,0,0,414,198.86a2.5,2.5,0,0,1,3.58-.62c.16.12.33.23.51.34a2.49,2.49,0,0,1,1.09,2.85c-.07.24-.14.47-.19.72a9.09,9.09,0,0,0,17,5.94,2.49,2.49,0,0,1,3.13-1.22,9.1,9.1,0,0,0,1.23.37,8.22,8.22,0,0,0,9.94-8.6,2.5,2.5,0,0,1,1.49-2.45l.41-.19a2.5,2.5,0,0,1,3.57,2.61,6.94,6.94,0,1,0,5-5.68,2.5,2.5,0,0,1-3-3.2,12.15,12.15,0,0,0,.33-1.19,10.82,10.82,0,1,0-20.67,1.63,2.5,2.5,0,0,1-.7,2.79,8.54,8.54,0,0,0-1.65,1.95,2.5,2.5,0,0,1-3.22,1,8.93,8.93,0,0,0-1.93-.69,2.49,2.49,0,0,1-1.94-2.36,6.51,6.51,0,0,0-11.29-4.24,2.55,2.55,0,0,1-1.81.8,2.46,2.46,0,0,1-1.83-.77,8.2,8.2,0,0,0-8.59-2.07,2.5,2.5,0,0,1-3.12-1.41,7,7,0,0,0-5-4.16,6.95,6.95,0,0,0-8.25,5.34,6.31,6.31,0,0,0-.15,1.27,2.51,2.51,0,0,1-1,1.91,2.48,2.48,0,0,1-2.1.45l-.2-.05a6.92,6.92,0,0,0-7.58,3.74,2.51,2.51,0,0,1-3.33,1.14,6.28,6.28,0,0,0-1.36-.47,6,6,0,0,0-5.25,1.35,2.49,2.49,0,0,1-3.2,0,5.14,5.14,0,0,0-2.17-1,5.23,5.23,0,0,0-6.24,6.11,2.49,2.49,0,0,1-1.6,2.83,6.11,6.11,0,0,0-2.88,2.18,2.52,2.52,0,0,1-2.51,1A3.8,3.8,0,0,0,347.77,206.7Z"/><circle class="a" cx="250.21" cy="290.06" r="5.16"/><path d="M250.23,297.72a7.3,7.3,0,0,1-.94-.06,7.56,7.56,0,1,1,.94.06Zm0-10.31a2.67,2.67,0,0,0-1.64.56,2.71,2.71,0,0,0-1,1.77,2.67,2.67,0,0,0,2.32,3,2.67,2.67,0,0,0,3-2.31h0a2.64,2.64,0,0,0-.55-1.95,2.6,2.6,0,0,0-1.77-1A1.77,1.77,0,0,0,250.21,287.41Z"/><circle class="a" cx="409.94" cy="161.92" r="6.44"/><path d="M410,170.87a8.08,8.08,0,0,1-1.09-.07,8.95,8.95,0,1,1,10-7.8h0A9,9,0,0,1,410,170.87Zm0-12.89a4,4,0,1,0,.48,0Z"/><circle class="a" cx="147.08" cy="170.17" r="5.16"/><path d="M147.1,177.82c-.31,0-.63,0-.94,0a7.76,7.76,0,1,1,.94,0Zm0-10.31a2.68,2.68,0,0,0-1.63.56,2.65,2.65,0,0,0,1.31,4.73,2.65,2.65,0,0,0,3-2.31h0a2.65,2.65,0,0,0-2.31-3Z"/><circle class="a" cx="392.75" cy="235.57" r="5.16"/><path d="M392.76,243.23a7.26,7.26,0,0,1-.93-.06,7.65,7.65,0,0,1-3.8-13.62,7.57,7.57,0,0,1,5.65-1.58,7.67,7.67,0,0,1,6.67,8.53h0A7.66,7.66,0,0,1,392.76,243.23Zm0-10.31a2.66,2.66,0,1,0,.32,0A1.72,1.72,0,0,0,392.75,232.92Z"/><path class="b" d="M658.66,156A1832.22,1832.22,0,0,1,386,207.5q-46.33,5.16-90.22,7.78A246.82,246.82,0,0,1,254,251.58c-15.73,10.8-30.34,18-42.77,24.22-7.45,3.69-14.58,7.23-23.84,10.95-17,6.82-30.61,10-52,14.44-32.22,6.73-64.34,13.44-64.66,12-.38-1.66,44.77-11.58,109-35.2,21-7.71,30.79-12,41.08-17.5a259.88,259.88,0,0,0,60.75-44.86c-11,.19-26.81.32-45.75-.06-51-1-103-5.23-103-7.35s52.78-2.63,71.3-2.57c5.51,0,19.09.13,37.68-.19,7.29-.13,8.81-.21,15.18-.3,18.71-.26,32,.05,36.35.1,21.37.26,25.71-3.28,57.85-5.94,39.57-3.28,50.22.65,83.86-6.24,5.12-1,7.92-1.76,16.94-4,110.94-27.5,103.36-22.47,118.64-28.84,30.4-12.67,57.78-20.12,80.81-27.28a12,12,0,0,1,7.13,23Z"/><path d="M71.81,315.92c-1.9,0-3.07-.51-3.45-2.13-.61-2.67,2.14-3.53,6-4.74,2.89-.91,7.17-2.14,12.6-3.69,19.29-5.54,51.56-14.79,92.06-29.68,19.67-7.23,30-11.61,40.77-17.36a256.72,256.72,0,0,0,55.64-40c-13.11.15-26.38.1-39.52-.16-22.88-.46-48.23-1.62-69.55-3.18-32.85-2.4-34.34-4-35.14-4.81a2.71,2.71,0,0,1-.75-1.94c.09-2.78,2.74-3.18,10.9-3.72,4.85-.32,11.67-.59,20.27-.81,14.85-.37,32.5-.5,42.64-.46h2c6.65,0,19,.08,35.61-.2l7.4-.15c2.3,0,4.34-.1,7.8-.15,15.95-.22,28.06,0,33.88.06l2.53,0c11.63.14,18.1-.86,27.05-2.24,7.19-1.11,16.15-2.5,30.57-3.69,15.6-1.29,26.71-1.47,36.51-1.63,15-.24,26.84-.42,47.05-4.56,4.63-1,7.36-1.63,14.66-3.44l2.18-.54c58.16-14.41,83.54-19.85,97.18-22.77,12.17-2.6,14-3,21.1-5.94,24.71-10.3,47.37-17.15,67.37-23.2,4.7-1.42,9.26-2.8,13.65-4.16a14.53,14.53,0,0,1,8.63,27.75l-.1,0A1843.4,1843.4,0,0,1,386.23,210c-29.56,3.29-59.62,5.88-89.34,7.72a250.07,250.07,0,0,1-41.44,35.93c-15.88,10.9-30.32,18.07-43.07,24.4-7.56,3.74-14.68,7.28-24,11-17.62,7.06-31.54,10.22-52.38,14.57-15.77,3.3-32.09,6.7-44.33,9.07-6.54,1.27-11.37,2.13-14.76,2.65A38.6,38.6,0,0,1,71.81,315.92ZM281.66,213.17a2.5,2.5,0,0,1,1.75,4.28,261.8,261.8,0,0,1-61.32,45.28c-11,5.87-21.48,10.33-41.4,17.65-28.25,10.38-53.12,18.21-71.73,23.76,8.56-1.75,17.59-3.64,26-5.39,20.57-4.3,34.3-7.41,51.54-14.32,9.17-3.68,16.2-7.17,23.66-10.87,12.61-6.25,26.88-13.34,42.47-24.05a244.66,244.66,0,0,0,41.28-35.93,2.5,2.5,0,0,1,1.68-.8c30-1.83,60.28-4.45,90.1-7.76A1837.11,1837.11,0,0,0,658,153.59a9.53,9.53,0,0,0-5.7-18.19c-4.41,1.37-9,2.75-13.7,4.18-19.88,6-42.41,12.82-66.89,23-7.48,3.12-9.7,3.59-22,6.22-13.61,2.92-39,8.34-97,22.73l-2.17.54c-7.37,1.83-10.13,2.52-14.86,3.48-20.68,4.24-32.73,4.43-48,4.67-9.72.16-20.74.33-36.18,1.61-14.25,1.18-23.1,2.55-30.22,3.65-9.19,1.42-15.83,2.44-27.87,2.3l-2.55,0c-5.79-.09-17.85-.28-33.73-.06-3.44.05-5.47.1-7.75.15l-7.43.15c-16.65.28-29.54.23-35.73.2h-2c-15.43-.06-35.84.2-50.69.7,19.37,1.74,50.7,3.58,82.43,4.22,15.21.3,30.57.32,45.66.06Zm377-57.18h0Z"/><path class="a" d="M277.51,226.71a14.92,14.92,0,0,1,4-3.86,5.72,5.72,0,0,1,5.44-.54l0,0a6.73,6.73,0,0,1,.71.36,5.74,5.74,0,0,1,2.63,3.78,13.11,13.11,0,0,1,.05,5.23,9.87,9.87,0,0,1-3.07,6.05,9.36,9.36,0,0,1-2.21,1.55,1.49,1.49,0,0,1-1.57-.15,7.73,7.73,0,0,1-1.55-1.61,6.82,6.82,0,0,1-.95-1.83,7.34,7.34,0,0,1-4.23.43,1.48,1.48,0,0,1-1.17-1.06,9,9,0,0,1,1.91-8.37Z"/><path d="M284.42,241.65a3.65,3.65,0,0,1-2.25-.77,9.75,9.75,0,0,1-2-2.06l-.34-.5-.58.08a9.58,9.58,0,0,1-2.88-.11,3.68,3.68,0,0,1-2.88-2.63,11.19,11.19,0,0,1,2.29-10.31,17.35,17.35,0,0,1,4.5-4.33,7.84,7.84,0,0,1,7.53-.72,9.87,9.87,0,0,1,1,.51,7.92,7.92,0,0,1,3.66,5.22,15.44,15.44,0,0,1,.07,6,12.32,12.32,0,0,1-3.73,7.34,11.85,11.85,0,0,1-2.73,1.91A3.66,3.66,0,0,1,284.42,241.65ZM281,233.52a2.17,2.17,0,0,1,.9.19,2.15,2.15,0,0,1,1.17,1.3,5,5,0,0,0,.67,1.27,4.91,4.91,0,0,0,.75.84,7.21,7.21,0,0,0,1.29-1,7.72,7.72,0,0,0,2.38-4.61,2.51,2.51,0,0,1,0-.27,11,11,0,0,0,0-4.36,3.56,3.56,0,0,0-1.6-2.34c-.16-.09-.32-.18-.49-.26a3.58,3.58,0,0,0-3.36.35,12.92,12.92,0,0,0-3.41,3.3l-.16.2a7.52,7.52,0,0,0-1.68,4.28,7.34,7.34,0,0,0,.15,1.6,5.53,5.53,0,0,0,1.15,0,5.36,5.36,0,0,0,1.39-.36A2.08,2.08,0,0,1,281,233.52Zm-3.84.46Z"/><path class="a" d="M293.14,231.89a15.11,15.11,0,0,1-2.44-5,5.71,5.71,0,0,1,1.17-5.34l0,0a6.13,6.13,0,0,1,.57-.57,5.7,5.7,0,0,1,4.4-1.33,13,13,0,0,1,5,1.58,9.87,9.87,0,0,1,4.81,4.78,9.49,9.49,0,0,1,.79,2.58,1.52,1.52,0,0,1-.64,1.45,7.93,7.93,0,0,1-2,1,7.26,7.26,0,0,1-2,.34,7.33,7.33,0,0,1-.13,2.06,7.48,7.48,0,0,1-.77,2.09,1.47,1.47,0,0,1-1.37.78,9,9,0,0,1-7.37-4.4Z"/><path d="M300.58,238.49h-.17a11.5,11.5,0,0,1-3.28-.64,11.62,11.62,0,0,1-5.81-4.73,17.22,17.22,0,0,1-2.73-5.61,7.84,7.84,0,0,1,1.65-7.38,8.19,8.19,0,0,1,.78-.78,7.9,7.9,0,0,1,6.09-1.87,15.13,15.13,0,0,1,5.72,1.79,12.28,12.28,0,0,1,5.82,5.81,11.57,11.57,0,0,1,1,3.19,3.66,3.66,0,0,1-1.56,3.58,9.77,9.77,0,0,1-2.57,1.27l-.59.16c0,.19-.06.39-.1.58a10,10,0,0,1-1,2.7A3.7,3.7,0,0,1,300.58,238.49Zm-.62-4h0ZM295,230.79a7.52,7.52,0,0,0,3.56,2.92,7.88,7.88,0,0,0,1.56.36,5.66,5.66,0,0,0,.36-1.1,5,5,0,0,0,.09-1.43,2.19,2.19,0,0,1,2.16-2.38,4.88,4.88,0,0,0,1.41-.23,5.9,5.9,0,0,0,1-.46,7.24,7.24,0,0,0-.51-1.53,7.65,7.65,0,0,0-3.65-3.68l-.25-.12a10.8,10.8,0,0,0-4.15-1.31,3.53,3.53,0,0,0-2.73.8,4.54,4.54,0,0,0-.38.38,3.57,3.57,0,0,0-.72,3.31,12.91,12.91,0,0,0,2.08,4.26A1.28,1.28,0,0,1,295,230.79Z"/><path class="a" d="M302.91,218.63a15.08,15.08,0,0,1-5.5.77,5.69,5.69,0,0,1-4.71-2.75l0,0a5.26,5.26,0,0,1-.36-.71,5.7,5.7,0,0,1,.1-4.61,13,13,0,0,1,3-4.25,9.93,9.93,0,0,1,6-3.1,9.46,9.46,0,0,1,2.7.05,1.48,1.48,0,0,1,1.18,1,7.6,7.6,0,0,1,.31,2.21,6.87,6.87,0,0,1-.31,2,7.51,7.51,0,0,1,1.93.76,7.79,7.79,0,0,1,1.75,1.38,1.5,1.5,0,0,1,.32,1.55,9,9,0,0,1-6.46,5.65Z"/><path d="M298.08,221.61l-.76,0a7.83,7.83,0,0,1-6.51-3.84l-.06-.09c-.15-.26-.3-.58-.44-.89a7.9,7.9,0,0,1,.11-6.37,15.2,15.2,0,0,1,3.46-4.89,12.23,12.23,0,0,1,7.33-3.74,11.62,11.62,0,0,1,3.33.06,3.69,3.69,0,0,1,2.93,2.59,9.94,9.94,0,0,1,.4,2.84c0,.21,0,.41,0,.61.17.08.35.17.52.27a10,10,0,0,1,2.27,1.78,3.72,3.72,0,0,1,.78,3.83,11.21,11.21,0,0,1-7.92,7A17,17,0,0,1,298.08,221.61Zm-3.48-6.05a3.55,3.55,0,0,0,2.9,1.65,12.75,12.75,0,0,0,4.7-.66l.24-.07a7.45,7.45,0,0,0,3.87-2.47,7.32,7.32,0,0,0,.83-1.38,5.54,5.54,0,0,0-.93-.68,5.27,5.27,0,0,0-1.34-.53,2.2,2.2,0,0,1-1.59-2.79,5,5,0,0,0,.21-1.41,5.65,5.65,0,0,0-.12-1.13,7.23,7.23,0,0,0-1.61,0,7.71,7.71,0,0,0-4.63,2.33,1.62,1.62,0,0,1-.18.19,10.86,10.86,0,0,0-2.53,3.55,3.52,3.52,0,0,0-.09,2.84c.07.16.16.33.25.49Zm12.86-2.62Z"/><path class="a" d="M293.3,205.24a15.07,15.07,0,0,1-.95,5.47,5.74,5.74,0,0,1-4.08,3.63h0a5.6,5.6,0,0,1-.79.12,5.69,5.69,0,0,1-4.35-1.51,13.25,13.25,0,0,1-3.11-4.2,9.93,9.93,0,0,1-1.08-6.7,9.54,9.54,0,0,1,.88-2.55,1.49,1.49,0,0,1,1.36-.8,7.88,7.88,0,0,1,2.2.38,7.45,7.45,0,0,1,1.85.93,7.19,7.19,0,0,1,1.32-1.6,7.51,7.51,0,0,1,1.85-1.23,1.47,1.47,0,0,1,1.57.17,9.21,9.21,0,0,1,1.84,2A9.6,9.6,0,0,1,293.3,205.24Z"/><path d="M287,216.68a8,8,0,0,1-5.33-2.11,15.24,15.24,0,0,1-3.58-4.8,12.25,12.25,0,0,1-1.29-8.13,11.52,11.52,0,0,1,1.08-3.15,3.76,3.76,0,0,1,3.37-2A10.11,10.11,0,0,1,284,197l.57.21.42-.41a9.8,9.8,0,0,1,2.39-1.6,3.69,3.69,0,0,1,3.88.43,11.25,11.25,0,0,1,4.21,9.69,17.25,17.25,0,0,1-1.1,6.15,7.85,7.85,0,0,1-5.67,5c-.39.08-.74.13-1.08.17Zm-5.42-15.76a7,7,0,0,0-.48,1.54,7.62,7.62,0,0,0,.79,5.12c0,.07.1.17.13.24a10.78,10.78,0,0,0,2.59,3.5,3.52,3.52,0,0,0,2.67,1,3.35,3.35,0,0,0,.54-.08,3.53,3.53,0,0,0,2.52-2.26,12.64,12.64,0,0,0,.82-4.67c0-.08,0-.17,0-.25a6.75,6.75,0,0,0-2.21-5.66,5.29,5.29,0,0,0-.93.68,5.13,5.13,0,0,0-.92,1.11,2.15,2.15,0,0,1-1.43,1,2.17,2.17,0,0,1-1.71-.35,4.65,4.65,0,0,0-1.28-.64A5,5,0,0,0,281.53,200.92Zm7.78-1.77Z"/><path class="a" d="M277.61,210.23a15.28,15.28,0,0,1,4.9,2.6,5.72,5.72,0,0,1,2.19,5v0c0,.27-.08.54-.13.79a5.72,5.72,0,0,1-2.79,3.67,13.11,13.11,0,0,1-5,1.66,9.88,9.88,0,0,1-6.7-1,9.53,9.53,0,0,1-2.15-1.63,1.48,1.48,0,0,1-.34-1.54,7.55,7.55,0,0,1,1-2,7,7,0,0,1,1.45-1.47,7.38,7.38,0,0,1-1.71-3.89,1.46,1.46,0,0,1,.65-1.44,9.06,9.06,0,0,1,2.45-1.14A9.67,9.67,0,0,1,277.61,210.23Z"/><path d="M275,226.36a12.3,12.3,0,0,1-5.9-1.49,11.5,11.5,0,0,1-2.66-2,3.69,3.69,0,0,1-.85-3.81,10.11,10.11,0,0,1,1.35-2.54c.12-.17.25-.32.37-.48l-.26-.52a9.69,9.69,0,0,1-.78-2.78,3.68,3.68,0,0,1,1.61-3.55,11.41,11.41,0,0,1,3-1.41,11.92,11.92,0,0,1,7.48.4,17.3,17.3,0,0,1,5.51,3,7.82,7.82,0,0,1,3,6.93s0,.06,0,.09a8.39,8.39,0,0,1-.16,1,7.91,7.91,0,0,1-3.84,5.09,15.14,15.14,0,0,1-5.67,1.92A11.34,11.34,0,0,1,275,226.36Zm-5.11-6.26a7.49,7.49,0,0,0,1.32.93,7.75,7.75,0,0,0,5.09.84,1.5,1.5,0,0,1,.29-.06,10.91,10.91,0,0,0,4.13-1.38,3.53,3.53,0,0,0,1.74-2.24,5.25,5.25,0,0,0,.09-.55v0h0a3.55,3.55,0,0,0-1.37-3.07,12.83,12.83,0,0,0-4.19-2.22l-.23-.09a7.56,7.56,0,0,0-4.59-.27,6.86,6.86,0,0,0-1.48.63,5.55,5.55,0,0,0,.35,1.09,5.29,5.29,0,0,0,.78,1.22,2.2,2.2,0,0,1-.36,3.19,4.85,4.85,0,0,0-1,1A4.94,4.94,0,0,0,269.86,220.1Zm-.34-.33h0Zm1.06-7.62h0Z"/><circle class="c" cx="288.83" cy="218.51" r="4.24"/><path d="M288.83,225a6.5,6.5,0,0,1-2.62-.56,6.44,6.44,0,1,1,4.92.13A6.3,6.3,0,0,1,288.83,225Zm0-8.49a2.05,2.05,0,0,0-1.91,2.79,2,2,0,0,0,1.08,1.14,2.05,2.05,0,0,0,1.67-3.75A2.08,2.08,0,0,0,288.83,216.46Z"/><path class="a" d="M222.34,233.17a16.87,16.87,0,0,1-5.4-3.14,6.44,6.44,0,0,1-2.24-5.73v0a6.23,6.23,0,0,1,.18-.88,6.42,6.42,0,0,1,3.3-4,14.62,14.62,0,0,1,5.65-1.64,11.13,11.13,0,0,1,7.49,1.47,10.58,10.58,0,0,1,2.35,1.93,1.67,1.67,0,0,1,.31,1.75,8.7,8.7,0,0,1-1.26,2.17,8.4,8.4,0,0,1-1.7,1.59,8.26,8.26,0,0,1,1.75,4.45,1.66,1.66,0,0,1-.79,1.59,10.7,10.7,0,0,1-2.81,1.17A10.87,10.87,0,0,1,222.34,233.17Z"/><path d="M226.84,236.62a13.81,13.81,0,0,1-5.45-1.16,19.61,19.61,0,0,1-6.06-3.56,8.83,8.83,0,0,1-3.07-7.94,10.54,10.54,0,0,1,.24-1.22,9,9,0,0,1,4.54-5.55,17,17,0,0,1,6.47-1.9,13.77,13.77,0,0,1,9.09,1.81,12.92,12.92,0,0,1,2.9,2.37,4.16,4.16,0,0,1,.78,4.33,11.39,11.39,0,0,1-1.62,2.8l-.45.51a6.65,6.65,0,0,1,.27.61,11.07,11.07,0,0,1,.76,3.15,4.14,4.14,0,0,1-2,3.93,13.25,13.25,0,0,1-3.47,1.45A12,12,0,0,1,226.84,236.62ZM223.42,231a8.48,8.48,0,0,0,5.15.51,8.26,8.26,0,0,0,1.69-.64,5.78,5.78,0,0,0-.35-1.25,6,6,0,0,0-.81-1.4,2.46,2.46,0,0,1,.54-3.57,5.28,5.28,0,0,0,1.17-1.11,5.56,5.56,0,0,0,.68-1.07,8,8,0,0,0-1.43-1.11,8.7,8.7,0,0,0-5.72-1.17l-.31,0a12.32,12.32,0,0,0-4.71,1.37,4,4,0,0,0-2,2.44,6,6,0,0,0-.12.61,4,4,0,0,0,1.4,3.54,14.52,14.52,0,0,0,4.61,2.69Z"/><path class="a" d="M223.19,214.65a16.68,16.68,0,0,1-4.66,4.16,6.4,6.4,0,0,1-6.13.36l0,0a7.59,7.59,0,0,1-.79-.44,6.46,6.46,0,0,1-2.78-4.38,14.69,14.69,0,0,1,.19-5.88,11.11,11.11,0,0,1,3.71-6.67,10.8,10.8,0,0,1,2.56-1.64,1.68,1.68,0,0,1,1.76.25,8.93,8.93,0,0,1,1.68,1.87,8,8,0,0,1,1,2.11,8.46,8.46,0,0,1,2.28-.5,8.8,8.8,0,0,1,2.5.2,1.66,1.66,0,0,1,1.26,1.25,10.52,10.52,0,0,1,.25,3A10.92,10.92,0,0,1,223.19,214.65Z"/><path d="M215.1,222.26a8.69,8.69,0,0,1-3.79-.87,11.66,11.66,0,0,1-1.07-.61,8.88,8.88,0,0,1-3.88-6,17.16,17.16,0,0,1,.19-6.74,13.81,13.81,0,0,1,4.52-8.08,12.7,12.7,0,0,1,3.16-2,4.17,4.17,0,0,1,4.36.59,11.43,11.43,0,0,1,2.16,2.41l.35.58.66-.07a11.3,11.3,0,0,1,3.23.26,4.16,4.16,0,0,1,3.13,3.09,13.3,13.3,0,0,1,.3,3.75,13.17,13.17,0,0,1-3.35,7.74,19.62,19.62,0,0,1-5.25,4.67A9.11,9.11,0,0,1,215.1,222.26Zm.7-19.64a7.75,7.75,0,0,0-1.49,1,8.58,8.58,0,0,0-2.88,5.07,1.88,1.88,0,0,1-.06.31,12.4,12.4,0,0,0-.15,4.9,4,4,0,0,0,1.69,2.71c.17.1.35.21.54.3a4,4,0,0,0,3.8-.24,14.3,14.3,0,0,0,4-3.55,2,2,0,0,1,.19-.22,8.42,8.42,0,0,0,2.08-4.74,7.82,7.82,0,0,0-.09-1.8,5.84,5.84,0,0,0-2.88.29,2.44,2.44,0,0,1-2-.11,2.48,2.48,0,0,1-1.27-1.51,5.51,5.51,0,0,0-.69-1.46A5.27,5.27,0,0,0,215.8,202.62Zm8.11,3.86Z"/><path class="a" d="M205.84,208.11a16.91,16.91,0,0,1,2.52,5.72,6.42,6.42,0,0,1-1.56,5.95l0,0a7.45,7.45,0,0,1-.66.6,6.41,6.41,0,0,1-5,1.3,14.77,14.77,0,0,1-5.54-2,11.1,11.1,0,0,1-5.19-5.6,10.35,10.35,0,0,1-.77-2.94,1.68,1.68,0,0,1,.78-1.6,8.86,8.86,0,0,1,2.29-1,8,8,0,0,1,2.31-.29,8.15,8.15,0,0,1,.24-2.31,8.48,8.48,0,0,1,1-2.32,1.68,1.68,0,0,1,1.58-.82,10.14,10.14,0,0,1,8.09,5.28Z"/><path d="M202.11,224.25a9.15,9.15,0,0,1-1.38-.1,17.18,17.18,0,0,1-6.35-2.26,13.68,13.68,0,0,1-6.29-6.8,12.88,12.88,0,0,1-1-3.63,4.15,4.15,0,0,1,1.91-4,11,11,0,0,1,3-1.31l.66-.16c0-.21.09-.43.14-.64a11,11,0,0,1,1.24-3,4.15,4.15,0,0,1,3.91-2,12.65,12.65,0,0,1,10,6.45,19.7,19.7,0,0,1,2.81,6.44,8.85,8.85,0,0,1-2.18,8.23,9.88,9.88,0,0,1-.92.84A8.78,8.78,0,0,1,202.11,224.25Zm-10-12.83a7.78,7.78,0,0,0,.52,1.74,8.66,8.66,0,0,0,3.94,4.31l.27.14a12.26,12.26,0,0,0,4.61,1.66,4,4,0,0,0,3.1-.77,6,6,0,0,0,.46-.42l.09-.09a4,4,0,0,0,.86-3.59,14.56,14.56,0,0,0-2.15-4.89,1.58,1.58,0,0,1-.15-.24,8.47,8.47,0,0,0-3.86-3.45,9.2,9.2,0,0,0-1.75-.47,5.61,5.61,0,0,0-.45,1.22,5.51,5.51,0,0,0-.16,1.61,2.48,2.48,0,0,1-.71,1.84,2.54,2.54,0,0,1-1.83.73,5.75,5.75,0,0,0-1.6.2A6.26,6.26,0,0,0,192.11,211.42Zm6.18-6.52h0Z"/><path class="a" d="M194.26,222.6a16.79,16.79,0,0,1,6.21-.63,6.42,6.42,0,0,1,5.18,3.31l0,0a6.66,6.66,0,0,1,.37.82,6.43,6.43,0,0,1-.31,5.17,14.76,14.76,0,0,1-3.61,4.65,11.17,11.17,0,0,1-6.93,3.22,10.83,10.83,0,0,1-3-.18,1.67,1.67,0,0,1-1.28-1.23,8.69,8.69,0,0,1-.26-2.5,8.54,8.54,0,0,1,.44-2.29,8.07,8.07,0,0,1-2.13-.94,8.28,8.28,0,0,1-1.9-1.63,1.65,1.65,0,0,1-.29-1.75,10.69,10.69,0,0,1,1.58-2.6A10.86,10.86,0,0,1,194.26,222.6Z"/><path d="M194.29,241.68a13.71,13.71,0,0,1-2.63-.26,4.16,4.16,0,0,1-3.17-3,11,11,0,0,1-.33-3.21c0-.23,0-.46.05-.68l-.57-.34a11,11,0,0,1-2.47-2.1,4.17,4.17,0,0,1-.71-4.34,13.33,13.33,0,0,1,2-3.21,13.16,13.16,0,0,1,7.26-4.3,19.3,19.3,0,0,1,7-.68,8.84,8.84,0,0,1,7.15,4.62l0,.05a10.27,10.27,0,0,1,.48,1.07,8.88,8.88,0,0,1-.41,7.16,17,17,0,0,1-4.11,5.35,13.83,13.83,0,0,1-8.41,3.87A10.49,10.49,0,0,1,194.29,241.68Zm-1.12-5a7.84,7.84,0,0,0,1.81.05,8.7,8.7,0,0,0,5.31-2.41,2.39,2.39,0,0,1,.23-.22,12.29,12.29,0,0,0,3-3.87,4,4,0,0,0,.22-3.19,5.62,5.62,0,0,0-.25-.56l0,0a4,4,0,0,0-3.2-2A14.49,14.49,0,0,0,195,225l-.28.07a8.38,8.38,0,0,0-4.46,2.61,7.87,7.87,0,0,0-1,1.51,5.68,5.68,0,0,0,1,.81,5.9,5.9,0,0,0,1.48.65,2.42,2.42,0,0,1,1.52,1.24,2.46,2.46,0,0,1,.14,2,5.41,5.41,0,0,0-.3,1.58A6.11,6.11,0,0,0,193.17,236.67Zm-4.29-7.89Z"/><path class="a" d="M204.46,238.08a16.91,16.91,0,0,1,1.32-6.1,6.43,6.43,0,0,1,4.75-3.9h0c.3,0,.6-.08.9-.1a6.42,6.42,0,0,1,4.82,1.9,14.83,14.83,0,0,1,3.31,4.87,11.13,11.13,0,0,1,.91,7.58,10.44,10.44,0,0,1-1.1,2.83,1.68,1.68,0,0,1-1.57.84,8.8,8.8,0,0,1-2.46-.53,7.91,7.91,0,0,1-2-1.13,8.62,8.62,0,0,1-1.55,1.74,8.88,8.88,0,0,1-2.14,1.31,1.68,1.68,0,0,1-1.76-.27,10.5,10.5,0,0,1-2-2.3A10.9,10.9,0,0,1,204.46,238.08Z"/><path d="M209,250a4.13,4.13,0,0,1-2.71-1,13.42,13.42,0,0,1-2.45-2.85,13.27,13.27,0,0,1-1.84-8.24A19.42,19.42,0,0,1,203.5,231a8.85,8.85,0,0,1,6.6-5.38,9.61,9.61,0,0,1,1.24-.14,8.92,8.92,0,0,1,6.68,2.6,17.12,17.12,0,0,1,3.81,5.57,13.8,13.8,0,0,1,1.09,9.2,12.87,12.87,0,0,1-1.37,3.49,4.14,4.14,0,0,1-3.87,2.08,11.34,11.34,0,0,1-3.16-.68c-.22-.09-.43-.17-.63-.27-.16.16-.33.3-.5.45a10.89,10.89,0,0,1-2.76,1.69A4.05,4.05,0,0,1,209,250Zm-2.09-11.55a7.62,7.62,0,0,0,2.24,6.47,6.25,6.25,0,0,0,1.07-.72,5.86,5.86,0,0,0,1.08-1.21,2.48,2.48,0,0,1,3.57-.59,5.43,5.43,0,0,0,1.41.78,6.08,6.08,0,0,0,1.24.31,8.63,8.63,0,0,0,0-7.5c-.05-.09-.1-.2-.14-.28a12.15,12.15,0,0,0-2.76-4.06,4,4,0,0,0-3-1.19l-.61.06a4,4,0,0,0-2.93,2.43,14.55,14.55,0,0,0-1.14,5.22A2.64,2.64,0,0,1,206.9,238.43Z"/><circle class="c" cx="210.01" cy="223.4" r="4.78"/><path d="M210,230.64a6.19,6.19,0,0,1-1-.08,7.21,7.21,0,1,1,1,.08Zm0-9.55a2.28,2.28,0,1,0,.34,0A1.94,1.94,0,0,0,210,221.09Z"/><path class="a" d="M139.21,198.31a13.08,13.08,0,0,1-3.93,2.81,5,5,0,0,1-4.75-.23l0,0a4.75,4.75,0,0,1-.56-.41,4.94,4.94,0,0,1-1.78-3.59,11.61,11.61,0,0,1,.63-4.51,8.64,8.64,0,0,1,3.42-4.82,8.36,8.36,0,0,1,2.1-1,1.29,1.29,0,0,1,1.33.34,6.7,6.7,0,0,1,1.14,1.58,6.23,6.23,0,0,1,.58,1.7,6.43,6.43,0,0,1,1.79-.19,6.83,6.83,0,0,1,1.91.36,1.29,1.29,0,0,1,.86,1.07,7.89,7.89,0,0,1-.06,2.35A8.38,8.38,0,0,1,139.21,198.31Z"/><path d="M133.08,203.53a6.7,6.7,0,0,1-3.57-1,7.52,7.52,0,0,1-.78-.56,6.85,6.85,0,0,1-2.47-5,13.25,13.25,0,0,1,.7-5.17,10.7,10.7,0,0,1,4.16-5.83,9.83,9.83,0,0,1,2.59-1.3,3.24,3.24,0,0,1,3.31.82,8.84,8.84,0,0,1,1.45,2l.23.47h.51a8.63,8.63,0,0,1,2.47.46,3.22,3.22,0,0,1,2.14,2.64,10.09,10.09,0,0,1-.08,2.91,10.2,10.2,0,0,1-3.22,5.67,15.07,15.07,0,0,1-4.43,3.15A7.14,7.14,0,0,1,133.08,203.53Zm1.45-15.08a5.6,5.6,0,0,0-1.23.66,6.65,6.65,0,0,0-2.64,3.66,2,2,0,0,1-.07.23,9.51,9.51,0,0,0-.52,3.76,3.05,3.05,0,0,0,1.07,2.22,3.89,3.89,0,0,0,.39.28,3.06,3.06,0,0,0,2.94.13,11.41,11.41,0,0,0,3.36-2.39,1.21,1.21,0,0,1,.16-.16,6.48,6.48,0,0,0,2-3.46,6,6,0,0,0,.08-1.4,4.24,4.24,0,0,0-1-.15,4.63,4.63,0,0,0-1.24.13,2,2,0,0,1-1.51-.24,1.92,1.92,0,0,1-.84-1.27,4.16,4.16,0,0,0-.41-1.18A3.87,3.87,0,0,0,134.53,188.45Zm5.91,3.64Z"/><path class="a" d="M126.41,191.84a13.2,13.2,0,0,1,1.46,4.6,5,5,0,0,1-1.69,4.45l0,0c-.18.15-.37.28-.56.41a5,5,0,0,1-4,.58,11.44,11.44,0,0,1-4.09-2,8.59,8.59,0,0,1-3.52-4.73,8.07,8.07,0,0,1-.35-2.33,1.31,1.31,0,0,1,.73-1.16,6.71,6.71,0,0,1,1.85-.59,6.07,6.07,0,0,1,1.8,0,6.51,6.51,0,0,1,1.31-3.46,1.27,1.27,0,0,1,1.28-.5,8.55,8.55,0,0,1,2.22.79A8.39,8.39,0,0,1,126.41,191.84Z"/><path d="M123,204a7.19,7.19,0,0,1-1.83-.24,13.26,13.26,0,0,1-4.69-2.26,10.68,10.68,0,0,1-4.27-5.76,10.28,10.28,0,0,1-.43-2.87,3.21,3.21,0,0,1,1.8-2.89,8.62,8.62,0,0,1,2.39-.75l.52-.07c.05-.16.1-.33.16-.49a8.7,8.7,0,0,1,1.2-2.2,3.21,3.21,0,0,1,3.18-1.22,9.75,9.75,0,0,1,7.14,5.79,15.06,15.06,0,0,1,1.62,5.19,6.81,6.81,0,0,1-2.36,6.14,6.89,6.89,0,0,1-.77.57A6.71,6.71,0,0,1,123,204Zm-7.39-10.74a6.25,6.25,0,0,0,.25,1.37,6.85,6.85,0,0,0,2.67,3.65l.2.13a9.43,9.43,0,0,0,3.41,1.66,3.06,3.06,0,0,0,2.44-.33,2.82,2.82,0,0,0,.39-.29,3.07,3.07,0,0,0,1-2.75,11.23,11.23,0,0,0-1.25-3.94,1.21,1.21,0,0,1-.09-.2,6.58,6.58,0,0,0-2.69-3,6.15,6.15,0,0,0-1.3-.5,5,5,0,0,0-.45.89,4.41,4.41,0,0,0-.25,1.23,1.91,1.91,0,0,1-2.17,1.76,4.3,4.3,0,0,0-2.2.29Zm5.3-4.5h0Z"/><path class="a" d="M116.3,202a13.14,13.14,0,0,1,4.83,0,5,5,0,0,1,3.7,3v0a5.25,5.25,0,0,1,.22.67,5,5,0,0,1-.67,3.95,11.43,11.43,0,0,1-3.16,3.27,8.6,8.6,0,0,1-5.6,1.89,8,8,0,0,1-2.32-.39,1.29,1.29,0,0,1-.88-1.05,7,7,0,0,1,0-1.94,6.55,6.55,0,0,1,.53-1.72,6.74,6.74,0,0,1-1.56-.9,7.21,7.21,0,0,1-1.33-1.42A1.3,1.3,0,0,1,110,206a8.22,8.22,0,0,1,1.43-1.86A8.36,8.36,0,0,1,116.3,202Z"/><path d="M115.81,216.74h-.22a10,10,0,0,1-2.86-.48,3.21,3.21,0,0,1-2.19-2.6,8.78,8.78,0,0,1,0-2.51c0-.17.06-.34.1-.51l-.42-.31a8.49,8.49,0,0,1-1.72-1.82,3.23,3.23,0,0,1-.18-3.4,9.79,9.79,0,0,1,7.71-5,15.08,15.08,0,0,1,5.44.06,6.82,6.82,0,0,1,5.11,4.15,7.54,7.54,0,0,1,.31.91,6.89,6.89,0,0,1-.92,5.47,13.21,13.21,0,0,1-3.61,3.76A10.7,10.7,0,0,1,115.81,216.74Zm-1.53-4a6.64,6.64,0,0,0,5.67-1.21,1.56,1.56,0,0,1,.2-.16,9.65,9.65,0,0,0,2.63-2.73,3.06,3.06,0,0,0,.44-2.43,3.39,3.39,0,0,0-.15-.45,3.07,3.07,0,0,0-2.3-1.84,11.26,11.26,0,0,0-4.13,0,1.46,1.46,0,0,1-.22,0,6.54,6.54,0,0,0-3.65,1.63,6.32,6.32,0,0,0-.89,1.09,5.29,5.29,0,0,0,.72.7,4.32,4.32,0,0,0,1.08.62,1.92,1.92,0,0,1,1,2.61,4.25,4.25,0,0,0-.36,1.19A4.63,4.63,0,0,0,114.28,212.74Zm-2.64-6.42h0Z"/><path class="a" d="M122.84,214.77a13.15,13.15,0,0,1,1.53-4.59,5,5,0,0,1,4-2.6h0q.35,0,.69,0a4.94,4.94,0,0,1,3.55,1.86,11.36,11.36,0,0,1,2.14,4,8.65,8.65,0,0,1,.07,5.9,8.4,8.4,0,0,1-1.09,2.09,1.29,1.29,0,0,1-1.27.51,6.77,6.77,0,0,1-1.85-.61,6.54,6.54,0,0,1-1.47-1,6.3,6.3,0,0,1-1.34,1.21,6.85,6.85,0,0,1-1.75.83,1.31,1.31,0,0,1-1.33-.35,8.06,8.06,0,0,1-1.33-1.94A8.43,8.43,0,0,1,122.84,214.77Z"/><path d="M125.69,224.31a3.2,3.2,0,0,1-2.35-1,10.11,10.11,0,0,1-1.65-2.39,10.28,10.28,0,0,1-.72-6.49,14.94,14.94,0,0,1,1.73-5.15,6.84,6.84,0,0,1,5.53-3.58c.35,0,.65,0,1,0a6.92,6.92,0,0,1,4.93,2.56,13.23,13.23,0,0,1,2.46,4.6,10.64,10.64,0,0,1,.07,7.16,10.16,10.16,0,0,1-1.34,2.57,3.22,3.22,0,0,1-3.15,1.28,8.65,8.65,0,0,1-2.38-.79l-.46-.25-.41.3a8.89,8.89,0,0,1-2.27,1.07A3.06,3.06,0,0,1,125.69,224.31Zm-.18-3.79h0Zm-.82-5.28a6.56,6.56,0,0,0,.43,4,5.71,5.71,0,0,0,.76,1.17,4.6,4.6,0,0,0,.88-.46,4.71,4.71,0,0,0,.94-.84,1.91,1.91,0,0,1,1.36-.68,1.86,1.86,0,0,1,1.42.53,4.17,4.17,0,0,0,1,.71,4.39,4.39,0,0,0,.92.35,7,7,0,0,0,.61-1.26,6.8,6.8,0,0,0,0-4.52,2,2,0,0,1-.08-.22,9.55,9.55,0,0,0-1.79-3.35,3.08,3.08,0,0,0-2.17-1.17h-.48A3.11,3.11,0,0,0,126,211.1a11.33,11.33,0,0,0-1.3,3.92A1.74,1.74,0,0,1,124.69,215.24Z"/><path class="a" d="M137,212.48a12.92,12.92,0,0,1-3.88-2.87,4.94,4.94,0,0,1-1.25-4.58v0c.06-.22.13-.45.21-.66a5,5,0,0,1,2.87-2.8,11.58,11.58,0,0,1,4.49-.79,8.6,8.6,0,0,1,5.63,1.76,8,8,0,0,1,1.65,1.68,1.3,1.3,0,0,1,.09,1.37,6.62,6.62,0,0,1-1.15,1.56,6.16,6.16,0,0,1-1.44,1.08,6.54,6.54,0,0,1,1,3.57,1.3,1.3,0,0,1-.74,1.16,7.92,7.92,0,0,1-7.47-.44Z"/><path d="M141.2,215.56a10.4,10.4,0,0,1-5.11-1.4,15.06,15.06,0,0,1-4.37-3.24,6.83,6.83,0,0,1-1.7-6.36,7.53,7.53,0,0,1,.29-.91,6.91,6.91,0,0,1,4-3.9,13.26,13.26,0,0,1,5.13-.92,10.74,10.74,0,0,1,6.84,2.15,10,10,0,0,1,2,2.07,3.22,3.22,0,0,1,.24,3.39,9.06,9.06,0,0,1-1.48,2l-.39.36c.06.16.11.32.16.49a8.66,8.66,0,0,1,.32,2.48,3.25,3.25,0,0,1-1.85,2.86,10.22,10.22,0,0,1-2.79.82A8.11,8.11,0,0,1,141.2,215.56ZM138,210.87a6.51,6.51,0,0,0,3.92.82,6,6,0,0,0,1.35-.35,4.65,4.65,0,0,0-.16-1,4.51,4.51,0,0,0-.51-1.14,1.91,1.91,0,0,1,.71-2.7,4.51,4.51,0,0,0,1-.75,5.17,5.17,0,0,0,.61-.77,5.79,5.79,0,0,0-1-1,6.73,6.73,0,0,0-4.28-1.38h-.26a9.46,9.46,0,0,0-3.73.66,3.11,3.11,0,0,0-1.79,1.71c-.05.14-.1.29-.14.44l0,.07a3.08,3.08,0,0,0,.8,2.78,11.08,11.08,0,0,0,3.32,2.45Zm5.28.86Z"/><circle class="c" cx="128.4" cy="203.91" r="3.69"/><path d="M128.39,209.52a5.61,5.61,0,1,1,3-10.33,5.6,5.6,0,0,1-1.8,10.19A5.57,5.57,0,0,1,128.39,209.52Zm0-7.39a1.77,1.77,0,0,0-1.51.82,1.79,1.79,0,0,0,1.89,2.71,1.8,1.8,0,0,0,1.12-.79h0a1.81,1.81,0,0,0,.24-1.34,1.75,1.75,0,0,0-.79-1.12A1.73,1.73,0,0,0,128.41,202.13Z"/><path class="a" d="M68.55,326.61a11.88,11.88,0,0,1,.18-4.46,4.56,4.56,0,0,1,2.86-3.32l0,0c.21-.07.41-.13.62-.18a4.62,4.62,0,0,1,3.62.74,10.59,10.59,0,0,1,2.93,3,7.92,7.92,0,0,1,1.58,5.21,7.6,7.6,0,0,1-.43,2.13,1.19,1.19,0,0,1-1,.78,6.53,6.53,0,0,1-1.79-.07,6,6,0,0,1-1.57-.54,6,6,0,0,1-.88,1.41,5.7,5.7,0,0,1-1.34,1.18,1.17,1.17,0,0,1-1.26,0,7.27,7.27,0,0,1-3.54-5.92Z"/><path d="M72.69,334.45a3,3,0,0,1-1.51-.41,9.59,9.59,0,0,1-2.07-1.7,9.38,9.38,0,0,1-2.31-5.56,13.73,13.73,0,0,1,.21-5,6.31,6.31,0,0,1,4-4.59,7.13,7.13,0,0,1,.85-.25,6.38,6.38,0,0,1,5,1,12.22,12.22,0,0,1,3.36,3.44,9.86,9.86,0,0,1,1.91,6.33,9.53,9.53,0,0,1-.53,2.63,3,3,0,0,1-2.47,1.94,8,8,0,0,1-2.3-.09l-.48-.11c-.09.13-.19.25-.29.37A7.93,7.93,0,0,1,74.32,334,3,3,0,0,1,72.69,334.45Zm-.3-3.43Zm-2.08-4.47a6,6,0,0,0,1.4,3.41,5.28,5.28,0,0,0,1,.85,4.06,4.06,0,0,0,.67-.64,4.15,4.15,0,0,0,.61-1,1.76,1.76,0,0,1,2.43-.86,3.78,3.78,0,0,0,1.09.37,3.86,3.86,0,0,0,.91.07,5.62,5.62,0,0,0,.21-1.27,6.21,6.21,0,0,0-1.17-4,.75.75,0,0,1-.13-.18,9,9,0,0,0-2.44-2.51,2.85,2.85,0,0,0-2.23-.47,3.31,3.31,0,0,0-.42.12,2.87,2.87,0,0,0-1.77,2.07,10.39,10.39,0,0,0-.15,3.8A1.49,1.49,0,0,1,70.31,326.55Z"/><path class="a" d="M80.51,321a12.06,12.06,0,0,1-4.18-1.55,4.55,4.55,0,0,1-2.28-3.74v0a4.58,4.58,0,0,1,1.84-3.85,10.44,10.44,0,0,1,3.77-1.86,8,8,0,0,1,5.44.11,7.69,7.69,0,0,1,1.9,1.07,1.2,1.2,0,0,1,.43,1.19,6.32,6.32,0,0,1-.62,1.68,6,6,0,0,1-1,1.33,5.62,5.62,0,0,1,1.07,1.27,6.18,6.18,0,0,1,.72,1.64,1.18,1.18,0,0,1-.37,1.21,7.64,7.64,0,0,1-1.82,1.17A7.75,7.75,0,0,1,80.51,321Z"/><path d="M82.47,323a9.9,9.9,0,0,1-2.34-.28,14.1,14.1,0,0,1-4.7-1.75,6.32,6.32,0,0,1-3.14-5.2h0v-.09a7.18,7.18,0,0,1,0-.79,6.34,6.34,0,0,1,2.51-4.47,12.27,12.27,0,0,1,4.31-2.14,9.88,9.88,0,0,1,6.61.15,9.41,9.41,0,0,1,2.33,1.31,3,3,0,0,1,1.08,2.95,7.56,7.56,0,0,1-.8,2.16l-.24.42.26.39a8,8,0,0,1,.92,2.13,3,3,0,0,1-.9,3,9.43,9.43,0,0,1-2.26,1.45A8.89,8.89,0,0,1,82.47,323ZM81,319.26a6.09,6.09,0,0,0,3.68-.28,5.7,5.7,0,0,0,1.11-.66,4.55,4.55,0,0,0-.4-.83,4.07,4.07,0,0,0-.75-.89,1.75,1.75,0,0,1-.06-2.57,3.75,3.75,0,0,0,.69-.93,4.5,4.5,0,0,0,.35-.84,5.68,5.68,0,0,0-1.15-.59,6.2,6.2,0,0,0-4.16-.12l-.21.07A8.68,8.68,0,0,0,77,313.16a2.84,2.84,0,0,0-1.14,2,3.2,3.2,0,0,0,0,.44,2.83,2.83,0,0,0,1.42,2.32,10.37,10.37,0,0,0,3.57,1.32Zm4.9-.6Z"/><path class="a" d="M78.82,307.82a11.94,11.94,0,0,1-2.76,3.5,4.56,4.56,0,0,1-4.27,1h0l-.61-.22a4.62,4.62,0,0,1-2.5-2.73,10.69,10.69,0,0,1-.59-4.16,8,8,0,0,1,1.78-5.14,7.75,7.75,0,0,1,1.6-1.47,1.21,1.21,0,0,1,1.27-.05,6.69,6.69,0,0,1,1.41,1.11,6.1,6.1,0,0,1,1,1.36,6.13,6.13,0,0,1,1.54-.63,6,6,0,0,1,1.78-.16,1.17,1.17,0,0,1,1,.72,7.23,7.23,0,0,1,.55,2.1A7.76,7.76,0,0,1,78.82,307.82Z"/><path d="M73,314.26a6.15,6.15,0,0,1-1.69-.23c-.32-.1-.58-.19-.84-.3A6.36,6.36,0,0,1,67,310a12.38,12.38,0,0,1-.7-4.76A9.83,9.83,0,0,1,68.49,299a9.19,9.19,0,0,1,2-1.81,3,3,0,0,1,3.13-.12,8,8,0,0,1,1.82,1.42l.32.37.45-.13a7.81,7.81,0,0,1,2.3-.22,3,3,0,0,1,2.58,1.79,9,9,0,0,1-.72,8.45,13.64,13.64,0,0,1-3.12,3.92A6.37,6.37,0,0,1,73,314.26Zm-.86-14a5.66,5.66,0,0,0-.92.91,6.25,6.25,0,0,0-1.4,3.92.81.81,0,0,1,0,.22,8.77,8.77,0,0,0,.5,3.46,2.86,2.86,0,0,0,1.52,1.7l.42.15A2.87,2.87,0,0,0,74.9,310a10.23,10.23,0,0,0,2.36-3,1,1,0,0,1,.11-.17,6.13,6.13,0,0,0,.87-3.59A5.22,5.22,0,0,0,78,302a4.53,4.53,0,0,0-.91.12,4.23,4.23,0,0,0-1.07.44,1.76,1.76,0,0,1-1.4.17,1.78,1.78,0,0,1-1.07-.91,4,4,0,0,0-.66-.94A5.07,5.07,0,0,0,72.14,300.28ZM78.32,302Z"/><path class="a" d="M65.82,305.37a12.06,12.06,0,0,1,2.48,3.71,4.59,4.59,0,0,1-.36,4.37l0,0a6.12,6.12,0,0,1-.39.5,4.59,4.59,0,0,1-3.37,1.54A10.72,10.72,0,0,1,60,314.8a8,8,0,0,1-4.35-3.29,7.7,7.7,0,0,1-.9-2,1.19,1.19,0,0,1,.35-1.22,6.23,6.23,0,0,1,1.49-1,5.92,5.92,0,0,1,1.59-.49,5.88,5.88,0,0,1-.13-1.65,6.29,6.29,0,0,1,.39-1.75,1.21,1.21,0,0,1,1-.77,7.27,7.27,0,0,1,6.34,2.71Z"/><path d="M63.87,317.28a12.09,12.09,0,0,1-4.4-.81,9.85,9.85,0,0,1-5.26-4A9.32,9.32,0,0,1,53.09,310a3,3,0,0,1,.86-3,7.65,7.65,0,0,1,1.91-1.29l.45-.19c0-.16,0-.32,0-.48a7.57,7.57,0,0,1,.5-2.25,3,3,0,0,1,2.5-1.9,9,9,0,0,1,7.81,3.29,13.85,13.85,0,0,1,2.77,4.18,6.33,6.33,0,0,1-.51,6.06,8.53,8.53,0,0,1-.54.7,6.38,6.38,0,0,1-4.65,2.14Zm-7.28-7.89a6,6,0,0,0,.57,1.16,6.17,6.17,0,0,0,3.3,2.54l.21.07a8.54,8.54,0,0,0,3.45.6,2.86,2.86,0,0,0,2.08-.93c.09-.11.18-.22.27-.35a2.85,2.85,0,0,0,.21-2.71,10.29,10.29,0,0,0-2.11-3.16,1.07,1.07,0,0,1-.14-.16A5.4,5.4,0,0,0,60,304.4a4.08,4.08,0,0,0-.17.9,4.47,4.47,0,0,0,.08,1.16,1.75,1.75,0,0,1-.27,1.38,1.77,1.77,0,0,1-1.19.74,3.85,3.85,0,0,0-1.1.34A3.61,3.61,0,0,0,56.59,309.39Zm-.12-.36h0Zm3.65-5Z"/><path class="a" d="M59.47,317a12.31,12.31,0,0,1,4.29-1.21,4.61,4.61,0,0,1,4.05,1.69l0,0a6.18,6.18,0,0,1,.36.53,4.58,4.58,0,0,1,.42,3.67,10.6,10.6,0,0,1-2,3.72,8,8,0,0,1-4.47,3.11,7.86,7.86,0,0,1-2.16.25,1.18,1.18,0,0,1-1.05-.71,6.37,6.37,0,0,1-.49-1.72,5.72,5.72,0,0,1,0-1.66,6.22,6.22,0,0,1-1.61-.4,6.32,6.32,0,0,1-1.54-.91,1.2,1.2,0,0,1-.43-1.2,8,8,0,0,1,.79-2A7.76,7.76,0,0,1,59.47,317Z"/><path d="M60.23,330.53H60a3,3,0,0,1-2.61-1.75,7.76,7.76,0,0,1-.62-2.22c0-.16,0-.32-.05-.48l-.44-.17a7.72,7.72,0,0,1-2-1.17,3,3,0,0,1-1-3,9.24,9.24,0,0,1,1-2.5,9.43,9.43,0,0,1,4.57-3.92A14,14,0,0,1,63.6,314a6.31,6.31,0,0,1,5.6,2.36,6.83,6.83,0,0,1,.5.73,6.36,6.36,0,0,1,.59,5.08,12,12,0,0,1-2.23,4.26,9.8,9.8,0,0,1-5.43,3.77A9.19,9.19,0,0,1,60.23,330.53Zm-3.48-8.32a4.56,4.56,0,0,0,.81.44,4.07,4.07,0,0,0,1.12.27,1.78,1.78,0,0,1,1.23.69,1.71,1.71,0,0,1,.33,1.36,4,4,0,0,0,0,1.15,4.78,4.78,0,0,0,.21.89,6,6,0,0,0,1.28-.19,6.22,6.22,0,0,0,3.44-2.35,1.18,1.18,0,0,1,.13-.18,8.7,8.7,0,0,0,1.63-3.1,2.79,2.79,0,0,0-.24-2.26,3,3,0,0,0-.25-.37,2.8,2.8,0,0,0-2.51-1,10.09,10.09,0,0,0-3.66,1l-.19.08A6,6,0,0,0,57.25,321,5.45,5.45,0,0,0,56.75,322.21Zm-.3-.22h0Z"/><circle class="c" cx="70.58" cy="315.56" r="3.41"/><path d="M70.59,320.73a5.18,5.18,0,0,1-4.87-3.43,5.15,5.15,0,0,1,3.13-6.6,5.17,5.17,0,0,1,3.47,9.73A5,5,0,0,1,70.59,320.73Zm0-6.81A1.76,1.76,0,0,0,70,314a1.67,1.67,0,0,0-1,2.11,1.65,1.65,0,1,0,1.55-2.2Z"/><path class="a" d="M208.77,262.85a13.17,13.17,0,0,1-1.81,4.46,4.91,4.91,0,0,1-4.11,2.33h0a5.12,5.12,0,0,1-.69,0,4.93,4.93,0,0,1-3.41-2.07,11.3,11.3,0,0,1-1.88-4.12,8.58,8.58,0,0,1,.3-5.87,8.23,8.23,0,0,1,1.21-2,1.28,1.28,0,0,1,1.3-.43,6.57,6.57,0,0,1,1.79.72,6.38,6.38,0,0,1,1.4,1.12,6.29,6.29,0,0,1,1.4-1.11,6.5,6.5,0,0,1,1.8-.72,1.29,1.29,0,0,1,1.29.43,7.78,7.78,0,0,1,1.44,7.3Z"/><path d="M202.86,271.54a9.1,9.1,0,0,1-1-.05,6.85,6.85,0,0,1-4.73-2.85,13.08,13.08,0,0,1-2.16-4.71,10.62,10.62,0,0,1,.37-7.12,10.28,10.28,0,0,1,1.49-2.48,3.23,3.23,0,0,1,3.21-1.07,8.87,8.87,0,0,1,2.31.93l.44.28.43-.27a8.58,8.58,0,0,1,2.32-.92,3.19,3.19,0,0,1,3.21,1.07,10,10,0,0,1,1.49,2.48,10.2,10.2,0,0,1,.32,6.49,15,15,0,0,1-2,5A6.82,6.82,0,0,1,202.86,271.54Zm-3.29-14.48a6.34,6.34,0,0,0-.68,1.22,6.65,6.65,0,0,0-.27,4.46,1.83,1.83,0,0,1,.08.25,9.26,9.26,0,0,0,1.56,3.43,3.08,3.08,0,0,0,2.09,1.3c.15,0,.31,0,.47,0a3.1,3.1,0,0,0,2.54-1.46,11,11,0,0,0,1.54-3.81l.06-.21a6.54,6.54,0,0,0-.18-4,6.34,6.34,0,0,0-.67-1.22,4.77,4.77,0,0,0-.92.41,4.57,4.57,0,0,0-1,.77,1.89,1.89,0,0,1-2.78,0,4.51,4.51,0,0,0-1-.77A4.91,4.91,0,0,0,199.57,257.06Zm6.91-.09Z"/><path class="a" d="M194.56,264.24a13.2,13.2,0,0,1,3.69,3.09,5,5,0,0,1,.95,4.63v0c-.08.22-.16.43-.26.64a4.91,4.91,0,0,1-3,2.6,11.43,11.43,0,0,1-4.5.51,8.58,8.58,0,0,1-5.49-2.09,8.3,8.3,0,0,1-1.53-1.77,1.3,1.3,0,0,1,0-1.37,6.45,6.45,0,0,1,2.74-2.47,6.36,6.36,0,0,1-.63-1.67,6.94,6.94,0,0,1-.12-1.93,1.29,1.29,0,0,1,.81-1.1,8,8,0,0,1,2.28-.52A8.35,8.35,0,0,1,194.56,264.24Z"/><path d="M192.42,277.69c-.36,0-.72,0-1.08,0a10.63,10.63,0,0,1-6.66-2.56,9.89,9.89,0,0,1-1.89-2.18,3.21,3.21,0,0,1,0-3.38,8.5,8.5,0,0,1,1.6-1.91l.41-.34c-.05-.16-.09-.32-.13-.49a8.66,8.66,0,0,1-.16-2.49,3.19,3.19,0,0,1,2-2.72,10.48,10.48,0,0,1,2.82-.65,10.21,10.21,0,0,1,6.27,1.7,14.94,14.94,0,0,1,4.13,3.49,6.78,6.78,0,0,1,1.29,6.42c-.11.34-.22.62-.34.9a6.88,6.88,0,0,1-4.17,3.61A13.26,13.26,0,0,1,192.42,277.69Zm-1-3.84h.18a9.4,9.4,0,0,0,3.75-.42,3.1,3.1,0,0,0,1.88-1.59,3.47,3.47,0,0,0,.17-.45,3,3,0,0,0-.6-2.86,11.11,11.11,0,0,0-3.14-2.64l-.19-.12a6.39,6.39,0,0,0-3.84-1.06,5.47,5.47,0,0,0-1.36.27,4.68,4.68,0,0,0,.1,1,4.16,4.16,0,0,0,.44,1.16,1.91,1.91,0,0,1-.88,2.64,4.27,4.27,0,0,0-1,.69,5,5,0,0,0-.65.72,6.16,6.16,0,0,0,.94,1,6.61,6.61,0,0,0,4.18,1.63Z"/><path class="a" d="M191.5,278.18a13,13,0,0,1,4.07-2.55,4.92,4.92,0,0,1,4.7.53l0,0a4.51,4.51,0,0,1,.54.44,5,5,0,0,1,1.54,3.68,11.43,11.43,0,0,1-.91,4.43,8.57,8.57,0,0,1-3.69,4.57,8,8,0,0,1-2.16.92,1.31,1.31,0,0,1-1.3-.42,6.68,6.68,0,0,1-1-1.64,6.52,6.52,0,0,1-.48-1.73,6.18,6.18,0,0,1-1.79.08,6.38,6.38,0,0,1-1.87-.48,1.27,1.27,0,0,1-.79-1.11,7.74,7.74,0,0,1,3.13-6.74Z"/><path d="M195.32,292.15a3.23,3.23,0,0,1-2.44-1.12,8.66,8.66,0,0,1-1.32-2.11c-.07-.16-.14-.32-.2-.49l-.5,0a8.69,8.69,0,0,1-2.42-.61,3.21,3.21,0,0,1-2-2.76,10.21,10.21,0,0,1,.26-2.88,10.06,10.06,0,0,1,3.55-5.43,14.73,14.73,0,0,1,4.6-2.86,6.78,6.78,0,0,1,6.5.76,6.81,6.81,0,0,1,2.9,5.68,13.3,13.3,0,0,1-1,5.09,10.64,10.64,0,0,1-4.48,5.54,10.22,10.22,0,0,1-2.66,1.12A3.06,3.06,0,0,1,195.32,292.15Zm-2.5-7.61a1.9,1.9,0,0,1,1.89,1.68,4.35,4.35,0,0,0,.33,1.19,4.56,4.56,0,0,0,.49.85,5.84,5.84,0,0,0,1.27-.58,6.54,6.54,0,0,0,2.84-3.47,2.09,2.09,0,0,0,.08-.23,9.41,9.41,0,0,0,.76-3.69,3.07,3.07,0,0,0-.93-2.28l-.36-.3a3.08,3.08,0,0,0-2.92-.31,11.11,11.11,0,0,0-3.48,2.17l-.17.14a6.51,6.51,0,0,0-2.2,3.32,7,7,0,0,0-.17,1.38,4.29,4.29,0,0,0,1,.21,4.66,4.66,0,0,0,1.24-.05Zm-2.93-.26Z"/><path class="a" d="M203.8,285.4a13,13,0,0,1-1.16-4.66,4.93,4.93,0,0,1,2-4.31l0,0c.19-.14.39-.26.59-.38a4.91,4.91,0,0,1,4-.32,11.28,11.28,0,0,1,3.94,2.23,8.6,8.6,0,0,1,3.21,4.92,8.43,8.43,0,0,1,.2,2.33,1.28,1.28,0,0,1-.8,1.11,6.39,6.39,0,0,1-1.87.47,6.18,6.18,0,0,1-1.79-.08,6.52,6.52,0,0,1-.48,1.73,7.14,7.14,0,0,1-1,1.63,1.29,1.29,0,0,1-1.31.41,8.13,8.13,0,0,1-2.15-.92A8.4,8.4,0,0,1,203.8,285.4Z"/><path d="M209.57,292.4a3.08,3.08,0,0,1-.8-.1,10,10,0,0,1-2.66-1.14,10.19,10.19,0,0,1-4.07-5.05,14.9,14.9,0,0,1-1.29-5.26,6.78,6.78,0,0,1,2.72-6,9,9,0,0,1,.81-.52,6.86,6.86,0,0,1,5.5-.48,13.46,13.46,0,0,1,4.52,2.55,10.62,10.62,0,0,1,3.88,6,9.84,9.84,0,0,1,.24,2.87,3.21,3.21,0,0,1-2,2.76,8.67,8.67,0,0,1-2.42.6l-.52,0c-.06.15-.12.31-.19.47a8.74,8.74,0,0,1-1.33,2.11A3.19,3.19,0,0,1,209.57,292.4Zm-4-7.59a6.45,6.45,0,0,0,2.48,3.11,6.05,6.05,0,0,0,1.26.59,4.38,4.38,0,0,0,.5-.86,4.8,4.8,0,0,0,.34-1.2,1.83,1.83,0,0,1,.77-1.3,1.92,1.92,0,0,1,1.49-.32,4.13,4.13,0,0,0,1.23.05,4.69,4.69,0,0,0,1-.2,5.79,5.79,0,0,0-.16-1.38,6.65,6.65,0,0,0-2.42-3.78c-.06,0-.14-.1-.19-.15a9.51,9.51,0,0,0-3.28-1.86,3,3,0,0,0-2.45.18,3.54,3.54,0,0,0-.41.26,3,3,0,0,0-1.19,2.67,10.9,10.9,0,0,0,1,4A1.8,1.8,0,0,1,205.61,284.81Z"/><path class="a" d="M214.48,275.93a12.93,12.93,0,0,1-4.8-.34,4.94,4.94,0,0,1-3.49-3.19v0c-.07-.22-.13-.45-.18-.67a5,5,0,0,1,.92-3.88,11.46,11.46,0,0,1,3.34-3.06,8.6,8.6,0,0,1,5.67-1.53,8.16,8.16,0,0,1,2.28.53,1.29,1.29,0,0,1,.81,1.1,6.93,6.93,0,0,1-.13,1.93,6.3,6.3,0,0,1-.63,1.68,6.43,6.43,0,0,1,1.49,1,6.88,6.88,0,0,1,1.23,1.48,1.28,1.28,0,0,1,0,1.37,8,8,0,0,1-1.53,1.76A8.35,8.35,0,0,1,214.48,275.93Z"/><path d="M213,277.92a15.18,15.18,0,0,1-3.77-.49,6.81,6.81,0,0,1-4.83-4.43c-.1-.34-.18-.63-.24-.93a6.84,6.84,0,0,1,1.25-5.37,13.07,13.07,0,0,1,3.82-3.52,10.63,10.63,0,0,1,6.88-1.84,10.08,10.08,0,0,1,2.81.65,3.19,3.19,0,0,1,2,2.72,8.24,8.24,0,0,1-.17,2.49c0,.17-.08.34-.13.51.13.1.27.21.39.32a8.88,8.88,0,0,1,1.6,1.92,3.19,3.19,0,0,1,0,3.39,10.24,10.24,0,0,1-1.9,2.18,10.08,10.08,0,0,1-6.07,2.3A14.67,14.67,0,0,1,213,277.92Zm-5-6.14v0a3.06,3.06,0,0,0,2.17,1.95,10.93,10.93,0,0,0,4.09.29h.22a6.46,6.46,0,0,0,3.73-1.4,6.17,6.17,0,0,0,1-1,4.72,4.72,0,0,0-.67-.74,4.48,4.48,0,0,0-1-.69,1.91,1.91,0,0,1-.84-2.65,4.18,4.18,0,0,0,.44-1.16,4.43,4.43,0,0,0,.1-1,5.88,5.88,0,0,0-1.36-.28,6.63,6.63,0,0,0-4.35,1.14,1.37,1.37,0,0,1-.2.13,9.63,9.63,0,0,0-2.78,2.55,3.08,3.08,0,0,0-.59,2.39A3.74,3.74,0,0,0,208,271.78Z"/><circle class="c" cx="202.68" cy="273.32" r="3.68"/><path d="M202.68,278.89h0a5.57,5.57,0,0,1,0-11.14h0a5.57,5.57,0,0,1,0,11.14Zm0-7.35a1.79,1.79,0,0,0-1.78,1.78,1.79,1.79,0,0,0,1.78,1.78h0a1.79,1.79,0,0,0,1.78-1.78h0a1.78,1.78,0,0,0-1.78-1.78Z"/><path class="a" d="M426.69,182.54a14.8,14.8,0,0,1,5.37-.69,5.59,5.59,0,0,1,4.56,2.75v0a6.67,6.67,0,0,1,.35.71,5.55,5.55,0,0,1-.16,4.48,12.6,12.6,0,0,1-3,4.11,9.64,9.64,0,0,1-5.92,2.95,9.19,9.19,0,0,1-2.63-.08,1.46,1.46,0,0,1-1.14-1,7.7,7.7,0,0,1-.28-2.16,6.91,6.91,0,0,1,.33-2,7,7,0,0,1-1.87-.76,7.61,7.61,0,0,1-1.69-1.37,1.46,1.46,0,0,1-.29-1.51,9.19,9.19,0,0,1,1.31-2.28A9.4,9.4,0,0,1,426.69,182.54Z"/><path d="M426.86,199.07a10.85,10.85,0,0,1-2-.17,3.59,3.59,0,0,1-2.82-2.56,9.89,9.89,0,0,1-.37-2.78c0-.2,0-.39,0-.59q-.25-.12-.51-.27a9.74,9.74,0,0,1-2.18-1.76,3.58,3.58,0,0,1-.72-3.74,11.26,11.26,0,0,1,1.62-2.83,11.42,11.42,0,0,1,6.18-3.89,16.76,16.76,0,0,1,6-.76,7.69,7.69,0,0,1,6.31,3.83l0,.06a8.34,8.34,0,0,1,.44.9,7.73,7.73,0,0,1-.19,6.21,14.63,14.63,0,0,1-3.44,4.72,11.86,11.86,0,0,1-7.19,3.56A10.69,10.69,0,0,1,426.86,199.07Zm-.78-4.31a8.24,8.24,0,0,0,1.57,0,7.48,7.48,0,0,0,4.54-2.22l.19-.19a10.64,10.64,0,0,0,2.51-3.43,3.46,3.46,0,0,0,.12-2.76q-.11-.24-.24-.48a3.44,3.44,0,0,0-2.83-1.69,12.55,12.55,0,0,0-4.59.58l-.23.07a6.58,6.58,0,0,0-4.63,3.7,5.26,5.26,0,0,0,.9.67,4.87,4.87,0,0,0,1.3.53,2.14,2.14,0,0,1,1.51,2.74,4.87,4.87,0,0,0-.22,1.38A4.65,4.65,0,0,0,426.08,194.76Zm-3.9-6.73Z"/><path class="a" d="M435.88,195.71a14.54,14.54,0,0,1,1-5.31,5.56,5.56,0,0,1,4-3.49h0a6.49,6.49,0,0,1,.77-.11,5.63,5.63,0,0,1,4.22,1.53,13,13,0,0,1,3,4.14,9.67,9.67,0,0,1,1,6.54,9.42,9.42,0,0,1-.89,2.48,1.46,1.46,0,0,1-1.34.76,7.59,7.59,0,0,1-2.14-.4,7,7,0,0,1-1.79-.93,7.39,7.39,0,0,1-1.3,1.54,7.62,7.62,0,0,1-1.82,1.19,1.46,1.46,0,0,1-1.53-.19,9.1,9.1,0,0,1-1.77-1.95A9.45,9.45,0,0,1,435.88,195.71Z"/><path d="M440,205.91a3.61,3.61,0,0,1-2.28-.81,11.58,11.58,0,0,1-2.19-2.41,11.38,11.38,0,0,1-1.78-7.09,16.74,16.74,0,0,1,1.14-6,7.67,7.67,0,0,1,5.59-4.82c.39-.07.72-.12,1.06-.15a7.75,7.75,0,0,1,5.85,2.1,14.72,14.72,0,0,1,3.43,4.73,11.91,11.91,0,0,1,1.16,7.93,10.89,10.89,0,0,1-1.1,3.06,3.62,3.62,0,0,1-3.3,1.89,9.7,9.7,0,0,1-2.76-.51l-.55-.21-.41.39a9.69,9.69,0,0,1-2.36,1.54A3.56,3.56,0,0,1,440,205.91Zm-.29-4.21ZM438,196a7.27,7.27,0,0,0,1.07,4.35,7.57,7.57,0,0,0,1,1.19,5,5,0,0,0,.91-.65,4.83,4.83,0,0,0,.91-1.07,2.14,2.14,0,0,1,3.07-.59,5.16,5.16,0,0,0,1.24.64,6.08,6.08,0,0,0,1.08.24,6.64,6.64,0,0,0,.48-1.49,7.52,7.52,0,0,0-.69-5,2.1,2.1,0,0,1-.13-.26,10.6,10.6,0,0,0-2.49-3.44,3.46,3.46,0,0,0-2.59-1,5.24,5.24,0,0,0-.53.08,3.43,3.43,0,0,0-2.48,2.17,12.61,12.61,0,0,0-.86,4.54A2.18,2.18,0,0,1,438,196Z"/><path class="a" d="M451.25,191a14.8,14.8,0,0,1-4.75-2.6,5.57,5.57,0,0,1-2.07-4.9v0a6.53,6.53,0,0,1,.14-.77,5.58,5.58,0,0,1,2.76-3.54,13,13,0,0,1,4.85-1.55,9.61,9.61,0,0,1,6.52,1.1,9.18,9.18,0,0,1,2.09,1.61,1.47,1.47,0,0,1,.31,1.51,7.81,7.81,0,0,1-1.05,1.91,6.8,6.8,0,0,1-1.43,1.41,7.14,7.14,0,0,1,1.06,1.72,7.53,7.53,0,0,1,.57,2.1,1.47,1.47,0,0,1-.65,1.39,9.09,9.09,0,0,1-2.41,1.08A9.37,9.37,0,0,1,451.25,191Z"/><path d="M454.93,193.92a11.82,11.82,0,0,1-4.44-.88,16.71,16.71,0,0,1-5.33-2.94,7.62,7.62,0,0,1-2.85-6.8,7.53,7.53,0,0,1,.18-1.06,7.68,7.68,0,0,1,3.8-4.91,14.71,14.71,0,0,1,5.56-1.8,11.84,11.84,0,0,1,7.9,1.35,11.23,11.23,0,0,1,2.57,2,3.61,3.61,0,0,1,.78,3.73,9.72,9.72,0,0,1-1.34,2.46c-.12.16-.25.32-.37.46l.25.52a10.26,10.26,0,0,1,.73,2.71,3.61,3.61,0,0,1-1.62,3.45,11.61,11.61,0,0,1-3,1.34A10.54,10.54,0,0,1,454.93,193.92Zm-2.79-4.83a7.34,7.34,0,0,0,4.47.33,6.65,6.65,0,0,0,1.44-.6,4.92,4.92,0,0,0-.33-1.07,4.67,4.67,0,0,0-.74-1.19,2.17,2.17,0,0,1-.48-1.64,2.14,2.14,0,0,1,.87-1.47,4.82,4.82,0,0,0,1-1,5.27,5.27,0,0,0,.56-.95,6.32,6.32,0,0,0-1.27-.92,7.47,7.47,0,0,0-5-.88l-.27,0a10.53,10.53,0,0,0-4,1.3,3.41,3.41,0,0,0-1.72,2.17c0,.17-.07.35-.1.53,0,0,0,.09,0,.12a3.4,3.4,0,0,0,1.31,2.9,12.46,12.46,0,0,0,4.06,2.23Zm6,.16h0Z"/><path class="a" d="M451.55,175a14.77,14.77,0,0,1-3.93,3.71,5.56,5.56,0,0,1-5.31.46l0,0a7.49,7.49,0,0,1-.69-.36,5.58,5.58,0,0,1-2.51-3.72,12.63,12.63,0,0,1,0-5.1,9.6,9.6,0,0,1,3.06-5.86,9.2,9.2,0,0,1,2.17-1.48,1.44,1.44,0,0,1,1.53.17,7.39,7.39,0,0,1,1.5,1.58,7,7,0,0,1,.9,1.8,7.31,7.31,0,0,1,2-.48,7.51,7.51,0,0,1,2.17.11,1.46,1.46,0,0,1,1.12,1.05,9,9,0,0,1,.29,2.62A9.45,9.45,0,0,1,451.55,175Z"/><path d="M444.52,181.76a7.38,7.38,0,0,1-3.09-.67,7.66,7.66,0,0,1-4.45-5.63,15,15,0,0,1,0-5.89,11.75,11.75,0,0,1,3.72-7,11.31,11.31,0,0,1,2.69-1.83,3.58,3.58,0,0,1,3.78.41,9.54,9.54,0,0,1,1.93,2l.32.49.57-.07a9.39,9.39,0,0,1,2.8.14,3.57,3.57,0,0,1,2.78,2.61,11.17,11.17,0,0,1,.36,3.23,11.47,11.47,0,0,1-2.72,6.78,17,17,0,0,1-4.44,4.17A7.9,7.9,0,0,1,444.52,181.76Zm-3.29-11.64a2.51,2.51,0,0,1,0,.27,10.67,10.67,0,0,0,0,4.25,3.44,3.44,0,0,0,1.53,2.3,3.67,3.67,0,0,0,.48.26,3.47,3.47,0,0,0,3.28-.3,12.56,12.56,0,0,0,3.36-3.17,1.46,1.46,0,0,1,.16-.19,7.47,7.47,0,0,0,1.69-4.16,7.58,7.58,0,0,0-.13-1.56,5.11,5.11,0,0,0-2.48.32,2.11,2.11,0,0,1-2.83-1.33,5.58,5.58,0,0,0-.63-1.24,5.64,5.64,0,0,0-.73-.83,6.86,6.86,0,0,0-1.27.92A7.47,7.47,0,0,0,441.23,170.12ZM452,167.89Z"/><path class="a" d="M436.37,169.73a14.71,14.71,0,0,1,2.32,4.89,5.57,5.57,0,0,1-1.21,5.19l0,0a7.23,7.23,0,0,1-.56.55,5.65,5.65,0,0,1-4.32,1.24,12.9,12.9,0,0,1-4.84-1.6,9.61,9.61,0,0,1-4.63-4.72,8.86,8.86,0,0,1-.73-2.53,1.44,1.44,0,0,1,.63-1.4,7.52,7.52,0,0,1,2-.93,6.5,6.5,0,0,1,2-.3,7.07,7.07,0,0,1,.15-2,7.28,7.28,0,0,1,.78-2,1.43,1.43,0,0,1,1.34-.75,9.23,9.23,0,0,1,2.58.54A9.35,9.35,0,0,1,436.37,169.73Z"/><path d="M433.31,183.8a7.93,7.93,0,0,1-1-.06,14.86,14.86,0,0,1-5.56-1.81,12,12,0,0,1-5.6-5.74,11.3,11.3,0,0,1-.91-3.12,3.59,3.59,0,0,1,1.56-3.47,9.79,9.79,0,0,1,2.53-1.21l.57-.15c0-.19.07-.37.11-.56a9.53,9.53,0,0,1,1-2.63,3.57,3.57,0,0,1,3.34-1.83,11.18,11.18,0,0,1,3.18.66,11.5,11.5,0,0,1,5.62,4.68,16.69,16.69,0,0,1,2.58,5.51,7.64,7.64,0,0,1-1.69,7.18,8.92,8.92,0,0,1-.77.75A7.67,7.67,0,0,1,433.31,183.8Zm-8.74-10.88a6.85,6.85,0,0,0,.49,1.49,7.45,7.45,0,0,0,3.51,3.64l.24.12a10.71,10.71,0,0,0,4,1.33,3.44,3.44,0,0,0,2.66-.74,3.5,3.5,0,0,0,.39-.38,3.42,3.42,0,0,0,.73-3.21,12.48,12.48,0,0,0-2-4.18l-.14-.21a7.3,7.3,0,0,0-3.42-2.89,7.11,7.11,0,0,0-1.53-.36,5.1,5.1,0,0,0-.36,1.06,5,5,0,0,0-.1,1.39,2.11,2.11,0,0,1-.57,1.61,2.26,2.26,0,0,1-1.57.68h0a4.65,4.65,0,0,0-1.37.22A5.19,5.19,0,0,0,424.57,172.92Zm5.19-5.79h0Z"/><circle class="c" cx="440.32" cy="182.74" r="4.14"/><path d="M440.33,189a6.32,6.32,0,0,1-1.72-.24,6.24,6.24,0,1,1,1.72.24Zm0-8.28a2,2,0,0,0-.54,3.93,2,2,0,0,0,1.53-.18,2,2,0,0,0-1-3.75Z"/><path class="a" d="M591.69,185.44a14.24,14.24,0,0,1,2.52-4.64,5.42,5.42,0,0,1,4.78-2h0c.26,0,.51.08.75.13a5.46,5.46,0,0,1,3.47,2.69,12.52,12.52,0,0,1,1.53,4.73,9.41,9.41,0,0,1-1,6.37,9,9,0,0,1-1.57,2,1.4,1.4,0,0,1-1.46.3,7.21,7.21,0,0,1-1.87-1,6.77,6.77,0,0,1-1.39-1.39,7.07,7.07,0,0,1-1.67,1,7.63,7.63,0,0,1-2,.56,1.41,1.41,0,0,1-1.36-.63,9,9,0,0,1-1.06-2.34A9.17,9.17,0,0,1,591.69,185.44Z"/><path d="M601.17,197.19A3.57,3.57,0,0,1,600,197a9.26,9.26,0,0,1-2.4-1.3l-.45-.36q-.25.13-.51.24a9.34,9.34,0,0,1-2.64.73,3.52,3.52,0,0,1-3.37-1.57,10.61,10.61,0,0,1-.86-10,16.32,16.32,0,0,1,2.84-5.22,7.47,7.47,0,0,1,6.63-2.8,8.85,8.85,0,0,1,1,.17,7.54,7.54,0,0,1,4.82,3.7,14.49,14.49,0,0,1,1.77,5.41,11.64,11.64,0,0,1-1.29,7.73,10.85,10.85,0,0,1-1.93,2.51A3.5,3.5,0,0,1,601.17,197.19Zm-3.74-6.66.25,0a2.07,2.07,0,0,1,1.44.84,4.59,4.59,0,0,0,1,1,4.75,4.75,0,0,0,.93.55,6.27,6.27,0,0,0,.89-1.24,7.21,7.21,0,0,0,.84-4.86c0-.08,0-.18,0-.26a10.43,10.43,0,0,0-1.28-3.94,3.43,3.43,0,0,0-2.12-1.68l-.52-.08a3.34,3.34,0,0,0-2.95,1.27,12.11,12.11,0,0,0-2.15,4l-.09.22a6.45,6.45,0,0,0,.29,5.78,4.67,4.67,0,0,0,1-.33,5,5,0,0,0,1.16-.72A2.11,2.11,0,0,1,597.43,190.53Z"/><path class="a" d="M607.37,185.68a14,14,0,0,1-3.64-3.83,5.42,5.42,0,0,1-.47-5.17l0,0a6.11,6.11,0,0,1,.35-.67,5.47,5.47,0,0,1,3.62-2.47,12.56,12.56,0,0,1,5,0,9.43,9.43,0,0,1,5.73,3,9,9,0,0,1,1.46,2.12,1.41,1.41,0,0,1-.17,1.5,7.43,7.43,0,0,1-1.53,1.46,6.78,6.78,0,0,1-1.76.89,7,7,0,0,1,.48,1.91,7.16,7.16,0,0,1-.11,2.12,1.4,1.4,0,0,1-1,1.1,8.55,8.55,0,0,1-7.94-1.89Z"/><path d="M613,190h-.35a11.07,11.07,0,0,1-6.63-2.63A16.17,16.17,0,0,1,602,183a7.45,7.45,0,0,1-.62-7.17l0-.06c.15-.32.3-.6.46-.87a7.51,7.51,0,0,1,5-3.43,14.58,14.58,0,0,1,5.7,0,11.7,11.7,0,0,1,6.94,3.62,11,11,0,0,1,1.8,2.61,3.55,3.55,0,0,1-.39,3.7,9.31,9.31,0,0,1-2,1.89l-.48.31c0,.18,0,.37.07.56a9.33,9.33,0,0,1-.13,2.74,3.52,3.52,0,0,1-2.53,2.72A11.34,11.34,0,0,1,613,190Zm1.25-3.88h0Zm-5.52-1.93a7.09,7.09,0,0,0,4.06,1.63,6.54,6.54,0,0,0,1.52-.12,5,5,0,0,0,0-1.09,4.8,4.8,0,0,0-.33-1.33,2.11,2.11,0,0,1,0-1.67,2.07,2.07,0,0,1,1.25-1.1,4.79,4.79,0,0,0,1.21-.62,4.92,4.92,0,0,0,.81-.72,6.87,6.87,0,0,0-.91-1.23,7.34,7.34,0,0,0-4.36-2.3l-.26,0a10.36,10.36,0,0,0-4.15,0,3.34,3.34,0,0,0-2.24,1.5,4,4,0,0,0-.24.46l0,0a3.37,3.37,0,0,0,.31,3.17,12.29,12.29,0,0,0,3.11,3.27Z"/><path class="a" d="M612.44,170.85a14.42,14.42,0,0,1-4.77,2.27A5.43,5.43,0,0,1,602.6,172l0,0a5.36,5.36,0,0,1-1.76-4.75,12.53,12.53,0,0,1,1.54-4.73,9.46,9.46,0,0,1,4.59-4.54,8.72,8.72,0,0,1,2.47-.72,1.41,1.41,0,0,1,1.37.61,7.46,7.46,0,0,1,.92,1.92,6.79,6.79,0,0,1,.3,1.94,6.65,6.65,0,0,1,2,.14,7,7,0,0,1,2,.75,1.41,1.41,0,0,1,.74,1.31,8.63,8.63,0,0,1-4.25,7Z"/><path d="M606.17,175.41a7.37,7.37,0,0,1-5-1.9,10.13,10.13,0,0,1-.73-.75,7.51,7.51,0,0,1-1.72-5.81,14.31,14.31,0,0,1,1.8-5.52h0a11.47,11.47,0,0,1,5.53-5.4,11,11,0,0,1,3-.9,3.52,3.52,0,0,1,3.4,1.51,9.81,9.81,0,0,1,1.18,2.47l.15.56a5.3,5.3,0,0,1,.55.1,9.2,9.2,0,0,1,2.57,1,3.52,3.52,0,0,1,1.8,3.25,10.69,10.69,0,0,1-5.19,8.6,16.32,16.32,0,0,1-5.37,2.55A7.94,7.94,0,0,1,606.17,175.41Zm-1.88-12.16c0,.08-.07.16-.12.24a10.51,10.51,0,0,0-1.28,3.94,3.39,3.39,0,0,0,.73,2.6c.12.13.24.26.37.38a3.39,3.39,0,0,0,3.14.7,12.15,12.15,0,0,0,4.07-1.94l.2-.13a7.16,7.16,0,0,0,2.81-3.36,6.61,6.61,0,0,0,.35-1.49,5.44,5.44,0,0,0-1-.35,5.3,5.3,0,0,0-1.37-.09,2.11,2.11,0,0,1-1.57-.55,2.08,2.08,0,0,1-.67-1.53,4.83,4.83,0,0,0-.21-1.35,5.62,5.62,0,0,0-.43-1,6.25,6.25,0,0,0-1.46.48A7.28,7.28,0,0,0,604.29,163.25ZM615,164.38h0Z"/><path class="a" d="M599.89,161.44a14.36,14.36,0,0,1,.7,5.24,5.45,5.45,0,0,1-2.67,4.46l0,0c-.23.12-.45.23-.68.33a5.47,5.47,0,0,1-4.38-.13,12.5,12.5,0,0,1-4-2.93,9.41,9.41,0,0,1-2.89-5.77,8.84,8.84,0,0,1,.07-2.57,1.4,1.4,0,0,1,1-1.11,7.26,7.26,0,0,1,2.1-.28A6.57,6.57,0,0,1,591,159a7.12,7.12,0,0,1,.74-1.82,7.32,7.32,0,0,1,1.33-1.66,1.42,1.42,0,0,1,1.47-.29,9.06,9.06,0,0,1,2.24,1.27A9.18,9.18,0,0,1,599.89,161.44Z"/><path d="M595.21,174a7.84,7.84,0,0,1-3.26-.72,14.49,14.49,0,0,1-4.62-3.33,11.68,11.68,0,0,1-3.49-7,10.87,10.87,0,0,1,.08-3.17,3.51,3.51,0,0,1,2.49-2.77,9.81,9.81,0,0,1,2.71-.36l.58,0,.26-.49a9.35,9.35,0,0,1,1.72-2.14,3.48,3.48,0,0,1,3.64-.71,11,11,0,0,1,2.77,1.56,11.22,11.22,0,0,1,3.82,6,16.39,16.39,0,0,1,.76,5.89A7.48,7.48,0,0,1,599,173a10,10,0,0,1-.94.46A7.12,7.12,0,0,1,595.21,174ZM588,160.89a7.11,7.11,0,0,0,0,1.53,7.3,7.3,0,0,0,2.16,4.41,1.89,1.89,0,0,1,.2.2,10.24,10.24,0,0,0,3.36,2.43,3.29,3.29,0,0,0,2.69.11,4.09,4.09,0,0,0,.47-.23,3.36,3.36,0,0,0,1.64-2.77,12.13,12.13,0,0,0-.59-4.47l-.06-.24a7.08,7.08,0,0,0-2.32-3.7,6.65,6.65,0,0,0-1.31-.8,5,5,0,0,0-.65.88,4.63,4.63,0,0,0-.51,1.27,2.1,2.1,0,0,1-2.67,1.49,4.64,4.64,0,0,0-2.42-.11Zm.06-.45Zm6.5-3.39h0Z"/><path class="a" d="M587.07,170.46a14.53,14.53,0,0,1,5.2,1,5.41,5.41,0,0,1,3.41,3.92v0a6.46,6.46,0,0,1,.11.75,5.46,5.46,0,0,1-1.48,4.13,12.42,12.42,0,0,1-4,2.92,9.41,9.41,0,0,1-6.38,1,8.78,8.78,0,0,1-2.42-.86,1.41,1.41,0,0,1-.75-1.3,7.53,7.53,0,0,1,.39-2.09,6.85,6.85,0,0,1,.89-1.75,7.6,7.6,0,0,1-1.51-1.27,7.53,7.53,0,0,1-1.16-1.77,1.42,1.42,0,0,1,.18-1.49,8.58,8.58,0,0,1,7.54-3.15Z"/><path d="M585.74,186.41a12,12,0,0,1-2.24-.22,11.4,11.4,0,0,1-3-1.06,3.51,3.51,0,0,1-1.86-3.22,9.21,9.21,0,0,1,.49-2.69c.07-.19.13-.37.21-.54a5,5,0,0,1-.39-.41,9.37,9.37,0,0,1-1.51-2.29,3.53,3.53,0,0,1,.45-3.69,10.72,10.72,0,0,1,9.26-3.91,16.46,16.46,0,0,1,5.84,1.09,7.49,7.49,0,0,1,4.72,5.44.5.5,0,0,0,0,.12c0,.26.1.59.13.92a7.56,7.56,0,0,1-2,5.71,14.43,14.43,0,0,1-4.6,3.37A11.64,11.64,0,0,1,585.74,186.41Zm-2.88-4.78a6.91,6.91,0,0,0,1.46.47,7.22,7.22,0,0,0,4.88-.71l.23-.12a10.39,10.39,0,0,0,3.36-2.44,3.32,3.32,0,0,0,.93-2.53,5,5,0,0,0-.07-.52.36.36,0,0,1,0-.1,3.34,3.34,0,0,0-2.11-2.31,11.69,11.69,0,0,0-4.44-.82l-.24,0a7.18,7.18,0,0,0-4.24,1.07,6.08,6.08,0,0,0-1.16,1,5.1,5.1,0,0,0,.63.89,5.17,5.17,0,0,0,1,.88,2.07,2.07,0,0,1,.59,3,5.12,5.12,0,0,0-.85,2.27Zm-1.62-7.42h0Z"/><circle class="c" cx="599.63" cy="174.77" r="4.04"/><path d="M599.64,180.89a5.63,5.63,0,0,1-.71,0,6.06,6.06,0,0,1-4.1-2.27,6.12,6.12,0,1,1,9.59-7.62,6.12,6.12,0,0,1-4.78,9.93Zm0-8.07a2,2,0,0,0-1.94,1.73,1.91,1.91,0,0,0,.41,1.43,1.94,1.94,0,0,0,2.74.32,2,2,0,0,0-1-3.47Z"/><path class="a" d="M557.89,170.6a13.22,13.22,0,0,1,.85-4.8,5,5,0,0,1,3.59-3.17h0a5.62,5.62,0,0,1,.7-.1,5,5,0,0,1,3.81,1.33,11.49,11.49,0,0,1,2.72,3.7,8.7,8.7,0,0,1,.93,5.88,8,8,0,0,1-.78,2.24,1.27,1.27,0,0,1-1.19.69,6.61,6.61,0,0,1-1.93-.34,6.3,6.3,0,0,1-1.62-.81,6.44,6.44,0,0,1-1.16,1.39,6.91,6.91,0,0,1-1.63,1.09,1.29,1.29,0,0,1-1.37-.16,8.16,8.16,0,0,1-1.62-1.74A8.47,8.47,0,0,1,557.89,170.6Z"/><path d="M561.65,179.74a3.21,3.21,0,0,1-2-.71,10.12,10.12,0,0,1-2-2.15,10.24,10.24,0,0,1-1.67-6.36,14.83,14.83,0,0,1,1-5.39,6.92,6.92,0,0,1,11.22-2.7,13.27,13.27,0,0,1,3.13,4.22,10.73,10.73,0,0,1,1.12,7.14,10,10,0,0,1-1,2.76,3.27,3.27,0,0,1-3,1.74,8.9,8.9,0,0,1-2.48-.44l-.5-.19-.37.36a8.46,8.46,0,0,1-2.1,1.4A3.21,3.21,0,0,1,561.65,179.74Zm-.26-3.79h0Zm-1.59-5.15a6.6,6.6,0,0,0,1,3.9,5.85,5.85,0,0,0,.93,1.07,4.8,4.8,0,0,0,.81-.59,4.45,4.45,0,0,0,.81-1,1.93,1.93,0,0,1,2.76-.56,4.49,4.49,0,0,0,2.09.77,5.82,5.82,0,0,0,.43-1.34,6.83,6.83,0,0,0-.68-4.5,2.39,2.39,0,0,1-.12-.22,9.4,9.4,0,0,0-2.27-3.07,3.08,3.08,0,0,0-2.34-.85,4.11,4.11,0,0,0-.47.07,3.13,3.13,0,0,0-2.22,2,11.22,11.22,0,0,0-.73,4.09A1.77,1.77,0,0,1,559.8,170.8Z"/><path class="a" d="M571.68,166.25a13.22,13.22,0,0,1-4.3-2.29,5,5,0,0,1-1.91-4.4v0a5.38,5.38,0,0,1,.12-.7,5,5,0,0,1,2.45-3.21,11.45,11.45,0,0,1,4.35-1.44,8.69,8.69,0,0,1,5.88.92,8.6,8.6,0,0,1,1.89,1.44,1.29,1.29,0,0,1,.29,1.35,6.55,6.55,0,0,1-2.19,3,6.45,6.45,0,0,1,1,1.53,6.69,6.69,0,0,1,.52,1.88,1.3,1.3,0,0,1-.57,1.27,8.34,8.34,0,0,1-2.15,1A8.44,8.44,0,0,1,571.68,166.25Z"/><path d="M574.91,168.81a10.4,10.4,0,0,1-3.9-.76,15.08,15.08,0,0,1-4.83-2.59,6.93,6.93,0,0,1-2.63-6.1,8.16,8.16,0,0,1,.16-1,7,7,0,0,1,3.37-4.46,13.46,13.46,0,0,1,5-1.67,10.76,10.76,0,0,1,7.13,1.14,10.25,10.25,0,0,1,2.33,1.77,3.24,3.24,0,0,1,.74,3.34,8.81,8.81,0,0,1-1.19,2.23q-.17.23-.33.42c.08.15.16.31.23.47a8.88,8.88,0,0,1,.68,2.43,3.24,3.24,0,0,1-1.42,3.11,10.42,10.42,0,0,1-2.67,1.24A9.54,9.54,0,0,1,574.91,168.81Zm-2.45-4.32a6.65,6.65,0,0,0,4,.25,6.42,6.42,0,0,0,1.3-.55,4.31,4.31,0,0,0-.31-1,4.84,4.84,0,0,0-.67-1.07,1.93,1.93,0,0,1-.46-1.47,2,2,0,0,1,.77-1.33,4.13,4.13,0,0,0,.88-.89,4.84,4.84,0,0,0,.5-.86,6.17,6.17,0,0,0-1.15-.82,6.75,6.75,0,0,0-4.47-.75l-.25.05a9.55,9.55,0,0,0-3.63,1.2,3.13,3.13,0,0,0-1.53,2c0,.16-.06.32-.08.48a3.12,3.12,0,0,0,1.2,2.71,11.24,11.24,0,0,0,3.67,2Zm5.39.08h0Zm.94-6.68Z"/><path class="a" d="M571.8,151.79a13.13,13.13,0,0,1-3.51,3.38,5,5,0,0,1-4.77.46h0a6.08,6.08,0,0,1-.62-.33,5,5,0,0,1-2.3-3.32,11.46,11.46,0,0,1,0-4.59,8.64,8.64,0,0,1,2.7-5.3,8.38,8.38,0,0,1,2-1.36,1.31,1.31,0,0,1,1.37.14,6.81,6.81,0,0,1,1.36,1.41,6.18,6.18,0,0,1,.83,1.61,6.78,6.78,0,0,1,1.76-.45,7.24,7.24,0,0,1,2,.08,1.31,1.31,0,0,1,1,.94,8.21,8.21,0,0,1,.28,2.35A8.45,8.45,0,0,1,571.8,151.79Z"/><path d="M565.46,158a6.77,6.77,0,0,1-2.72-.57c-.32-.15-.59-.29-.86-.44a6.93,6.93,0,0,1-3.19-4.59,13.13,13.13,0,0,1-.05-5.26,10.79,10.79,0,0,1,3.28-6.43,10.31,10.31,0,0,1,2.4-1.67,3.24,3.24,0,0,1,3.42.34,8.81,8.81,0,0,1,1.75,1.81c.1.15.2.3.29.45l.51-.08a8.93,8.93,0,0,1,2.53.1,3.25,3.25,0,0,1,2.52,2.32,9.84,9.84,0,0,1-2,9,14.9,14.9,0,0,1-4,3.79A7,7,0,0,1,565.46,158Zm.23-15.32a6.7,6.7,0,0,0-1.14.84,6.78,6.78,0,0,0-2.09,4l0,.26a9.64,9.64,0,0,0,0,3.82,3.14,3.14,0,0,0,1.4,2.06,4.32,4.32,0,0,0,.43.22l.1,0a3.05,3.05,0,0,0,2.85-.35,11.44,11.44,0,0,0,3-2.88,1.15,1.15,0,0,1,.14-.17,6.67,6.67,0,0,0,1.48-3.76,6.09,6.09,0,0,0-.13-1.4,4.27,4.27,0,0,0-1,0,4.21,4.21,0,0,0-1.22.31,1.93,1.93,0,0,1-2.56-1.17,4.23,4.23,0,0,0-.58-1.11A4.6,4.6,0,0,0,565.69,142.64Zm6.42,2.77h0Z"/><path class="a" d="M558.09,147.21a13.3,13.3,0,0,1,2.13,4.38,5,5,0,0,1-1,4.68l0,0a5.75,5.75,0,0,1-.5.49,5,5,0,0,1-3.87,1.16,11.51,11.51,0,0,1-4.38-1.39,8.69,8.69,0,0,1-4.21-4.2,8.37,8.37,0,0,1-.68-2.28,1.28,1.28,0,0,1,.55-1.26,6.79,6.79,0,0,1,1.77-.86,6.08,6.08,0,0,1,1.79-.29,6.25,6.25,0,0,1,.11-1.81,6.68,6.68,0,0,1,.68-1.84,1.33,1.33,0,0,1,1.21-.68,7.94,7.94,0,0,1,6.46,3.88Z"/><path d="M555.38,159.9a7.16,7.16,0,0,1-.8-.05,13.22,13.22,0,0,1-5-1.57,10.81,10.81,0,0,1-5.1-5.12,10.32,10.32,0,0,1-.85-2.8,3.25,3.25,0,0,1,1.38-3.14,8.66,8.66,0,0,1,2.27-1.1c.17-.06.34-.1.51-.15a4,4,0,0,1,.09-.5,8.71,8.71,0,0,1,.87-2.38,3.2,3.2,0,0,1,3-1.68,9.76,9.76,0,0,1,2.87.57,10.3,10.3,0,0,1,5.1,4.16,15.13,15.13,0,0,1,2.38,4.93,6.89,6.89,0,0,1-1.46,6.48,8.71,8.71,0,0,1-.68.68A6.88,6.88,0,0,1,555.38,159.9Zm-7.89-9.71a6.21,6.21,0,0,0,.45,1.34,6.78,6.78,0,0,0,3.2,3.24l.21.1A9.42,9.42,0,0,0,555,156a3.08,3.08,0,0,0,2.39-.69l.34-.34a3.1,3.1,0,0,0,.63-2.9,11.2,11.2,0,0,0-1.81-3.74,1.27,1.27,0,0,1-.13-.19,6.57,6.57,0,0,0-3.11-2.57,6.33,6.33,0,0,0-1.37-.31,4.71,4.71,0,0,0-.32,1,4.83,4.83,0,0,0-.08,1.26,1.92,1.92,0,0,1-1.9,2.07,4.41,4.41,0,0,0-1.24.21A5.15,5.15,0,0,0,547.49,150.19Zm4.62-5.26Z"/><path class="a" d="M549.49,158.83a13.12,13.12,0,0,1,4.82-.67,5,5,0,0,1,4.13,2.43l0,0c.12.21.22.42.32.63a5,5,0,0,1-.1,4A11.6,11.6,0,0,1,556,169a8.7,8.7,0,0,1-5.3,2.7,8,8,0,0,1-2.38-.05,1.3,1.3,0,0,1-1-.92,6.58,6.58,0,0,1-.27-1.94,6.27,6.27,0,0,1,.28-1.79,6.27,6.27,0,0,1-1.69-.67,6.35,6.35,0,0,1-1.53-1.22,1.28,1.28,0,0,1-.28-1.35,7.9,7.9,0,0,1,5.68-4.95Z"/><path d="M549.69,173.71a10.46,10.46,0,0,1-1.67-.14,3.23,3.23,0,0,1-2.56-2.28,8.61,8.61,0,0,1-.35-2.49c0-.18,0-.36,0-.54a5.06,5.06,0,0,1-.46-.24,8.36,8.36,0,0,1-2-1.57,3.22,3.22,0,0,1-.68-3.36,9.83,9.83,0,0,1,7-6.11,15,15,0,0,1,5.43-.74,6.89,6.89,0,0,1,5.71,3.38l0,.06a7.56,7.56,0,0,1,.4.81,6.94,6.94,0,0,1-.11,5.59,13.22,13.22,0,0,1-3,4.28,10.69,10.69,0,0,1-6.44,3.27A10.36,10.36,0,0,1,549.69,173.71Zm-.64-3.88a6.12,6.12,0,0,0,1.42,0,6.67,6.67,0,0,0,4.06-2l.17-.18a9.49,9.49,0,0,0,2.23-3.1A3.14,3.14,0,0,0,557,162a3.48,3.48,0,0,0-.22-.43v0a3.11,3.11,0,0,0-2.55-1.47,11.33,11.33,0,0,0-4.12.57.79.79,0,0,1-.22.06,6.66,6.66,0,0,0-3.4,2.17,6.08,6.08,0,0,0-.73,1.21,4.59,4.59,0,0,0,.82.59,4.7,4.7,0,0,0,1.17.47,1.92,1.92,0,0,1,1.23.92,2,2,0,0,1,.16,1.53,4.36,4.36,0,0,0-.19,1.24A4.89,4.89,0,0,0,549.05,169.83Zm-3.57-6Z"/><circle class="c" cx="561.73" cy="158.95" r="3.72"/><path d="M561.72,164.6a5.68,5.68,0,0,1-5.52-4.5,5.66,5.66,0,1,1,6.69,4.37A5.18,5.18,0,0,1,561.72,164.6Zm0-7.45-.37,0a1.8,1.8,0,0,0-1.39,2.14h0a1.81,1.81,0,0,0,2.13,1.39,1.83,1.83,0,0,0,1.14-.78,1.8,1.8,0,0,0-1.51-2.78Z"/><path class="a" d="M337.56,207.12a15.81,15.81,0,0,1-.44-5.8,6,6,0,0,1,3.21-4.74l0,0a7.35,7.35,0,0,1,.77-.32,6,6,0,0,1,4.81.41,13.73,13.73,0,0,1,4.24,3.47,10.34,10.34,0,0,1,2.83,6.52,9.84,9.84,0,0,1-.24,2.82,1.54,1.54,0,0,1-1.17,1.16,8.11,8.11,0,0,1-2.33.18,7.58,7.58,0,0,1-2.12-.46,7.76,7.76,0,0,1-2.49,3.69,1.53,1.53,0,0,1-1.64.23,10,10,0,0,1-2.38-1.53A10.1,10.1,0,0,1,337.56,207.12Z"/><path d="M343.65,216.69a3.92,3.92,0,0,1-1.57-.33,11.75,11.75,0,0,1-6.77-8.76,18.24,18.24,0,0,1-.48-6.52,8.23,8.23,0,0,1,4.47-6.55,9.21,9.21,0,0,1,1.06-.46,8.33,8.33,0,0,1,6.66.55,15.92,15.92,0,0,1,4.87,4,12.78,12.78,0,0,1,3.41,7.92A12,12,0,0,1,355,210a3.87,3.87,0,0,1-2.9,2.88,10.31,10.31,0,0,1-3,.23l-.63-.07c-.1.18-.21.36-.32.53a10.31,10.31,0,0,1-2,2.25A3.85,3.85,0,0,1,343.65,216.69Zm-3.82-9.91a7.84,7.84,0,0,0,2.32,4.22,8.15,8.15,0,0,0,1.39,1,6.13,6.13,0,0,0,.77-.93,5.27,5.27,0,0,0,.64-1.36,2.33,2.33,0,0,1,1.19-1.4,2.27,2.27,0,0,1,1.84-.07,5.31,5.31,0,0,0,1.47.31,5.87,5.87,0,0,0,1.18,0,8,8,0,0,0-2-6.69,2,2,0,0,1-.2-.21,11.47,11.47,0,0,0-3.54-2.89,3.67,3.67,0,0,0-2.95-.28,4.93,4.93,0,0,0-.53.22,3.72,3.72,0,0,0-2,2.94,13.67,13.67,0,0,0,.37,5A1.22,1.22,0,0,1,339.83,206.78Z"/><path class="a" d="M352.21,198a15.72,15.72,0,0,1-5.65-1.37A6,6,0,0,1,343,192.1v0a8,8,0,0,1-.08-.83,6,6,0,0,1,1.89-4.44,13.65,13.65,0,0,1,4.6-3,10.39,10.39,0,0,1,7.08-.67,9.94,9.94,0,0,1,2.61,1.09,1.58,1.58,0,0,1,.74,1.48,8,8,0,0,1-.55,2.28,7.79,7.79,0,0,1-1.09,1.86,8.15,8.15,0,0,1,1.58,1.49,8.35,8.35,0,0,1,1.16,2,1.55,1.55,0,0,1-.28,1.63,9.48,9.48,0,0,1-8.49,3Z"/><path d="M353.55,200.38a11.56,11.56,0,0,1-1.58-.1,17.86,17.86,0,0,1-6.35-1.57,8.23,8.23,0,0,1-4.85-6.27,9.76,9.76,0,0,1-.1-1.15,8.25,8.25,0,0,1,2.58-6.15,15.8,15.8,0,0,1,5.27-3.42,12.86,12.86,0,0,1,8.58-.8,12.32,12.32,0,0,1,3.22,1.36,3.86,3.86,0,0,1,1.85,3.65,10.56,10.56,0,0,1-.71,2.93c-.08.2-.17.39-.26.58.14.15.27.31.4.47a10,10,0,0,1,1.51,2.61,3.87,3.87,0,0,1-.72,4,12.33,12.33,0,0,1-2.71,2.21A12,12,0,0,1,353.55,200.38Zm-1-4.65a7.93,7.93,0,0,0,4.73-.91,7.65,7.65,0,0,0,1.34-1,5.86,5.86,0,0,0-.64-1,6,6,0,0,0-1.1-1,2.3,2.3,0,0,1-.47-3.33,5,5,0,0,0,.76-1.29,6,6,0,0,0,.32-1.14,7,7,0,0,0-1.57-.61,8.12,8.12,0,0,0-5.42.47l-.26.12a11.35,11.35,0,0,0-3.83,2.47,3.69,3.69,0,0,0-1.19,2.73,5.67,5.67,0,0,0,.05.58,3.71,3.71,0,0,0,2.19,2.78,13.38,13.38,0,0,0,4.83,1.18A1.15,1.15,0,0,1,352.59,195.73Z"/><path class="a" d="M348.06,181.24a15.89,15.89,0,0,1-3.05,4.95,6,6,0,0,1-5.38,1.94h0a7,7,0,0,1-.82-.19,6,6,0,0,1-3.64-3.16,13.8,13.8,0,0,1-1.4-5.3,10.4,10.4,0,0,1,1.55-6.94,9.5,9.5,0,0,1,1.85-2.14,1.54,1.54,0,0,1,1.63-.25,8.22,8.22,0,0,1,2,1.22,8,8,0,0,1,1.44,1.62,8,8,0,0,1,1.9-1,8.22,8.22,0,0,1,2.28-.49,1.57,1.57,0,0,1,1.47.78,9.5,9.5,0,0,1,.22,9Z"/><path d="M340.56,190.51a8.37,8.37,0,0,1-1.31-.11,10,10,0,0,1-1.13-.26,8.3,8.3,0,0,1-5.06-4.35,16.07,16.07,0,0,1-1.62-6.06,12.72,12.72,0,0,1,1.9-8.42,12.22,12.22,0,0,1,2.28-2.65,3.86,3.86,0,0,1,4-.62,10.32,10.32,0,0,1,2.57,1.58l.47.42.57-.23a10.39,10.39,0,0,1,3-.64,3.86,3.86,0,0,1,3.61,1.94,11.72,11.72,0,0,1,.33,11.06,18.26,18.26,0,0,1-3.45,5.56A8.3,8.3,0,0,1,340.56,190.51Zm-2.29-18a7.8,7.8,0,0,0-1.06,1.31,8.05,8.05,0,0,0-1.22,5.3,2.4,2.4,0,0,1,0,.28,11.62,11.62,0,0,0,1.17,4.42,3.7,3.7,0,0,0,2.22,2,3.71,3.71,0,0,0,3.89-1.09,13.32,13.32,0,0,0,2.61-4.22c0-.09.07-.17.11-.25a7.79,7.79,0,0,0,.6-4.78,7.27,7.27,0,0,0-.56-1.58,5.27,5.27,0,0,0-1.17.29,5.85,5.85,0,0,0-1.32.73,2.27,2.27,0,0,1-1.78.42,2.31,2.31,0,0,1-1.53-1,5.41,5.41,0,0,0-1-1.12A5.33,5.33,0,0,0,338.27,172.46Zm8.26,1.3Z"/><path class="a" d="M330.84,180a15.71,15.71,0,0,1,3.76,4.44,6,6,0,0,1,.19,5.72v0a7.26,7.26,0,0,1-.44.72,6,6,0,0,1-4.13,2.49,13.69,13.69,0,0,1-5.47-.31,10.39,10.39,0,0,1-6.12-3.61,10,10,0,0,1-1.47-2.43,1.57,1.57,0,0,1,.27-1.63,8.06,8.06,0,0,1,1.78-1.51,7.18,7.18,0,0,1,2-.87,7.89,7.89,0,0,1-.41-2.13,8.13,8.13,0,0,1,.25-2.32,1.54,1.54,0,0,1,1.19-1.15,9.82,9.82,0,0,1,2.82-.16A10.17,10.17,0,0,1,330.84,180Z"/><path d="M328.21,195.84a16,16,0,0,1-3.95-.5,12.82,12.82,0,0,1-7.41-4.4,12.3,12.3,0,0,1-1.81-3,3.86,3.86,0,0,1,.65-4A10.59,10.59,0,0,1,318,182c.18-.11.36-.22.55-.32,0-.2,0-.4-.05-.61a10.42,10.42,0,0,1,.31-3,3.88,3.88,0,0,1,2.95-2.84,12.56,12.56,0,0,1,3.5-.2,12.35,12.35,0,0,1,7.13,3.3,18,18,0,0,1,4.21,5,8.2,8.2,0,0,1,.24,7.93,8.22,8.22,0,0,1-6.3,4.45A15.09,15.09,0,0,1,328.21,195.84Zm-8.74-9.24a7.44,7.44,0,0,0,.92,1.41,8,8,0,0,0,4.66,2.8l.28.06a11.44,11.44,0,0,0,4.56.26,3.76,3.76,0,0,0,2.56-1.51c.1-.16.2-.32.29-.5a3.69,3.69,0,0,0-.13-3.54,13.4,13.4,0,0,0-3.21-3.79,1.12,1.12,0,0,1-.2-.18,7.89,7.89,0,0,0-4.36-2,7.29,7.29,0,0,0-1.68,0,5.43,5.43,0,0,0-.08,1.2,5.18,5.18,0,0,0,.28,1.48,2.31,2.31,0,0,1-1.58,3,5.17,5.17,0,0,0-1.38.61A5.73,5.73,0,0,0,319.47,186.6Zm-.21-.45h0Z"/><path class="a" d="M324.35,196a15.93,15.93,0,0,1,5.38-2.21,6,6,0,0,1,5.5,1.59l0,0a6.42,6.42,0,0,1,.54.63,6,6,0,0,1,1.09,4.7,13.73,13.73,0,0,1-2,5.11,10.38,10.38,0,0,1-5.33,4.7,9.93,9.93,0,0,1-2.76.65,1.55,1.55,0,0,1-1.46-.76,8.31,8.31,0,0,1-.9-2.16,7.46,7.46,0,0,1-.21-2.16,7.87,7.87,0,0,1-2.15-.27,8.11,8.11,0,0,1-2.13-.95,1.57,1.57,0,0,1-.73-1.49,9.94,9.94,0,0,1,.73-2.74A10.12,10.12,0,0,1,324.35,196Z"/><path d="M326.69,213.5a3.88,3.88,0,0,1-3.31-1.89,10.45,10.45,0,0,1-1.14-2.78c-.05-.21-.1-.42-.14-.62l-.6-.15a10.47,10.47,0,0,1-2.76-1.22,3.89,3.89,0,0,1-1.78-3.69,11.72,11.72,0,0,1,6.23-9.13,17.9,17.9,0,0,1,6.07-2.47,8.17,8.17,0,0,1,7.6,2.22l.05,0a8.4,8.4,0,0,1,.71.81,8.3,8.3,0,0,1,1.54,6.51A15.92,15.92,0,0,1,336.9,207a12.8,12.8,0,0,1-6.48,5.7,12.59,12.59,0,0,1-3.4.8Zm-2.44-9.68a2.32,2.32,0,0,1,1.66.71,2.28,2.28,0,0,1,.63,1.72,5.45,5.45,0,0,0,.57,2.6,7,7,0,0,0,1.63-.44,8.07,8.07,0,0,0,4.1-3.56,2,2,0,0,1,.14-.25,11.36,11.36,0,0,0,1.65-4.25,3.73,3.73,0,0,0-.64-2.91c-.12-.14-.24-.29-.38-.43l0,0h0a3.72,3.72,0,0,0-3.39-1,13.43,13.43,0,0,0-4.6,1.89l-.22.13a7.81,7.81,0,0,0-3.3,3.51,7.23,7.23,0,0,0-.48,1.62,5.48,5.48,0,0,0,2.61.63Zm-3.06-.87Z"/><circle class="c" cx="338.54" cy="192.5" r="4.45"/><path d="M338.55,199.25a6.82,6.82,0,0,1-2.18-.36,6.7,6.7,0,0,1-3.88-3.41h0a6.74,6.74,0,1,1,12.44-.81,6.77,6.77,0,0,1-6.38,4.58Zm0-8.9a2.24,2.24,0,0,0-1,.22,2.15,2.15,0,0,0-1,2.88h0a2.12,2.12,0,0,0,1.24,1.09,2.17,2.17,0,0,0,1.64-.11,2.12,2.12,0,0,0,1.09-1.24,2.17,2.17,0,0,0-.11-1.64,2.13,2.13,0,0,0-1.24-1.08A2.09,2.09,0,0,0,338.54,190.35Z"/><path class="a" d="M13.78,331.46c2.55,1.29,8.27-2.3,10-7.41a11.37,11.37,0,0,0-.63-8.55,11.18,11.18,0,0,0-9-6c-6.32-.46-12.25,5-11.65,8,.5,2.49,5.22,1.63,8.24,5.89C13.4,327.12,11.75,330.43,13.78,331.46Z"/><path d="M15,334.23a5.15,5.15,0,0,1-2.36-.54h0c-2.18-1.11-2.43-3.25-2.61-4.81a7.89,7.89,0,0,0-1.3-4A8.29,8.29,0,0,0,4.46,322c-1.63-.63-3.87-1.49-4.37-4-.37-1.83.39-3.92,2.13-5.89A15.38,15.38,0,0,1,14.37,307a13.62,13.62,0,0,1,11,7.31,13.74,13.74,0,0,1,.77,10.51A15.22,15.22,0,0,1,18,333.58,8.06,8.06,0,0,1,15,334.23ZM5.06,316.86c.31.15.8.34,1.19.49A13.07,13.07,0,0,1,12.82,322,12.66,12.66,0,0,1,15,328.29c0,.3.08.68.13.94,1.3-.07,5-2.21,6.33-6a8.94,8.94,0,0,0-.5-6.59A8.72,8.72,0,0,0,14,312a10.45,10.45,0,0,0-7.39,2.78A5.6,5.6,0,0,0,5.06,316.86Z"/><path class="d" d="M25,305.16a7.63,7.63,0,0,1,1.73.51A7.2,7.2,0,0,1,31,311a7.33,7.33,0,0,1,.14,1.8c-.18,5-4.9,8.51-8.57,10.64a8.59,8.59,0,0,1-1-4.18c.06-1.77.74-3.74-.44-5.2s-3.33-1.21-5-1.52A7,7,0,0,1,13,311C15.87,308,20.22,304.32,25,305.16Z"/><path d="M22.58,326a2.57,2.57,0,0,1-.72-.11,2.44,2.44,0,0,1-1.51-1.27,11.09,11.09,0,0,1-1.27-5.36c0-.57.08-1.09.14-1.59a3.93,3.93,0,0,0,0-2c-.23-.28-1.13-.37-1.93-.44a15.08,15.08,0,0,1-1.58-.19,9.54,9.54,0,0,1-4.26-2,2.51,2.51,0,0,1-.25-3.64c4.84-5.22,9.63-7.46,14.21-6.64h0a10.61,10.61,0,0,1,2.26.67,9.75,9.75,0,0,1,5.81,7.2,10.14,10.14,0,0,1,.18,2.35c-.17,4.76-3.47,9-9.82,12.71A2.52,2.52,0,0,1,22.58,326Zm-5.09-15.75.23,0c1.51.14,3.81.35,5.37,2.28s1.29,4.11,1.1,5.71a11.45,11.45,0,0,0-.11,1.15v.13c3-2.21,4.49-4.47,4.57-6.76a5.07,5.07,0,0,0-.09-1.24A4.73,4.73,0,0,0,25.71,308a4.91,4.91,0,0,0-1.19-.34h0C22.41,307.25,20.06,308.12,17.49,310.22Z"/><path class="a" d="M229.14,171.45c.34,2.83,6.5,5.61,11.73,4.25a11.42,11.42,0,0,0,6.77-5.27,11.19,11.19,0,0,0,0-10.8c-3.12-5.51-11-7.4-13.12-5.25-1.8,1.79,1.53,5.24-.34,10.12C232.54,168.73,228.87,169.18,229.14,171.45Z"/><path d="M238,178.55a15.25,15.25,0,0,1-8.28-2.4,6.4,6.4,0,0,1-3.06-4.41h0c-.29-2.42,1.35-3.82,2.56-4.84a8,8,0,0,0,2.61-3.29,8.3,8.3,0,0,0,0-5.15c-.38-1.71-.9-4.05.9-5.85,1.31-1.31,3.47-1.85,6.08-1.49a15.41,15.41,0,0,1,11,7.28A13.48,13.48,0,0,1,238,178.55Zm-6.26-7.22c.79,1,4.63,3,8.5,1.95a9,9,0,0,0,5.21-4.06,8.71,8.71,0,0,0,0-8.36,10.34,10.34,0,0,0-6.41-4.61,5.52,5.52,0,0,0-2.57-.15c0,.34.16.85.25,1.26a13.09,13.09,0,0,1-.21,8,12.64,12.64,0,0,1-4.05,5.32C232.22,170.9,231.94,171.15,231.74,171.33Z"/><path class="d" d="M257.22,166.18a7.81,7.81,0,0,1,.54,1.72,7.21,7.21,0,0,1-2.07,6.57,8,8,0,0,1-1.42,1.12c-4.23,2.6-9.8.63-13.6-1.25a8.55,8.55,0,0,1,2.92-3.14c1.5-.93,3.53-1.46,4.09-3.25s-.84-3.44-1.51-5a7.12,7.12,0,0,1-.46-3.46C249.86,160.17,255.3,161.77,257.22,166.18Z"/><path d="M249.56,179.34a23.05,23.05,0,0,1-10-2.76,2.51,2.51,0,0,1-1.07-3.48,11.15,11.15,0,0,1,3.77-4c.48-.3.94-.53,1.39-.76.72-.37,1.54-.78,1.64-1.12s-.32-1.15-.7-1.85a15.68,15.68,0,0,1-.72-1.42,9.66,9.66,0,0,1-.65-4.68,2.49,2.49,0,0,1,2.89-2.22c7,1.13,11.54,3.88,13.4,8.15h0a10,10,0,0,1,.7,2.26,9.72,9.72,0,0,1-2.77,8.82,9.56,9.56,0,0,1-1.86,1.45A11.2,11.2,0,0,1,249.56,179.34Zm-4.77-6c3.48,1.24,6.21,1.27,8.17.07a6.16,6.16,0,0,0,1-.77,4.71,4.71,0,0,0,1.36-4.32,5.64,5.64,0,0,0-.37-1.19h0c-.85-1.95-2.88-3.43-6.06-4.4l.11.19c.73,1.34,1.83,3.37,1.08,5.74s-2.7,3.35-4.14,4.08c-.35.17-.7.35-1,.54A.41.41,0,0,1,244.79,173.39Z"/><path class="a" d="M33.38,251.5c-1.66.77-1.38,6.78,1.39,11.32a11.36,11.36,0,0,0,6,5.38c5,1.66,9.33-1.38,10-1.87,4.82-3.34,6.93-9.92,5.36-11.42-1-.93-2.64.82-5.64-.06s-3-3-5.27-3.15c-2.51-.22-3.17,2.33-5.95,2.41C36.13,254.21,34.72,250.88,33.38,251.5Z"/><path d="M43.84,271.19a12,12,0,0,1-3.81-.61,14,14,0,0,1-7.39-6.45c-2.34-3.84-3.39-9.1-2.44-12.23a4.09,4.09,0,0,1,2.13-2.67h0c2-.93,3.63.4,4.6,1.19a3.69,3.69,0,0,0,2.34,1.19c.56,0,.91-.25,1.63-.8a6.39,6.39,0,0,1,4.61-1.61,6.09,6.09,0,0,1,3.94,2.05,4,4,0,0,0,1.82,1.2,4.42,4.42,0,0,0,2.51-.07,4.15,4.15,0,0,1,4.16.72,4.79,4.79,0,0,1,1.26,4.06c-.27,3.37-2.73,8.31-6.92,11.22A15.31,15.31,0,0,1,43.84,271.19Zm-9-16a15,15,0,0,0,2,6.37,9,9,0,0,0,4.71,4.31c3.39,1.14,6.6-.71,7.82-1.55a12.33,12.33,0,0,0,4.69-6.86,8.75,8.75,0,0,1-4.26-.17A8.9,8.9,0,0,1,46,254.82c-.63-.61-.68-.62-.87-.63s-.39,0-1.18.62a7.08,7.08,0,0,1-9,.34Z"/><path class="d" d="M46.42,276.38a7.46,7.46,0,0,1-1.5.79,6.8,6.8,0,0,1-6.47-.79,7.72,7.72,0,0,1-1.28-1.13c-3.14-3.48-2.27-9-1.18-12.85a8.07,8.07,0,0,1,3.42,2.17c1.13,1.24,2,3,3.72,3.24s3.06-1.37,4.39-2.25a6.64,6.64,0,0,1,3.13-1C50.74,268.5,50.19,273.84,46.42,276.38Z"/><path d="M42.41,280.14a9.34,9.34,0,0,1-5.4-1.72,9.46,9.46,0,0,1-1.69-1.49c-3-3.38-3.63-8.49-1.73-15.21A2.5,2.5,0,0,1,36.81,260a10.68,10.68,0,0,1,4.44,2.85c.34.37.65.77,1,1.18s.95,1.24,1.23,1.27,1-.53,1.49-.94.77-.62,1.21-.92a9.23,9.23,0,0,1,4.3-1.43,2.5,2.5,0,0,1,2.71,2.44c.16,6.78-1.64,11.48-5.33,14h0a9.9,9.9,0,0,1-2,1.05A9.32,9.32,0,0,1,42.41,280.14Zm4-3.76h0Zm-8.75-10c-.48,3.25,0,5.66,1.36,7.19a4.51,4.51,0,0,0,5,1.27,4.84,4.84,0,0,0,1-.54h0c1.58-1.06,2.57-3.05,3-5.94a6.8,6.8,0,0,1-5.15,1.94c-2.36-.29-3.65-2-4.59-3.21C38.05,266.85,37.87,266.6,37.67,266.38Z"/><path class="d" d="M328.46,240.26a4.74,4.74,0,0,1-.3-1.19,4.92,4.92,0,0,1,1.65-4.41,5.19,5.19,0,0,1,1-.7c3-1.62,6.7-.06,9.23,1.36a5.86,5.86,0,0,1-2.11,2c-1.06.58-2.46.86-2.92,2.06s.45,2.38.84,3.47a4.84,4.84,0,0,1,.19,2.38C333.25,244.64,329.6,243.34,328.46,240.26Z"/><path d="M336.06,247.76a2.48,2.48,0,0,1-.54-.06c-5-1.1-8.2-3.31-9.41-6.57a7.92,7.92,0,0,1-.43-1.74,7.41,7.41,0,0,1,2.49-6.61,7.75,7.75,0,0,1,1.46-1c3.12-1.69,7-1.22,11.66,1.38a2.49,2.49,0,0,1,.87,3.53,8.47,8.47,0,0,1-3,2.87c-.34.19-.69.34-1.05.5l-.63.29a6,6,0,0,0,.28.63,10.92,10.92,0,0,1,.46,1.08,7.26,7.26,0,0,1,.31,3.6,2.52,2.52,0,0,1-1.06,1.68A2.48,2.48,0,0,1,336.06,247.76Zm-2.37-12a3.43,3.43,0,0,0-1.67.38,3.06,3.06,0,0,0-.55.38,2.44,2.44,0,0,0-.84,2.21,3.34,3.34,0,0,0,.17.65h0a4,4,0,0,0,1.76,1.94,4.62,4.62,0,0,1,.14-2.8,4.82,4.82,0,0,1,2.39-2.59A6.3,6.3,0,0,0,333.69,235.77Z"/><path class="a" d="M336.06,245.26a4.84,4.84,0,0,0-.19-2.38c-.39-1.09-1.3-2.24-.84-3.47s1.86-1.48,2.92-2.06a5.86,5.86,0,0,0,2.11-2c.76.42,1.41.83,1.9,1.14a21.48,21.48,0,0,1,3.94,3.27,21,21,0,0,1,2.87,3.7,1,1,0,0,1-.57,1.51,22.13,22.13,0,0,1-4.6.91,21.42,21.42,0,0,1-5.11-.15C337.87,245.6,337,245.47,336.06,245.26Z"/><path d="M341.66,248.44a21.68,21.68,0,0,1-3.58-.28H338c-.64-.1-1.51-.24-2.48-.45a2.5,2.5,0,0,1-1.93-2.83,2.24,2.24,0,0,0-.08-1.16c-.07-.19-.17-.39-.27-.61a5,5,0,0,1,2.86-7.64c.22-.1.45-.19.65-.3A3.43,3.43,0,0,0,338,234a2.49,2.49,0,0,1,3.31-.84c.8.45,1.47.87,2,1.22a24.37,24.37,0,0,1,4.41,3.65,24,24,0,0,1,3.19,4.12,3.45,3.45,0,0,1,.32,3.09,3.5,3.5,0,0,1-2.3,2.13,24.53,24.53,0,0,1-5.09,1C343.05,248.41,342.32,248.44,341.66,248.44Zm5-3.7v0Zm-8.12-1.57.25,0,.11,0a19.42,19.42,0,0,0,6.6-.17,20,20,0,0,0-4.86-4.49l-.05,0a8,8,0,0,1-1.41,1c-.34.19-.69.34-1.05.5l-.63.29a6,6,0,0,0,.28.63,10.92,10.92,0,0,1,.46,1.08A7.54,7.54,0,0,1,338.52,243.17Zm8.94-.62h0Z"/><circle class="e" cx="702.52" cy="0.5" r="0.5"/></svg>